<?xml version="1.0" encoding="UTF-8"?>
<svg width="159px" height="35px" viewBox="0 0 159 35" version="1.1" xmlns="http://www.w3.org/2000/svg" xmlns:xlink="http://www.w3.org/1999/xlink">
    <title>waffles/full</title>
    <g id="Logos" stroke="none" stroke-width="1" fill="none" fill-rule="evenodd">
        <g id="Waffles-Full" transform="translate(-22.000000, -32.000000)">
            <g id="Group" transform="translate(22.000000, 32.000000)">
                <g id="Group" transform="translate(-7.000000, -7.000000)">
                    <path d="M28.137,32.26 L28.1371237,41.130568 C28.1371237,41.1722932 28.1385954,41.2136747 28.1414897,41.2546635 C26.8724942,41.5489763 25.5477255,41.704281 24.1859649,41.704281 C22.8156196,41.704281 21.482734,41.547012 20.2050554,41.2498766 L20.2107023,41.130568 L20.21,32.26 L28.137,32.26 Z M39.6262671,32.2610082 C37.9635207,35.5866417 35.2162568,38.29624 31.8365292,39.9465298 L31.836,32.26 Z M16.511,32.26 L16.5112927,39.9347349 C13.142609,38.2833455 10.4044538,35.5787309 8.74566268,32.2610082 L16.511,32.26 Z M40.8671038,20.7811444 C41.1969108,22.0848339 41.3719298,23.4484453 41.3719298,24.8521405 C41.3719298,26.145192 41.2234145,27.4042297 40.942198,28.6137466 L40.8417949,28.6086957 L31.836,28.608 L31.836,20.782 L40.8417949,20.7826087 L40.8417949,20.7826087 Z M16.511,20.782 L16.511,28.608 L7.50603119,28.6086957 C7.48012115,28.6086957 7.45434366,28.6092631 7.42871045,28.6103863 C7.14843313,27.403533 7,26.1448342 7,24.8521405 C7,23.4488055 7.1749292,22.0855337 7.50457219,20.782148 L16.511,20.782 Z M28.137,20.782 L28.137,28.608 L20.21,28.608 L20.21,20.782 L28.137,20.782 Z M16.5112927,9.76954613 L16.511,17.13 L8.90631252,17.1302668 C10.5783235,13.9554875 13.2491747,11.3686951 16.5112927,9.76954613 Z M24.1859649,8 C25.545937,8 26.8690143,8.154897 28.1378495,8.44768066 L28.137,17.13 L20.21,17.13 L20.2100584,8.4532417 C21.3844811,8.18048571 22.6055182,8.02589551 23.8593915,8.00298169 Z M31.8365292,9.75775124 C35.1095961,11.3559596 37.7894893,13.9476701 39.4656173,17.1302668 L31.836,17.13 Z" id="Combined-Shape" fill="#03EF62" transform="translate(24.185965, 24.852141) rotate(-45.000000) translate(-24.185965, -24.852141) "></path>
                    <path d="M59.5989454,35.0841842 L63.5151658,23.2636654 L67.3954577,35.0841842 L71.8506076,35.0841842 L78.0303317,16.5450119 L73.2877527,16.5450119 L69.587104,28.2218161 L65.7068122,16.5450119 L61.2875909,16.5450119 L57.407299,28.1858875 L53.7425789,16.5450119 L49,16.5450119 L55.1437954,35.0841842 L59.5989454,35.0841842 Z M86.0124888,35.2997559 C88.2041351,35.2997559 90.144281,34.2937543 91.5454975,32.6769661 L91.5454975,35.0841842 L91.5454975,35.0841842 L96.2880765,35.0841842 L96.2880765,16.5450119 L91.5454975,16.5450119 L91.5454975,18.95223 C90.144281,17.3354418 88.2041351,16.3294402 86.0124888,16.3294402 L85.9765601,16.3294402 C81.5932675,16.3294402 78.1441192,20.5690183 78.1441192,25.8145981 C78.1441192,31.0961064 81.5932675,35.2997559 85.9765601,35.2997559 L86.0124888,35.2997559 Z M87.2699907,30.557177 L87.2340621,30.557177 C84.7549868,30.557177 82.8866981,28.4733165 82.8866981,25.8145981 C82.8866981,23.1558796 84.7190581,21.0720191 87.2340621,21.0720191 L87.2699907,21.0720191 C89.6412802,21.0720191 91.5454975,23.1918082 91.5454975,25.8145981 C91.5454975,28.4373879 89.6412802,30.557177 87.2699907,30.557177 Z M105.887022,35.0841842 L105.887022,20.6768042 L112.569747,20.6768042 L112.569747,35.0841842 L117.312326,35.0841842 L117.312326,20.6768042 L124.210622,20.6768042 L124.210622,35.0841842 L128.953201,35.0841842 L128.953201,9.21557177 L124.210622,9.21557177 L124.210622,16.5450119 L117.312326,16.5450119 L117.312326,15.3593672 C117.312326,13.8503648 118.462042,13.347364 119.755472,13.347364 C120.653688,13.347364 121.192617,13.5629358 121.408189,13.6707217 L121.408189,9.46707217 C121.012974,9.32335765 119.935115,9 118.354256,9 C114.83325,9 112.569747,11.6587185 112.569747,15.3234386 L112.569747,16.5450119 L105.887022,16.5450119 L105.887022,15.3593672 C105.887022,13.8503648 107.072667,13.347364 108.330169,13.347364 C109.228384,13.347364 109.767314,13.5629358 109.982885,13.6707217 L109.982885,9.46707217 C109.587671,9.32335765 108.509812,9 106.928952,9 C103.407946,9 101.144443,11.6587185 101.144443,15.3234386 L101.144443,16.5450119 L98.4857244,16.5450119 L98.4857244,20.6768042 L101.144443,20.6768042 L101.144443,35.0841842 L105.887022,35.0841842 Z M140.959365,35.2997559 C146.887588,35.2997559 148.93552,30.557177 149.115163,29.012246 L144.372584,29.012246 C144.049227,29.9823189 142.863582,31.0961064 140.959365,31.0961064 C138.19286,31.0961064 136.827572,29.4074609 136.504215,27.1439573 L149.366664,27.1439573 C149.402592,26.784671 149.438521,26.2816702 149.438521,25.7427408 C149.438521,20.5690183 145.666015,16.3294402 140.81565,16.3294402 C135.713785,16.3294402 131.65385,20.4612324 131.65385,25.8145981 C131.65385,31.2757496 135.605999,35.2997559 140.959365,35.2997559 Z M144.767799,23.7666662 L136.647929,23.7666662 C137.186859,21.8624489 138.516218,20.5330897 140.81565,20.5330897 C143.007296,20.5330897 144.264798,21.8983776 144.767799,23.7666662 Z M158.282965,35.2997559 C162.3429,35.2997559 165.468691,33.072181 165.468691,29.2637464 C165.468691,26.6409565 163.672259,24.6289533 160.007539,23.7666662 L157.528464,23.1918082 C156.558391,22.9762364 156.05539,22.5091642 156.05539,21.7546631 C156.05539,20.7845901 156.917677,20.1378748 158.282965,20.1378748 C158.92968,20.1378748 159.432681,20.3534465 159.863825,20.7127328 C160.366826,21.1438764 160.582397,21.7905917 160.582397,22.4013784 L164.821975,22.4013784 C164.821975,19.4193022 162.271043,16.3294402 158.282965,16.3294402 C154.258959,16.3294402 151.384668,18.5929438 151.384668,21.8265203 C151.384668,24.4852388 152.857742,26.4613134 156.306891,27.2876718 L158.606323,27.8625299 C160.043468,28.1858875 160.797969,28.6170311 160.797969,29.5511754 C160.797969,30.6290342 159.684182,31.2398209 158.282965,31.2398209 C157.456607,31.2398209 156.738034,30.9523919 156.235033,30.5212484 C155.660175,30.0541762 155.336818,29.4793181 155.336818,28.8326028 L151.025382,28.8326028 C151.025382,31.8506076 153.540386,35.2997559 158.282965,35.2997559 Z" id="wafes" fill="#FFFFFF"></path>
                </g>
            </g>
        </g>
    </g>
</svg>