<svg xmlns="http://www.w3.org/2000/svg" width="34" height="34"><title>Waffles</title><g transform="translate(-8 -8)" fill-rule="nonzero" fill="none"><circle cx="25" cy="25" r="17" fill="#FFF"/><path fill="#3AC" d="M32.75 27.579l6.336 6.335c.08.081.168.152.26.214a17.028 17.028 0 01-2.325 2.893 17.06 17.06 0 01-2.894 2.325 1.644 1.644 0 00-.213-.26l-6.336-6.336 5.171-5.171zm-8 8l5.571 5.57a17.071 17.071 0 01-11.014-.126l5.443-5.445zm16.273-16.272a17.071 17.071 0 01.127 11.014l-5.572-5.57zM10.477 33.844l.084-.076 6.188-6.19 5.172 5.172-6.189 6.19a1.75 1.75 0 00-.173.2 17.025 17.025 0 01-2.58-2.12 17.043 17.043 0 01-2.502-3.176zM24.75 19.58l5.172 5.171-5.171 5.171-5.172-5.171 5.171-5.171zm9.1-9.1c1.129.69 2.195 1.523 3.172 2.5.8.8 1.502 1.658 2.109 2.563l-6.38 6.38-5.173-5.172zM8.85 19.68l5.071 5.07-5.19 5.192a17.075 17.075 0 01.12-10.262zm4.13-6.7a17.06 17.06 0 012.893-2.325c.06.092.132.18.213.26l5.835 5.836-5.172 5.171-5.835-5.835a1.745 1.745 0 00-.26-.214 17.028 17.028 0 012.325-2.893zm6.699-4.129a17.075 17.075 0 0110.262-.12l-5.192 5.192z"/></g></svg>
