<svg xmlns="http://www.w3.org/2000/svg" xmlns:xlink="http://www.w3.org/1999/xlink" width="151" height="35"><title>Waffles</title><defs><path id="a" d="M17.116 28.66l5.427 5.426a17.091 17.091 0 01-10.917.065l5.49-5.492zM9 20.542l5.533 5.534-6.367 6.368a1.766 1.766 0 00-.053.056 16.601 16.601 0 01-2.96-2.354 16.579 16.579 0 01-2.522-3.235L9 20.543zm16.337-.104l6.272 6.272c.03.03.06.058.09.085a17.495 17.495 0 01-2.478 3.114c-.97.97-2.023 1.8-3.136 2.494l-.08-.088-6.274-6.272 5.606-5.605zm119.76-9.884c1.174 0 2.244.192 3.209.576.965.384 1.769.888 2.412 1.514l-.932 1.464a1.09 1.09 0 01-.349.37.913.913 0 01-.466.107c-.2 0-.413-.055-.64-.165-.227-.11-.49-.233-.79-.37-.3-.137-.64-.26-1.023-.37a4.95 4.95 0 00-1.355-.164c-.81 0-1.447.17-1.913.51-.466.34-.698.784-.698 1.332 0 .362.119.666.357.913s.554.464.948.65c.394.186.84.354 1.339.502.499.148 1.009.31 1.53.485.521.176 1.031.376 1.53.6.5.225.945.51 1.339.856s.71.76.948 1.242c.238.483.358 1.064.358 1.744 0 .812-.15 1.56-.45 2.246a4.94 4.94 0 01-1.313 1.776c-.577.5-1.29.889-2.138 1.168-.848.28-1.82.42-2.918.42a9.39 9.39 0 01-1.722-.156c-.56-.104-1.097-.25-1.613-.436a8.973 8.973 0 01-1.43-.658 6.94 6.94 0 01-1.156-.823l.948-1.546c.122-.187.266-.33.432-.428.167-.099.377-.148.632-.148s.496.071.724.214c.227.142.49.296.79.46a7.1 7.1 0 001.056.461c.404.143.917.214 1.538.214.488 0 .907-.058 1.256-.173.35-.115.637-.266.865-.452a1.7 1.7 0 00.499-.65 1.93 1.93 0 00.158-.765c0-.395-.12-.719-.358-.97a3.13 3.13 0 00-.948-.659 9.219 9.219 0 00-1.347-.502c-.505-.148-1.02-.31-1.547-.485a14.4 14.4 0 01-1.547-.617 5.275 5.275 0 01-1.347-.896 4.058 4.058 0 01-.948-1.333c-.238-.527-.357-1.163-.357-1.908 0-.691.138-1.35.416-1.975a4.634 4.634 0 011.222-1.637c.538-.466 1.208-.839 2.012-1.118.804-.28 1.733-.42 2.786-.42zm-16.699 0c1.076 0 2.065.17 2.969.51.903.34 1.682.837 2.337 1.49.654.652 1.164 1.452 1.53 2.401.366.949.548 2.032.548 3.25 0 .306-.013.561-.041.764a1.215 1.215 0 01-.15.477.604.604 0 01-.29.247c-.123.05-.278.074-.467.074H124.29c.122 1.733.593 3.005 1.414 3.817.82.811 1.907 1.217 3.26 1.217.665 0 1.239-.076 1.72-.23a8.122 8.122 0 001.265-.51c.36-.186.676-.356.948-.51.272-.154.535-.23.79-.23.166 0 .31.033.432.098a.952.952 0 01.316.28l1.198 1.48a6.825 6.825 0 01-1.53 1.325 8.62 8.62 0 01-1.772.856 9.769 9.769 0 01-1.879.452c-.638.088-1.256.132-1.854.132-1.187 0-2.29-.195-3.31-.584a7.416 7.416 0 01-2.661-1.728c-.754-.762-1.347-1.705-1.78-2.83-.432-1.124-.648-2.426-.648-3.907 0-1.151.188-2.235.565-3.249a7.798 7.798 0 011.622-2.649c.704-.751 1.563-1.346 2.578-1.785 1.014-.438 2.159-.658 3.434-.658zm-50.992-.082c.998 0 1.887.162 2.669.485a5.676 5.676 0 011.987 1.35 5.761 5.761 0 011.24 2.064c.282.8.424 1.678.424 2.632v10.66H81.88c-.389 0-.693-.057-.915-.172-.222-.115-.388-.348-.5-.7l-.365-1.2c-.433.384-.857.721-1.272 1.012-.416.29-.846.534-1.29.732a6.626 6.626 0 01-1.413.444 8.595 8.595 0 01-1.663.148c-.72 0-1.386-.096-1.996-.288a4.316 4.316 0 01-1.572-.864 3.923 3.923 0 01-1.022-1.43c-.244-.571-.366-1.235-.366-1.991 0-.637.169-1.264.507-1.884.338-.62.9-1.18 1.688-1.678.787-.5 1.835-.913 3.143-1.242 1.309-.33 2.933-.516 4.873-.56v-.987c0-1.13-.24-1.966-.723-2.509-.482-.543-1.184-.814-2.104-.814-.665 0-1.22.077-1.663.23a6.468 6.468 0 00-1.156.519c-.327.191-.63.364-.906.518-.278.153-.583.23-.915.23-.277 0-.516-.071-.715-.214a1.69 1.69 0 01-.483-.526l-.748-1.3c1.962-1.777 4.33-2.665 7.102-2.665zm39.583-7.156v24.447h-4.108V3.317h4.108zm-61.005 7.436c.3 0 .549.07.749.214.2.142.332.323.399.542l2.794 9.213c.144.472.274.93.39 1.374.117.444.23.891.342 1.34.077-.47.163-.942.257-1.414.095-.472.214-.96.358-1.464l2.528-9.016c.055-.219.188-.4.4-.543.21-.142.454-.213.73-.213h3.111l-5.405 16.879h-3.31c-.355 0-.61-.241-.765-.724l-3.077-9.756c-.1-.318-.191-.639-.274-.962a12.463 12.463 0 01-.208-.963c-.067.33-.139.656-.216.98-.078.323-.167.65-.266.978l-3.11 9.723c-.156.483-.455.724-.899.724H47.37l-5.405-16.88h3.26c.31 0 .57.072.781.214.21.143.344.324.4.543l2.444 9.016c.133.493.241.976.325 1.448.083.471.163.943.24 1.414.123-.471.253-.943.392-1.414.138-.472.285-.955.44-1.448l2.828-9.049c.066-.219.2-.4.399-.542.2-.143.432-.214.698-.214h1.813zM94.87 3.465c.787 0 1.519.104 2.195.312l-.083 2.04c-.022.318-.172.516-.45.592a3.63 3.63 0 01-.964.116c-.488 0-.923.052-1.305.156a2.204 2.204 0 00-.973.543c-.266.258-.469.598-.607 1.02-.139.422-.208.946-.208 1.57v1.12h4.44v2.895h-4.307v13.836h-4.108v-13.82l-1.48-.23c-.322-.055-.58-.164-.774-.329-.194-.164-.29-.395-.29-.69v-1.662h2.544v-1.25c0-.966.147-1.832.44-2.6a5.399 5.399 0 011.265-1.958 5.495 5.495 0 012.004-1.234c.787-.285 1.674-.427 2.66-.427zm12.324 0c.787 0 1.519.104 2.195.312l-.083 2.04c-.022.318-.172.516-.45.592a3.63 3.63 0 01-.964.116c-.488 0-.923.052-1.305.156a2.204 2.204 0 00-.973.543c-.266.258-.469.598-.607 1.02-.139.422-.208.946-.208 1.57v1.12h4.44v2.895h-4.307v13.836h-4.108v-13.82l-1.48-.23c-.322-.055-.58-.164-.774-.329-.194-.164-.29-.395-.29-.69v-1.662h2.544v-1.25c0-.966.147-1.832.44-2.6a5.399 5.399 0 011.265-1.958 5.495 5.495 0 012.004-1.234c.787-.285 1.674-.427 2.66-.427zM79.717 20.459c-1.197.055-2.198.156-3.002.304-.803.148-1.45.338-1.937.568-.488.23-.835.499-1.04.806a1.77 1.77 0 00-.307 1.004c0 .713.213 1.223.64 1.53.427.307.984.46 1.671.46.422 0 .81-.038 1.165-.115.354-.077.69-.192 1.006-.345.316-.154.62-.343.915-.568.293-.225.59-.49.89-.798V20.46zM17.22 12.322l5.534 5.534-5.605 5.605-5.534-5.533 5.605-5.606zm-16.007.434l5.204 5.205-5.377 5.377a17.103 17.103 0 01.173-10.582zm32.248-.44c1.176 3.526 1.15 7.385-.073 10.942l-5.436-5.435 5.51-5.508zm95.02 1.151c-1.197 0-2.134.335-2.81 1.004-.677.669-1.11 1.617-1.298 2.846h7.717c0-.527-.072-1.023-.216-1.49a3.423 3.423 0 00-.665-1.225 3.146 3.146 0 00-1.131-.83c-.455-.203-.987-.305-1.597-.305zM8.5 3.6l6.14 6.14-5.606 5.605L2.897 9.21A17.536 17.536 0 015.16 6.31l.228-.233A17.56 17.56 0 018.5 3.6zm17.722-.28a16.579 16.579 0 013.236 2.522c.914.914 1.7 1.91 2.356 2.964l-.075.067-6.368 6.368-5.534-5.534 6.368-6.368.017-.019zM22.65 1.73l-5.395 5.394-5.213-5.213a17.104 17.104 0 0110.608-.181z"/></defs><g fill="none" fill-rule="evenodd"><mask id="b" fill="#fff"><use xlink:href="#a"/></mask><use fill="#3D4251" xlink:href="#a"/><g fill="#FFF" mask="url(#b)"><path d="M0 0h152v36H0z"/></g></g></svg>
