<svg width="18" height="18" viewBox="0 0 18 18" xmlns="http://www.w3.org/2000/svg"><path d="M2.76 6.617c.8-1.392 2.251-2.27 3.787-2.293h.047c.66 0 1.284.247 1.835.465.412.164.767.305 1.041.305.244 0 .598-.14 1.007-.301.593-.234 1.331-.525 2.102-.525.099 0 .197.005.292.014.656.029 2.285.263 3.349 1.819a.147.147 0 0 1-.042.207l-.015.009c-.309.191-1.849 1.245-1.829 3.236.021 2.451 2.048 3.35 2.279 3.445l.01.004c.07.032.103.11.08.181l-.006.016a9.925 9.925 0 0 1-1.24 2.538c-.71 1.038-1.515 2.215-2.827 2.24-.614.011-1.029-.17-1.432-.344-.409-.177-.831-.36-1.494-.36-.696 0-1.14.19-1.57.373-.382.162-.777.33-1.325.353L6.743 18c-1.165 0-2.015-1.09-2.855-2.305-1.683-2.43-2.65-6.437-1.129-9.078zM12.871 0a.148.148 0 0 1 .153.131c.108.984-.249 2.082-.954 2.938-.67.81-1.651 1.313-2.561 1.313-.064 0-.128-.002-.19-.007a.147.147 0 0 1-.136-.128c-.145-1.104.408-2.198.975-2.855C10.826.61 11.942.038 12.872 0z" fill-rule="nonzero" /></svg>