<svg width="22" height="18" viewBox="0 0 22 18" xmlns="http://www.w3.org/2000/svg"><path d="M19.991.002c.334.002.661.103.939.29.277.187.494.451.621.761.128.309.162.649.097.977-.065.328-.225.63-.46.868l-6.09 6.114 6.09 6.115c.272.326.412.742.393 1.166-.019.424-.196.826-.497 1.126-.3.3-.702.477-1.126.496-.424.019-.84-.121-1.166-.394l-7.3-7.3c-.316-.318-.493-.749-.493-1.197 0-.448.177-.879.493-1.197l7.3-7.299c.312-.33.743-.52 1.197-.528l.001.002zM8.991.002c.335.002.661.103.939.29.278.187.494.451.621.761.128.309.162.649.097.977-.065.328-.225.63-.46.868l-6.09 6.114 6.09 6.115c.272.326.412.742.393 1.166-.019.424-.196.826-.496 1.126-.3.3-.702.477-1.126.496-.424.019-.84-.121-1.166-.394l-7.3-7.3c-.316-.318-.493-.749-.493-1.197 0-.448.177-.879.493-1.197l7.3-7.299c.312-.33.743-.52 1.197-.528l.001.002z"/></svg>
