<svg xmlns="http://www.w3.org/2000/svg" width="18" height="18" viewBox="0 0 18 18"><path d="M8.4 15.1l-4.8-3.6h-2.2v-4.4h2.2l4.8-3.6v11.6zm.7-13c.5.2.8.7.8 1.2v11.9c0 .5-.3 1-.8 1.2-.5.2-1 .2-1.4-.1l-4.5-3.4h-1.8c-.8 0-1.4-.6-1.4-1.4v-4.4c0-.8.6-1.4 1.4-1.4h1.8l4.5-3.4c.4-.3.9-.4 1.4-.2zm4.9 13.4c-.3-.3-.3-.8 0-1.2 3.1-3.2 3.1-7.1-.1-10.2-.2-.4-.1-.9.3-1.2.3-.1.6-.2.8 0 2 1.9 3 4 3 6.3 0 2.2-1 4.4-2.8 6.3-.3.3-.8.3-1.2 0zm-2.2-2.2c-.3-.3-.3-.8 0-1.2 1.9-1.9 1.9-3.9 0-5.8-.3-.3-.3-.9 0-1.2.3-.3.8-.3 1.2 0 2.6 2.6 2.6 5.5.1 8.1-.5.4-1 .4-1.3.1z" fill-rule="nonzero"/></svg>