<svg width="18" height="18" viewBox="0 0 18 18" xmlns="http://www.w3.org/2000/svg"><path d="M12.595 13.364c.01-.111.02-.197.028-.251.058-.405.372-.702.74-.702h1.257c1.035-.002 1.875-.934 1.88-2.082V4.764c-.001-1.155-.842-2.092-1.878-2.094H3.38c-1.034.002-1.873.931-1.88 2.076v5.565c.001 1.156.842 2.092 1.878 2.094h6.626c.292 0 .557.189.68.484.408.977 1.07 1.576 1.94 1.85a6.004 6.004 0 0 1-.03-1.375zm1.51 1.119c.048.314.136.521.235.606.566.487.258 1.497-.458 1.497-1.87 0-3.423-.785-4.33-2.51H3.376C1.513 14.07.004 12.39 0 10.311V4.74C.014 2.673 1.52 1.004 3.378 1h11.245c1.864.004 3.373 1.686 3.377 3.763v5.57c-.01 2.07-1.518 3.744-3.378 3.748h-.551c.004.138.016.273.035.402zm-8.423-5.81a1.114 1.114 0 1 0 0-2.229 1.114 1.114 0 0 0 0 2.229zm3.268 0a1.114 1.114 0 1 0 0-2.229 1.114 1.114 0 0 0 0 2.229zm3.318 0a1.114 1.114 0 1 0 0-2.229 1.114 1.114 0 0 0 0 2.229z" fill-rule="nonzero" /></svg>