<svg width="18" height="18" viewBox="0 0 18 18" xmlns="http://www.w3.org/2000/svg"><path d="M14.143 10.286h-1.286v-2.571h1.286c2.13 0 3.857-1.727 3.857-3.857s-1.727-3.857-3.857-3.857-3.857 1.727-3.857 3.857v1.286h-2.571v-1.286c0-2.13-1.727-3.857-3.857-3.857s-3.857 1.727-3.857 3.857 1.727 3.857 3.857 3.857h1.286v2.571h-1.286c-2.13 0-3.857 1.727-3.857 3.857s1.727 3.857 3.857 3.857 3.857-1.727 3.857-3.857v-1.286h2.571v1.286c0 2.13 1.727 3.857 3.857 3.857s3.857-1.727 3.857-3.857-1.727-3.857-3.857-3.857zm0-7.714c.71 0 1.286.576 1.286 1.286 0 .71-.576 1.286-1.286 1.286h-1.286v-1.286c0-.71.576-1.286 1.286-1.286zm-11.571 1.286c0-.71.576-1.286 1.286-1.286.71 0 1.286.576 1.286 1.286v1.286h-1.286c-.71 0-1.286-.576-1.286-1.286zm1.286 11.571c-.71 0-1.286-.576-1.286-1.286 0-.71.576-1.286 1.286-1.286h1.286v1.286c0 .71-.576 1.286-1.286 1.286zm3.857-5.143v-2.571h2.571v2.571h-2.571zm6.429 5.143c-.71 0-1.286-.576-1.286-1.286v-1.286h1.286c.71 0 1.286.576 1.286 1.286 0 .71-.576 1.286-1.286 1.286z"/></svg>