<svg width="18" height="18" viewBox="0 0 18 18" xmlns="http://www.w3.org/2000/svg"><path d="M8.183 1.798c-.607 0-1.098.492-1.098 1.098v6.922c0 .606.491 1.098 1.098 1.098h6.921c.606 0 1.099-.492 1.099-1.098V2.896a1.1 1.1 0 0 0-1.099-1.098H8.183zm6.921 10.916H8.183a2.898 2.898 0 0 1-2.896-2.896V2.896A2.9 2.9 0 0 1 8.183 0h6.921a2.9 2.9 0 0 1 2.897 2.896v6.922a2.9 2.9 0 0 1-2.897 2.896zM9.818 18H2.896A2.9 2.9 0 0 1 0 15.104V8.182a2.9 2.9 0 0 1 2.896-2.896.899.899 0 0 1 0 1.798 1.1 1.1 0 0 0-1.098 1.098v6.922a1.1 1.1 0 0 0 1.098 1.098h6.922c.606 0 1.098-.492 1.098-1.098a.898.898 0 0 1 1.798 0A2.9 2.9 0 0 1 9.818 18z"  fill-rule="evenodd"/></svg>