<svg width="18" height="18" viewBox="0 0 18 18" xmlns="http://www.w3.org/2000/svg"><path d="M2.912 3.615c-.73 0-1.324.604-1.324 1.347v8.076c0 .743.594 1.347 1.324 1.347h12.176c.73 0 1.324-.604 1.324-1.347V4.962c0-.743-.594-1.347-1.324-1.347H2.912zm0 12.385C1.306 16 0 14.671 0 13.038V4.962C0 3.329 1.306 2 2.912 2h12.176C16.694 2 18 3.329 18 4.962v8.076C18 14.671 16.694 16 15.088 16H2.912zM6 14.38c-.014 0 0-10.765 0-10.765h1.5V14.38a30.472 30.472 0 0 0-.75 0c-.503.01-.736 0-.75 0zm3.818-6.158c-.452 0-.818-.348-.818-.778 0-.429.366-.777.818-.777h4.364c.452 0 .818.348.818.777 0 .43-.366.778-.818.778H9.818zm0 3.111c-.452 0-.818-.348-.818-.777 0-.43.366-.778.818-.778h4.364c.452 0 .818.348.818.778 0 .429-.366.777-.818.777H9.818z"  fill-rule="evenodd"/></svg>
