<svg height="24" viewBox="0 0 24 24" width="24" xmlns="http://www.w3.org/2000/svg"><path d="m17.6477143 15.8740909c-1.0838572 1.8586364-4.545 3.2195455-8.6477143 3.2195455-4.10271429 0-7.56385714-1.3609091-8.649-3.2195455-.22885714-.3954545-.351-.1840909-.351.0095455v2.73c0 2.6454545 4.02942857 5.3863636 9 5.3863636 4.9705714 0 9-2.7409091 9-5.385 0 0 0-2.5336364 0-2.73 0-.195-.1234286-.4063636-.3522857-.0109091zm.0141428-6.97636363c-1.0671428 1.64318183-4.5411428 2.85000003-8.6618571 2.85000003-4.12071429 0-7.596-1.2068182-8.66314286-2.85000003-.21985714-.33818182-.33685714-.15409091-.33685714-.00272727v3.2140909c0 2.4027273 4.02942857 4.3486364 9 4.3486364 4.9705714 0 9-1.9472728 9-4.3486364 0 0 0-3.05999999 0-3.2140909 0-.15136364-.1182857-.33545455-.3381429.00272727zm-8.6618571-8.89772727c-4.97057143 0-9 1.60909091-9 3.59045455v1.71818181c0 2.10136364 4.02942857 3.80590909 9 3.80590909 4.9705714 0 9-1.70454545 9-3.80590909v-1.71818181c0-1.98136364-4.0294286-3.59045455-9-3.59045455z" transform="translate(3)"/></svg>
