<svg xmlns="http://www.w3.org/2000/svg" width="24" height="24" viewBox="0 0 24 24">
  <path d="M20.4889129,2 L3.51234469,2 C1.57172124,2 0,3.70185714 0,5.8 L0,17.2 C0,19.2981429 1.57172124,21 3.51234469,21 L20.4874995,21 C21.4203556,21 22.313636,20.5996429 22.972289,19.8871429 C23.643394,19.1410215 24.008657,18.1858283 23.9998442,17.2 L23.9998442,5.8 C23.9998442,3.70185714 22.4281229,2 20.4889129,2 Z M1.73709119,5.8 C1.73709119,4.74007143 2.53143233,3.87964286 3.51234469,3.87964286 L9.05718501,3.87964286 L9.05718501,19.1095 L3.51234469,19.1095 C2.53143233,19.1095 1.73709119,18.2504286 1.73709119,17.1905 L1.73709119,5.8 Z M10.7476334,3.87964286 L20.4889129,3.87964286 C21.4684118,3.87964286 22.262753,4.74007143 22.262753,5.8 L22.262753,17.2 C22.262753,18.2599286 21.4684118,19.1203571 20.4889129,19.1203571 L10.7476334,19.1203571 L10.7476334,3.87964286 Z"/>
  <rect width="8" height="2" x="13" y="5" rx=".98"/>
  <rect width="8" height="2" x="13" y="16" rx=".98"/>
  <rect width="3" height="2" x="13" y="9" rx=".98"/>
  <rect width="3" height="2" x="2" y="5" rx=".98"/>
</svg>
