<?xml version="1.0" encoding="UTF-8"?>
<svg width="24px" height="24px" viewBox="0 0 24 24" version="1.1" xmlns="http://www.w3.org/2000/svg" xmlns:xlink="http://www.w3.org/1999/xlink">
    <!-- Generator: Sketch 51.3 (57544) - http://www.bohemiancoding.com/sketch -->
    <title>professional</title>
    <desc>Created with Sketch.</desc>
    <defs></defs>
    <g id="Page-1" stroke="none" stroke-width="1" fill="none" fill-rule="evenodd">
        <g id="Icon" fill="#33AACC" fill-rule="nonzero">
            <g id="professional">
                <path d="M1.5,1.5 L1.5,22.5 L11.25,22.5 L11.25,1.5 L1.5,1.5 Z M12.75,6 L22.5,6 C23.3284271,6 24,6.67157288 24,7.5 L24,22.5 C24,23.3284271 23.3284271,24 22.5,24 L1.5,24 C0.671572875,24 1.01453063e-16,23.3284271 0,22.5 L0,1.5 C-1.01453063e-16,0.671572875 0.671572875,1.52179594e-16 1.5,0 L11.25,0 C12.0784271,5.07265313e-17 12.75,0.671572875 12.75,1.5 L12.75,6 Z M12.75,7.5 L12.75,22.5 L22.5,22.5 L22.5,7.5 L12.75,7.5 Z M3.75,3.75 L5.25,3.75 L5.25,8.25 L3.75,8.25 L3.75,3.75 Z M7.5,3.75 L9,3.75 L9,8.25 L7.5,8.25 L7.5,3.75 Z M3.75,9.75 L5.25,9.75 L5.25,14.25 L3.75,14.25 L3.75,9.75 Z M15,9.75 L16.5,9.75 L16.5,14.25 L15,14.25 L15,9.75 Z M7.5,9.75 L9,9.75 L9,14.25 L7.5,14.25 L7.5,9.75 Z M18.75,9.75 L20.25,9.75 L20.25,14.25 L18.75,14.25 L18.75,9.75 Z M3.75,15.75 L5.25,15.75 L5.25,20.25 L3.75,20.25 L3.75,15.75 Z M15,15.75 L16.5,15.75 L16.5,20.25 L15,20.25 L15,15.75 Z M7.5,15.75 L9,15.75 L9,20.25 L7.5,20.25 L7.5,15.75 Z M18.75,15.75 L20.25,15.75 L20.25,20.25 L18.75,20.25 L18.75,15.75 Z" id="Shape"></path>
            </g>
        </g>
    </g>
</svg>