<?xml version="1.0" encoding="UTF-8"?>
<svg width="24px" height="24px" viewBox="0 0 24 24" version="1.1" xmlns="http://www.w3.org/2000/svg" xmlns:xlink="http://www.w3.org/1999/xlink">
    <!-- Generator: Sketch 51.3 (57544) - http://www.bohemiancoding.com/sketch -->
    <title>Icon</title>
    <desc>Created with Sketch.</desc>
    <defs></defs>
    <g id="Icon" stroke="none" stroke-width="1" fill="none" fill-rule="evenodd">
        <rect id="Rectangle" fill="#FFFFFF" fill-rule="nonzero" x="6" y="3" width="12" height="16"></rect>
        <g>
            <rect id="bounds" x="0" y="0" width="23" height="23"></rect>
            <path d="M17.0652995,13.0403347 C17.2505773,13.3520818 17.3042439,13.3520818 16.9592439,13.6689394 C17.2237439,13.8976391 17.2237439,14.0854539 16.8276328,14.2630475 C16.8365773,14.8980404 16.9656328,15.4640401 16.1529661,15.5125909 C15.3402995,15.5624193 14.3091328,15.0232503 14.0420773,16.477218 C13.7750217,17.9311857 13.8440217,17.3856284 13.7647995,17.7510368 L8.0250217,17.7510368 C8.73929948,15.8013402 9.34496614,13.6472193 8.0250217,12.5893237 C6.70635503,11.531428 4.53796614,7.09286574 8.8070217,4.81864559 C9.28874392,4.56311524 9.80368836,4.37146748 10.3352439,4.24881291 L10.156355,3.77352645 L10.2112995,3.75180637 C10.2304661,3.74158515 12.0474661,3.0516532 13.6216884,3.81568896 L13.6727995,3.84124199 L13.4849661,4.26925533 C14.4982439,4.4953997 15.2546884,4.86591871 15.5332439,5.03967935 C16.1682995,5.4357514 17.0141884,6.05541251 17.0921328,6.64696528 C17.1726328,7.2397957 16.4059661,6.94082518 16.4059661,6.94082518 C16.8812995,8.08687882 16.9081328,8.90713126 16.6960217,9.77976741 C16.4851884,10.6524036 17.6747995,11.5467598 17.6466884,12.1868633 C17.5674661,12.4768903 17.0116328,12.5854907 17.0116328,12.5854907 C17.0116328,12.5854907 16.8800217,12.7298653 17.0652995,13.0403347 Z M12.2084661,0.0402279784 C12.0523721,-0.0134093261 11.8828379,-0.0134093261 11.7267439,0.0402279784 L1.77029948,3.54354913 C1.447444,3.65538862 1.24487703,3.97564616 1.28218836,4.3152508 L2.68518836,17.5772762 C2.71074392,17.8174747 2.8500217,18.0282872 3.05957725,18.1445535 L11.7229106,22.908917 C11.9459779,23.0317109 12.2167274,23.0302606 12.4384661,22.905084 L20.8845773,18.1394429 C21.0874564,18.0248185 21.2243346,17.8211788 21.253855,17.5900527 L22.8689661,4.32674966 C22.9099802,3.98400995 22.7084832,3.65846524 22.3834106,3.54227148 L12.2084661,0.0402279784 Z M11.0357113,8.44468607 C10.8557156,8.14506958 10.8557156,7.7706024 11.0357113,7.47098591 C11.215707,7.17136942 11.5463315,6.99548695 11.8954106,7.01365133 C12.3978492,7.0397958 12.7918257,7.45476715 12.7918257,7.95783599 C12.7918257,8.46090483 12.3978492,8.87587618 11.8954106,8.90202065 C11.5463315,8.92018503 11.215707,8.74430256 11.0357113,8.44468607 Z M15.8424661,7.08903279 C15.4846884,5.68617115 14.3142439,5.05628882 14.3142439,5.05628882 L14.1149106,5.33226161 C13.8670217,5.0780089 13.2664661,4.80842438 13.2242995,4.79053726 L13.3801884,4.36891217 C13.3424723,4.34115421 13.316671,4.32825481 13.2894661,4.31908375 C12.3860773,3.98306134 11.5555217,3.97922838 10.4246884,4.30375193 L10.9587995,5.7219454 C10.1985217,5.96469923 9.63757725,6.63291111 9.57879948,6.70829256 L8.83768836,6.18445534 C8.42879948,6.71979143 8.13746614,7.68825147 8.13746614,8.43312245 L7.1855217,8.43312245 C7.19446614,9.10261198 7.31585503,10.2703857 8.11829948,11.2388457 L8.82363281,10.7035096 C9.47146614,11.6438613 10.8207995,12.3261274 11.9452439,12.2111387 L11.9286328,10.2563315 L11.9439661,10.2818846 C12.2289106,10.3649319 12.8166884,10.1873383 13.0735217,9.98546935 L13.6101884,10.6945661 C14.1826328,10.5080289 14.6157995,9.42458022 14.6605217,9.30831391 L15.5102439,9.59706321 C15.7375959,8.81440653 15.7451111,7.98427693 15.5319661,7.19763319 L15.8424661,7.08903279 Z" id="ico--datacamp" fill-rule="nonzero"></path>
        </g>
    </g>
</svg>