<svg width="18" height="17" viewBox="0 0 18 17" xmlns="http://www.w3.org/2000/svg"><path d="M14.676 5.511c.431.451.431 1.16 0 1.611l-4.785 4.785c-.219.221-.516.346-.828.346-.311 0-.609-.125-.828-.346l-4.784-4.785c-.358-.279-.522-.741-.419-1.184.103-.442.455-.785.9-.877.445-.092.903.084 1.173.45l2.731 2.731v-7.019c0-.676.547-1.223 1.223-1.223s1.223.547 1.223 1.223v7.019l2.74-2.731c.219-.221.516-.346.828-.346.311 0 .609.125.828.346h-.001zm-13.175 8.489h15c.828 0 1.5.672 1.5 1.5s-.672 1.5-1.5 1.5h-15c-.828 0-1.5-.672-1.5-1.5s.672-1.5 1.5-1.5z"/></svg>