<svg height="24" viewBox="0 0 24 24" width="24" xmlns="http://www.w3.org/2000/svg"><g transform="translate(0.000000, 3.000000)" fill-rule="nonzero"><path d="m3.96355046 11.6501587c.55679304 2.2251682 1.26478419 3.1986053 3.62635467 4.2182273 2.36277046 1.0184378 3.48475647 2.131614 4.41114487 2.131614.9251884 0 1.9775753-.9734371 4.3391457-1.9942433 2.3627705-1.0196221 1.7315784-1.3298903 2.2883714-3.5550585l-6.6275171 3.1808418zm19.45055684-5.80509546-9.9898751-5.52088028c-.7823902-.43224395-2.0639742-.43224395-2.8463644 0l-9.99107513 5.52088028c-.78239023.43224395-.78239023 1.14041349 0 1.57265745l9.98987513 5.52088031c.7823902.4322439 2.0639742.4322439 2.8463644 0l6.4583193-3.56926927-7.0031125-1.61884241c-.2699966.06513265-.5663929.10184378-.877189.10184378-1.2623842 0-2.28477145-.59922038-2.28477145-1.33936414 0-.74251221 1.02358725-1.34173259 2.28477145-1.34173259.9791877 0 1.8119773.36355861 2.1359733.86922482l7.4183073 2.40280268 1.8587767-1.02672741c.7811903-.43105973.7811903-1.13922927 0-1.57147322zm-3.0527618 10.46148786c-.077999.4559285 1.5395807 1.2055461 1.6931788-.1267126.6947913-6.0064146-.4991937-7.73420617-.4991937-7.73420617l-1.6739791.92488363c0-.00118423 1.4195822 1.33225874.479994 6.93603514z"></path></g></svg>