<svg xmlns="http://www.w3.org/2000/svg" xmlns:xlink="http://www.w3.org/1999/xlink" width="12" height="12" viewBox="0 0 12 12">
    <path id="a" d="M.635 2.932c0 .999.333 1.719.99 2.142.538.347 1.162.4 1.487.4.079 0 .142-.005.186-.007 0 0-.102.67.395 1.333H3.67C2.809 6.8 0 6.98 0 9.29c0 2.35 2.58 2.469 3.097 2.469.041 0 .065-.002.065-.002.006 0 .042.002.106.002.332 0 1.19-.042 1.987-.43 1.035-.5 1.56-1.375 1.56-2.595 0-1.179-.8-1.88-1.383-2.394-.356-.313-.664-.583-.664-.845 0-.268.225-.469.509-.723.46-.411.894-.997.894-2.105 0-.973-.126-1.627-.904-2.042.08-.042.368-.072.51-.092C6.198.476 6.815.41 6.815.066V0H3.742C3.712.001.635.115.635 2.932zm4.96 6.022c.059.94-.745 1.632-1.952 1.72-1.226.09-2.235-.462-2.294-1.4-.029-.452.17-.893.558-1.245.393-.356.934-.577 1.522-.62.07-.004.138-.008.207-.008 1.135 0 1.903.667 1.959 1.553zM4.792 2.29c.302 1.06-.153 2.169-.879 2.374a.947.947 0 0 1-.256.035c-.665 0-1.323-.673-1.567-1.6-.136-.518-.125-.973.031-1.41.153-.431.43-.72.777-.819a.952.952 0 0 1 .258-.035c.801 0 1.317.333 1.636 1.455zm5.204 2.254V2.54H8.659v2.004H6.655V5.88H8.66v2.005h1.337V5.879H12V4.543H9.996z"/>
</svg>
