<svg width="18" height="18" viewBox="0 0 18 18" xmlns="http://www.w3.org/2000/svg"><path d="M9.915 11.345A5.629 5.629 0 0 0 5.797 9.55h-.161A5.644 5.644 0 0 0 0 15.186v1.84a.847.847 0 1 0 1.695 0v-1.84a3.975 3.975 0 0 1 3.974-3.974h.162a3.975 3.975 0 0 1 3.974 3.974v1.822c0 .469.38.848.848.848a.847.847 0 0 0 .78-.83v-1.84a5.628 5.628 0 0 0-.413-2.112c.055-.193.121-.382.2-.566a2.703 2.703 0 0 1 2.288-1.483h.12a2.678 2.678 0 0 1 2.677 2.678v1.34a.847.847 0 0 0 1.695.016v-1.356a4.347 4.347 0 0 0-4.322-4.339h-.119a4.322 4.322 0 0 0-3.644 1.98zM5.763 8.78a3.89 3.89 0 1 1 3.89-3.89 3.898 3.898 0 0 1-3.89 3.89zm0-6.119A2.229 2.229 0 1 0 7.992 4.89a2.229 2.229 0 0 0-2.23-2.204v-.025zm7.864 5.958a3.068 3.068 0 1 1 0-6.136 3.068 3.068 0 0 1 0 6.136zm0-4.466a1.398 1.398 0 1 0 1.398 1.398 1.407 1.407 0 0 0-1.398-1.365v-.033z" fill-rule="nonzero" /></svg>