<svg width="18" height="18" viewBox="0 0 18 18" xmlns="http://www.w3.org/2000/svg"><path d="M9 0a9 9 0 1 0 0 18A9 9 0 0 0 9 0zm.9 13.42a1 1 0 0 1-.55.55c-.13.054-.27.08-.41.08a1.08 1.08 0 0 1-.42-.05 1 1 0 0 1-.52-.58 1.09 1.09 0 0 1 0-.82 1 1 0 0 1 .22-.33c.082-.108.184-.2.3-.27a1 1 0 0 1 .41 0 1 1 0 0 1 .41.08c.122.053.234.127.33.22a1 1 0 0 1 .22 1.15l.01-.03zm1.85-6.29a2.52 2.52 0 0 1-.38.66 2.86 2.86 0 0 1-.5.49l-.51.39c-.147.1-.288.21-.42.33a.71.71 0 0 0-.21.4l-.16 1H8.41l-.12-1.09a.91.91 0 0 1 .09-.57 1.74 1.74 0 0 1 .36-.45 4.68 4.68 0 0 1 .5-.39 4.59 4.59 0 0 0 .52-.41 2.17 2.17 0 0 0 .4-.5 1.3 1.3 0 0 0 .16-.66 1 1 0 0 0-.09-.45 1 1 0 0 0-.23-.34 1.16 1.16 0 0 0-.4-.22 1.59 1.59 0 0 0-.5-.08 2.23 2.23 0 0 0-.66.09 2.48 2.48 0 0 0-.46.19l-.32.19a.44.44 0 0 1-.23.09.38.38 0 0 1-.43-.2l-.45-.71a4.85 4.85 0 0 1 .51-.39A3.71 3.71 0 0 1 8.41 4a4 4 0 0 1 .82-.08 3.42 3.42 0 0 1 1.09.08c.308.1.594.26.84.47a2.1 2.1 0 0 1 .54.74c.135.316.2.657.19 1a2.46 2.46 0 0 1-.14.92z" fill-rule="evenodd"/></svg>