<svg height="24" viewBox="0 0 24 24" width="24" xmlns="http://www.w3.org/2000/svg"><path d="m18.2287997 18.6666667c-2.775248-6.8093334-6.0146207-8.604-6.0146207-12.00000003v-4h.6785448c.3745567 0 .6785447-.29866667.6785447-.66666667v-1.33333333c0-.368-.303988-.66666667-.6785447-.66666667h-6.78544758c-.37455671 0-.67854476.29866667-.67854476.66666667v1.33333333c0 .368.30398805.66666667.67854476.66666667h.67854475v4c0 3.39600003-3.23937266 5.19066663-6.01462071 12.00000003-.88346528 2.1666666-3.15251894 5.3333333 8.72879974 5.3333333 11.8813187 0 9.612265-3.1666667 8.7287997-5.3333333zm-2.1944137 2.3346666c-.9526768.28-2.8485309.5986667-6.534386.5986667-3.68585512 0-5.58170917-.3186667-6.534386-.5986667-.33791529-.0986666-.46955297-.484-.3501291-.8373333.2985597-.8933333.86175184-2.4373333 1.9148533-4.1613333 2.57304172-4.212 5.24243679.6626666 7.4639923.6626666 2.2215556 0 1.6122224-2.0813333 2.4753313-.6626666 1.0503873 1.7253333 1.6162936 3.268 1.9148533 4.1613333.1194239.3533333-.0122138.7373333-.3501291.8373333z" transform="translate(2)"/></svg>