<svg width="18" height="18" viewBox="0 0 18 18" xmlns="http://www.w3.org/2000/svg"><path d="M9.692 15.167l.006.002c-.002 0-.005 0-.006-.002zm-.43.001a.053.053 0 0 1-.01.005l.01-.005zm-.319 1.815c-.156 0-.308-.029-.451-.086l-5.24-2.04a1.254 1.254 0 0 1-.791-1.162v-2.498c0-.513.412-.929.922-.929s.923.416.923.929v2.079l4.637 1.805 4.638-1.805V11.16c0-.513.413-.929.922-.929.51 0 .923.416.923.929v2.535c0 .511-.318.979-.791 1.162L9.389 16.9a1.205 1.205 0 0 1-.446.083zM2.93 6.128L9 3.87l6.124 2.277-5.997 2.159c-1.095-.388-4.232-1.497-6.198-2.178zm6.026 2.24H8.95h.005zm-.174 1.747C5.158 8.832 1.328 7.49.905 7.364c-.458-.102-.812-.5-.89-1.007-.09-.596.225-1.17.75-1.366l7.87-2.926c.236-.087.494-.086.728 0l7.873 2.926c.46.171.766.642.764 1.171-.002.529-.313.997-.775 1.164l-7.742 2.786a1.035 1.035 0 0 1-.702.003z"  fill-rule="evenodd"/></svg>