<svg width="18" height="18" viewBox="0 0 18 18" xmlns="http://www.w3.org/2000/svg"><path d="M18 10.545V17.2h-3.858v-6.209c0-1.56-.558-2.624-1.954-2.624-1.066 0-1.7.717-1.98 1.411-.102.248-.128.593-.128.94V17.2H6.22s.053-10.516 0-11.606h3.86V7.24l-.026.037h.026V7.24c.512-.79 1.428-1.918 3.477-1.918 2.54 0 4.443 1.659 4.443 5.223zM2.184 0C.864 0 0 .866 0 2.005 0 3.119.839 4.01 2.133 4.01h.025c1.346 0 2.183-.892 2.183-2.006C4.316.866 3.504 0 2.184 0zM.229 17.2h3.858V5.594H.229V17.2z" fill-rule="nonzero" /></svg>