<svg width="18" height="18" viewBox="0 0 18 18" xmlns="http://www.w3.org/2000/svg"><path d="M9.344 10.928a3.473 3.473 0 1 1 3.472-3.472 3.482 3.482 0 0 1-3.472 3.472zm0-5.155a1.673 1.673 0 1 0 1.673 1.683 1.683 1.683 0 0 0-1.673-1.673v-.01zM9.383 18l-.448-.253C2 13.797 2 7.826 2 7.427v-.078a7.388 7.388 0 0 1 14.775.078c0 .243 0 6.322-6.945 10.32L9.383 18zM3.8 7.446c0 .34.087 5.097 5.593 8.482 5.573-3.424 5.593-8.248 5.593-8.472v-.068a5.593 5.593 0 0 0-11.186 0v.058z" fill-rule="nonzero" /></svg>