<svg width="18" height="18" viewBox="0 0 18 18" xmlns="http://www.w3.org/2000/svg"><path d="M11.908 18H6.255A4.265 4.265 0 0 1 2 13.745v-3.738A4.265 4.265 0 0 1 6.255 5.75h5.653a4.265 4.265 0 0 1 4.276 4.256v3.738A4.265 4.265 0 0 1 11.908 18zM6.255 7.403a2.614 2.614 0 0 0-2.604 2.604v3.738a2.614 2.614 0 0 0 2.604 2.614h5.653a2.614 2.614 0 0 0 2.604-2.604v-3.748a2.614 2.614 0 0 0-2.604-2.604H6.255zm5.876-.03a.82.82 0 0 1-.82-.821V4.9a2.25 2.25 0 0 0-4.499 0v1.652a.826.826 0 1 1-1.651 0V4.9a3.9 3.9 0 0 1 7.8 0v1.652a.82.82 0 0 1-.83.82zm-3.05 6.797a2.29 2.29 0 1 1 0-4.579 2.29 2.29 0 0 1 0 4.58z" fill-rule="nonzero" /></svg>