<svg width="18" height="18" viewBox="0 0 18 18" xmlns="http://www.w3.org/2000/svg"><g  fill-rule="evenodd"><path d="M2.644 3.61c-.57 0-1.035.464-1.035 1.035v8.994c0 .571.465 1.035 1.035 1.035h12.648c.571 0 1.036-.464 1.036-1.035V4.645c0-.571-.465-1.035-1.035-1.035H2.645zm12.648 12.674H2.646A2.648 2.648 0 0 1 0 13.639V4.645A2.648 2.648 0 0 1 2.644 2h12.648a2.648 2.648 0 0 1 2.646 2.645v8.994a2.648 2.648 0 0 1-2.645 2.645z"/><path d="M8.969 11.324a.804.804 0 0 1-.56-.226L.897 3.822a.804.804 0 1 1 1.12-1.156L8.968 9.4l6.952-6.734a.805.805 0 0 1 1.12 1.157l-7.513 7.276a.803.803 0 0 1-.56.226"/><path d="M1.206 15.585a.805.805 0 0 1-.587-1.356l5.79-6.17A.804.804 0 1 1 7.583 9.16l-5.79 6.171a.802.802 0 0 1-.587.254M16.65 15.585a.804.804 0 0 1-.586-.252L10.588 9.52a.805.805 0 0 1 1.171-1.104l5.477 5.813a.805.805 0 0 1-.586 1.356"/></g></svg>