<svg width="18" height="18" viewBox="0 0 18 18" xmlns="http://www.w3.org/2000/svg"><path d="M9.415 11.077h-.369a2.777 2.777 0 0 1-2.769-2.77V2.77A2.777 2.777 0 0 1 9.047 0h.368a2.777 2.777 0 0 1 2.77 2.77v5.538a2.777 2.777 0 0 1-2.77 2.769zm5.008-7.615c.573 0 1.039.464 1.039 1.038v3.462c0 3.08-2.25 5.64-5.193 6.136v1.825h2.077a1.038 1.038 0 1 1 0 2.077h-6.23a1.038 1.038 0 1 1 0-2.077h2.076v-1.825C5.25 13.602 3 11.042 3 7.962V4.5a1.038 1.038 0 1 1 2.077 0v3.462a4.158 4.158 0 0 0 4.154 4.153 4.158 4.158 0 0 0 4.154-4.153V4.5c0-.574.465-1.038 1.038-1.038z"  fill-rule="evenodd"/></svg>