<svg xmlns="http://www.w3.org/2000/svg" width="18" height="18" viewBox="0 0 18 18"><path d="M1.1 3c.6 0 1.1.5 1.1 1.1s-.5 1.1-1.1 1.1-1.1-.5-1.1-1.1.5-1.1 1.1-1.1zm0 4.5c.6 0 1.1.5 1.1 1.1s-.5 1.2-1.1 1.2-1.1-.6-1.1-1.2.5-1.1 1.1-1.1zm0 4.5c.6 0 1.1.5 1.1 1.1s-.5 1.1-1.1 1.1-1.1-.5-1.1-1.1.5-1.1 1.1-1.1zm3.8-9h12c.6 0 1.1.5 1.1 1.1s-.5 1.1-1.1 1.1h-12c-.6 0-1.1-.5-1.1-1.1s.5-1.1 1.1-1.1zm0 4.5h12c.6 0 1.1.5 1.1 1.1s-.5 1.1-1.1 1.1h-12c-.6 0-1.1-.5-1.1-1.1s.5-1.1 1.1-1.1zm0 4.5h12c.6 0 1.1.5 1.1 1.1s-.5 1.1-1.1 1.1h-12c-.6 0-1.1-.5-1.1-1.1s.5-1.1 1.1-1.1z" fill-rule="evenodd"/></svg>