<svg xmlns="http://www.w3.org/2000/svg" width="18" height="18" viewBox="0 0 18 18"><path d="M16.91 6.49c.13.56.12 1.24-.04 2.05-.6 2.97-2.6 4.46-5.95 4.46h-.46a.72.72 0 0 0-.72.6l-.04.18-.58 3.48-.02.15a.71.71 0 0 1-.26.42.73.73 0 0 1-.47.17H5.73a.43.43 0 0 1-.45-.51 410.48 410.48 0 0 0 .56-3.38 2536.5 2536.5 0 0 1 .57-3.36c.04-.25.19-.37.45-.37h1.38c.94.01 1.77-.06 2.49-.21a6.45 6.45 0 0 0 3.02-1.45 6 6 0 0 0 1.64-2.47 8.48 8.48 0 0 0 .4-1.41c0-.01.01-.02.03-.01l.06.03c.56.4.9.94 1.03 1.63zm-1.8-2.83c0 .71-.17 1.5-.5 2.37a5 5 0 0 1-3.17 3.16c-.8.27-1.68.4-2.66.42l-.95.01h-.95c-.7 0-1.11.31-1.24.96l-.9 5.32c0 .07-.04.1-.12.1h-3.1a.5.5 0 0 1-.4-.16.45.45 0 0 1-.11-.4L3.45.68c.03-.2.13-.35.29-.48.16-.13.34-.19.54-.19h6.3a7.31 7.31 0 0 1 2.2.45c.76.28 1.33.69 1.73 1.24.4.55.6 1.2.6 1.97z"/></svg>