<svg xmlns="http://www.w3.org/2000/svg" width="18" height="18" viewBox="0 0 18 18">
  <path d="M14.926 10.362c-.24-.236-.772-.362-1.582-.372a13.112 13.112 0 0 0-1.901.139c-.311-.179-.631-.374-.882-.609-.676-.631-1.241-1.508-1.592-2.471l.061-.25s.381-2.163.28-2.895l-.049-.207-.033-.085c-.104-.239-.307-.492-.625-.478l-.187-.006h-.005c-.355 0-.644.182-.72.453-.231.851.007 2.125.439 3.775l-.111.269c-.309.754-.697 1.513-1.038 2.182l-.044.087c-.36.704-.686 1.301-.982 1.807l-.305.162-.668.363c-1.042.622-1.732 1.328-1.846 1.888-.036.179-.009.408.176.514l.295.149a.892.892 0 0 0 .402.097c.742 0 1.603-.924 2.79-2.995a27.728 27.728 0 0 1 4.296-1.021c1.042.586 2.323.994 3.131.994.144 0 .267-.014.368-.04a.629.629 0 0 0 .366-.25c.157-.236.189-.561.146-.894a.599.599 0 0 0-.177-.304zM3.845 14.309c.135-.37.671-1.101 1.463-1.75l.285-.262c-.828 1.321-1.382 1.847-1.747 2.012zM8.535 3.51c.238 0 .374.601.385 1.165.011.564-.121.959-.284 1.252-.135-.433-.201-1.116-.201-1.563 0 0-.01-.854.1-.854zm-1.399 7.696c.166-.297.339-.611.516-.944.431-.814.702-1.451.905-1.975a6.52 6.52 0 0 0 1.494 1.855l.233.187c-1.199.237-2.235.526-3.148.877zm7.56-.068c-.073.046-.282.072-.417.072-.434 0-.972-.199-1.725-.521.289-.021.555-.032.793-.032.436 0 .565-.002.991.107.426.109.431.329.358.375zm1.31-7.633L13.495.994C12.948.447 11.868 0 11.094 0H2.406A1.41 1.41 0 0 0 1 1.406v15.188A1.41 1.41 0 0 0 2.406 18h13.188A1.41 1.41 0 0 0 17 16.594V5.906c0-.773-.447-1.854-.994-2.401zm-.796.795l.163.199H12.5V1.626l.199.163L15.21 4.3zm.665 12.293a.285.285 0 0 1-.281.281H2.406a.285.285 0 0 1-.281-.281V1.405c0-.152.129-.281.281-.281h8.688l.281.03v4.47h4.47l.03.281v10.688z"/>
</svg>
