<svg xmlns="http://www.w3.org/2000/svg" width="18" height="18" viewBox="0 0 18 18"><path d="M18 14.22a5.08 5.08 0 0 1-.4 1.78c-.18.42-.7.87-1.56 1.35a4.96 4.96 0 0 1-4.39.26 50.34 50.34 0 0 1-1.33-.5c-.84-.29-1.58-.64-2.24-1.05-1.08-.68-2.2-1.6-3.38-2.76a19.27 19.27 0 0 1-2.76-3.38c-.4-.66-.76-1.4-1.06-2.24A27.24 27.24 0 0 0 .4 6.35 10.96 10.96 0 0 1 .04 5a4.96 4.96 0 0 1 .6-3.06C1.14 1.1 1.6.59 2.02.4A5.08 5.08 0 0 1 4.05.04c.16.05.38.37.68.97a30.74 30.74 0 0 1 .83 1.5 27.45 27.45 0 0 0 .62 1c.12.18.22.34.28.46.06.12.09.24.09.36 0 .17-.13.39-.37.64-.24.26-.5.5-.8.7a7.7 7.7 0 0 0-.78.68c-.25.24-.37.44-.37.6a2.8 2.8 0 0 0 .35.86 13.42 13.42 0 0 0 2.37 3.25 13.42 13.42 0 0 0 3.25 2.36 4.66 4.66 0 0 0 .57.28c.12.05.21.07.29.07.15 0 .35-.12.59-.37.23-.24.46-.5.67-.79.22-.28.45-.55.7-.8.26-.23.48-.36.65-.36.12 0 .24.03.36.1a16.11 16.11 0 0 1 .77.5 27.45 27.45 0 0 0 1.5.84l.69.38c.6.3.92.52.97.68.03.06.04.15.04.27z"/></svg>