<svg height="24" viewBox="0 0 24 24" width="24" xmlns="http://www.w3.org/2000/svg"><g transform="translate(0.000000, 3.000000)" fill-rule="nonzero"><path d="M20.3234669,12.3330729 C21.7494352,11.460056 22.5917065,10.1646055 22.5917065,8.39962455 C22.5917065,4.6927825 18.8741884,3.05596855 13.8368091,3.05596855 C8.79939653,3.05596855 4.715768,5.44840683 4.715768,8.39962455 C4.715768,10.3644831 6.52588373,12.0816563 9.2224536,13.0100051 L9.2224536,15.4224672 C3.9342868,14.6061929 0,11.5106006 0,7.81647005 C0,3.49954143 5.37260333,0 12,0 C18.62743,0 24,3.49954143 24,7.81647005 C24,9.83467322 22.8257283,11.6742288 20.8979457,13.0610623 L20.8595379,12.9980795 C20.8388233,12.9576185 20.8110809,12.9083464 20.7758911,12.8523886 C20.7002111,12.7320442 20.6092641,12.6122723 20.490714,12.4882118 C20.4382123,12.4339682 20.3821953,12.3822517 20.3234669,12.3330729 Z M14.6468261,13.7286879 C14.8677509,13.7205839 15.0857116,13.7090882 15.3004864,13.6941603 C15.3167424,13.7136098 15.3344356,13.7354495 15.3530973,13.7593069 C15.3885989,13.8046928 15.4264587,13.8556759 15.4659783,13.9111599 C15.5376495,14.011783 15.6107509,14.1214248 15.6806659,14.2312908 C15.7052289,14.2698896 15.7275563,14.3056312 15.7638523,14.364836 L16.1900272,15.1432039 C15.6906105,15.2644323 15.1754591,15.3646158 14.6471143,15.4420987 L14.6468261,13.7286879 Z M18.2753649,12.1065636 C18.2753649,12.1065636 19.0016613,12.3197234 19.4236203,12.5273801 C19.5700311,12.5994367 19.8233461,12.7432265 20.0060685,12.9320112 C20.1850632,13.1169114 20.2723307,13.3042718 20.2723307,13.3042718 L23.1346481,17.9979931 L18.5083443,18 L16.3449648,14.0487931 C16.3449648,14.0487931 15.9019712,13.3085123 15.6293853,13.0938636 C15.4019975,12.9148224 15.3050448,12.851085 15.0802197,12.851085 C14.9237243,12.851085 13.9810233,12.851085 13.9810233,12.851085 L13.9818887,17.9971515 L9.88810893,17.9988347 L9.88810893,4.85356672 L18.1089511,4.85356672 C18.1089511,4.85356672 21.8532619,4.91924639 21.8532619,8.38395716 C21.8532619,11.8486679 18.2753649,12.1065636 18.2753649,12.1065636 Z M16.4947372,7.70495376 L14.0164028,7.70339995 L14.0151713,9.93858244 L16.4947372,9.93780553 C16.4947372,9.93780553 17.6429924,9.93434181 17.6429924,8.80079198 C17.6429924,7.64445332 16.4947372,7.70495376 16.4947372,7.70495376 Z"></path></g></svg>