<svg width="18px" height="18px" viewBox="0 0 18 18" version="1.1" xmlns="http://www.w3.org/2000/svg" xmlns:xlink="http://www.w3.org/1999/xlink">
  <path d="M1.5,4.5 L1.5,13.5 L16.5,13.5 L16.5,4.5 L1.5,4.5 Z M1.5,3 L16.5,3 C17.3284271,3 18,3.67157288 18,4.5 L18,13.5 C18,14.3284271 17.3284271,15 16.5,15 L1.5,15 C0.671572875,15 1.01453063e-16,14.3284271 0,13.5 L0,4.5 C-1.01453063e-16,3.67157288 0.671572875,3 1.5,3 Z M2.25,5.25 L2.25,9 L6,5.25 L2.25,5.25 Z M15.75,12.75 L15.75,9 L12,12.75 L15.75,12.75 Z"  fill-rule="nonzero"></path>
</svg>
