<svg viewBox="0 0 18 17" version="1.1" >
   
        <path d="M3.64333773,1.12468251 C3.73284352,0.959181228 3.96999502,0.958249073 4.06079908,1.12304162 L4.89531563,3.80896734 L7.60487955,4.64374429 C7.77012487,4.73387811 7.77012487,4.97115456 7.60487955,5.06128837 L4.8958007,5.89580074 L4.06128833,8.60487959 C3.97075271,8.77086155 3.7320956,8.76992864 3.64286037,8.60324397 L2.83212514,5.89531654 L0.123933991,5.06128837 C-0.0413113304,4.97115456 -0.0413113304,4.73387811 0.123933991,4.64374429 L2.83260641,3.80945361 L3.64333773,1.12468251 Z M11.0116861,4.77259475 C11.1647881,4.48950045 11.570442,4.48790597 11.7257647,4.76978797 L13.1532272,9.36413459 L17.7880076,10.7920425 C18.0706641,10.9462188 18.0706641,11.3520864 17.7880076,11.5062627 L13.154057,12.933718 L11.7266016,17.5676687 C11.571738,17.8515852 11.1635088,17.8499895 11.0108696,17.564871 L9.62408562,12.9328898 L4.99165338,11.5062627 C4.70899691,11.3520864 4.70899691,10.9462188 4.99165338,10.7920425 L9.62490885,9.36496637 L11.0116861,4.77259475 Z"></path>    
</svg>