<svg width="17px" height="18px" viewBox="0 0 17 18" version="1.1" xmlns="http://www.w3.org/2000/svg" xmlns:xlink="http://www.w3.org/1999/xlink">
  <path d="M7.63405057,16.1152819 C4.46018533,16.1152819 1.88566044,13.5416994 1.88566044,10.3668918 C1.88566044,7.19208418 4.45924297,4.61850165 7.63405057,4.61850165 C10.8088582,4.61850165 13.3833831,7.19208418 13.3833831,10.3668918 C13.3833831,13.540757 10.8088582,16.1152819 7.63405057,16.1152819 Z M7.63405057,2.73284121 C3.41699387,2.73284121 0,6.14983509 0,10.3659494 C0,14.5830061 3.41699387,18 7.63405057,18 C11.8492226,18 15.2671588,14.5830061 15.2671588,10.3659494 C15.2671588,6.15077745 11.8492226,2.73284121 7.63405057,2.73284121 Z M4.84561018,2.26354641 C5.72011937,1.95916444 6.65682425,1.79048217 7.63405057,1.79048217 C8.6112769,1.79048217 9.54798178,1.95916444 10.422491,2.26354641 C10.7325271,2.37097534 11.1433956,2.15517512 10.9615203,1.68776504 C10.8286477,1.34851578 10.7004869,1.0168054 10.6486571,0.88204806 C10.5252081,0.562588346 10.0832417,0.298727815 9.89100047,0.2553793 C9.16349929,0.0914088268 8.40961206,9e-16 7.63405057,9e-16 C6.85848908,9e-16 6.10460185,0.0914088268 5.37615832,0.2553793 C5.18391707,0.298727815 4.74289304,0.562588346 4.61944401,0.88204806 C4.56761426,1.0168054 4.43851107,1.34851578 4.30658081,1.68776504 C4.12470551,2.15517512 4.53557405,2.3719177 4.84561018,2.26354641 Z M16.2076331,3.0023559 C16.3301398,3.14559447 16.4290875,3.56871368 16.1595728,3.83822837 C15.8919428,4.10680069 14.6075075,5.3902937 14.6075075,5.3902937 C14.3351657,5.01052301 14.0383226,4.64206063 13.6971886,4.30186901 C13.3560547,3.9616774 12.9875923,3.66294958 12.6087639,3.39155018 C12.6087639,3.39155018 13.8941417,2.10805717 14.1617716,1.83948484 C14.430344,1.57091252 14.8544055,1.66986022 14.9985865,1.79142453 C15.2143867,1.97329983 15.4264175,2.16459871 15.629967,2.36909062 C15.8344589,2.57358253 16.0267002,2.78561332 16.2076331,3.0023559 Z M5.16130046,6.35621172 C5.58159259,6.09612062 8.22773677,9.1587875 8.60185331,9.76943616 C8.93167897,10.3028114 8.76488142,11.0020418 8.22962149,11.3337522 C7.69718863,11.6616931 6.99701586,11.498665 6.6671902,10.9624627 C6.28930422,10.3536988 4.74006597,6.61536045 5.16130046,6.35621172 Z" id="ico--video-time-transition"></path>
</svg>
