<svg xmlns="http://www.w3.org/2000/svg" width="18" height="18" viewBox="0 0 18 18"><path d="M9 11.826a2.826 2.826 0 1 1 .001-5.653A2.826 2.826 0 0 1 9 11.826zm-.837 3.244a.837.837 0 1 1 1.674 0v2.093a.837.837 0 1 1-1.674 0V15.07zm0-14.233a.837.837 0 1 1 1.674 0V2.93a.837.837 0 1 1-1.674 0V.837zM4.118 12.699a.839.839 0 0 1 1.184 1.184L3.82 15.365a.839.839 0 0 1-1.184-1.184l1.482-1.482zM14.181 2.636a.834.834 0 0 1 1.174.01.838.838 0 0 1 .01 1.174l-1.482 1.482a.839.839 0 0 1-1.184-1.184l1.482-1.482zM2.931 8.163a.837.837 0 1 1 0 1.674H.838a.837.837 0 1 1 0-1.674h2.093zm14.233 0a.837.837 0 1 1 0 1.674h-2.093a.837.837 0 1 1 0-1.674h2.093zM5.302 4.118a.839.839 0 0 1-1.184 1.184L2.636 3.82a.84.84 0 0 1-.011-1.194.833.833 0 0 1 .922-.177.84.84 0 0 1 .272.188l1.482 1.482zm10.063 10.063a.839.839 0 0 1-1.184 1.184l-1.482-1.482a.839.839 0 0 1 1.184-1.184l1.482 1.482z"/></svg>
