<svg width="18" height="18" viewBox="0 0 18 18" xmlns="http://www.w3.org/2000/svg" xmlns:xlink="http://www.w3.org/1999/xlink"><path d="M14.754 6.887c-.23.222-.537.346-.856.345-.32.001-.628-.123-.858-.345l-2.838-2.73v7.02c0 .675-.567 1.223-1.268 1.223-.699 0-1.267-.547-1.267-1.223v-7.02l-2.829 2.73c-.286.369-.757.544-1.215.452-.455-.085-.819-.427-.933-.876-.106-.446.066-.913.435-1.185l4.958-4.785c.23-.222.537-.346.856-.345.32-.001.628.123.858.345l4.957 4.785c.447.45.447 1.161 0 1.611v-.002zm-13.2 7.932h14.892c.858 0 1.554.696 1.554 1.554 0 .858-.696 1.554-1.554 1.554h-14.892c-.858 0-1.554-.696-1.554-1.554 0-.858.696-1.554 1.554-1.554z"/></svg>