<svg xmlns="http://www.w3.org/2000/svg" width="18" height="18" viewBox="0 0 18 18"><path d="M16.5 14.9a3.4 3.4 0 0 1-.73 2.19A2.2 2.2 0 0 1 14 18H4a2.2 2.2 0 0 1-1.77-.91 3.4 3.4 0 0 1-.73-2.2c0-.66.03-1.29.1-1.88.07-.59.19-1.18.37-1.78.18-.6.4-1.1.68-1.53.28-.43.65-.78 1.1-1.05.46-.27.99-.4 1.58-.4 1.03 1 2.25 1.5 3.67 1.5s2.64-.5 3.67-1.5c.6 0 1.12.13 1.57.4.46.27.83.62 1.1 1.05.28.42.51.93.7 1.53.17.6.3 1.2.36 1.78.07.6.1 1.22.1 1.88zm-3-10.4c0 1.24-.44 2.3-1.32 3.18A4.34 4.34 0 0 1 9 9c-1.24 0-2.3-.44-3.18-1.32A4.34 4.34 0 0 1 4.5 4.5c0-1.24.44-2.3 1.32-3.18A4.34 4.34 0 0 1 9 0c1.24 0 2.3.44 3.18 1.32A4.34 4.34 0 0 1 13.5 4.5z"/></svg>