<svg viewBox="0 0 24 24" xmlns="http://www.w3.org/2000/svg">
    <path d="M12.245,12.161 L12.016,12.161 C7.59162566,12.1676085 4.00660849,15.7526257 4,20.177 L4,22.795 C4,23.4605031 4.53949688,24 5.205,24 C5.87050312,24 6.41,23.4605031 6.41,22.795 L6.41,20.177 C6.41110411,17.0555536 8.94155341,14.5255519 12.063,14.525 L12.293,14.525 C15.4144466,14.5255519 17.9448959,17.0555536 17.946,20.177 L17.946,22.769 C17.946,23.436 18.486,23.975 19.152,23.975 C19.7706496,23.9261717 20.251049,23.4154769 20.262,22.795 L20.262,20.177 C20.261,19.147 20.062,18.127 19.674,17.173 C19.326,16.33 18.802,15.51 18.103,14.713 C16.5888511,13.0866008 14.4671205,12.1622826 12.245,12.161 Z M12.197,11.066 C9.14120848,11.066 6.664,8.58879152 6.664,5.533 C6.664,2.47720848 9.14120848,-2.5100922e-15 12.197,-3.071432e-15 C15.2527915,-3.63277179e-15 17.73,2.47720848 17.73,5.533 C17.7239479,8.58628114 15.2502811,11.0599479 12.197,11.066 Z M12.197,2.363 C10.4462573,2.363 9.027,3.78225734 9.027,5.533 C9.027,7.28374266 10.4462573,8.703 12.197,8.703 C13.9477427,8.703 15.367,7.28374266 15.367,5.533 C15.3478158,3.79555128 13.9335545,2.39734597 12.196,2.398 L12.196,2.363 L12.197,2.363 Z" fill-rule="nonzero"></path>
</svg>