<svg xmlns="http://www.w3.org/2000/svg" width="17" height="18" viewBox="0 0 17 18">
            <path d="M9.18181818,3.27272727 L9.18181818,4.90909091 L5.90909091,2.45454545 L9.18181818,0 L9.18181818,1.63636364 C13.7005116,1.63636364 17.3636364,5.29948841 17.3636364,9.81818182 C17.3636364,14.3368752 13.7005116,18 9.18181818,18 C4.66312477,18 1,14.3368752 1,9.81818182 C1,7.89210842 1.66553611,6.12147932 2.77918392,4.72371892 L4.10470475,5.68676618 C3.18674806,6.81348078 2.63636364,8.25155671 2.63636364,9.81818182 C2.63636364,13.4331365 5.56686346,16.3636364 9.18181818,16.3636364 C12.7967729,16.3636364 15.7272727,13.4331365 15.7272727,9.81818182 C15.7272727,6.20322709 12.7967729,3.27272727 9.18181818,3.27272727 Z M10.7731818,7.605 C10.7731818,7.74954618 10.7275005,7.86681773 10.6361364,7.95681818 C10.5447723,8.04681863 10.3927283,8.09181818 10.18,8.09181818 L8.55181818,8.09181818 L8.33909091,9.32727273 C8.60636497,9.272727 8.85045344,9.24545455 9.07136364,9.24545455 C9.38227428,9.24545455 9.65568064,9.29181772 9.89159091,9.38454545 C10.1275012,9.47727319 10.3259083,9.60545373 10.4868182,9.76909091 C10.6477281,9.93272809 10.7690905,10.1243171 10.8509091,10.3438636 C10.9327277,10.5634102 10.9736364,10.7999987 10.9736364,11.0536364 C10.9736364,11.3672743 10.9184096,11.6536351 10.8079545,11.9127273 C10.6974994,12.1718195 10.5440919,12.3934082 10.3477273,12.5775 C10.1513627,12.7615918 9.91886498,12.9040904 9.65022727,13.005 C9.38158957,13.1059096 9.08909249,13.1563636 8.77272727,13.1563636 C8.5872718,13.1563636 8.41136447,13.1372729 8.245,13.0990909 C8.07863553,13.0609089 7.92250073,13.009773 7.77659091,12.9456818 C7.63068109,12.8815906 7.49568244,12.807955 7.37159091,12.7247727 C7.24749938,12.6415905 7.13636413,12.5536368 7.03818182,12.4609091 L7.34909091,12.0313636 C7.41454578,11.9386359 7.50181764,11.8922727 7.61090909,11.8922727 C7.67909125,11.8922727 7.7479542,11.9140907 7.8175,11.9577273 C7.8870458,12.0013639 7.96818135,12.0490906 8.06090909,12.1009091 C8.15363683,12.1527275 8.26136302,12.2004543 8.38409091,12.2440909 C8.5068188,12.2877275 8.65545367,12.3095455 8.83,12.3095455 C9.01545547,12.3095455 9.1790902,12.2795458 9.32090909,12.2195455 C9.46272798,12.1595452 9.58068135,12.0756824 9.67477273,11.9679545 C9.76886411,11.8602267 9.83977249,11.7320462 9.8875,11.5834091 C9.93522751,11.434772 9.95909091,11.2731827 9.95909091,11.0986364 C9.95909091,10.7768166 9.86568275,10.5252282 9.67886364,10.3438636 C9.49204452,10.1624991 9.21727454,10.0718182 8.85454545,10.0718182 C8.56818039,10.0718182 8.28045599,10.1236358 7.99136364,10.2272727 L7.36136364,10.0472727 L7.85227273,7.17545455 L10.7731818,7.17545455 L10.7731818,7.605 Z"/>
</svg>
