<svg width="18" height="18" viewBox="0 0 18 18" xmlns="http://www.w3.org/2000/svg"><path d="M16.5 6.2v1.5h.8c.4 0 .8.3.8.8s-.3.8-.8.8h-.8v1.5h.8c.4 0 .8.3.8.8s-.3.8-.8.8h-.8c0 .8-.7 1.5-1.5 1.5h-12c-.8 0-1.5-.7-1.5-1.5h-.7c-.4 0-.8-.3-.8-.8s.3-.8.8-.8h.8v-1.5h-.8c-.5-.1-.8-.4-.8-.8s.3-.8.8-.8h.8v-1.5h-.8c-.5 0-.8-.3-.8-.7 0-.4.3-.8.8-.8h.8c0-.8.7-1.5 1.5-1.5h12c.8 0 1.5.7 1.5 1.5h.8c.4 0 .8.3.8.8s-.3.8-.8.8h-.9v-.1zm-13.5-1.4v7.5h12v-7.5h-12zm6.5 2.1l1.1 1.1c.3.3.3.8 0 1.1l-1.1 1.1c-.2.2-.5.3-.8.2-.3-.1-.5-.4-.5-.7v-2.3c0-.3.2-.6.5-.7.3-.1.6 0 .8.2z" fill-rule="nonzero"/></svg>