<svg xmlns="http://www.w3.org/2000/svg" width="18" height="18" viewBox="0 0 18 18"><path d="M11.05 12.5v2.11c0 .45-.13.68-.39.68-.16 0-.3-.08-.46-.22v-3.03c.15-.14.3-.22.46-.22.26 0 .4.23.4.68zm3.43 0v.47h-.92v-.46c0-.46.16-.69.46-.69.3 0 .46.23.46.69zM4.7 10.33h1.08v-.95H2.62v.95H3.7v5.71h1v-5.71zm2.91 5.71h.9v-4.96h-.9v3.8c-.2.28-.4.42-.57.42-.13 0-.2-.07-.22-.21v-4.01h-.9V15c0 .32.02.57.07.73.08.25.28.37.6.37.31 0 .66-.2 1.02-.61v.54zm4.35-1.49v-1.97c0-.5-.03-.82-.1-1-.11-.37-.35-.56-.71-.56-.34 0-.66.18-.95.54V9.37h-.9v6.66h.9v-.48c.3.37.62.55.95.55.36 0 .6-.18.71-.55.07-.18.1-.52.1-1zm3.42-.1v-.13h-.92c0 .35-.01.55-.02.62-.05.24-.19.36-.41.36-.31 0-.47-.23-.47-.7v-.87h1.82V12.7c0-.53-.1-.92-.28-1.17a1.28 1.28 0 0 0-1.07-.51c-.46 0-.82.17-1.08.51-.2.25-.29.64-.29 1.17v1.73c0 .53.1.92.3 1.17.26.34.63.51 1.1.51.48 0 .84-.18 1.08-.53.13-.18.2-.36.22-.54.01-.06.02-.26.02-.59zM9.22 5.27v-2.1c0-.47-.14-.7-.43-.7-.3 0-.44.23-.44.7v2.1c0 .47.15.7.44.7.29 0 .43-.23.43-.7zm7.28 7.55c0 1.56-.09 2.74-.26 3.51a1.9 1.9 0 0 1-1.62 1.46c-1.24.14-3.12.21-5.62.21s-4.38-.07-5.62-.21a1.8 1.8 0 0 1-1.03-.46c-.3-.27-.5-.6-.59-1-.17-.75-.26-1.92-.26-3.51 0-1.57.09-2.74.26-3.52A1.9 1.9 0 0 1 3.4 7.83c1.24-.13 3.1-.2 5.61-.2 2.5 0 4.38.07 5.62.2.39.05.73.2 1.03.48.3.26.5.6.59 1 .17.74.26 1.91.26 3.5zM6.4 0h1.03L6.21 4v2.73H5.19V4.01c-.09-.5-.3-1.2-.61-2.13A86.3 86.3 0 0 1 3.92 0h1.07l.72 2.64L6.4 0zm3.74 3.34V5.1c0 .55-.1.94-.28 1.19-.26.34-.61.51-1.07.51-.45 0-.8-.17-1.07-.51-.18-.26-.28-.65-.28-1.19V3.34c0-.53.1-.92.28-1.17.26-.34.62-.51 1.07-.51.46 0 .81.17 1.07.51.19.25.28.64.28 1.17zm3.4-1.62v5.01h-.93v-.55c-.35.41-.7.62-1.04.62-.31 0-.5-.12-.6-.37a2.56 2.56 0 0 1-.08-.75V1.72h.92V5.4l.01.36c.02.14.1.22.22.22.18 0 .37-.15.57-.44V1.72h.92z"/></svg>