<svg xmlns="http://www.w3.org/2000/svg" xmlns:xlink="http://www.w3.org/1999/xlink" width="192" height="192"><title>Data Visualization</title><defs><linearGradient id="a" x1="51.761%" x2="45.208%" y1="53.798%" y2="47%"><stop offset="0%" stop-opacity="0"/><stop offset="100%"/></linearGradient><linearGradient id="c" x1="50%" x2="50%" y1="0%" y2="100%"><stop offset="0%" stop-color="#FBDE7B"/><stop offset="100%" stop-color="#F6AF67"/></linearGradient><linearGradient id="d" x1="50%" x2="50%" y1="0%" y2="100%"><stop offset="0%" stop-color="#D4E4F1"/><stop offset="100%" stop-color="#B5CFDD"/></linearGradient><linearGradient id="g" x1="50%" x2="50%" y1="0%" y2="100%"><stop offset="0%" stop-color="#F6AF32"/><stop offset="100%" stop-color="#DA8041"/></linearGradient><linearGradient id="h" x1="50%" x2="50%" y1="4.721%" y2="97.676%"><stop offset="0%" stop-color="#C7DBE8"/><stop offset="100%" stop-color="#96B5C7"/></linearGradient><linearGradient id="k" x1="50%" x2="50%" y1="9.951%" y2="90.257%"><stop offset="0%" stop-color="#FBDE7B"/><stop offset="100%" stop-color="#F6AF67"/></linearGradient><linearGradient id="l" x1="50%" x2="50%" y1="0%" y2="100%"><stop offset="0%" stop-color="#FBDE7B"/><stop offset="100%" stop-color="#F6AF67"/></linearGradient><linearGradient id="o" x1="50%" x2="50%" y1="0%" y2="100%"><stop offset="0%" stop-color="#F6AF32"/><stop offset="100%" stop-color="#DA8041"/></linearGradient><linearGradient id="p" x1="50%" x2="50%" y1="0%" y2="100%"><stop offset="0%" stop-color="#F6AF32"/><stop offset="100%" stop-color="#DA8041"/></linearGradient><linearGradient id="s" x1="50%" x2="50%" y1="0%" y2="100%"><stop offset="0%" stop-color="#ECF7FF"/><stop offset="100%" stop-color="#CCE5F4"/></linearGradient><linearGradient id="t" x1="50%" x2="50%" y1="0%" y2="100%"><stop offset="0%" stop-color="#D4E4F1"/><stop offset="100%" stop-color="#B5CFDD"/></linearGradient><linearGradient id="w" x1="50%" x2="50%" y1="0%" y2="97.676%"><stop offset="0%" stop-color="#DBF0FF"/><stop offset="100%" stop-color="#A8C8DA"/></linearGradient><linearGradient id="x" x1="50%" x2="50%" y1="4.721%" y2="97.676%"><stop offset="0%" stop-color="#C7DBE8"/><stop offset="100%" stop-color="#96B5C7"/></linearGradient><path id="b" d="M9.819 164.838L.3 159.342l14.212-39.245 9.539-9.96L39.32 73.592l13.151-7.811L101.379 0l9.734 5.62.143 100.104L10.79 164.245z"/><path id="f" d="M.187 160.025l101.469-59.101V.868L52.512 66.375l-13.151 7.811-15.269 36.545-9.539 9.96z"/><path id="j" d="M38.395 111.963l9.539-23.982 15.269-2.794 13.151-30.386 49.069-52.628 9.713 5.624-.022 73.446L34.143 140.26l-.422.244-9.524-5.644z"/><path id="n" d="M.121 133.304l101.468-59.1V.681L52.446 53.148 39.295 83.534l-15.27 2.794-9.538 23.981z"/><path id="r" d="M14.443 105.686l.902.661 8.849 5.108.423.352 14.634-19.958 13.151-2.616L101.546.321l9.684 5.491v85.87l-101.469 59.1L0 145.052z"/><path id="v" d="M.161 144.982l101.469-59.1V.012L52.487 89.195l-13.151 2.616-15.27 20.825-9.538-6.988z"/></defs><g fill="none" fill-rule="evenodd"><path d="M102.139.72L.793 59.232 12.652 65.4 126 9.051z" fill="url(#a)" opacity=".118" transform="translate(56.4 125.6)"/><g transform="translate(16.183 2.766)"><mask id="e" fill="#fff"><use xlink:href="#b"/></mask><use fill="url(#c)" xlink:href="#b"/><g fill="url(#d)" mask="url(#e)"><path d="M-9.491-8.135h164.475v172.973H-9.491z"/></g></g><g transform="translate(25.783 7.566)"><mask id="i" fill="#fff"><use xlink:href="#f"/></mask><use fill="url(#g)" xlink:href="#f"/><g fill="url(#h)" mask="url(#i)"><path d="M-12.175-7.005h123.537v175.784H-12.175z"/></g></g><g transform="translate(8.519 36.266)"><mask id="m" fill="#fff"><use xlink:href="#j"/></mask><use fill="url(#k)" xlink:href="#j"/><g fill="url(#l)" mask="url(#m)"><path d="M1.689.686h144.159v146.63H1.689z"/></g></g><g transform="translate(42.119 43.466)"><mask id="q" fill="#fff"><use xlink:href="#n"/></mask><use fill="url(#o)" xlink:href="#n"/><g fill="url(#p)" mask="url(#q)"><path d="M-31.911-6.514h144.159v146.63H-31.911z"/></g></g><g><g transform="translate(50.15 35.305)"><mask id="u" fill="#fff"><use xlink:href="#r"/></mask><use fill="url(#s)" xlink:href="#r"/><g fill="url(#t)" mask="url(#u)"><path d="M-6.342.32h144.159v259.871H-6.342z"/></g></g><g transform="translate(59.75 41.105)"><mask id="y" fill="#fff"><use xlink:href="#v"/></mask><use fill="url(#w)" xlink:href="#v"/><g fill="url(#x)" mask="url(#y)"><path d="M-15.942.012h144.159v160.144H-15.942z"/></g></g></g></g></svg>