<svg xmlns="http://www.w3.org/2000/svg" xmlns:xlink="http://www.w3.org/1999/xlink" width="192" height="192"><title>Data Manipulation</title><defs><path id="a" d="M0 0h192v192H0z"/><path id="d" d="M7.514 169.73l-5.418-3.127a3.6 3.6 0 01-1.8-3.118V62.432a9.6 9.6 0 014.802-8.315L97.927.553a3.6 3.6 0 013.6 0l5.595 3.23L7.692 61.19l-.178 108.54z"/><path id="g" d="M0 .151h111.243V112.8H0z"/><path id="j" d="M4.8 54.024L97.538.483a3.6 3.6 0 015.4 3.117v101.18a9.6 9.6 0 01-4.8 8.313L5.4 166.635a3.6 3.6 0 01-5.4-3.117V62.338a9.6 9.6 0 014.8-8.314z"/><path id="m" d="M7.514 169.73l-5.418-3.127a3.6 3.6 0 01-1.8-3.118V62.432a9.6 9.6 0 014.802-8.315L97.927.553a3.6 3.6 0 013.6 0l5.595 3.23L7.692 61.19l-.178 108.54z"/><path id="o" d="M0 .151h111.243V112.8H0z"/><path id="q" d="M4.8 54.024L97.538.483a3.6 3.6 0 015.4 3.117v101.18a9.6 9.6 0 01-4.8 8.313L5.4 166.635a3.6 3.6 0 01-5.4-3.117V62.338a9.6 9.6 0 014.8-8.314z"/><path id="s" d="M7.514 169.73l-5.418-3.127a3.6 3.6 0 01-1.8-3.118V62.432a9.6 9.6 0 014.802-8.315L97.927.553a3.6 3.6 0 013.6 0l5.595 3.23-94.63 59.807.07 100.853-5.048 5.288z"/><path id="u" d="M0 .151h111.243V112.8H0z"/><path id="w" d="M4.8 54.624L97.538 1.083a3.6 3.6 0 015.4 3.117v101.18a9.6 9.6 0 01-4.8 8.313L5.4 167.235a3.6 3.6 0 01-5.4-3.117V62.938a9.6 9.6 0 014.8-8.314z"/><path id="y" d="M4.183 5.676l4.834-2.79a2.4 2.4 0 013.6 2.078v88.193a4.8 4.8 0 01-2.4 4.156l-4.834 2.791a2.4 2.4 0 01-3.6-2.079V9.833a4.8 4.8 0 012.4-4.157z"/><path id="A" d="M4.183 5.676l4.834-2.79a2.4 2.4 0 013.6 2.078v88.193a4.8 4.8 0 01-2.4 4.156l-4.834 2.791a2.4 2.4 0 01-3.6-2.079V9.833a4.8 4.8 0 012.4-4.157z"/><path id="C" d="M4.183 5.676l4.834-2.79a2.4 2.4 0 013.6 2.078v88.193a4.8 4.8 0 01-2.4 4.156l-4.834 2.791a2.4 2.4 0 01-3.6-2.079V9.833a4.8 4.8 0 012.4-4.157z"/><path id="H" d="M21.908 3.549a3.6 3.6 0 01.102.85v4.769a9.6 9.6 0 01-4.8 8.314L5.733 24.108c-.045.026-.09.05-.136.074L5.647 26l-3.02-1.655A3.6 3.6 0 01.334 20.99v-4.769a9.6 9.6 0 014.8-8.314L16.61 1.281c.067-.038.134-.074.202-.108L17.51.77a3.6 3.6 0 013.6 0l2.806 1.62-2.008 1.159z"/><path id="L" d="M5.349 7.757L17.287.864a3.6 3.6 0 015.4 3.117v5.122a9.6 9.6 0 01-4.8 8.314L5.948 24.31a3.6 3.6 0 01-5.4-3.118V16.07a9.6 9.6 0 014.8-8.313z"/><path id="Q" d="M21.908 3.549a3.6 3.6 0 01.102.85v4.769a9.6 9.6 0 01-4.8 8.314L5.733 24.108c-.045.026-.09.05-.136.074L5.647 26l-3.02-1.655A3.6 3.6 0 01.334 20.99v-4.769a9.6 9.6 0 014.8-8.314L16.61 1.281c.067-.038.134-.074.202-.108L17.51.77a3.6 3.6 0 013.6 0l2.806 1.62-2.008 1.159z"/><path id="T" d="M5.349 7.757L17.287.864a3.6 3.6 0 015.4 3.117v5.122a9.6 9.6 0 01-4.8 8.314L5.948 24.31a3.6 3.6 0 01-5.4-3.118V16.07a9.6 9.6 0 014.8-8.313z"/><path id="X" d="M21.908 3.549a3.6 3.6 0 01.102.85v4.769a9.6 9.6 0 01-4.8 8.314L5.733 24.108c-.045.026-.09.05-.136.074L5.647 26l-3.02-1.655A3.6 3.6 0 01.334 20.99v-4.769a9.6 9.6 0 014.8-8.314L16.61 1.281c.067-.038.134-.074.202-.108L17.51.77a3.6 3.6 0 013.6 0l2.806 1.62-2.008 1.159z"/><path id="aa" d="M5.349 7.757L17.287.864a3.6 3.6 0 015.4 3.117v5.122a9.6 9.6 0 01-4.8 8.314L5.948 24.31a3.6 3.6 0 01-5.4-3.118V16.07a9.6 9.6 0 014.8-8.313z"/><filter id="F" width="100%" height="100%" x="0%" y="0%" filterUnits="objectBoundingBox"><feGaussianBlur in="SourceGraphic"/></filter><filter id="G" width="193.8%" height="185.5%" x="-46.9%" y="-42.7%" filterUnits="objectBoundingBox"><feGaussianBlur in="SourceGraphic" stdDeviation="3.489"/></filter><filter id="I" width="100%" height="100%" x="0%" y="0%" filterUnits="objectBoundingBox"><feGaussianBlur in="SourceGraphic"/></filter><filter id="O" width="100%" height="100%" x="0%" y="0%" filterUnits="objectBoundingBox"><feGaussianBlur in="SourceGraphic"/></filter><filter id="P" width="193.8%" height="185.5%" x="-46.9%" y="-42.7%" filterUnits="objectBoundingBox"><feGaussianBlur in="SourceGraphic" stdDeviation="3.489"/></filter><filter id="R" width="100%" height="100%" x="0%" y="0%" filterUnits="objectBoundingBox"><feGaussianBlur in="SourceGraphic"/></filter><filter id="V" width="100%" height="100%" x="0%" y="0%" filterUnits="objectBoundingBox"><feGaussianBlur in="SourceGraphic"/></filter><filter id="W" width="193.8%" height="185.5%" x="-46.9%" y="-42.7%" filterUnits="objectBoundingBox"><feGaussianBlur in="SourceGraphic" stdDeviation="3.489"/></filter><filter id="Y" width="100%" height="100%" x="0%" y="0%" filterUnits="objectBoundingBox"><feGaussianBlur in="SourceGraphic"/></filter><linearGradient id="b" x1="51.761%" x2="45.208%" y1="53.903%" y2="46.917%"><stop offset="0%" stop-opacity="0"/><stop offset="100%"/></linearGradient><linearGradient id="e" x1="50%" x2="50%" y1="0%" y2="100%"><stop offset="0%" stop-color="#D4E4F1"/><stop offset="100%" stop-color="#B5CFDD"/></linearGradient><linearGradient id="h" x1="5.317%" x2="5.317%" y1="94.951%" y2="62.033%"><stop offset="0%" stop-opacity="0"/><stop offset="100%"/></linearGradient><linearGradient id="k" x1="50%" x2="50%" y1="4.721%" y2="97.676%"><stop offset="0%" stop-color="#C7DBE8"/><stop offset="100%" stop-color="#96B5C7"/></linearGradient><linearGradient id="E" x1="50%" x2="56.01%" y1="50%" y2="76.359%"><stop offset="0%" stop-opacity=".491"/><stop offset="100%" stop-opacity="0"/></linearGradient><linearGradient id="J" x1="50%" x2="50%" y1="0%" y2="100%"><stop offset="0%" stop-color="#FBDE7B"/><stop offset="100%" stop-color="#F6AF67"/></linearGradient><linearGradient id="M" x1="50%" x2="50%" y1="0%" y2="100%"><stop offset="0%" stop-color="#F6AF32"/><stop offset="100%" stop-color="#DA8041"/></linearGradient></defs><g fill="none" fill-rule="evenodd"><mask id="c" fill="#fff"><use xlink:href="#a"/></mask><path d="M0 0h192v192H0z"/><g fill="url(#b)" mask="url(#c)" opacity=".118"><path d="M159.47 127.887l-96.663 58.409 11.744 6.104L186 137.131z"/></g><g mask="url(#c)" opacity=".5"><g transform="translate(23.8 2)"><mask id="f" fill="#fff"><use xlink:href="#d"/></mask><use fill="#C5D9E7" xlink:href="#d"/><g fill="url(#e)" mask="url(#f)"><path d="M-4.841 59.013H15.2v110.718H-4.841z"/></g><g mask="url(#f)"><g transform="translate(-1 -6.8)"><mask id="i" fill="#fff"><use xlink:href="#g"/></mask><use fill="url(#h)" xlink:href="#g"/><g mask="url(#i)"><path fill="#E0F1FF" d="M-3.841 6.87h115.084v107.707H-3.841z"/></g></g></g></g><g transform="translate(30 5.4)"><mask id="l" fill="#fff"><use xlink:href="#j"/></mask><use fill="#DDE8EF" xlink:href="#j"/><g fill="url(#k)" mask="url(#l)"><path d="M-56.45 83.543L103-8.516l54.227 93.924-159.45 92.059z"/></g></g></g><g mask="url(#c)" opacity=".5"><g transform="translate(38.2 9.2)"><mask id="n" fill="#fff"><use xlink:href="#m"/></mask><use fill="#C5D9E7" xlink:href="#m"/><g fill="url(#e)" mask="url(#n)"><path d="M-4.841 59.013H15.2v110.718H-4.841z"/></g><g mask="url(#n)"><g transform="translate(-1 -6.8)"><mask id="p" fill="#fff"><use xlink:href="#o"/></mask><use fill="url(#h)" xlink:href="#o"/><g mask="url(#p)"><path fill="#E0F1FF" d="M-3.841 6.87h115.084v107.707H-3.841z"/></g></g></g></g><g transform="translate(44.4 12.6)"><mask id="r" fill="#fff"><use xlink:href="#q"/></mask><use fill="#C2D7E5" xlink:href="#q"/><g fill="url(#k)" mask="url(#r)"><path d="M-56.45 83.543L103-8.516l54.227 93.924-159.45 92.059z"/></g></g></g><g mask="url(#c)"><g transform="translate(55 16.4)"><mask id="t" fill="#fff"><use xlink:href="#s"/></mask><use fill="#C5D9E7" xlink:href="#s"/><g fill="url(#e)" mask="url(#t)"><path d="M-4.841 59.013H15.2v110.718H-4.841z"/></g><g mask="url(#t)"><g transform="translate(-1 -6.8)"><mask id="v" fill="#fff"><use xlink:href="#u"/></mask><use fill="url(#h)" xlink:href="#u"/><g mask="url(#v)"><path fill="#E0F1FF" d="M-3.841 6.87h115.084v107.707H-3.841z"/></g></g></g></g><g transform="translate(61.2 19.2)"><mask id="x" fill="#fff"><use xlink:href="#w"/></mask><g fill="url(#k)" mask="url(#x)"><path d="M-56.45 84.143L103-7.915l54.227 93.923-159.45 92.059z"/></g></g><g transform="translate(108 51.6)"><mask id="z" fill="#fff"><use xlink:href="#y"/></mask><use fill="#C0D6E3" xlink:href="#y"/><path fill="#8AA7B8" d="M2.727 4.74l4.834-2.79a2.4 2.4 0 013.6 2.078V92.22a4.8 4.8 0 01-2.4 4.157l-4.834 2.79a2.4 2.4 0 01-3.6-2.078V8.897a4.8 4.8 0 012.4-4.157z" mask="url(#z)"/></g><g transform="translate(137.783 35.962)"><mask id="B" fill="#fff"><use xlink:href="#A"/></mask><use fill="#C0D6E3" xlink:href="#A"/><path fill="#8AA7B8" d="M2.727 4.74l4.834-2.79a2.4 2.4 0 013.6 2.078V92.22a4.8 4.8 0 01-2.4 4.157l-4.834 2.79a2.4 2.4 0 01-3.6-2.078V8.897a4.8 4.8 0 012.4-4.157z" mask="url(#B)"/></g><g transform="translate(75.6 69.6)"><mask id="D" fill="#fff"><use xlink:href="#C"/></mask><use fill="#C0D6E3" xlink:href="#C"/><path fill="#8AA7B8" d="M2.727 4.74l4.834-2.79a2.4 2.4 0 013.6 2.078V92.22a4.8 4.8 0 01-2.4 4.157l-4.834 2.79a2.4 2.4 0 01-3.6-2.078V8.897a4.8 4.8 0 012.4-4.157z" mask="url(#D)"/></g><g><g transform="translate(103 107.388)"><path fill="url(#E)" d="M5.257 13.659l11.477-6.626a3.6 3.6 0 015.4 3.118V24.52a9.6 9.6 0 01-4.8 8.313L5.857 39.46a3.6 3.6 0 01-5.4-3.117v-14.37a9.6 9.6 0 014.8-8.313z" filter="url(#F)" opacity=".221"/><path fill="#000" d="M5.398 13.168l11.815-6.821a3.706 3.706 0 015.559 3.21v4.909a9.883 9.883 0 01-4.942 8.558L6.016 29.845a3.706 3.706 0 01-5.559-3.21v-4.908a9.883 9.883 0 014.941-8.559z" filter="url(#G)" opacity=".429"/><mask id="K" fill="#fff"><use xlink:href="#H"/></mask><use fill="#FFC844" filter="url(#I)" xlink:href="#H"/><g fill="url(#J)" mask="url(#K)"><path d="M12.572-10.04l22.88 22.88-24.486 24.486-22.88-22.88z"/></g></g><g transform="translate(106.146 108.984)"><mask id="N" fill="#fff"><use xlink:href="#L"/></mask><use fill="#FFC844" xlink:href="#L"/><g fill="url(#M)" mask="url(#N)"><path d="M-6.805 13.545l28.62-16.524 8.793 15.229-28.62 16.524z"/></g></g><g transform="translate(71.8 88.189)"><path fill="url(#E)" d="M5.257 13.659l11.477-6.626a3.6 3.6 0 015.4 3.118V24.52a9.6 9.6 0 01-4.8 8.313L5.857 39.46a3.6 3.6 0 01-5.4-3.117v-14.37a9.6 9.6 0 014.8-8.313z" filter="url(#O)" opacity=".221"/><path fill="#000" d="M5.398 13.168l11.815-6.821a3.706 3.706 0 015.559 3.21v4.909a9.883 9.883 0 01-4.942 8.558L6.016 29.845a3.706 3.706 0 01-5.559-3.21v-4.908a9.883 9.883 0 014.941-8.559z" filter="url(#P)" opacity=".429"/><mask id="S" fill="#fff"><use xlink:href="#Q"/></mask><use fill="#FFC844" filter="url(#R)" xlink:href="#Q"/><g fill="url(#J)" mask="url(#S)"><path d="M12.572-10.04l22.88 22.88-24.486 24.486-22.88-22.88z"/></g></g><g transform="translate(74.946 89.785)"><mask id="U" fill="#fff"><use xlink:href="#T"/></mask><use fill="#FFC844" xlink:href="#T"/><g fill="url(#M)" mask="url(#U)"><path d="M-6.805 13.545l28.62-16.524 8.793 15.229-28.62 16.524z"/></g></g><g><g transform="translate(134.2 47.388)"><path fill="url(#E)" d="M5.257 13.659l11.477-6.626a3.6 3.6 0 015.4 3.118V24.52a9.6 9.6 0 01-4.8 8.313L5.857 39.46a3.6 3.6 0 01-5.4-3.117v-14.37a9.6 9.6 0 014.8-8.313z" filter="url(#V)" opacity=".221"/><path fill="#000" d="M5.398 13.168l11.815-6.821a3.706 3.706 0 015.559 3.21v4.909a9.883 9.883 0 01-4.942 8.558L6.016 29.845a3.706 3.706 0 01-5.559-3.21v-4.908a9.883 9.883 0 014.941-8.559z" filter="url(#W)" opacity=".429"/><mask id="Z" fill="#fff"><use xlink:href="#X"/></mask><use fill="#FFC844" filter="url(#Y)" xlink:href="#X"/><g fill="url(#J)" mask="url(#Z)"><path d="M12.572-10.04l22.88 22.88-24.486 24.486-22.88-22.88z"/></g></g><g transform="translate(137.346 48.984)"><mask id="ab" fill="#fff"><use xlink:href="#aa"/></mask><use fill="#FFC844" xlink:href="#aa"/><g fill="url(#M)" mask="url(#ab)"><path d="M-6.805 13.545l28.62-16.524 8.793 15.229-28.62 16.524z"/></g></g></g></g></g></g></svg>