<svg xmlns="http://www.w3.org/2000/svg" xmlns:xlink="http://www.w3.org/1999/xlink" width="192" height="192"><title>Data Scientist</title><defs><path id="a" d="M0 0h192v192H0z"/><path id="d" d="M87.642 50.815L.005.219v23.727l87.637 50.118z"/><path id="g" d="M1.255 50.808L88.892.211V23.46L1.255 74.057z"/><path id="j" d="M87.751 0L0 50.663l87.558 50.551 87.751-50.662z"/><path id="l" d="M87.642 50.815L.005.219v23.727l87.637 50.118z"/><path id="o" d="M1.255 50.808L88.892.211V23.46L1.255 74.057z"/><path id="r" d="M87.751 0L0 50.663l87.558 50.551 87.751-50.662z"/><path id="u" d="M87.642 50.815L.005.219v23.727l87.637 50.118z"/><path id="w" d="M.984 50.965L88.892.211v23.321L.984 74.286z"/><path id="y" d="M87.849.031L0 50.751l87.656 50.608 87.849-50.719z"/><linearGradient id="b" x1="50%" x2="46.298%" y1="51.806%" y2="47.922%"><stop offset="0%" stop-opacity="0"/><stop offset="100%"/></linearGradient><linearGradient id="e" x1="50%" x2="50%" y1="0%" y2="100%"><stop offset="0%" stop-color="#D4E4F1"/><stop offset="100%" stop-color="#B5CFDD"/></linearGradient><linearGradient id="h" x1="50%" x2="50%" y1="4.721%" y2="97.676%"><stop offset="0%" stop-color="#C7DBE8"/><stop offset="100%" stop-color="#96B5C7"/></linearGradient><linearGradient id="k" x1="50%" x2="50%" y1="4.721%" y2="97.676%"><stop offset="0%" stop-color="#C7DBE8"/><stop offset="100%" stop-color="#96B5C7"/></linearGradient><linearGradient id="m" x1="50%" x2="50%" y1="0%" y2="100%"><stop offset="0%" stop-color="#FBDE7B"/><stop offset="100%" stop-color="#F6AF67"/></linearGradient><linearGradient id="p" x1="50%" x2="50%" y1="0%" y2="100%"><stop offset="0%" stop-color="#F6AF32"/><stop offset="100%" stop-color="#DA8041"/></linearGradient><linearGradient id="s" x1="50%" x2="50%" y1="0%" y2="100%"><stop offset="0%" stop-color="#F6AF32"/><stop offset="100%" stop-color="#DA8041"/></linearGradient></defs><g fill="none" fill-rule="evenodd"><mask id="c" fill="#fff"><use xlink:href="#a"/></mask><path d="M0 0h192v192H0z"/><g fill="url(#b)" mask="url(#c)" opacity=".118"><path d="M182.82 133.704l-88.232 50.941L115.2 195.6l83.2-53.296z"/></g><g mask="url(#c)"><g transform="translate(7.2 110.454)"><mask id="f" fill="#fff"><use xlink:href="#d"/></mask><g fill="url(#e)" mask="url(#f)"><path d="M.005.211h87.637v76.246H.005z"/></g><g fill="#A5C4D6" mask="url(#f)"><path d="M11.972 13.314c2.611 1.507 4.73 5.186 4.73 8.21 0 3.023-2.119 4.254-4.73 2.746-2.61-1.507-4.73-5.186-4.73-8.21 0-3.023 2.12-4.253 4.73-2.746zm16.8 9.6c2.611 1.507 4.73 5.186 4.73 8.21 0 3.023-2.119 4.254-4.73 2.746-2.61-1.507-4.73-5.186-4.73-8.21 0-3.023 2.12-4.253 4.73-2.746zm50.475 32.18c0-1.22-.741-2.64-1.654-3.17L41.875 31.212c-1.918-1.112-3.475.066-3.475 2.628v1.99c0 1.465.89 3.17 1.986 3.805L75.938 60.25c1.826 1.06 3.31-.062 3.31-2.503v-2.653z"/></g></g><g transform="translate(93.6 110.454)"><mask id="i" fill="#fff"><use xlink:href="#g"/></mask><g fill="url(#h)" mask="url(#i)"><path d="M-.023-1.888h90.464v84.662H-.023z"/></g><path fill="#6D8695" d="M33.6 39.551v8.572L10.37 61.534c-1.774 1.025-3.214-.064-3.214-2.43 0-2.365 1.44-5.117 3.214-6.142l23.23-13.41zM48 31.237v8.572l-9.6 5.542V36.78l9.6-5.542zm21.6-12.47v8.571l-16.8 9.7v-8.573l16.8-9.699zm13.662-3.603c0 2.366-1.44 5.118-3.214 6.142l-5.649 3.261v-8.572l5.649-3.26c1.774-1.025 3.214.064 3.214 2.43z" mask="url(#i)"/></g><use fill="url(#k)" xlink:href="#j" transform="translate(7.2 60.054)"/></g><g mask="url(#c)"><g transform="translate(7.2 81.654)"><mask id="n" fill="#fff"><use xlink:href="#l"/></mask><g fill="url(#m)" mask="url(#n)"><path d="M.005.211h87.637v76.246H.005z"/></g><g fill="#FFF" mask="url(#n)" opacity=".422"><path d="M11.972 13.314c2.611 1.507 4.73 5.186 4.73 8.21 0 3.023-2.119 4.254-4.73 2.746-2.61-1.507-4.73-5.186-4.73-8.21 0-3.023 2.12-4.253 4.73-2.746zm16.8 9.6c2.611 1.507 4.73 5.186 4.73 8.21 0 3.023-2.119 4.254-4.73 2.746-2.61-1.507-4.73-5.186-4.73-8.21 0-3.023 2.12-4.253 4.73-2.746zm50.475 32.18c0-1.22-.741-2.64-1.654-3.17L41.875 31.212c-1.918-1.112-3.475.066-3.475 2.628v1.99c0 1.465.89 3.17 1.986 3.805L75.938 60.25c1.826 1.06 3.31-.062 3.31-2.503v-2.653z"/></g></g><g transform="translate(93.6 81.654)"><mask id="q" fill="#fff"><use xlink:href="#o"/></mask><g fill="url(#p)" mask="url(#q)"><path d="M-.023-1.888h90.464v84.662H-.023z"/></g><path fill="#FFF" d="M19.221 47.852v8.572l-8.85 5.11c-1.775 1.025-3.215-.064-3.215-2.43 0-2.365 1.44-5.117 3.214-6.142l8.851-5.11zm14.4-8.314v8.572l-9.6 5.543v-8.572l9.6-5.543zm28.8-16.628v8.572l-24 13.857v-8.572l24-13.857zm20.841-7.746c0 2.366-1.44 5.118-3.214 6.142L67.22 28.711V20.14l12.827-7.405c1.774-1.024 3.214.065 3.214 2.43z" mask="url(#q)" opacity=".42"/></g><g transform="translate(7.2 31.254)"><mask id="t" fill="#fff"><use xlink:href="#r"/></mask><g fill="url(#s)" mask="url(#t)"><path d="M0 0h177.444v102.081H0z"/></g></g></g><g mask="url(#c)"><g transform="translate(7.2 52.854)"><mask id="v" fill="#fff"><use xlink:href="#u"/></mask><g fill="url(#e)" mask="url(#v)"><path d="M.005.211h87.637v76.246H.005z"/></g><g fill="#A5C4D6" mask="url(#v)"><path d="M11.972 13.314c2.611 1.507 4.73 5.186 4.73 8.21 0 3.023-2.119 4.254-4.73 2.746-2.61-1.507-4.73-5.186-4.73-8.21 0-3.023 2.12-4.253 4.73-2.746zm16.8 9.6c2.611 1.507 4.73 5.186 4.73 8.21 0 3.023-2.119 4.254-4.73 2.746-2.61-1.507-4.73-5.186-4.73-8.21 0-3.023 2.12-4.253 4.73-2.746zm50.475 32.18c0-1.22-.741-2.64-1.654-3.17L41.875 31.212c-1.918-1.112-3.475.066-3.475 2.628v1.99c0 1.465.89 3.17 1.986 3.805L75.938 60.25c1.826 1.06 3.31-.062 3.31-2.503v-2.653z"/></g></g><g transform="translate(93.6 52.854)"><mask id="x" fill="#fff"><use xlink:href="#w"/></mask><g fill="url(#h)" mask="url(#x)"><path d="M-.023-1.888h90.464v84.662H-.023z"/></g><path fill="#6D8695" d="M67.2 20.152l-12 6.928v8.572l12-6.928v-8.572zm4.8-2.771l8.048-4.647c1.774-1.024 3.214.065 3.214 2.43 0 2.366-1.44 5.118-3.214 6.142L72 25.953V17.38zM50.4 29.85l-4.8 2.772v8.572l4.8-2.772v-8.571zm-9.6 5.543L21.6 46.48v8.572l19.2-11.085v-8.572zm-24 13.856l-6.43 3.712c-1.774 1.025-3.214 3.777-3.214 6.142 0 2.366 1.44 3.455 3.214 2.43l6.43-3.712V49.25z" mask="url(#x)"/></g><g transform="translate(7.2 2.454)"><mask id="z" fill="#fff"><use xlink:href="#y"/></mask><g fill="#E0F1FF" mask="url(#z)"><path d="M0 0h177.444v102.081H0z"/></g></g></g></g></svg>