<svg xmlns="http://www.w3.org/2000/svg" xmlns:xlink="http://www.w3.org/1999/xlink" width="192" height="192"><title>Import and Cleaning Data</title><defs><path id="a" d="M0 0h192v192H0z"/><path id="d" d="M87.642 50.815L.005.219v6.448l87.637 50.597z"/><path id="g" d="M.255 50.808L87.892.211V6.66L.255 57.257z"/><path id="j" d="M87.751 0L0 50.663l87.558 50.551 87.751-50.662z"/><path id="m" d="M87.642 50.815L.005.219v6.448l87.637 50.597z"/><path id="p" d="M.255 50.808L87.892.211V6.66L.255 57.257z"/><path id="r" d="M87.751 0L0 50.663l87.558 50.551 87.751-50.662z"/><path id="u" d="M37.225.586c1.157-.549 2.625-.431 4.216.488 1.591.918 3.059 2.495 4.216 4.38l.044.027-.02.01c1.53 2.507 2.511 5.55 2.511 8.311v52.016l8.61-6.064-.757-.436 7.65-4.418.182-.127a3.29 3.29 0 01.67-.365l.215-.123.052.029c2.253-.685 5.25 1.046 7.504 4.332l.143.084-.063.035c.3.447.587.921.857 1.422 2.59 4.815 2.589 10.194 0 12.019L46.129 91.308c-.199.14-.41.256-.63.347l.03.016-8.362 4.828-8.402-4.851 8.362-4.828.254.147c-.22-.345-.43-.703-.63-1.073L9.628 35.47c-.816-1.516-1.772-3.09-2.368-4.59l-.155.357L.942 28.44l8.595-4.925.09-.064c.201-.142.413-.258.632-.35l.527-.301-.065.149c2.569-.644 6.034 1.735 8.284 5.917L34.69 58.023V9.189l-6.207-3.583L37.201.572z"/><path id="y" d="M27.005 58.211L11.32 29.054c-2.59-4.813-6.788-7.238-9.378-5.414C.648 24.553 0 26.354 0 28.528c0 2.175.648 4.724 1.942 7.13l27.125 50.424c1.244 2.312 2.93 4.181 4.69 5.196 1.758 1.016 3.444 1.094 4.688.219L65.57 72.394c2.59-1.824 2.59-7.204 0-12.018-2.59-4.814-6.789-7.239-9.378-5.415L40.507 66.007V13.99c0-4.857-3.037-10.585-6.75-12.728-3.714-2.144-6.752.076-6.752 4.933V58.21z"/><linearGradient id="e" x1="50%" x2="50%" y1="0%" y2="100%"><stop offset="0%" stop-color="#D4E4F1"/><stop offset="100%" stop-color="#B5CFDD"/></linearGradient><linearGradient id="h" x1="50%" x2="50%" y1="4.721%" y2="97.676%"><stop offset="0%" stop-color="#C7DBE8"/><stop offset="100%" stop-color="#96B5C7"/></linearGradient><linearGradient id="n" x1="50%" x2="50%" y1="0%" y2="100%"><stop offset="0%" stop-color="#D4E4F1"/><stop offset="100%" stop-color="#B5CFDD"/></linearGradient><linearGradient id="t" x1="54.263%" x2="18.955%" y1="60.249%" y2="37.667%"><stop offset="0%" stop-opacity="0"/><stop offset="100%"/></linearGradient><linearGradient id="v" x1="50%" x2="50%" y1="0%" y2="100%"><stop offset="0%" stop-color="#F6AF32"/><stop offset="100%" stop-color="#DA8041"/></linearGradient><linearGradient id="x" x1="50%" x2="50%" y1="0%" y2="100%"><stop offset="0%" stop-opacity="0"/><stop offset="100%"/></linearGradient><linearGradient id="z" x1="50%" x2="50%" y1="0%" y2="100%"><stop offset="0%" stop-color="#FBDE7B"/><stop offset="100%" stop-color="#F6AF67"/></linearGradient><filter id="c" width="146.2%" height="180%" x="-23.1%" y="-40%" filterUnits="objectBoundingBox"><feGaussianBlur in="SourceGraphic" stdDeviation="9.6"/></filter><filter id="l" width="212.5%" height="294.9%" x="-56.3%" y="-97.5%" filterUnits="objectBoundingBox"><feGaussianBlur in="SourceGraphic" stdDeviation="24"/></filter></defs><g fill="none" fill-rule="evenodd"><mask id="b" fill="#fff"><use xlink:href="#a"/></mask><path d="M0 0h192v192H0z"/><g fill="#000" mask="url(#b)"><path filter="url(#c)" opacity=".321" d="M88.869 20.198l-62.423 36.04 62.285 35.96 62.423-36.039z" transform="translate(7.2 88.8)"/><path opacity=".04" d="M94.951 88.854L7.2 139.517l87.558 50.551 87.751-50.662z"/></g><g mask="url(#b)"><g transform="translate(7.2 120.054)"><mask id="f" fill="#fff"><use xlink:href="#d"/></mask><use fill="#CEDFED" xlink:href="#d"/><g fill="url(#e)" mask="url(#f)"><path d="M.005.211h93.931V62.39H.005z"/></g></g><g transform="translate(94.6 120.054)"><mask id="i" fill="#fff"><use xlink:href="#g"/></mask><use fill="#A8C3D3" xlink:href="#g"/><g fill="url(#h)" mask="url(#i)"><path d="M-1.023-1.888h90.464v59.145H-1.023z"/></g></g><g transform="translate(7.2 69.654)"><mask id="k" fill="#fff"><use xlink:href="#j"/></mask><use fill="#A8C3D3" xlink:href="#j"/><g fill="#E0F1FF" mask="url(#k)"><path d="M0 0h177.444v102.081H0z"/></g><path fill="#6D8695" filter="url(#l)" mask="url(#k)" opacity=".803" d="M88.87 22.545L24.827 59.52 88.73 96.414l64.043-36.975z"/></g></g><g mask="url(#b)"><g transform="translate(7.2 96.054)"><mask id="o" fill="#fff"><use xlink:href="#m"/></mask><use fill="#CFE1EE" xlink:href="#m"/><g fill="url(#n)" mask="url(#o)"><path d="M.005.211h93.161v61.59H.005z"/></g></g><g transform="translate(94.6 96.054)"><mask id="q" fill="#fff"><use xlink:href="#p"/></mask><use fill="#A8C3D3" xlink:href="#p"/><g fill="url(#h)" mask="url(#q)"><path d="M-1.023-1.888h90.464v59.145H-1.023z"/></g></g><g transform="translate(7.2 45.654)"><mask id="s" fill="#fff"><use xlink:href="#r"/></mask><use fill="#A8C3D3" xlink:href="#r"/><g fill="#E0F1FF" mask="url(#s)"><path d="M0 0h177.444v102.081H0z"/></g><path fill="url(#t)" mask="url(#s)" opacity=".118" d="M101.502 47.837L82.737 58.671l56.436 32.584 18.766-10.834z"/></g></g><g mask="url(#b)"><g transform="translate(58.6 8.4)"><mask id="w" fill="#fff"><use xlink:href="#u"/></mask><use fill="#FFC844" xlink:href="#u"/><g fill="url(#v)" mask="url(#w)"><path d="M-1-1.675h87.548v105.649H-1z"/></g><path fill="url(#x)" mask="url(#w)" opacity=".253" d="M-1 48.378h76.197V98.4H-1z"/></g><g transform="translate(57.6 13.2)"><mask id="A" fill="#fff"><use xlink:href="#y"/></mask><use fill="#FFC844" xlink:href="#y"/><g fill="url(#z)" mask="url(#A)"><path d="M0-6.475h75.089V94.084H0z"/></g></g></g></g></svg>