<svg xmlns="http://www.w3.org/2000/svg" xmlns:xlink="http://www.w3.org/1999/xlink" width="192" height="192"><title>Probability and Statistics</title><defs><path id="b" d="M19.2 13.45L0 1.92v83.195L19.2 96.96z"/><path id="f" d="M19.195 12.448L0 .92v83.179L19.195 95.96z"/><path id="h" d="M19.187.039L38.4 11.548 19.2 23.079 0 11.548z"/><path id="j" d="M19.2 13.45L0 1.92v59.195L19.2 72.96z"/><path id="n" d="M19.195 12.448L0 .92v59.179L19.195 71.96z"/><path id="p" d="M19.187.039L38.4 11.548 19.2 23.079 0 11.548z"/><path id="r" d="M19.2 13.45L0 1.92v59.195L19.2 72.96z"/><path id="t" d="M19.195 12.448L0 .92v59.179L19.195 71.96z"/><path id="u" d="M19.187.039L38.4 11.548 19.2 23.079 0 11.548z"/><path id="v" d="M57.6 45.6a9.6 9.6 0 110 19.2 9.6 9.6 0 010-19.2zm96-2.4a9.6 9.6 0 110 19.2 9.6 9.6 0 010-19.2zM9.6 21.6a9.6 9.6 0 110 19.2 9.6 9.6 0 010-19.2zm96-21.6a9.6 9.6 0 110 19.2 9.6 9.6 0 010-19.2z"/><path id="x" d="M52.8 45.6a4.8 4.8 0 110 9.6 4.8 4.8 0 010-9.6zm96-2.4a4.8 4.8 0 110 9.6 4.8 4.8 0 010-9.6zM4.8 21.6a4.8 4.8 0 110 9.6 4.8 4.8 0 010-9.6zm96-21.6a4.8 4.8 0 110 9.6 4.8 4.8 0 010-9.6z"/><path id="z" d="M19.2 13.45L0 1.92v107.195l19.2 11.845z"/><path id="C" d="M19.195 12.448L0 .92v107.179l19.195 11.861z"/><path id="E" d="M19.187.039L38.4 11.548 19.2 23.079 0 11.548z"/><linearGradient id="a" x1="57.362%" x2="31.946%" y1="64.24%" y2="39.058%"><stop offset="0%" stop-opacity="0"/><stop offset="100%"/></linearGradient><linearGradient id="c" x1="50%" x2="50%" y1="0%" y2="100%"><stop offset="0%" stop-color="#ECF7FF"/><stop offset="100%" stop-color="#CCE5F4"/></linearGradient><linearGradient id="d" x1="50%" x2="50%" y1="0%" y2="100%"><stop offset="0%" stop-color="#D4E4F1"/><stop offset="100%" stop-color="#B5CFDD"/></linearGradient><linearGradient id="g" x1="50%" x2="50%" y1="4.721%" y2="97.676%"><stop offset="0%" stop-color="#C7DBE8"/><stop offset="100%" stop-color="#96B5C7"/></linearGradient><linearGradient id="k" x1="50%" x2="50%" y1="0%" y2="100%"><stop offset="0%" stop-color="#ECF7FF"/><stop offset="100%" stop-color="#CCE5F4"/></linearGradient><linearGradient id="l" x1="50%" x2="50%" y1="0%" y2="100%"><stop offset="0%" stop-color="#D4E4F1"/><stop offset="100%" stop-color="#B5CFDD"/></linearGradient><linearGradient id="o" x1="50%" x2="50%" y1="4.721%" y2="97.676%"><stop offset="0%" stop-color="#C7DBE8"/><stop offset="100%" stop-color="#96B5C7"/></linearGradient><linearGradient id="A" x1="50%" x2="50%" y1="0%" y2="100%"><stop offset="0%" stop-color="#FBDE7B"/><stop offset="100%" stop-color="#F6AF67"/></linearGradient><linearGradient id="D" x1="50%" x2="50%" y1="0%" y2="100%"><stop offset="0%" stop-color="#F6AF32"/><stop offset="100%" stop-color="#DA8041"/></linearGradient></defs><g fill="none" fill-rule="evenodd"><g fill="url(#a)" opacity=".118" transform="translate(20 160)"><path d="M19.2 1.038L38.4 12.95 19.2 24.48 0 12.95zM67.2 1.038L86.4 12.95 67.2 24.48 48 12.95zM115.2 1.038l19.2 11.912-19.2 11.53L96 12.95zM163.2 1.038l19.2 11.912-19.2 11.53L144 12.95z"/></g><g transform="translate(.8 76)"><mask id="e" fill="#fff"><use xlink:href="#b"/></mask><use fill="url(#c)" xlink:href="#b"/><g fill="url(#d)" mask="url(#e)"><path d="M0 1.92h19.2v95.52H0z"/></g></g><use fill="url(#g)" transform="matrix(-1 0 0 1 39.195 77)" xlink:href="#f"/><g transform="translate(.8 66.4)"><mask id="i" fill="#fff"><use xlink:href="#h"/></mask><use fill="#E9F6FE" xlink:href="#h"/><g fill="#E0F1FF" mask="url(#i)"><path d="M0 0h38.4v24H0z"/></g></g><g transform="translate(48.8 100)"><mask id="m" fill="#fff"><use xlink:href="#j"/></mask><use fill="url(#k)" xlink:href="#j"/><g fill="url(#l)" mask="url(#m)"><path d="M0 1.92h19.2v71.52H0z"/></g></g><use fill="url(#o)" transform="matrix(-1 0 0 1 87.195 101)" xlink:href="#n"/><g transform="translate(48.8 90.4)"><mask id="q" fill="#fff"><use xlink:href="#p"/></mask><use fill="#E9F6FE" xlink:href="#p"/><g fill="#E0F1FF" mask="url(#q)"><path d="M0 0h38.4v24H0z"/></g></g><g><g transform="translate(144.8 100)"><mask id="s" fill="#fff"><use xlink:href="#r"/></mask><use fill="url(#k)" xlink:href="#r"/><g fill="url(#l)" mask="url(#s)"><path d="M0 1.92h19.2v71.52H0z"/></g></g><use fill="url(#o)" transform="matrix(-1 0 0 1 183.195 101)" xlink:href="#t"/><use fill="#E9F6FE" xlink:href="#u" transform="translate(144.8 90.4)"/></g><path fill="#A5C4D6" fill-rule="nonzero" d="M164.075 62.796l1.685-1.71-49.456-48.751L68.21 60.48 20.976 36.807l-1.075 2.146 48.782 24.449 47.634-47.684z"/><g opacity=".376" transform="translate(10.4 6.4)"><mask id="w" fill="#fff"><use xlink:href="#v"/></mask><use fill="#7099D7" xlink:href="#v"/><g fill="#FFE797" mask="url(#w)"><path d="M-7.2-4.8h180V72h-180z"/></g></g><g transform="translate(15.2 11.2)"><mask id="y" fill="#fff"><use xlink:href="#x"/></mask><use fill="#7099D7" xlink:href="#x"/><g fill="#F5AE66" mask="url(#y)"><path d="M-12-9.6h180v76.8H-12z"/></g></g><g><g transform="translate(96.8 52)"><mask id="B" fill="#fff"><use xlink:href="#z"/></mask><g fill="url(#A)" mask="url(#B)"><path d="M0 1.92h19.2v119.04H0z"/></g></g><use fill="url(#D)" transform="matrix(-1 0 0 1 135.195 53)" xlink:href="#C"/><g transform="translate(96.8 42.4)"><mask id="F" fill="#fff"><use xlink:href="#E"/></mask><g fill="#FFE797" mask="url(#F)"><path d="M0 0h38.4v24H0z"/></g></g></g></g></svg>