<svg xmlns="http://www.w3.org/2000/svg" xmlns:xlink="http://www.w3.org/1999/xlink" width="192" height="192"><title>Time Series</title><defs><path id="a" d="M0 0h192v192H0z"/><path id="d" d="M7.514 169.73l-5.418-3.127a3.6 3.6 0 01-1.8-3.118V62.432a9.6 9.6 0 014.802-8.315L97.927.553a3.6 3.6 0 013.6 0l5.595 3.23L7.692 61.19l-.178 108.54z"/><path id="g" d="M0 .151h111.243V112.8H0z"/><path id="j" d="M4.8 54.024L97.538.483a3.6 3.6 0 015.4 3.117v101.18a9.6 9.6 0 01-4.8 8.313L5.4 166.635a3.6 3.6 0 01-5.4-3.117V62.338a9.6 9.6 0 014.8-8.314z"/><path id="m" d="M7.514 169.73l-5.418-3.127a3.6 3.6 0 01-1.8-3.118V62.432a9.6 9.6 0 014.802-8.315L97.927.553a3.6 3.6 0 013.6 0l5.595 3.23L7.692 61.19l-.178 108.54z"/><path id="o" d="M0 .151h111.243V112.8H0z"/><path id="q" d="M4.8 54.024L97.538.483a3.6 3.6 0 015.4 3.117v101.18a9.6 9.6 0 01-4.8 8.313L5.4 166.635a3.6 3.6 0 01-5.4-3.117V62.338a9.6 9.6 0 014.8-8.314z"/><path id="s" d="M7.514 169.73l-5.418-3.127a3.6 3.6 0 01-1.8-3.118V62.432a9.6 9.6 0 014.802-8.315L97.927.553a3.6 3.6 0 013.6 0l5.595 3.23L7.692 61.19l-.178 108.54z"/><path id="u" d="M0 .151h111.243V112.8H0z"/><path id="w" d="M4.8 54.024L97.538.483a3.6 3.6 0 015.4 3.117v101.18a9.6 9.6 0 01-4.8 8.313L5.4 166.635a3.6 3.6 0 01-5.4-3.117V62.338a9.6 9.6 0 014.8-8.314z"/><path id="y" d="M41.947 68.473L61.229 2.075 56.619.737 39.525 59.601 20.317 41.519.581 88.964l4.432 1.844 17.07-41.035z"/><path id="D" d="M11.985 5.12l-.124-.071-.01.005c-.845-.39-1.908-.3-3.061.367-2.754 1.59-4.99 5.862-4.99 9.534 0 2.268.853 3.78 2.154 4.23l2.8 1.617 2.716-1.567-1.858-1.072c2.364-1.888 4.168-5.671 4.168-8.97 0-.573-.055-1.099-.157-1.57l1.348-.779L12.122 5.2a2.506 2.506 0 00-.137-.079z"/><path id="G" d="M5.743 1.396c2.754-1.59 4.99.1 4.99 3.772 0 3.672-2.236 7.944-4.99 9.535-2.754 1.59-4.99-.1-4.99-3.773 0-3.672 2.236-7.944 4.99-9.534z"/><path id="J" d="M11.985 5.12l-.124-.071-.01.005c-.845-.39-1.908-.3-3.061.367-2.754 1.59-4.99 5.862-4.99 9.534 0 2.268.853 3.78 2.154 4.23l2.8 1.617 2.716-1.567-1.858-1.072c2.364-1.888 4.168-5.671 4.168-8.97 0-.573-.055-1.099-.157-1.57l1.348-.779L12.122 5.2a2.506 2.506 0 00-.137-.079z"/><path id="L" d="M5.743 1.396c2.754-1.59 4.99.1 4.99 3.772 0 3.672-2.236 7.944-4.99 9.535-2.754 1.59-4.99-.1-4.99-3.773 0-3.672 2.236-7.944 4.99-9.534z"/><path id="N" d="M11.985 5.12l-.124-.071-.01.005c-.845-.39-1.908-.3-3.061.367-2.754 1.59-4.99 5.862-4.99 9.534 0 2.268.853 3.78 2.154 4.23l2.8 1.617 2.716-1.567-1.858-1.072c2.364-1.888 4.168-5.671 4.168-8.97 0-.573-.055-1.099-.157-1.57l1.348-.779L12.122 5.2a2.506 2.506 0 00-.137-.079z"/><path id="P" d="M5.743 1.396c2.754-1.59 4.99.1 4.99 3.772 0 3.672-2.236 7.944-4.99 9.535-2.754 1.59-4.99-.1-4.99-3.773 0-3.672 2.236-7.944 4.99-9.534z"/><path id="R" d="M12.985 5.12l-.124-.071-.01.005c-.845-.39-1.908-.3-3.061.367-2.754 1.59-4.99 5.862-4.99 9.534 0 2.268.853 3.78 2.154 4.23l2.8 1.617 2.716-1.567-1.858-1.072c2.364-1.888 4.168-5.671 4.168-8.97 0-.573-.055-1.099-.157-1.57l1.348-.779L13.122 5.2a2.506 2.506 0 00-.137-.079z"/><path id="T" d="M5.743 1.396c2.754-1.59 4.99.1 4.99 3.772 0 3.672-2.236 7.944-4.99 9.535-2.754 1.59-4.99-.1-4.99-3.773 0-3.672 2.236-7.944 4.99-9.534z"/><linearGradient id="b" x1="51.624%" x2="45.853%" y1="54.484%" y2="48.517%"><stop offset="0%" stop-opacity="0"/><stop offset="100%"/></linearGradient><linearGradient id="e" x1="50%" x2="50%" y1="0%" y2="100%"><stop offset="0%" stop-color="#D4E4F1"/><stop offset="100%" stop-color="#B5CFDD"/></linearGradient><linearGradient id="h" x1="5.317%" x2="5.317%" y1="94.951%" y2="62.033%"><stop offset="0%" stop-opacity="0"/><stop offset="100%"/></linearGradient><linearGradient id="k" x1="50%" x2="50%" y1="4.721%" y2="97.676%"><stop offset="0%" stop-color="#C7DBE8"/><stop offset="100%" stop-color="#96B5C7"/></linearGradient><linearGradient id="z" x1="72.669%" x2="30.73%" y1="-2.561%" y2="93.895%"><stop offset="0%" stop-color="#FBDE7B"/><stop offset="100%" stop-color="#F6AF67"/></linearGradient><linearGradient id="A" x1="50%" x2="50%" y1="0%" y2="100%"><stop offset="0%" stop-color="#FBDE7B"/><stop offset="100%" stop-color="#F6AF67"/></linearGradient><linearGradient id="C" x1="56.289%" x2="45.438%" y1="54.477%" y2="-40.259%"><stop offset="0%" stop-opacity="0"/><stop offset="100%"/></linearGradient><linearGradient id="E" x1="50%" x2="50%" y1="0%" y2="100%"><stop offset="0%" stop-color="#FBDE7B"/><stop offset="100%" stop-color="#F6AF67"/></linearGradient><linearGradient id="H" x1="50%" x2="50%" y1="0%" y2="100%"><stop offset="0%" stop-color="#F6AF32"/><stop offset="100%" stop-color="#DA8041"/></linearGradient></defs><g fill="none" fill-rule="evenodd"><mask id="c" fill="#fff"><use xlink:href="#a"/></mask><path d="M0 0h192v192H0z"/><g fill="url(#b)" mask="url(#c)" opacity=".118"><path d="M160.204 131.321l-95.679 55.241 15.864 6.038 96.011-55.545z"/></g><g mask="url(#c)" opacity=".5"><g transform="translate(23.8 2)"><mask id="f" fill="#fff"><use xlink:href="#d"/></mask><use fill="#CBDDEB" xlink:href="#d"/><g fill="url(#e)" mask="url(#f)"><path d="M-4.841 59.013H15.2v110.718H-4.841z"/></g><g mask="url(#f)"><g transform="translate(-1 -6.8)"><mask id="i" fill="#fff"><use xlink:href="#g"/></mask><use fill="url(#h)" xlink:href="#g"/><g mask="url(#i)"><path fill="#E0F1FF" d="M-3.841 6.87h115.084v107.707H-3.841z"/></g></g></g></g><g transform="translate(30 5.4)"><mask id="l" fill="#fff"><use xlink:href="#j"/></mask><use fill="#BFD5E3" xlink:href="#j"/><g fill="url(#k)" mask="url(#l)"><path d="M-56.45 83.543L103-8.516l54.227 93.924-159.45 92.059z"/></g></g></g><g mask="url(#c)" opacity=".5"><g transform="translate(38.2 9.2)"><mask id="n" fill="#fff"><use xlink:href="#m"/></mask><use fill="#CBDDEB" xlink:href="#m"/><g fill="url(#e)" mask="url(#n)"><path d="M-4.841 59.013H15.2v110.718H-4.841z"/></g><g mask="url(#n)"><g transform="translate(-1 -6.8)"><mask id="p" fill="#fff"><use xlink:href="#o"/></mask><use fill="url(#h)" xlink:href="#o"/><g mask="url(#p)"><path fill="#E0F1FF" d="M-3.841 6.87h115.084v107.707H-3.841z"/></g></g></g></g><g transform="translate(44.4 12.6)"><mask id="r" fill="#fff"><use xlink:href="#q"/></mask><use fill="#BFD5E3" xlink:href="#q"/><g fill="url(#k)" mask="url(#r)"><path d="M-56.45 83.543L103-8.516l54.227 93.924-159.45 92.059z"/></g></g></g><g mask="url(#c)"><g transform="translate(55 16.4)"><mask id="t" fill="#fff"><use xlink:href="#s"/></mask><use fill="#CBDDEB" xlink:href="#s"/><g fill="url(#e)" mask="url(#t)"><path d="M-4.841 59.013H15.2v110.718H-4.841z"/></g><g mask="url(#t)"><g transform="translate(-1 -6.8)"><mask id="v" fill="#fff"><use xlink:href="#u"/></mask><use fill="url(#h)" xlink:href="#u"/><g mask="url(#v)"><path fill="#E0F1FF" d="M-3.841 6.87h115.084v107.707H-3.841z"/></g></g></g></g><g transform="translate(61.2 19.8)"><mask id="x" fill="#fff"><use xlink:href="#w"/></mask><use fill="#BFD5E3" xlink:href="#w"/><g fill="url(#k)" mask="url(#x)"><path d="M-56.45 83.543L103-8.516l54.227 93.924-159.45 92.059z"/></g></g><g fill="#8AA7B8" fill-rule="nonzero"><path d="M71.896 171.747V81.51a1.2 1.2 0 10-2.4 0v92.321a1.2 1.2 0 001.802 1.038l86.36-50.076a1.2 1.2 0 10-1.204-2.076l-84.558 49.031z"/><path d="M74.86 145.95l-4.766 2.842a1.2 1.2 0 101.203 2.076l4.766-2.84a1.2 1.2 0 00-1.204-2.077zm0-24l-4.766 2.842a1.2 1.2 0 101.203 2.076l4.766-2.84a1.2 1.2 0 00-1.204-2.077zm0-24l-4.766 2.842a1.2 1.2 0 101.203 2.076l4.766-2.84a1.2 1.2 0 00-1.204-2.077zm16.236 64.324v-5.922a1.2 1.2 0 10-2.4 0v5.922a1.2 1.2 0 102.4 0zm19.2-10.978v-5.922a1.2 1.2 0 10-2.4 0v5.922a1.2 1.2 0 102.4 0zm19.2-11.28v-5.921a1.2 1.2 0 10-2.4 0v5.921a1.2 1.2 0 102.4 0zm19.2-11.124v-5.922a1.2 1.2 0 10-2.4 0v5.922a1.2 1.2 0 102.4 0z"/></g><g stroke-linecap="round" stroke-linejoin="round" stroke="#6D8695" stroke-width="2.4"><path opacity=".149" d="M70.8 150l86.4-50.647M70.8 126l86.4-50.647M70.8 102l86.4-50.647"/><path opacity=".15" d="M89.977 68.782v93.631M109.177 56.782v93.631M128.377 47.182v93.631M147.577 35.182v93.631"/></g><g transform="translate(88 52.6)"><mask id="B" fill="#fff"><use xlink:href="#y"/></mask><use fill="url(#z)" fill-rule="nonzero" xlink:href="#y"/><g fill="url(#A)" mask="url(#B)"><path d="M-9.276.737h70.504v105.394H-9.276z"/></g></g><path fill="url(#C)" opacity=".487" d="M28.164 129H37.4v19.2h-9.236zM47.364 85.8H56.6V105h-9.236zM66.564 100.2H75.8v19.2h-9.236zM85.764 37.8H95V57h-9.236z" transform="translate(55 16.2)"/><g transform="translate(79.06 128.763)"><path fill="#000" d="M8.597 1.316c4.719-2.724 8.55.172 8.55 6.464 0 6.292-3.831 13.612-8.55 16.336-4.719 2.725-8.55-.172-8.55-6.463 0-6.292 3.831-13.612 8.55-16.337z" opacity=".047"/><mask id="F" fill="#fff"><use xlink:href="#D"/></mask><use fill="#FFC844" xlink:href="#D"/><g fill="url(#E)" mask="url(#F)"><path d="M3.8 3.18h13.347v19.071H3.8z"/></g></g><g transform="translate(85.26 134.563)"><mask id="I" fill="#fff"><use xlink:href="#G"/></mask><use fill="#FFC844" xlink:href="#G"/><g fill="url(#H)" mask="url(#I)"><path d="M-6.274 10.855l8.31-14.393 16.058 9.27-8.31 14.394z"/></g></g><g><g transform="translate(98.2 85.468)"><path fill="#FFC844" d="M8.597 1.316c4.719-2.724 8.55.172 8.55 6.464 0 6.292-3.831 13.612-8.55 16.336-4.719 2.725-8.55-.172-8.55-6.463 0-6.292 3.831-13.612 8.55-16.337z" opacity=".047"/><mask id="K" fill="#fff"><use xlink:href="#J"/></mask><use fill="#FFC844" xlink:href="#J"/><g fill="url(#E)" mask="url(#K)"><path d="M3.8 3.18h13.347v19.071H3.8z"/></g></g><g transform="translate(104.4 91.268)"><mask id="M" fill="#fff"><use xlink:href="#L"/></mask><use fill="#FFC844" xlink:href="#L"/><g fill="url(#H)" mask="url(#M)"><path d="M-6.274 10.855l8.31-14.393 16.058 9.27-8.31 14.394z"/></g></g></g><g><g transform="translate(117.4 102)"><path fill="#000" d="M8.597 1.316c4.719-2.724 8.55.172 8.55 6.464 0 6.292-3.831 13.612-8.55 16.336-4.719 2.725-8.55-.172-8.55-6.463 0-6.292 3.831-13.612 8.55-16.337z" opacity=".047"/><mask id="O" fill="#fff"><use xlink:href="#N"/></mask><use fill="#FFC844" xlink:href="#N"/><g fill="url(#E)" mask="url(#O)"><path d="M3.8 3.18h13.347v19.071H3.8z"/></g></g><g transform="translate(123.6 107.8)"><mask id="Q" fill="#fff"><use xlink:href="#P"/></mask><use fill="#FFC844" xlink:href="#P"/><g fill="url(#H)" mask="url(#Q)"><path d="M-6.274 10.855l8.31-14.393 16.058 9.27-8.31 14.394z"/></g></g></g><g><g transform="translate(135.6 39.383)"><path fill="#FFC844" d="M9.597 1.316c4.719-2.724 8.55.172 8.55 6.464 0 6.292-3.831 13.612-8.55 16.336-4.719 2.725-8.55-.172-8.55-6.463 0-6.292 3.831-13.612 8.55-16.337z" opacity=".047"/><mask id="S" fill="#fff"><use xlink:href="#R"/></mask><use fill="#FFC844" xlink:href="#R"/><g fill="url(#E)" mask="url(#S)"><path d="M4.8 3.18h13.347v19.071H4.8z"/></g></g><g transform="translate(142.8 45.183)"><mask id="U" fill="#fff"><use xlink:href="#T"/></mask><use fill="#FFC844" xlink:href="#T"/><g fill="url(#H)" mask="url(#U)"><path d="M-6.274 10.855l8.31-14.393 16.058 9.27-8.31 14.394z"/></g></g></g></g></g></svg>