<svg xmlns="http://www.w3.org/2000/svg" width="18" height="18" viewBox="0 0 18 18">
  <title>Add User</title>
  <g fill="none" fill-rule="evenodd" stroke="none" stroke-width="1">
    <path fill="#3AC" fill-rule="evenodd" clip-rule="evenodd" d="M5 8a4 4 0 1 1 0-8 4 4 0 0 1 0 8zm0-2a2 2 0 1 0 .001-3.999A2 2 0 0 0 5 6zm3 6v5s0 1 1 1 1-1 1-1v-5a3 3 0 0 0-3-3H3a3 3 0 0 0-3 3v5s0 1 1 1 1-1 1-1v-5a1 1 0 0 1 1-1h4a1 1 0 0 1 1 1zM14.001 3.471a.8.8 0 0 0-.8.8V6.67h-2.399a.8.8 0 1 0 0 1.6h2.399v2.399a.8.8 0 1 0 1.6 0V8.27H17.2a.8.8 0 1 0 0-1.6h-2.399V4.271a.8.8 0 0 0-.8-.8z"/>
  </g>
</svg>
