<svg width="18px" height="18px" viewBox="0 0 18 18" version="1.1" xmlns="http://www.w3.org/2000/svg" xmlns:xlink="http://www.w3.org/1999/xlink">
    <title>Apply</title>
    <g stroke="none" stroke-width="1" fill="none" fill-rule="evenodd">
        <path d="M1.115,10.5079703 L8.99767327,16.0185341 L16.901,10.5239703 L17.3524833,10.8416893 C17.8227131,11.1729875 17.8540617,11.8579844 17.4465293,12.2364425 L17.3524833,12.3126081 L9.51089919,17.8373606 C9.23730743,18.0301184 8.88227001,18.0515359 8.59057922,17.9016132 L8.48444735,17.8373606 L0.642863189,12.3126081 C0.172633443,11.9813099 0.141284793,11.296313 0.54881724,10.9178549 L0.642863189,10.8416893 L1.115,10.5079703 Z M9.88876238,1.77635684e-15 L9.888,2.032 L17.3524833,7.29135229 C17.8227131,7.62265052 17.8540617,8.29543495 17.4465293,8.67226467 L17.3524833,8.74825167 L9.51089919,14.2730041 C9.20310846,14.4898567 8.79223807,14.4898567 8.48444735,14.2730041 L8.48444735,14.2730041 L0.642863189,8.74825167 C0.139045604,8.39328928 0.139045604,7.64631468 0.642863189,7.29135229 L0.642863189,7.29135229 L8.106,2.032 L8.10658416,1.77635684e-15 L9.88876238,1.77635684e-15 Z M9.888,4.213 L9.888,8.411 L11.9195007,6.93333729 L13.4145007,7.98533729 L13.4461431,8.02758661 L9.52535102,10.8790718 C9.22446279,11.0978996 8.82078896,11.1060043 8.51228699,10.903386 L8.47712423,10.8790718 L4.59650074,8.05633729 L6.13650074,6.97333729 L8.106,8.405 L8.106,4.213 L2.70319802,8.01980198 L8.99767327,12.454396 L15.2919703,8.01980198 L9.888,4.213 Z" fill="#33AACC"></path>
    </g>
</svg>
