<svg xmlns="http://www.w3.org/2000/svg" width="18" height="18" viewBox="0 0 18 18">
  <title>Archive</title>
  <g fill="none" fill-rule="evenodd" stroke="none" stroke-width="1">
    <path fill="#3AC" d="M8.04161947,10.5810658 L8.03998128,0.998796957 C8.03990033,0.446387982 8.48754995,-0.00149360947 9.0398347,-0.00157457633 C9.59211944,-0.00165554318 10.0399003,0.446094775 10.0399813,0.99850375 L10.0416213,10.5918919 L12.3380823,8.30523021 C12.7291293,7.91550061 13.3617142,7.91692988 13.7510002,8.30842257 C14.1402861,8.69991525 14.1388585,9.33322104 13.7478114,9.72295064 L9.7993875,13.6545262 C9.61604246,13.867019 9.34482121,14.0015302 9.04217982,14.0015746 C8.7332174,14.0016199 8.45696025,13.861513 8.27349391,13.6413356 L4.33525429,9.70771571 C3.94429289,9.31710358 3.94429289,8.68379617 4.33525429,8.29318404 C4.72621568,7.9025719 5.36008934,7.9025719 5.75105074,8.29318404 L8.04161947,10.5810658 Z M13.5715304,6 C13.0191214,6 12.5713055,5.55228475 12.5713055,5 C12.5713055,4.44771525 13.0191214,4 13.5715304,4 L16.9997751,4 C17.552184,4 18,4.44771525 18,5 L18,17 C18,17.5522847 17.552184,18 16.9997751,18 L1.00022494,18 C0.447815959,18 0,17.5522847 0,17 L0,5 C0,4.44771525 0.447815959,4 1.00022494,4 L4.40908664,4 C4.96149562,4 5.40931158,4.44771525 5.40931158,5 C5.40931158,5.55228475 4.96149562,6 4.40908664,6 L2.00044988,6 L2.00044988,16 L15.9995501,16 L15.9995501,6 L13.5715304,6 Z"/>
  </g>
</svg>
