<svg xmlns="http://www.w3.org/2000/svg" width="18" height="18" viewBox="0 0 18 18">
  <title>Down Arrow</title>
  <g fill="none" fill-rule="evenodd" stroke="none" stroke-width="1">
    <path fill="#3AC" d="M13.579842,10.0003547 L2.00014656,10.002052 C1.44786182,10.0021329 1.00008095,9.55448329 1,9.00219855 C0.999919051,8.4499138 1.44756868,8.00213294 1.99985342,8.00205199 L13.5894945,8.00035329 L10.3049367,4.70395096 C9.91529473,4.31290392 9.91672367,3.68031903 10.3081283,3.29103307 C10.699533,2.90174711 11.3326963,2.90317476 11.7223383,3.2942218 L16.6526884,8.24235128 C16.8653306,8.42570031 16.9999556,8.69704997 17,8.99985342 C17.0000453,9.30886231 16.8599278,9.58515609 16.6397427,9.76862211 L11.7071068,14.706779 C11.3165825,15.0977403 10.6834175,15.0977403 10.2928932,14.706779 C9.90236892,14.3158176 9.90236892,13.6819439 10.2928932,13.2909825 L13.579842,10.0003547 Z" transform="rotate(90 9 9)"/>
  </g>
</svg>
