<svg width="18px" height="18px" viewBox="0 0 18 18" version="1.1" xmlns="http://www.w3.org/2000/svg" xmlns:xlink="http://www.w3.org/1999/xlink">
    <title>Assess</title>
    <g stroke="none" stroke-width="1" fill="none" fill-rule="evenodd">
        <path d="M9.8405467,7.04325487e-13 L9.84144883,7.24304318 C10.4958015,7.55699644 10.9476082,8.22573566 10.9476082,9 C10.9476082,10.0756343 10.0756343,10.9476082 9,10.9476082 C7.92436569,10.9476082 7.0523918,10.0756343 7.0523918,9 C7.0523918,8.20925094 7.52364201,7.52856827 8.20061932,7.22347509 L8.20026604,5.33853024 C6.51110747,5.71462533 5.24829157,7.22214012 5.24829157,9.02460137 C5.24829157,11.1101997 6.93900306,12.8009112 9.02460137,12.8009112 C11.1101997,12.8009112 12.8009112,11.1101997 12.8009112,9.02460137 C12.8009112,8.29276765 12.592734,7.6095563 12.2323673,7.03095488 L13.5898125,6.10852053 C14.1286301,6.95030447 14.4410023,7.9509737 14.4410023,9.02460137 C14.4410023,12.015997 12.015997,14.4410023 9.02460137,14.4410023 C6.03320574,14.4410023 3.60820046,12.015997 3.60820046,9.02460137 C3.60820046,6.31329249 5.60035476,4.06727619 8.20076291,3.67045291 L8.20005739,1.68306155 C4.51156541,2.08173454 1.64009112,5.20553289 1.64009112,9 C1.64009112,13.0647654 4.93523456,16.3599089 9,16.3599089 C13.0647654,16.3599089 16.3599089,13.0647654 16.3599089,9 C16.3599089,7.53324337 15.9308475,6.16669941 15.1913886,5.01903205 L16.5440763,4.1007572 C17.46487,5.50682736 18,7.1886056 18,9 C18,13.9705627 13.9705627,18 9,18 C4.02943725,18 0,13.9705627 0,9 C0,4.29823111 3.60541974,0.438553122 8.20236331,0.034861924 C8.33969173,0.0228021128 8.47790502,0.0233461645 8.61693351,0.0266147353 L9.8405467,7.04325487e-13 Z" fill="#33AACC"></path>
    </g>
</svg>
