<svg xmlns="http://www.w3.org/2000/svg" width="18" height="18" viewBox="0 0 18 18">
  <title>Attachment</title>
  <g fill="none" fill-rule="evenodd" stroke="none" stroke-width="1">
    <path fill="#3AC" d="M5.81015511,5.21015511 C5.81015511,4.65787036 6.25787036,4.21015511 6.81015511,4.21015511 C7.36243986,4.21015511 7.81015511,4.65787036 7.81015511,5.21015511 L7.81015511,12.2101551 C7.81015511,12.6786468 8.42377761,13.2101551 9.31015511,13.2101551 C10.1843193,13.2101551 10.8101551,12.6630823 10.8101551,12.2101551 L10.8101551,5.21015511 C10.8101551,3.75400786 9.26561714,2.21015511 7.81372232,2.21015511 C6.36813179,2.21015511 4.81015511,3.76935874 4.81015511,5.21015511 L4.81015511,12.2101551 C4.81015511,14.1369449 6.73427067,16.2101551 9.31015511,16.2101551 C11.8860395,16.2101551 13.8101551,14.1369449 13.8101551,12.2101551 L13.8101551,5.21015511 C13.8101551,4.65787036 14.2578704,4.21015511 14.8101551,4.21015511 C15.3624399,4.21015511 15.8101551,4.65787036 15.8101551,5.21015511 L15.8101551,12.2101551 C15.8101551,15.209546 13.0253345,18.2101551 9.31015511,18.2101551 C5.59497573,18.2101551 2.81015511,15.209546 2.81015511,12.2101551 L2.81015511,5.21015511 C2.81015511,2.66514153 5.26320969,0.210155108 7.81372232,0.210155108 C10.369988,0.210155108 12.8101551,2.64923965 12.8101551,5.21015511 L12.8101551,12.2101551 C12.8101551,13.8319568 11.2335353,15.2101551 9.31015511,15.2101551 C7.37794562,15.2101551 5.81015511,13.8521644 5.81015511,12.2101551 L5.81015511,5.21015511 Z" transform="rotate(45 9.31 9.21)"/>
  </g>
</svg>
