<svg xmlns="http://www.w3.org/2000/svg" width="18" height="18" viewBox="0 0 18 18">
  <title>Attention</title>
  <g fill="none" fill-rule="evenodd" stroke="none" stroke-width="1">
    <path fill="#3AC" fill-rule="evenodd" clip-rule="evenodd" d="M17.744 14.31 10.869 1.647a2.119 2.119 0 0 0-3.72 0L.268 14.31a2.116 2.116 0 0 0 1.862 3.148h13.75A2.122 2.122 0 0 0 18 15.383a2.12 2.12 0 0 0-.256-1.052v-.021zm-2.054.419L9.448 3.24a.5.5 0 0 0-.879 0L2.322 14.73a.5.5 0 0 0 .439.739H15.25a.502.502 0 0 0 .44-.74zM8.02 7.017a.994.994 0 1 1 1.99 0v2.57a.994.994 0 1 1-1.99 0v-2.57zm1.021 6.961a1.144 1.144 0 0 1-1.054-.704 1.143 1.143 0 0 1 .247-1.243 1.14 1.14 0 0 1 1.947.807 1.14 1.14 0 0 1-1.14 1.14z"/>
  </g>
</svg>
