<svg xmlns="http://www.w3.org/2000/svg" width="18" height="18" viewBox="0 0 18 18">
  <title>Back</title>
  <g fill="none" fill-rule="evenodd" stroke="none" stroke-width="1">
    <path fill="#3AC" d="M8.79003746,4.98785899 L9.9079237,6.62622333 C10.219861,7.08339597 10.103273,7.7076688 9.64751694,8.02057573 C9.19176093,8.33348265 8.56942251,8.21653219 8.25748517,7.75935955 L6.06219389,4.54195975 C5.82140536,4.18906217 5.83012685,3.72183951 6.08391682,3.37823154 L8.2792081,0.406011805 C8.60798857,-0.0391262994 9.23425537,-0.132624349 9.67801414,0.197178067 C10.1217729,0.526980483 10.2149812,1.1551939 9.88620077,1.600332 L8.86351397,2.9849546 C8.90810951,2.98184616 8.95360486,2.97909056 9,2.9766878 C13.1550106,2.9766878 16.5233122,6.33455217 16.5233122,10.4766878 C16.5233122,14.6188234 13.1550106,17.9766878 9,17.9766878 C4.8449894,17.9766878 1.4766878,14.6188234 1.4766878,10.4766878 C1.51878136,9.94809232 1.86925677,9.68379458 2.52811403,9.68379458 C3.18697129,9.68379458 3.50433167,9.94809232 3.48019518,10.4766878 L3.48290438,10.4766878 C3.48290438,13.5142539 5.95299223,15.9766878 9,15.9766878 C12.0470078,15.9766878 14.5170956,13.5142539 14.5170956,10.4766878 C14.5170956,7.43912167 12.0470078,4.9766878 9,4.9766878 C8.92131369,4.9766878 8.85132618,4.98041153 8.79003746,4.98785899 Z"/>
  </g>
</svg>
