<svg xmlns="http://www.w3.org/2000/svg" width="18" height="18" viewBox="0 0 18 18">
  <title>Bell</title>
  <g fill="none" fill-rule="evenodd" stroke="none" stroke-width="1">
    <path fill="#3AC" d="M10.9951704,2.1397597 C13.7594437,2.63419109 14.8686261,4.34193922 15.7051583,7.92993473 C16.375894,10.8068079 16.6879156,12.0111023 17.242226,13.2491589 C17.7431137,13.6728167 17.9942725,14.2342365 17.9997156,14.9753074 C18.0000896,14.9909625 18.0000941,15.0066022 17.9997329,15.0222135 C17.9828345,17.5817756 15.0379607,18 9.00002649,18 C2.96474481,18 0.0198064419,17.582143 0.000344093316,15.0255855 C-0.000117825897,15.0080233 -0.000115789761,14.9904158 0.000356931247,14.9727807 C0.00560934728,14.3245906 0.199055455,13.8139563 0.583385177,13.412801 C0.938671116,12.5057139 1.2355722,11.5947225 1.49915275,10.6345289 C1.64570789,10.1006453 1.77741305,9.57075929 1.9272479,8.92570878 C1.96556088,8.7607685 2.21198784,7.6781202 2.28218366,7.38202807 C3.07578476,4.0345493 4.18269069,2.52132306 7.00283099,2.10589832 C7.0010016,2.07083041 7.00007549,2.03552336 7.00007549,2 C7.00007549,0.8954305 7.89548405,0 9.00002649,0 C10.1045689,0 10.9999775,0.8954305 10.9999775,2 C10.9999775,2.04698254 10.9983575,2.09358671 10.9951704,2.1397597 Z M9.24549411,3.98508576 C9.16505029,3.99493115 9.08313032,4 9.00002649,4 C8.91186766,4 8.82504109,3.99429575 8.73989573,3.98323619 C5.63793032,4.00984761 4.96923154,4.71763255 4.22819265,7.84339935 C4.16049648,8.12894769 3.91550012,9.20531085 3.87533159,9.37823943 C3.71998981,10.0469977 3.5822429,10.6011913 3.42775552,11.1639711 C3.31869201,11.5612769 3.20406972,11.9513345 3.08236374,12.3368113 C4.53324408,12.0715914 6.50190103,12 9.00002649,12 C11.4067427,12 13.3220292,12.0664481 14.7563408,12.308469 C14.4628044,11.3571042 14.1748148,10.1742106 13.757446,8.38406123 C12.9533385,4.93513965 12.2156387,4.03876875 9.24549411,3.98508576 Z M9.00002649,16 C12.865925,16 15.999855,15.5522847 15.999855,15 C15.999855,14.4477153 12.865925,14 9.00002649,14 C5.13412795,14 2.00019798,14.4477153 2.00019798,15 C2.00019798,15.5522847 5.13412795,16 9.00002649,16 Z"/>
  </g>
</svg>
