<svg xmlns="http://www.w3.org/2000/svg" width="18" height="18" viewBox="0 0 18 18">
  <title>Branch</title>
  <g fill="none" fill-rule="evenodd" stroke="none" stroke-width="1">
    <path fill="#3AC" d="M2.00208314,7.83002971 C0.835802738,7.41878204 0,6.30699712 0,5 C0,3.34314575 1.34314575,2 3,2 C4.30621883,2 5.41745788,2.83480763 5.82929429,4 L12,4 C12.0565182,4 12.1119413,4.0046887 12.1659016,4.01369835 C12.5738454,2.84135601 13.6886681,2 15,2 C16.6568542,2 18,3.34314575 18,5 C18,6.65685425 16.6568542,8 15,8 C13.6886681,8 12.5738454,7.15864399 12.1659016,5.98630165 C12.1119413,5.9953113 12.0565182,6 12,6 L5.82929429,6 C5.52825484,6.85171895 4.85351407,7.52690838 4.00208314,7.82855714 L4.00208314,11.0612233 C4.00208314,11.613508 4.44979839,12.0612233 5.00208314,12.0612233 L12.1498119,12.0612233 C12.5438655,10.8641612 13.6710149,10 15,10 C16.6568542,10 18,11.3431458 18,13 C18,14.6568542 16.6568542,16 15,16 C13.7167747,16 12.6217251,15.1943242 12.193102,14.0612233 L5.00208314,14.0612233 C3.34522889,14.0612233 2.00208314,12.7180775 2.00208314,11.0612233 L2.00208314,7.83002971 Z M3,6 C3.55228475,6 4,5.55228475 4,5 C4,4.44771525 3.55228475,4 3,4 C2.44771525,4 2,4.44771525 2,5 C2,5.55228475 2.44771525,6 3,6 Z M15,6 C15.5522847,6 16,5.55228475 16,5 C16,4.44771525 15.5522847,4 15,4 C14.4477153,4 14,4.44771525 14,5 C14,5.55228475 14.4477153,6 15,6 Z M15,14 C15.5522847,14 16,13.5522847 16,13 C16,12.4477153 15.5522847,12 15,12 C14.4477153,12 14,12.4477153 14,13 C14,13.5522847 14.4477153,14 15,14 Z"/>
  </g>
</svg>
