<svg xmlns="http://www.w3.org/2000/svg" width="18" height="18" viewBox="0 0 18 18">
  <title>Briefcase</title>
  <g fill="none" fill-rule="evenodd" stroke="none" stroke-width="1">
    <path fill="#3AC" d="M7,4.00034423 L11,4.00034423 L11,3.00022949 L7,3.00022949 L7,4.00034423 Z M13,4.00034423 L17,4.00034423 C17.5522847,4.00034423 18,4.44811085 18,5.00045897 L18,9.00091794 C18,9.45983824 17.6877026,9.85986724 17.2425356,9.97117176 L17,10.0318126 L17,16 C17,16.5522847 16.5522847,17 16,17 L2,17 C1.44771525,17 1,16.5522847 1,16 L1,10.0318126 L0.757464375,9.97117176 C0.312297374,9.85986724 0,9.45983824 0,9.00091794 L0,5.00045897 C0,4.44811085 0.44771525,4.00034423 1,4.00034423 L5,4.00034423 L5,2.00011474 C5,1.44776662 5.44771525,1 6,1 L12,1 C12.5522847,1 13,1.44776662 13,2.00011474 L13,4.00034423 Z M12,6.00057372 L6,6.00057372 L2,6.00057372 L2,8.22005195 L9,9.97025275 L16,8.22005195 L16,6.00057372 L12,6.00057372 Z M15,10.53187 L9.24253563,11.9714012 C9.08329563,12.0112158 8.91670437,12.0112158 8.75746437,11.9714012 L3,10.53187 L3,15 L15,15 L15,10.53187 Z"/>
  </g>
</svg>
