<svg xmlns="http://www.w3.org/2000/svg" width="18" height="18" viewBox="0 0 18 18">
  <title>Building</title>
  <g fill="none" fill-rule="evenodd" stroke="none" stroke-width="1">
    <path fill="#3AC" d="M2,16 L2,1 C2,0.44771525 2.44771525,0 3,0 L15,0 C15.5522847,0 16,0.44771525 16,1 L16,16 L17,16 C17.5522847,16 18,16.4477153 18,17 C18,17.5522847 17.5522847,18 17,18 L1,18 C0.44771525,18 6.76353751e-17,17.5522847 0,17 C-6.76353751e-17,16.4477153 0.44771525,16 1,16 L2,16 Z M14,16 L14,2 L4,2 L4,16 L14,16 Z M7,5 C7.55228475,5 8,5.44771525 8,6 L8,7 C8,7.55228475 7.55228475,8 7,8 C6.44771525,8 6,7.55228475 6,7 L6,6 C6,5.44771525 6.44771525,5 7,5 Z M7,10 C7.55228475,10 8,10.4477153 8,11 L8,12 C8,12.5522847 7.55228475,13 7,13 C6.44771525,13 6,12.5522847 6,12 L6,11 C6,10.4477153 6.44771525,10 7,10 Z M11,5 C11.5522847,5 12,5.44771525 12,6 L12,7 C12,7.55228475 11.5522847,8 11,8 C10.4477153,8 10,7.55228475 10,7 L10,6 C10,5.44771525 10.4477153,5 11,5 Z M11,10 C11.5522847,10 12,10.4477153 12,11 L12,12 C12,12.5522847 11.5522847,13 11,13 C10.4477153,13 10,12.5522847 10,12 L10,11 C10,10.4477153 10.4477153,10 11,10 Z"/>
  </g>
</svg>
