<svg xmlns="http://www.w3.org/2000/svg" width="18" height="18" viewBox="0 0 18 18">
  <title>Bulb</title>
  <g fill="none" fill-rule="evenodd" stroke="none" stroke-width="1">
    <path fill="#3AC" d="M9,-1.88737911e-14 C10.7914562,-2.07787121e-11 12.5829124,0.683417511 13.9497475,2.05025253 C16.6834175,4.78392257 16.6834175,9.21607743 13.9497475,11.9497475 L13.9485148,11.9485148 C13.1547037,12.743887 13,13.0485764 13,14 C13,14.5522847 12.5522847,15 12,15 C11.4477153,15 11,14.5522847 11,14 C11,12.4520768 11.3958451,11.6746156 12.5352609,10.5333387 C12.5482705,10.5203079 12.5615501,10.5077109 12.5750819,10.4955479 C14.4880651,8.53992933 14.4748825,5.40381468 12.5355339,3.46446609 C11.5592232,2.48815536 10.2796116,2 9,2 C7.72038841,2 6.44077682,2.48815536 5.46446609,3.46446609 C3.52511751,5.40381468 3.51193486,8.53992933 5.42491813,10.4955479 C5.43844987,10.5077109 5.45172953,10.5203079 5.46473912,10.5333387 C6.60415491,11.6746156 7,12.4520768 7,14 C7,14.5522847 6.55228475,15 6,15 C5.44771525,15 5,14.5522847 5,14 C5,13.0485764 4.8452963,12.743887 4.0514852,11.9485148 L4.05025253,11.9497475 C1.31658249,9.21607743 1.31658249,4.78392257 4.05025253,2.05025253 C5.41708755,0.683417511 7.20854378,-2.07804884e-11 9,-2.06501479e-14 Z M9,7 C9.55228475,7 10,7.44771525 10,8 L10,14 C10,14.5522847 9.55228475,15 9,15 C8.44771525,15 8,14.5522847 8,14 L8,8 C8,7.44771525 8.44771525,7 9,7 Z M9,18 C7.34314575,18 6,17.1045695 6,16 C6,16 12,16 12,16 C12,17.1045695 10.6568542,18 9,18 Z"/>
  </g>
</svg>
