<svg xmlns="http://www.w3.org/2000/svg" width="18" height="18" viewBox="0 0 18 18">
  <title>Calendar</title>
  <g fill="none" fill-rule="evenodd" stroke="none" stroke-width="1">
    <path fill="#3AC" d="M15.013 2H14V1a1 1 0 1 0-2 0v1H6V1a1 1 0 0 0-2 0v1H2.987C1.337 2 0 3.352 0 5.02v9.96C0 16.648 1.337 18 2.987 18h12.026C16.663 18 18 16.648 18 14.98V5.02C18 3.352 16.663 2 15.013 2zm1.067 12.98c0 .596-.478 1.079-1.067 1.079H2.987A1.073 1.073 0 0 1 1.92 14.98V5.02c0-.596.478-1.079 1.067-1.079H4V5a1 1 0 0 0 2 0V3.941h6V5a1 1 0 1 0 2 0V3.941h1.013c.589 0 1.067.483 1.067 1.079v9.96zM12 8h2v2h-2V8zM8 8h2v2H8V8zm0 4h2v2H8v-2zM4 8h2v2H4V8zm0 4h2v2H4v-2z" />
  </g>
</svg>
