<svg xmlns="http://www.w3.org/2000/svg" width="18" height="18" viewBox="0 0 18 18">
  <title>Chat</title>
  <g fill="none" fill-rule="evenodd" stroke="none" stroke-width="1">
    <path fill="#3AC" d="M13.5857864,12.3878638 C13.9608592,12.0020879 14.469567,11.7853613 15,11.7853613 L16,11.7853613 L16,3.55707225 L2,3.55707225 L2,11.7853613 L9.01649962,11.7853613 C9.54884394,11.7853613 10.0592227,12.0036482 10.4346075,12.3918803 L12.0039051,14.0148859 L13.5857864,12.3878638 Z M2,1.5 L16,1.5 C17.1045695,1.5 18,2.42098262 18,3.55707225 L18,11.7853613 C18,12.9214509 17.1045695,13.8424335 16,13.8424335 L15,13.8424335 L12.7090593,16.1987487 C12.318535,16.6004171 11.6853701,16.6004171 11.2948458,16.1987487 L9.01649962,13.8424335 L2,13.8424335 C0.8954305,13.8424335 0,12.9214509 0,11.7853613 L0,3.55707225 C0,2.42098262 0.8954305,1.5 2,1.5 Z M6,6.64268063 L12,6.64268063 C12.5522847,6.64268063 13,7.09039588 13,7.64268063 L13,7.69975288 C13,8.25203763 12.5522847,8.69975288 12,8.69975288 L6,8.69975288 C5.44771525,8.69975288 5,8.25203763 5,7.69975288 L5,7.64268063 C5,7.09039588 5.44771525,6.64268063 6,6.64268063 Z"/>
  </g>
</svg>
