<svg xmlns="http://www.w3.org/2000/svg" width="18" height="18" viewBox="0 0 18 18">
  <title>Checkmark</title>
  <g fill="none" fill-rule="evenodd" stroke="none" stroke-width="1">
    <path fill="#3AC" d="M9,16 C12.8659932,16 16,12.8659932 16,9 C16,5.13400675 12.8659932,2 9,2 C5.13400675,2 2,5.13400675 2,9 C2,12.8659932 5.13400675,16 9,16 Z M9,18 C4.02943725,18 0,13.9705627 0,9 C0,4.02943725 4.02943725,0 9,0 C13.9705627,0 18,4.02943725 18,9 C18,13.9705627 13.9705627,18 9,18 Z M11.3262618,6.03930325 C11.6737853,5.61006452 12.3034755,5.54382121 12.7327142,5.89134468 C13.1619529,6.23886814 13.2281962,6.86855832 12.8806728,7.29779704 L8.77297839,12.3713581 C8.38078461,12.8557707 7.64582858,12.8672825 7.23865597,12.3953905 L5.11479126,9.93394138 C4.75399503,9.51579724 4.8004847,8.8843413 5.21862884,8.52354507 C5.63677298,8.16274883 6.26822892,8.2092385 6.62902515,8.62738264 L7.97135329,10.1830714 L11.3262618,6.03930325 Z"/>
  </g>
</svg>
