<svg xmlns="http://www.w3.org/2000/svg" width="18" height="18" viewBox="0 0 18 18">
  <title>Clock</title>
  <g fill="none" fill-rule="evenodd" stroke="none" stroke-width="1">
    <path fill="#3AC" d="M7.97934686,9.02150075 L8.00001317,4.99486766 C8.00284768,4.44259019 8.45285486,3.99717866 9.00513234,4.00001317 C9.55740981,4.00284768 10.0028213,4.45285486 9.99998683,5.00513234 L9.98447927,8.02663308 L12,8.02663308 C12.5522847,8.02663308 13,8.47434833 13,9.02663308 C13,9.57891783 12.5522847,10.0266331 12,10.0266331 L8.97933369,10.0266331 C8.42704894,10.0266331 7.97933369,9.57891783 7.97933369,9.02663308 C7.97933369,9.02492129 7.97933799,9.02321051 7.97934659,9.02150074 Z M9,16 C12.8659932,16 16,12.8659932 16,9 C16,5.13400675 12.8659932,2 9,2 C5.13400675,2 2,5.13400675 2,9 C2,12.8659932 5.13400675,16 9,16 Z M9,18 C4.02943725,18 0,13.9705627 0,9 C0,4.02943725 4.02943725,0 9,0 C13.9705627,0 18,4.02943725 18,9 C18,13.9705627 13.9705627,18 9,18 Z"/>
  </g>
</svg>
