<svg xmlns="http://www.w3.org/2000/svg" width="18" height="18" viewBox="0 0 18 18">
  <title>Closed Captions</title>
  <g fill="none" fill-rule="evenodd" stroke="none" stroke-width="1">
    <path fill="#3AC" fill-rule="evenodd" clip-rule="evenodd" d="M15.5 4a.5.5 0 0 1 .5.5v9a.5.5 0 0 1-.5.5h-13a.5.5 0 0 1-.5-.5v-9a.5.5 0 0 1 .5-.5h13zM0 4a2 2 0 0 1 2-2h14a2 2 0 0 1 2 2v10a2 2 0 0 1-2 2H2a2 2 0 0 1-2-2V4zm3.064 5.044c0-1.59 1.244-2.89 2.81-2.89 1.697 0 2.561 1.288 2.629 2.212a.25.25 0 0 1-.249.269h-1.35a.25.25 0 0 1-.24-.179c-.094-.319-.413-.542-.79-.542-.601 0-.99.503-.99 1.13 0 .621.424 1.13.99 1.13.421 0 .737-.264.796-.525a.25.25 0 0 1 .244-.195h1.32a.25.25 0 0 1 .249.263c-.024.459-.304 1.01-.745 1.441a2.66 2.66 0 0 1-1.865.776c-1.565 0-2.809-1.299-2.809-2.89zm6.483 0c0-1.59 1.244-2.89 2.81-2.89 1.697 0 2.561 1.288 2.629 2.212a.25.25 0 0 1-.249.269h-1.35a.25.25 0 0 1-.24-.179c-.094-.318-.413-.541-.79-.541-.601 0-.99.503-.99 1.13 0 .621.424 1.13.99 1.13.421 0 .737-.264.796-.525a.25.25 0 0 1 .244-.195h1.32a.25.25 0 0 1 .249.263c-.024.459-.304 1.01-.745 1.441a2.66 2.66 0 0 1-1.865.776c-1.564-.001-2.809-1.3-2.809-2.891z"/>
  </g>
</svg>
