<svg xmlns="http://www.w3.org/2000/svg" width="18" height="18" viewBox="0 0 18 18">
  <title>Code</title>
  <g fill="none" fill-rule="evenodd" stroke="none" stroke-width="1">
    <path fill="#3AC" d="M17.6546023,9.75620809 L12.7088773,14.706779 C12.3182986,15.0977403 11.6850454,15.0977403 11.2944667,14.706779 C10.903888,14.3158176 10.903888,13.6819439 11.2944667,13.2909825 L15.584489,8.99675685 L11.3065118,4.70395096 C10.9168156,4.31290392 10.9182447,3.68031903 11.3097039,3.29103307 C11.7011631,2.90174711 12.3344147,2.90317476 12.7241109,3.2942218 L17.7086602,8.29604904 C18.0983564,8.68709608 18.0969273,9.31968097 17.7054681,9.70896693 C17.6889321,9.72541114 17.6719646,9.74115816 17.6546023,9.75620809 Z M0.345397686,9.75620809 C0.328035358,9.74115816 0.311067898,9.72541114 0.294531888,9.70896693 C-0.0969272915,9.31968097 -0.0983564371,8.68709608 0.291339802,8.29604904 L5.2758891,3.2942218 C5.66558534,2.90317476 6.29883693,2.90174711 6.69029611,3.29103307 C7.08175529,3.68031903 7.08318443,4.31290392 6.69348819,4.70395096 L2.41551105,8.99675685 L6.70553333,13.2909825 C7.09611204,13.6819439 7.09611204,14.3158176 6.70553333,14.706779 C6.31495463,15.0977403 5.68170143,15.0977403 5.29112273,14.706779 L0.345397686,9.75620809 Z"/>
  </g>
</svg>
