<svg xmlns="http://www.w3.org/2000/svg" width="18" height="18" viewBox="0 0 18 18">
  <title>Cog</title>
  <g fill="none" fill-rule="evenodd" stroke="none" stroke-width="1">
    <path fill="#3AC" d="M7.18602442,15.6210736 C8.26359241,14.8227594 9.73640759,14.8227594 10.8139756,15.6210736 L11.064276,15.8065082 C11.511323,15.671162 11.9428291,15.4919654 12.3533729,15.2718634 L12.3991316,14.9644805 C12.5965938,13.6380314 13.6380314,12.5965938 14.9644805,12.3991316 L15.2718634,12.3533729 C15.4919654,11.9428291 15.671162,11.511323 15.8065082,11.064276 L15.6210736,10.8139756 C14.8227594,9.73640759 14.8227594,8.26359241 15.6210736,7.18602442 L15.8065082,6.935724 C15.671162,6.48867705 15.4919654,6.05717085 15.2718634,5.64662706 L14.9644805,5.6008684 C13.6380314,5.40340616 12.5965938,4.36196855 12.3991316,3.03551953 L12.3533729,2.72813657 C11.9428291,2.50803456 11.511323,2.32883797 11.064276,2.19349182 L10.8139756,2.37892641 C9.73640759,3.17724062 8.26359241,3.17724062 7.18602442,2.37892641 L6.935724,2.19349182 C6.48867705,2.32883797 6.05717085,2.50803456 5.64662706,2.72813657 L5.6008684,3.03551953 C5.40340616,4.36196855 4.36196855,5.40340616 3.03551953,5.6008684 L2.72813657,5.64662706 C2.50803456,6.05717085 2.32883797,6.48867705 2.19349182,6.935724 L2.37892641,7.18602442 C3.17724062,8.26359241 3.17724062,9.73640759 2.37892641,10.8139756 L2.19349182,11.064276 C2.32883797,11.511323 2.50803456,11.9428291 2.72813657,12.3533729 L3.03551953,12.3991316 C4.36196855,12.5965938 5.40340616,13.6380314 5.6008684,14.9644805 L5.64662706,15.2718634 C6.05717085,15.4919654 6.48867705,15.671162 6.935724,15.8065082 L7.18602442,15.6210736 Z M7.3875978,18 C6.06314469,17.7643093 4.83736557,17.2434142 3.77602775,16.5030821 L3.59151243,15.2636039 C3.52569168,14.8214542 3.17854582,14.4743083 2.73639614,14.4084876 L1.49691785,14.2239723 C0.756585771,13.1626344 0.235690726,11.9368553 0,10.6124022 L0.746585001,9.60465853 C1.01268974,9.2454692 1.01268974,8.7545308 0.746585001,8.39534147 L0,7.3875978 C0.235690726,6.06314469 0.756585771,4.83736557 1.49691785,3.77602775 L2.73639614,3.59151243 C3.17854582,3.52569168 3.52569168,3.17854582 3.59151243,2.73639614 L3.77602775,1.49691785 C4.83736557,0.756585771 6.06314469,0.235690726 7.3875978,0 L8.39534147,0.746585001 C8.7545308,1.01268974 9.2454692,1.01268974 9.60465853,0.746585001 L10.6124022,0 C11.9368553,0.235690726 13.1626344,0.756585771 14.2239723,1.49691785 L14.4084876,2.73639614 C14.4743083,3.17854582 14.8214542,3.52569168 15.2636039,3.59151243 L16.5030821,3.77602775 C17.2434142,4.83736557 17.7643093,6.06314469 18,7.3875978 L17.253415,8.39534147 C16.9873103,8.7545308 16.9873103,9.2454692 17.253415,9.60465853 L18,10.6124022 C17.7643093,11.9368553 17.2434142,13.1626344 16.5030821,14.2239723 L15.2636039,14.4084876 C14.8214542,14.4743083 14.4743083,14.8214542 14.4084876,15.2636039 L14.2239723,16.5030821 C13.1626344,17.2434142 11.9368553,17.7643093 10.6124022,18 L9.60465853,17.253415 C9.2454692,16.9873103 8.7545308,16.9873103 8.39534147,17.253415 L7.3875978,18 Z M9,13.062997 C6.75606871,13.062997 4.93700298,11.2439313 4.93700298,9 C4.93700298,6.75606871 6.75606871,4.93700298 9,4.93700298 C11.2439313,4.93700298 13.062997,6.75606871 13.062997,9 C13.062997,11.2439313 11.2439313,13.062997 9,13.062997 Z M9,11.0314985 C10.1219656,11.0314985 11.0314985,10.1219656 11.0314985,9 C11.0314985,7.87803435 10.1219656,6.96850149 9,6.96850149 C7.87803435,6.96850149 6.96850149,7.87803435 6.96850149,9 C6.96850149,10.1219656 7.87803435,11.0314985 9,11.0314985 Z"/>
  </g>
</svg>
