<svg xmlns="http://www.w3.org/2000/svg" width="18" height="18" viewBox="0 0 18 18">
  <title>Command</title>
  <g fill="none" fill-rule="evenodd" stroke="none" stroke-width="1">
    <path fill="#3AC" fill-rule="nonzero" d="M11,11 L11,7 L7,7 L7,11 L11,11 Z M11,13 L7,13 L7,14.5 C7,16.4329966 5.43299662,18 3.5,18 C1.56700338,18 -7.52786439e-16,16.4329966 -3.97700719e-16,14.5 C-4.26150001e-17,12.5670034 1.56700338,11 3.5,11 L5,11 L5,7 L3.5,7 C1.56700338,7 -4.26150001e-17,5.43299662 -3.97700719e-16,3.5 C-7.52786439e-16,1.56700338 1.56700338,0 3.5,-8.8817842e-16 C5.43299662,-8.8817842e-16 7,1.56700338 7,3.5 L7,5 L11,5 L11,3.5 C11,1.56700338 12.5670034,-8.8817842e-16 14.5,-8.8817842e-16 C16.4329966,0 18,1.56700338 18,3.5 C18,5.43299662 16.4329966,7 14.5,7 L13,7 L13,11 L14.5,11 C16.4329966,11 18,12.5670034 18,14.5 C18,16.4329966 16.4329966,18 14.5,18 C12.5670034,18 11,16.4329966 11,14.5 L11,13 Z M14.5,13 L13,13 L13,14.5 C13,15.3284271 13.6715729,16 14.5,16 C15.3284271,16 16,15.3284271 16,14.5 C16,13.6715729 15.3284271,13 14.5,13 Z M5,13 L3.5,13 C2.67157288,13 2,13.6715729 2,14.5 C2,15.3284271 2.67157288,16 3.5,16 C4.32842712,16 5,15.3284271 5,14.5 L5,13 Z M14.5,5 C15.3284271,5 16,4.32842712 16,3.5 C16,2.67157288 15.3284271,2 14.5,2 C13.6715729,2 13,2.67157288 13,3.5 L13,5 L14.5,5 Z M3.5,5 L5,5 L5,3.5 C5,2.67157288 4.32842712,2 3.5,2 C2.67157288,2 2,2.67157288 2,3.5 C2,4.32842712 2.67157288,5 3.5,5 Z"/>
  </g>
</svg>
