<svg xmlns="http://www.w3.org/2000/svg" width="18" height="18" viewBox="0 0 18 18">
  <title>Compass</title>
  <g fill="none" fill-rule="evenodd" stroke="none" stroke-width="1">
    <path fill="#3AC" fill-rule="nonzero" d="M9,16 C12.8659932,16 16,12.8659932 16,9 C16,5.13400675 12.8659932,2 9,2 C5.13400675,2 2,5.13400675 2,9 C2,12.8659932 5.13400675,16 9,16 Z M9,18 C4.02943725,18 0,13.9705627 0,9 C0,4.02943725 4.02943725,0 9,0 C13.9705627,0 18,4.02943725 18,9 C18,13.9705627 13.9705627,18 9,18 Z M12.9951064,5.66142574 L10.8737861,10.6111732 C10.8232115,10.7291807 10.7291807,10.8232115 10.6111732,10.8737861 L5.66142574,12.9951064 C5.24656476,13.172904 4.82709601,12.7534352 5.00489358,12.3385743 L7.12621392,7.38882679 C7.17678854,7.27081935 7.27081935,7.17678854 7.38882679,7.12621392 L12.3385743,5.00489358 C12.7534352,4.82709601 13.172904,5.24656476 12.9951064,5.66142574 Z M8.29289322,9.70710678 C8.68341751,10.0976311 9.31658249,10.0976311 9.70710678,9.70710678 C10.0976311,9.31658249 10.0976311,8.68341751 9.70710678,8.29289322 C9.31658249,7.90236893 8.68341751,7.90236893 8.29289322,8.29289322 C7.90236893,8.68341751 7.90236893,9.31658249 8.29289322,9.70710678 Z"/>
  </g>
</svg>
