<svg xmlns="http://www.w3.org/2000/svg" width="18" height="18" viewBox="0 0 18 18">
  <title>Crosshair</title>
  <g fill="none" fill-rule="evenodd" stroke="none" stroke-width="1">
    <path fill="#3AC" d="M12.8739825,8 C12.5122042,6.59439271 11.4056073,5.4877958 10,5.12601749 L10,8 L12.8739825,8 Z M14.9170416,8 L16,8 C16.5522847,8 17,8.44771525 17,9 C17,9.55228475 16.5522847,10 16,10 L14.9170416,10 C14.4955231,12.5125049 12.5125049,14.4955231 10,14.9170416 L10,16 C10,16.5522847 9.55228475,17 9,17 C8.44771525,17 8,16.5522847 8,16 L8,14.9170416 C5.48749513,14.4955231 3.50447689,12.5125049 3.08295844,10 L2,10 C1.44771525,10 1,9.55228475 1,9 C1,8.44771525 1.44771525,8 2,8 L3.08295844,8 C3.50447689,5.48749513 5.48749513,3.50447689 8,3.08295844 L8,2 C8,1.44771525 8.44771525,1 9,1 C9.55228475,1 10,1.44771525 10,2 L10,3.08295844 C12.5125049,3.50447689 14.4955231,5.48749513 14.9170416,8 Z M12.8739825,10 L10,10 L10,12.8739825 C11.4056073,12.5122042 12.5122042,11.4056073 12.8739825,10 Z M8,12.8739825 L8,10 L5.12601749,10 C5.4877958,11.4056073 6.59439271,12.5122042 8,12.8739825 Z M5.12601749,8 L8,8 L8,5.12601749 C6.59439271,5.4877958 5.4877958,6.59439271 5.12601749,8 Z"/>
  </g>
</svg>
