<svg xmlns="http://www.w3.org/2000/svg" width="18" height="18" viewBox="0 0 18 18">
  <title>Cross</title>
  <g fill="none" fill-rule="evenodd" stroke="none" stroke-width="1">
    <path fill="#3AC" d="M9.00507723,7.62526516 L13.8344195,2.79592291 C14.2154441,2.41489832 14.833207,2.41489832 15.2142316,2.79592291 C15.5952561,3.17694749 15.5952561,3.7947104 15.2142316,4.17573498 L10.3848893,9.00507723 L15.2040771,13.824265 C15.5851017,14.2052896 15.5851017,14.8230525 15.2040771,15.2040771 C14.8230525,15.5851017 14.2052896,15.5851017 13.824265,15.2040771 L9.00507723,10.3848893 L4.17573498,15.2142316 C3.7947104,15.5952561 3.17694749,15.5952561 2.79592291,15.2142316 C2.41489832,14.833207 2.41489832,14.2154441 2.79592291,13.8344195 L7.62526516,9.00507723 L2.78576844,4.16558051 C2.40474385,3.78455593 2.40474385,3.16679302 2.78576844,2.78576844 C3.16679302,2.40474385 3.78455593,2.40474385 4.16558051,2.78576844 L9.00507723,7.62526516 Z"/>
  </g>
</svg>
