<svg xmlns="http://www.w3.org/2000/svg" width="18" height="18" viewBox="0 0 18 18">
  <title>Circle</title>
  <g fill="none" fill-rule="evenodd" stroke="none" stroke-width="1">
    <path fill="#3AC" d="M9,16 C12.8659932,16 16,12.8659932 16,9 C16,5.13400675 12.8659932,2 9,2 C5.13400675,2 2,5.13400675 2,9 C2,12.8659932 5.13400675,16 9,16 Z M9,18 C4.02943725,18 0,13.9705627 0,9 C0,4.02943725 4.02943725,0 9,0 C13.9705627,0 18,4.02943725 18,9 C18,13.9705627 13.9705627,18 9,18 Z M10.4142136,9 L12.5355339,11.1213203 C12.9260582,11.5118446 12.9260582,12.1450096 12.5355339,12.5355339 C12.1450096,12.9260582 11.5118446,12.9260582 11.1213203,12.5355339 L9,10.4142136 L6.87867966,12.5355339 C6.48815536,12.9260582 5.85499039,12.9260582 5.46446609,12.5355339 C5.0739418,12.1450096 5.0739418,11.5118446 5.46446609,11.1213203 L7.58578644,9 L5.46446609,6.87867966 C5.0739418,6.48815536 5.0739418,5.85499039 5.46446609,5.46446609 C5.85499039,5.0739418 6.48815536,5.0739418 6.87867966,5.46446609 L9,7.58578644 L11.1213203,5.46446609 C11.5118446,5.0739418 12.1450096,5.0739418 12.5355339,5.46446609 C12.9260582,5.85499039 12.9260582,6.48815536 12.5355339,6.87867966 L10.4142136,9 Z"/>
  </g>
</svg>
