<svg xmlns="http://www.w3.org/2000/svg" width="18" height="18" viewBox="0 0 18 18">
  <title>Database</title>
  <g fill="none" fill-rule="evenodd" stroke="none" stroke-width="1">
    <path fill="#3AC" d="M4,9.17462047 L14,9.17462047 L14,7.47172678 C12.7150852,8.16302633 10.9293715,8.5 9,8.5 C7.07062851,8.5 5.28491483,8.16302633 4,7.47172678 L4,9.17462047 Z M4,12.1463472 L4,13.5 C4,14.6045695 6.23857625,15.5 9,15.5 C11.7614237,15.5 14,14.6045695 14,13.5 L14,12.1463472 C12.7150852,12.8376468 10.9293715,13.1746205 9,13.1746205 C7.07062851,13.1746205 5.28491483,12.8376468 4,12.1463472 Z M2,4.5 C2,1.79000927 5.22502317,0.5 9,0.5 C12.7749768,0.5 16,1.79000927 16,4.5 L16,13.5 C16,16.2099907 12.7749768,17.5 9,17.5 C5.22502317,17.5 2,16.2099907 2,13.5 L2,4.5 Z M9,6.5 C11.7614237,6.5 14,5.6045695 14,4.5 C14,3.3954305 11.7614237,2.5 9,2.5 C6.23857625,2.5 4,3.3954305 4,4.5 C4,5.6045695 6.23857625,6.5 9,6.5 Z M4,9.17462047 C4,10.27919 6.23857625,11.1746205 9,11.1746205 C11.7614237,11.1746205 14,10.27919 14,9.17462047 L4,9.17462047 Z"/>
  </g>
</svg>
