<svg xmlns="http://www.w3.org/2000/svg" width="18" height="18" viewBox="0 0 18 18">
  <title>Diamond</title>
  <g fill="none" fill-rule="evenodd" stroke="none" stroke-width="1">
    <path fill="#3AC" fill-rule="evenodd" clip-rule="evenodd" d="M3.298 1.841A1.664 1.664 0 0 1 4.611 1.2h8.773c.511 0 .997.235 1.313.641l2.761 3.563a1.629 1.629 0 0 1-.019 2.023l-7.049 8.755a1.664 1.664 0 0 1-2.574.016L.576 7.436a1.63 1.63 0 0 1-.032-2.039l2.754-3.556zm1.313.959a.064.064 0 0 0-.048.021L2.399 5.614h13.196l-2.164-2.793a.061.061 0 0 0-.047-.021H4.611zm10.945 4.414h-2.672l-1.943 5.732 4.615-5.732zm-6.452 6.167 2.091-6.167H7.014l2.09 6.167zm-3.78-6.167 1.988 5.865-4.846-5.865h2.858z" />
  </g>
</svg>
