<svg xmlns="http://www.w3.org/2000/svg" width="18" height="18" viewBox="0 0 18 18">
  <title>Dollar</title>
  <g fill="none" fill-rule="evenodd" stroke="none" stroke-width="1">
    <path fill="#3AC" fill-rule="nonzero" d="M9.0220929,0 C9.57437765,-1.01453063e-16 10.0220929,0.44771525 10.0220929,1 L10.0233433,2.05594725 C11.8156164,2.26572612 13.1294857,3.06621467 13.8610059,4.47043889 C14.1161674,4.96024608 13.9259494,5.56416248 13.4361422,5.81932392 C12.9813213,6.05625955 12.4281102,5.90916906 12.147104,5.49478023 L12.0872572,5.39446022 L12.0026425,5.24487904 C11.6184754,4.61837988 10.9795457,4.22488148 10.0229395,4.07226796 L10.0232846,8.28941373 C12.6696061,9.20439787 13.9524499,10.5397755 13.9524499,12.4288297 C13.9524499,14.3563644 12.460485,15.6520024 10.0230985,15.9397145 L10.0220929,17 C10.0220929,17.5522847 9.57437765,18 9.0220929,18 C8.46980815,18 8.0220929,17.5522847 8.0220929,17 L8.02156921,15.9522397 C6.19319185,15.75537 4.85441998,14.9524111 4.11333128,13.5298194 C3.85816983,13.0400122 4.04838779,12.4360958 4.53819497,12.1809343 C4.99301593,11.9439987 5.54622698,12.0910892 5.82723315,12.505478 L5.88708001,12.605798 L5.97169464,12.7553792 C6.36519111,13.3970926 7.02597386,13.7943512 8.02165259,13.9386824 L8.02156507,9.73545155 C5.32773262,8.81965336 4.02188726,7.47734302 4.02188726,5.57142857 C4.02188726,3.62524281 5.54286465,2.32324162 8.02225688,2.05247539 L8.0220929,1 C8.0220929,0.44771525 8.46980815,1.01453063e-16 9.0220929,0 Z M10.0221947,10.420564 L10.0231257,13.9305158 C11.350117,13.7388295 11.9524499,13.168707 11.9524499,12.4288297 C11.9524499,11.6480829 11.4256907,11.0004584 10.0221947,10.420564 Z M6.02188726,5.57142857 C6.02188726,6.36484383 6.56587961,7.02078159 8.02115618,7.60786928 L8.02104531,4.06009362 C6.64533539,4.24166611 6.02188726,4.81869454 6.02188726,5.57142857 Z"/>
  </g>
</svg>
