<svg xmlns="http://www.w3.org/2000/svg" width="18" height="18" viewBox="0 0 18 18">
  <title>Download</title>
  <g fill="none" fill-rule="evenodd" stroke="none" stroke-width="1">
    <path fill="#3AC" d="M7.99952456,10.2598038 L7.99789771,1.00017854 C7.99781676,0.447893797 8.44548886,0.000113489376 8.99780134,3.25407279e-05 C9.55011382,-4.84079204e-05 9.99791718,0.447600797 9.99799813,0.999885541 L9.99962675,10.2695967 L13.2962648,6.9849689 C13.6873315,6.59532695 14.3199481,6.5967559 14.7092536,6.98816054 C15.0985592,7.37956519 15.0971314,8.01272856 14.7060648,8.4023705 L9.75768677,13.3327206 C9.57432853,13.5453628 9.30296525,13.6799878 9.00014659,13.6800322 C8.69112218,13.6800775 8.41481452,13.53996 8.23133929,13.3197749 L3.29293443,8.387139 C2.9019534,7.99661471 2.9019534,7.36344973 3.29293443,6.97292544 C3.68391546,6.58240115 4.31782096,6.58240115 4.70880199,6.97292544 L7.99952456,10.2598038 Z M1,15.9998996 L17,15.9998996 C17.5522847,15.9998996 18,16.4476148 18,16.9998996 L18,17 C18,17.5522847 17.5522847,18 17,18 L1,18 C0.44771525,18 6.76353751e-17,17.5522847 0,17 L0,16.9998996 C-6.76353751e-17,16.4476148 0.44771525,15.9998996 1,15.9998996 Z"/>
  </g>
</svg>
