<svg xmlns="http://www.w3.org/2000/svg" width="18" height="18" viewBox="0 0 18 18">
  <title>Edit</title>
  <g fill="none" fill-rule="evenodd" stroke="none" stroke-width="1">
    <path fill="#3AC" d="M12.055681,15.0003012 C12.055681,14.4480719 12.5056625,14.0004016 13.0607429,14.0004016 C13.6158233,14.0004016 14.0658048,14.4480719 14.0658048,15.0003012 L14.0658048,17.0001004 C14.0658048,17.5523297 13.6158233,18 13.0607429,18 L2.00506191,18 C1.44998154,18 1,17.5523297 1,17.0001004 L1,0.999899612 C1,0.447670305 1.44998154,-2.84217094e-14 2.00506191,-2.84217094e-14 L13.0607429,-2.84217094e-14 C13.6158233,-2.84217094e-14 14.0658048,0.447670305 14.0658048,0.999899612 L14.0658048,2.00160621 C14.0658048,2.55383551 13.6158233,3.00150582 13.0607429,3.00150582 C12.5056625,3.00150582 12.055681,2.55383551 12.055681,2.00160621 L3.01012381,1.99979922 L3.01012381,16.0002008 L12.055681,16.0002008 L12.055681,15.0003012 Z M15.9775992,7.4584373 L13.8455409,5.32637903 L14.5525057,4.61941422 C14.94303,4.22888993 15.576195,4.22888993 15.9667193,4.61941422 L16.684564,5.33725893 C17.0750883,5.72778322 17.0750883,6.3609482 16.684564,6.75147249 L15.9775992,7.4584373 Z M15.2705634,8.1654731 L8.90724123,14.5287953 L6.7806584,14.5233198 L6.77518296,12.396737 L13.1385051,6.03341483 L15.2705634,8.1654731 Z"/>
  </g>
</svg>
