<svg xmlns="http://www.w3.org/2000/svg" width="18" height="18" viewBox="0 0 18 18">
  <title>Education</title>
  <g fill="none" fill-rule="evenodd" stroke="none" stroke-width="1">
    <path fill="#3AC" d="M9,14.7758162 L13,12.854165 L12.9821992,10.45 L14.9665323,9.47293 L15,13.50505 C15,13.8999145 14.7616031,14.2567852 14.3939193,14.41233 L9.7878386,16.5903774 C9.28474101,16.8032075 8.71525899,16.8032075 8.2121614,16.5903774 L3.6060807,14.41233 C3.23839685,14.2567852 3,13.8999145 3,13.50505 L2.99969866,9.47293 L5.01780076,10.45 L5,12.854165 L9,14.7758162 Z M3.23606798,6.25 L9,9.13196601 L14.763932,6.25 L9,3.36803399 L3.23606798,6.25 Z M9.4472136,1.35557281 L17.4472136,5.35557281 C18.1842621,5.72409708 18.1842621,6.77590292 17.4472136,7.14442719 L9.4472136,11.1444272 C9.1656861,11.2851909 8.8343139,11.2851909 8.5527864,11.1444272 L0.552786405,7.14442719 C-0.184262135,6.77590292 -0.184262135,5.72409708 0.552786405,5.35557281 L8.5527864,1.35557281 C8.8343139,1.21480906 9.1656861,1.21480906 9.4472136,1.35557281 Z"/>
  </g>
</svg>
