<svg xmlns="http://www.w3.org/2000/svg" width="18" height="18" viewBox="0 0 18 18">
  <title>Exercise</title>
  <g fill="none" fill-rule="evenodd" stroke="none" stroke-width="1">
    <path fill="#3AC" d="M4,2 C3.44771525,2 3,2.44771525 3,3 L3,15 C3,15.5522847 3.44771525,16 4,16 L14,16 C14.5522847,16 15,15.5522847 15,15 L15,3 C15,2.44771525 14.5522847,2 14,2 L4,2 Z M4,0 L14,0 C15.6568542,0 17,1.34314575 17,3 L17,15 C17,16.6568542 15.6568542,18 14,18 L4,18 C2.34314575,18 1,16.6568542 1,15 L1,3 C1,1.34314575 2.34314575,0 4,0 Z M6,6 L12,6 C12.5522847,6 13,6.44771525 13,7 C13,7.55228475 12.5522847,8 12,8 L6,8 C5.44771525,8 5,7.55228475 5,7 C5,6.44771525 5.44771525,6 6,6 Z M6,10 L12,10 C12.5522847,10 13,10.4477153 13,11 C13,11.5522847 12.5522847,12 12,12 L6,12 C5.44771525,12 5,11.5522847 5,11 C5,10.4477153 5.44771525,10 6,10 Z"/>
  </g>
</svg>
