<svg xmlns="http://www.w3.org/2000/svg" width="18" height="18" viewBox="0 0 18 18">
  <title>Exit</title>
  <g fill="none" fill-rule="evenodd" stroke="none" stroke-width="1">
    <path fill="#3AC" d="M8,3.35364668e-14 C8.55228475,3.35026491e-14 9,0.447815959 9,1.00022494 L9,4.40908664 C9,4.96149562 8.55228475,5.40931158 8,5.40931158 C7.44771525,5.40931158 7,4.96149562 7,4.40908664 L7,2.00044988 L2,2.00044988 L2,15.9995501 L7,15.9995501 L7,13.5715304 C7,13.0191214 7.44771525,12.5713055 8,12.5713055 C8.55228475,12.5713055 9,13.0191214 9,13.5715304 L9,16.9997751 C9,17.552184 8.55228475,18 8,18 L1,18 C0.44771525,18 -5.32907052e-15,17.552184 -5.32907052e-15,16.9997751 L-7.10542736e-15,1.00022494 C-7.10542736e-15,0.447815959 0.44771525,3.39989108e-14 1,3.39650931e-14 L8,3.35364668e-14 Z M13.7245252,4.2942218 L17.6672856,8.25241662 C17.8733311,8.43555615 18.0031491,8.70254334 18.0031491,8.99985342 C18.0031491,9.29843677 17.8723025,9.5664753 17.6647986,9.74973774 L13.7092903,13.706779 C13.3186782,14.0977403 12.6853707,14.0977403 12.2947586,13.706779 C11.9341936,13.3458915 11.9064578,12.7780256 12.2115513,12.3852953 L12.2947586,12.2909825 L14.581,10 L5.00037153,10.002052 C4.44796256,10.0021329 4,9.55448329 4,9.00219855 C4,8.4499138 4.44766935,8.00213294 5.00007833,8.00205199 L14.594,8 L12.3068048,5.70395096 C11.9170752,5.31290392 11.9185045,4.68031903 12.3099971,4.29103307 C12.7014898,3.90174711 13.3347956,3.90317476 13.7245252,4.2942218 Z"/>
  </g>
</svg>
