<svg xmlns="http://www.w3.org/2000/svg" width="18" height="18" viewBox="0 0 18 18">
  <title>Expand</title>
  <g fill="none" fill-rule="evenodd" stroke="none" stroke-width="1">
    <path fill="#3AC" d="M17.9953535,1.10813256 L17.9952514,8.28606472 C17.9952433,8.8529275 17.5357037,9.31246712 16.9688409,9.31247519 C16.4019781,9.31248326 15.9424516,8.85295672 15.9424596,8.28609394 L15.9425483,2.0598099 L9.72603441,2.05218686 C9.15974993,2.05149245 8.70219479,1.59186311 8.70405641,1.02557599 C8.70591803,0.459288876 9.16649145,0.00078539486 9.73277593,0.00147980454 L16.9760404,0.0103619003 C17.5423249,0.01105631 17.99988,0.470685652 17.9980184,1.03697277 C17.9979398,1.06089386 17.9970426,1.08462262 17.9953535,1.10813256 Z M0.00464646407,16.8918674 L0.00474864517,9.71393528 C0.00475671472,9.1470725 0.464296334,8.68753288 1.03115911,8.68752481 C1.59802189,8.68751674 2.05754843,9.14704328 2.05754036,9.71390606 L2.05745172,15.9401901 L8.27396559,15.9478131 C8.84025007,15.9485075 9.29780521,16.4081369 9.29594359,16.974424 C9.29408197,17.5407111 8.83350855,17.9992146 8.26722407,17.9985202 L1.0239596,17.9896381 C0.457675116,17.9889437 0.000119981474,17.5293143 0.00198160143,16.9630272 C0.00206023994,16.9391061 0.00295739674,16.9153774 0.00464646407,16.8918674 Z"/>
  </g>
</svg>
