<svg xmlns="http://www.w3.org/2000/svg" width="18" height="18" viewBox="0 0 18 18">
  <title>External Link</title>
  <g fill="none" fill-rule="evenodd" stroke="none" stroke-width="1">
    <path fill="#3AC" fill-rule="evenodd" d="M4.4251709,0 C4.97745565,0 5.4251709,0.44771525 5.4251709,1 C5.4251709,1.51283584 5.03913071,1.93550716 4.54179202,1.99327227 L4.4251709,2 L2.77777778,2 C2.38401921,2 2.05860197,2.29260403 2.00710019,2.67223794 L2,2.77777778 L2,15.2222222 C2,15.6159808 2.29260403,15.941398 2.67223794,15.9928998 L2.77777778,16 L15.2222222,16 C15.6159808,16 15.941398,15.707396 15.9928998,15.3277621 L16,15.2222222 L16,13.6395399 C16,13.0872552 16.4477153,12.6395399 17,12.6395399 C17.5128358,12.6395399 17.9355072,13.0255801 17.9932723,13.5229188 L18,13.6395399 L18,15.2222222 C18,16.6995271 16.846763,17.9074791 15.3914367,17.9949305 L15.2222222,18 L2.77777778,18 C1.30047289,18 0.0925209305,16.846763 0.00506948883,15.3914367 L0,15.2222222 L0,2.77777778 C0,1.30047289 1.15323697,0.0925209305 2.6085633,0.00506948883 L2.77777778,0 L4.4251709,0 Z M17,0 C17.5128358,0 17.9355072,0.38604019 17.9932723,0.883378875 L18,1 L18,9 C18,9.55228475 17.5522847,10 17,10 C16.4871642,10 16.0644928,9.61395981 16.0067277,9.11662113 L16,9 L16,3.439 L5.95163517,13.52056 C5.56173053,13.911703 4.92856634,13.9127068 4.53742339,13.5228022 C4.17636835,13.1628902 4.14773954,12.5957038 4.45214209,12.2029295 L4.53518123,12.1085904 L14.61,2 L9,2 C8.48716416,2 8.06449284,1.61395981 8.00672773,1.11662113 L8,1 C8,0.487164161 8.38604019,0.0644928393 8.88337887,0.00672773133 L9,0 L17,0 Z"/>
  </g>
</svg>
