<svg xmlns="http://www.w3.org/2000/svg" width="18" height="18" viewBox="0 0 18 18">
  <title>Filter</title>
  <g fill="none" fill-rule="evenodd" stroke="none" stroke-width="1">
    <path fill="#3AC" d="M5.83409843,13.9863016 C5.42615464,15.158644 4.31133193,16 3,16 C1.34314575,16 0,14.6568542 0,13 C0,11.3431458 1.34314575,10 3,10 C4.31133193,10 5.42615464,10.841356 5.83409843,12.0136984 C5.88805868,12.0046887 5.94348179,12 6,12 L17,12 C17.5522847,12 18,12.4477153 18,13 C18,13.5522847 17.5522847,14 17,14 L6,14 C5.94348179,14 5.88805868,13.9953113 5.83409843,13.9863016 Z M12.1707057,4 C12.5825421,2.83480763 13.6937812,2 15,2 C16.6568542,2 18,3.34314575 18,5 C18,6.65685425 16.6568542,8 15,8 C13.6937812,8 12.5825421,7.16519237 12.1707057,6 L2,6 C1.44771525,6 1,5.55228475 1,5 C1,4.44771525 1.44771525,4 2,4 L12.1707057,4 Z M15,6 C15.5522847,6 16,5.55228475 16,5 C16,4.44771525 15.5522847,4 15,4 C14.4477153,4 14,4.44771525 14,5 C14,5.55228475 14.4477153,6 15,6 Z M3,14 C3.55228475,14 4,13.5522847 4,13 C4,12.4477153 3.55228475,12 3,12 C2.44771525,12 2,12.4477153 2,13 C2,13.5522847 2.44771525,14 3,14 Z"/>
  </g>
</svg>
