<svg xmlns="http://www.w3.org/2000/svg" width="18" height="18" viewBox="0 0 18 18">
  <title>Float</title>
  <g fill="none" fill-rule="evenodd" stroke="none" stroke-width="1">
    <path fill="#3AC" d="M11.0319673,12.4461809 C11.6144058,12.1020172 12.1020172,11.6144058 12.4461809,11.0319673 L14.6063847,13.1921711 C15.4815965,12.0235906 16,10.5723351 16,9 C16,7.4276649 15.4815965,5.97640944 14.6063847,4.80782891 L12.4461809,6.96803265 C12.1020172,6.38559425 11.6144058,5.89798284 11.0319673,5.55381909 L13.1921711,3.39361534 C12.0235906,2.51840355 10.5723351,2 9,2 C7.4276649,2 5.97640944,2.51840355 4.80782891,3.39361534 L6.96803265,5.55381909 C6.38559425,5.89798284 5.89798284,6.38559425 5.55381909,6.96803265 L3.39361534,4.80782891 C2.51840355,5.97640944 2,7.4276649 2,9 C2,10.5723351 2.51840355,12.0235906 3.39361534,13.1921711 L5.55381909,11.0319673 C5.89798284,11.6144058 6.38559425,12.1020172 6.96803265,12.4461809 L4.80782891,14.6063847 C5.97640944,15.4815965 7.4276649,16 9,16 C10.5723351,16 12.0235906,15.4815965 13.1921711,14.6063847 L11.0319673,12.4461809 Z M9,18 C4.02943725,18 0,13.9705627 0,9 C0,4.02943725 4.02943725,0 9,0 C13.9705627,0 18,4.02943725 18,9 C18,13.9705627 13.9705627,18 9,18 Z M9,11 C10.1045695,11 11,10.1045695 11,9 C11,7.8954305 10.1045695,7 9,7 C7.8954305,7 7,7.8954305 7,9 C7,10.1045695 7.8954305,11 9,11 Z M9,13 C11.209139,13 13,11.209139 13,9 C13,6.790861 11.209139,5 9,5 C6.790861,5 5,6.790861 5,9 C5,11.209139 6.790861,13 9,13 Z"/>
  </g>
</svg>
