<svg xmlns="http://www.w3.org/2000/svg" width="18" height="18" viewBox="0 0 18 18">
  <title>Folder</title>
  <g fill="none" fill-rule="evenodd" stroke="none" stroke-width="1">
    <path fill="#3AC" d="M14.4998488,6 L3.50015123,6 L2.18064793,6 L3.84726877,16 L14.1527312,16 L15.8193521,6 L14.4998488,6 Z M2.31972326,4 L2.01379817,2.16439899 C1.91221235,1.55486728 2.38224253,1 3.00016497,1 L14.999835,1 C15.6177575,1 16.0877877,1.55486728 15.9862018,2.16439899 L15.6802767,4 L16.99978,4 C17.6177025,4 18.0877327,4.55486728 17.9861468,5.16439899 L15.9862018,17.164399 C15.9058394,17.646587 15.4886607,18 14.999835,18 L3.00016497,18 C2.51133926,18 2.09416062,17.646587 2.01379817,17.164399 L0.0138531626,5.16439899 C-0.0877326619,4.55486728 0.382297518,4 1.00021996,4 L2.31972326,4 Z M4.34725502,4 L13.652745,4 L13.8194071,3 L4.18059294,3 L4.34725502,4 Z"/>
  </g>
</svg>
