<svg xmlns="http://www.w3.org/2000/svg" width="18" height="18" viewBox="0 0 18 18">
  <title>Full Screen</title>
  <g fill="none" fill-rule="evenodd" stroke="none" stroke-width="1">
    <path fill="#3AC" d="M3,4 C2.44771525,4 2,4.44771525 2,5 L2,13 C2,13.5522847 2.44771525,14 3,14 L15,14 C15.5522847,14 16,13.5522847 16,13 L16,5 C16,4.44771525 15.5522847,4 15,4 L3,4 Z M3,2 L15,2 C16.6568542,2 18,3.34314575 18,5 L18,13 C18,14.6568542 16.6568542,16 15,16 L3,16 C1.34314575,16 0,14.6568542 0,13 L0,5 C0,3.34314575 1.34314575,2 3,2 Z M6,11 C6.55228475,11 7,11.4477153 7,12 C7,12.5522847 6.55228475,13 6,13 L4,13 C3.44771525,13 3,12.5522847 3,12 L3,10 C3,9.44771525 3.44771525,9 4,9 C4.55228475,9 5,9.44771525 5,10 L5,11 L6,11 Z M12,7 C11.4477153,7 11,6.55228475 11,6 C11,5.44771525 11.4477153,5 12,5 L14,5 C14.5522847,5 15,5.44771525 15,6 L15,8 C15,8.55228475 14.5522847,9 14,9 C13.4477153,9 13,8.55228475 13,8 L13,7 L12,7 Z"/>
  </g>
</svg>
