<svg xmlns="http://www.w3.org/2000/svg" width="18" height="18" viewBox="0 0 18 18">
  <title>Globe</title>
  <g fill="none" fill-rule="evenodd" stroke="none" stroke-width="1">
    <path fill="#3AC" d="M15.1701986,5.69125937 C14.8599849,5.96621112 14.4325233,6.22739461 13.8158253,6.54471591 C13.4883734,6.71320596 13.3040217,6.85228892 13.2331931,6.94683992 C13.2156125,6.97030876 13.2190044,6.98617586 13.5548986,7.78099522 C13.6831756,8.08453441 13.7751895,8.33238821 13.8518699,8.60100373 C14.5043098,10.8865352 12.6507643,13.9275676 10.1051763,13.5841627 C8.68610191,13.3927268 7.97180813,12.4482001 7.89767366,11.1749723 C7.87915126,10.856858 7.89717145,10.5595275 7.9438701,10.1945918 C7.68167852,10.0889593 7.1026412,9.86222013 6.91092447,9.78146925 C5.41127362,9.14981796 4.5897084,8.51272265 4.5897084,7.34062994 C4.5897084,5.37365469 5.87919732,4.65552334 8.17347082,4.65552334 C8.29463902,4.65552334 8.20823402,4.70626799 8.17742418,4.78476638 C8.19822448,4.73177065 8.19784972,4.53114695 8.14752092,4.18019583 C8.13799725,4.11378571 8.13046102,4.06481788 8.1111925,3.94281357 C8.03014002,3.4316545 8.00848353,3.26223271 8.00848353,3 C8.00848353,2.68350877 8.09746564,2.36581477 8.27622847,2.03696367 C4.75030476,2.39915048 2,5.37839119 2,9 C2,12.8659932 5.13400675,16 9,16 C12.8659932,16 16,12.8659932 16,9 C16,7.80317939 15.6996443,6.67651062 15.1701986,5.69125937 Z M13.8681748,3.96999449 C13.0037142,3.13317567 11.9241789,2.51719864 10.7205161,2.21301076 C10.6134627,2.31207489 10.5166499,2.4067675 10.4301391,2.49698465 C10.1267384,2.81338366 10.0084835,3.0153206 10.0084835,3 C10.0084835,3.1125143 10.0249553,3.24137524 10.0865137,3.62959468 C10.106919,3.75871071 10.1159953,3.81768553 10.1272672,3.89628657 C10.2244937,4.57426281 10.2253657,5.04105679 10.0391597,5.51547896 C9.748069,6.2571302 9.06970862,6.65552334 8.17347082,6.65552334 C6.83687952,6.65552334 6.5897084,6.7931758 6.5897084,7.34062994 C6.5897084,7.3551601 6.93081941,7.61967985 7.68726747,7.93829494 C7.88009428,8.01951339 8.66784342,8.32666784 8.84480026,8.40276092 C9.58426152,8.72073613 9.88869578,8.91986321 9.99297502,9.53919277 C10.0057639,9.62997305 10.0057639,9.62997305 10.0084835,9.7244873 C10.0084835,9.82832688 9.99930586,9.92688675 9.98149722,10.061636 C9.97400486,10.1183271 9.94455382,10.3231441 9.94029123,10.3539763 C9.89881054,10.6540148 9.88311847,10.8668169 9.89429203,11.058718 C9.91695817,11.4479991 9.99498958,11.5511818 10.3725582,11.6021166 C11.291195,11.7260425 12.2261694,10.1920701 11.9286955,9.15000324 C11.8779802,8.9723448 11.8120167,8.79466174 11.7126519,8.55953691 C11.713081,8.5605522 11.5364568,8.15132091 11.4879666,8.03111576 C11.3943213,7.79897261 11.3293394,7.60342441 11.2863026,7.40210172 C11.1595874,6.80933709 11.2571115,6.24888074 11.6325055,5.74775727 C11.9120712,5.37455754 12.3268303,5.06164523 12.9007591,4.76633077 C13.5249493,4.44515433 13.8237398,4.24015235 13.9050474,4.13143578 C13.9008545,4.13617159 13.8964586,4.12678089 13.8681748,3.96999449 Z M9,18 C4.02943725,18 0,13.9705627 0,9 C0,4.02943725 4.02943725,0 9,0 C13.9705627,0 18,4.02943725 18,9 C18,13.9705627 13.9705627,18 9,18 Z"/>
  </g>
</svg>
