<svg xmlns="http://www.w3.org/2000/svg" width="18" height="18" viewBox="0 0 18 18">
  <title>Group</title>
  <g fill="none" fill-rule="evenodd" stroke="none" stroke-width="1">
    <path fill="#3AC" d="M9,17 L9,12 C9,11.4477153 8.55228475,11 8,11 L4,11 C3.44771525,11 3,11.4477153 3,12 L3,17 C3,17.6666667 2.66666667,18 2,18 C1.33333333,18 1,17.6666667 1,17 L1,12 C1,10.3431458 2.34314575,9 4,9 L8,9 C9.65685425,9 11,10.3431458 11,12 L11,17 C11,17.6666667 10.6667473,18 10.0002419,18 C9.33373643,18 9.00032248,17.6666667 9,17 Z M15,17 L15,14 C15,13.4477153 14.5522847,13 14,13 L13,13 C12.3333333,13 12,12.6666667 12,12 C12,11.3333333 12.3333333,11 13,11 L14,11 C15.6568542,11 17,12.3431458 17,14 L17,17 C17,17.6666667 16.6667473,18 16.0002419,18 C15.3337364,18 15.0003225,17.6666667 15,17 Z M6,6 C7.1045695,6 8,5.1045695 8,4 C8,2.8954305 7.1045695,2 6,2 C4.8954305,2 4,2.8954305 4,4 C4,5.1045695 4.8954305,6 6,6 Z M6,8 C3.790861,8 2,6.209139 2,4 C2,1.790861 3.790861,0 6,0 C8.209139,0 10,1.790861 10,4 C10,6.209139 8.209139,8 6,8 Z M14,8 C14.5522847,8 15,7.55228475 15,7 C15,6.44771525 14.5522847,6 14,6 C13.4477153,6 13,6.44771525 13,7 C13,7.55228475 13.4477153,8 14,8 Z M14,10 C12.3431458,10 11,8.65685425 11,7 C11,5.34314575 12.3431458,4 14,4 C15.6568542,4 17,5.34314575 17,7 C17,8.65685425 15.6568542,10 14,10 Z"/>
  </g>
</svg>
