<svg xmlns="http://www.w3.org/2000/svg" width="18" height="18" viewBox="0 0 18 18">
  <title>Health</title>
  <g fill="none" fill-rule="evenodd" stroke="none" stroke-width="1">
    <path fill="#3AC" fill-rule="nonzero" d="M13,5 L15.5,5 C16.8807119,5 18,6.11928813 18,7.5 L18,10.5 C18,11.8807119 16.8807119,13 15.5,13 L13,13 L13,15.5 C13,16.8807119 11.8807119,18 10.5,18 L7.5,18 C6.11928813,18 5,16.8807119 5,15.5 L5,13 L2.5,13 C1.11928813,13 0,11.8807119 0,10.5 L0,7.5 C0,6.11928813 1.11928813,5 2.5,5 L5,5 L5,2.5 C5,1.11928813 6.11928813,0 7.5,0 L10.5,0 C11.8807119,0 13,1.11928813 13,2.5 L13,5 Z M11,7 L11,2.5 C11,2.22385763 10.7761424,2 10.5,2 L7.5,2 C7.22385763,2 7,2.22385763 7,2.5 L7,7 L2.5,7 C2.22385763,7 2,7.22385763 2,7.5 L2,10.5 C2,10.7761424 2.22385763,11 2.5,11 L7,11 L7,15.5 C7,15.7761424 7.22385763,16 7.5,16 L10.5,16 C10.7761424,16 11,15.7761424 11,15.5 L11,11 L15.5,11 C15.7761424,11 16,10.7761424 16,10.5 L16,7.5 C16,7.22385763 15.7761424,7 15.5,7 L11,7 Z"/>
  </g>
</svg>
