<svg xmlns="http://www.w3.org/2000/svg" width="18" height="18" viewBox="0 0 18 18">
  <title>Heart</title>
  <g fill="none" fill-rule="evenodd" stroke="none" stroke-width="1">
    <path fill="#3AC" d="M14.6434061,9.26542776 L14.7569724,9.18194058 C15.5303095,8.65437431 16,7.78590093 16,6.83504837 C16,5.26676315 14.7257335,3.99541679 13.1538462,3.99541679 C12.14294,3.99541679 11.2259977,4.52372375 10.7130502,5.37305718 C9.93551899,6.66048576 8.06448101,6.66048576 7.28694982,5.37305718 C6.77400234,4.52372375 5.85706004,3.99541679 4.84615385,3.99541679 C3.27426648,3.99541679 2,5.26676315 2,6.83504837 C2,7.77136935 2.45520269,8.62798918 3.20904121,9.15839322 L3.29803862,9.224781 L8.99935906,13.7293741 L14.6434061,9.26542776 Z M9,4.34321183 C9.41797162,3.70599534 9.88715421,3.20851765 10.4075478,2.85077876 C11.1881381,2.31417043 12.1342186,2 13.1538462,2 C15.830303,2 18,4.16472489 18,6.83504837 C18,8.49428905 17.1622969,9.95832207 15.8858351,10.8291172 L9.62089407,15.7841363 C9.25713463,16.0718382 8.742763,16.0719671 8.37885874,15.7844476 L2.05639705,10.789093 C0.812488514,9.91387361 0,8.46912698 0,6.83504837 C0,4.16472489 2.16969698,2 4.84615385,2 C5.86578136,2 6.81186189,2.31417043 7.59245223,2.85077876 C8.11284579,3.20851765 8.58202838,3.70599534 9,4.34321183 Z"/>
  </g>
</svg>
