<svg xmlns="http://www.w3.org/2000/svg" width="18" height="18" viewBox="0 0 18 18">
  <title>Help</title>
  <g fill="none" fill-rule="evenodd" stroke="none" stroke-width="1">
    <path fill="#3AC" d="M10.1959646,11.0369643 C10.1959646,11.5893833 9.75584507,12.0372073 9.21293007,12.0372073 C8.67001507,12.0372073 8.22989551,11.5893833 8.22989551,11.0369643 L8.22989551,9.15481547 C8.22989551,8.78611203 8.42924191,8.44730549 8.74863918,8.27316548 C10.3310868,7.41039219 11.0339309,6.52851451 11.0339309,5.63651567 C11.0339309,4.57895438 10.2416215,4.00048584 9.21293007,4.00048584 C8.80545417,4.00048584 8.31097868,4.30029213 7.73511738,4.99638059 C7.38548946,5.41900313 6.76535097,5.47321543 6.3499993,5.11746715 C5.93464763,4.76171887 5.88136801,4.13072464 6.23099594,3.7081021 C7.14644618,2.60152599 8.13855297,2 9.21293007,2 C11.2137993,2 13,3.30411289 13,5.63651567 C13,7.25034246 12.0199482,8.61463371 10.1959646,9.73630727 L10.1959646,11.0369643 Z M9.23933872,16 C8.69642372,16 8.25630416,15.552176 8.25630416,14.9997571 C8.25630416,14.4473382 8.69642372,13.9995142 9.23933872,13.9995142 C9.78225371,13.9995142 10.2223733,14.4473382 10.2223733,14.9997571 C10.2223733,15.552176 9.78225371,16 9.23933872,16 Z"/>
  </g>
</svg>
