<svg xmlns="http://www.w3.org/2000/svg" width="18" height="18" viewBox="0 0 18 18">
  <title>Help</title>
  <g fill="none" fill-rule="evenodd" stroke="none" stroke-width="1">
    <path fill="#3AC" d="M9,16 C12.8659932,16 16,12.8659932 16,9 C16,5.13400675 12.8659932,2 9,2 C5.13400675,2 2,5.13400675 2,9 C2,12.8659932 5.13400675,16 9,16 Z M9,18 C4.02943725,18 0,13.9705627 0,9 C0,4.02943725 4.02943725,0 9,0 C13.9705627,0 18,4.02943725 18,9 C18,13.9705627 13.9705627,18 9,18 Z M9,14 C8.44771525,14 8,13.5522847 8,13 C8,12.4477153 8.44771525,12 9,12 C9.55228475,12 10,12.4477153 10,13 C10,13.5522847 9.55228475,14 9,14 Z M9.99814135,10.0081876 C9.99814135,10.5604724 9.55042609,11.0081876 8.99814135,11.0081876 C8.4458566,11.0081876 7.99814135,10.5604724 7.99814135,10.0081876 L7.99814135,9.28834132 C7.99962096,9.21752047 7.99962096,9.21752047 8.00666487,9.14879449 C8.06542486,8.66905067 8.28218231,8.4430061 8.70265111,8.1433781 C8.7199232,8.13106993 9.14382731,7.84471103 9.25683419,7.75847071 C9.59642496,7.49931469 9.72885783,7.29794748 9.72885783,7.03972629 C9.72885783,6.41554202 9.30493086,6.07174372 8.8422064,6.07174372 C8.56201673,6.07174372 8.22504424,6.21383873 7.8236067,6.54226188 C7.39614845,6.89197303 6.76612817,6.82894655 6.41641702,6.4014883 C6.06670587,5.97403005 6.12973235,5.34400977 6.5571906,4.99429862 C7.29093862,4.39400639 8.05517131,4.07174372 8.8422064,4.07174372 C10.3280243,4.07174372 11.7288578,5.20779833 11.7288578,7.03972629 C11.7288578,8.03062497 11.257234,8.74773976 10.470165,9.34838529 C10.3646503,9.42890803 10.1426313,9.58232692 9.99814135,9.68098739 L9.99814135,10.0081876 Z"/>
  </g>
</svg>
