<svg xmlns="http://www.w3.org/2000/svg" width="18" height="18" viewBox="0 0 18 18">
  <title>Home</title>
  <g fill="none" fill-rule="evenodd" stroke="none" stroke-width="1">
    <path fill="#3AC" fill-rule="nonzero" d="M1.60031668,8.80194897 C1.15860301,9.13338117 0.531775719,9.04407195 0.200258737,8.60247125 C-0.131258244,8.16087054 -0.0419261793,7.53420355 0.399787489,7.20277134 L8.39973541,1.20014895 C8.75539799,0.933283685 9.24460201,0.933283685 9.60026459,1.20014895 L17.6002125,7.20277134 C18.0419262,7.53420355 18.1312582,8.16087054 17.7997413,8.60247125 C17.4682243,9.04407195 16.841397,9.13338117 16.3996833,8.80194897 L9,3.24972472 L1.60031668,8.80194897 Z M12.999974,15.0005245 L12.999974,11.0018292 C12.999974,10.449548 13.4476863,10.0018357 13.9999674,10.0018357 C14.5522486,10.0018357 14.9999609,10.449548 14.9999609,11.0018292 L14.9999609,16.0000065 C14.9999609,16.2761471 14.8880329,16.5261455 14.7070696,16.7071087 C14.5262276,16.8881005 14.2762931,17 14.0002232,17 L3.99977682,17 C3.4476369,17 3.00003906,16.5524022 3.00003906,16.0002622 L3.00003906,11.0018292 C3.00003906,10.449548 3.4477514,10.0018357 4.00003255,10.0018357 C4.55231371,10.0018357 5.00002604,10.449548 5.00002604,11.0018292 L5.00002604,15.0005245 L12.999974,15.0005245 Z"/>
  </g>
</svg>
