<svg xmlns="http://www.w3.org/2000/svg" width="18" height="18" viewBox="0 0 18 18">
  <title>Integration</title>
  <g fill="none" fill-rule="evenodd" stroke="none" stroke-width="1">
    <path fill="#3AC" fill-rule="evenodd" clip-rule="evenodd" d="M11 4a2 2 0 1 1-4 0 2 2 0 0 1 4 0Zm2 0a3.99 3.99 0 0 1-1.373 3.017l1.535 3.07A4 4 0 1 1 10.126 15H7.874A4.002 4.002 0 0 1 0 14.001a4 4 0 0 1 4.838-3.912l1.535-3.071A4 4 0 1 1 13 4Zm-5.126 9h2.252a4 4 0 0 1 1.248-2.017l-1.536-3.07a4.017 4.017 0 0 1-1.676 0l-1.536 3.07A4 4 0 0 1 7.875 13ZM12 14a2 2 0 1 0 4 0 2 2 0 0 0-4 0Zm-6 0a2 2 0 1 1-4 0 2 2 0 0 1 4 0Z" />
  </g>
</svg>
