<svg xmlns="http://www.w3.org/2000/svg" width="18" height="18" viewBox="0 0 18 18">
  <title>Introduction</title>
  <g fill="none" fill-rule="evenodd" stroke="none" stroke-width="1">
    <path fill="#3AC" d="M3,4 C2.44771525,4 2,4.44771525 2,5 L2,13 C2,13.5522847 2.44771525,14 3,14 L15,14 C15.5522847,14 16,13.5522847 16,13 L16,5 C16,4.44771525 15.5522847,4 15,4 L3,4 Z M3,2 L15,2 C16.6568542,2 18,3.34314575 18,5 L18,13 C18,14.6568542 16.6568542,16 15,16 L3,16 C1.34314575,16 0,14.6568542 0,13 L0,5 C0,3.34314575 1.34314575,2 3,2 Z M7.46931481,11.8696167 C7.10250112,12.0624621 6.6737849,11.7509815 6.74384008,11.3425285 L7.03617494,9.63808544 L5.79782461,8.4309922 C5.5010661,8.14172414 5.66482112,7.63773801 6.07493129,7.57814551 L7.78628937,7.32947063 L8.55163196,5.77871714 C8.73503881,5.40709429 9.26496119,5.40709429 9.44836804,5.77871714 L10.2137106,7.32947063 L11.9250687,7.57814551 C12.3351789,7.63773801 12.4989339,8.14172414 12.2021754,8.4309922 L10.9638251,9.63808544 L11.2561599,11.3425285 C11.3262151,11.7509815 10.8974989,12.0624621 10.5306852,11.8696167 L9,11.0648879 L7.46931481,11.8696167 Z"/>
  </g>
</svg>
