<svg xmlns="http://www.w3.org/2000/svg" width="18" height="18" viewBox="0 0 18 18">
  <title>Keyboard</title>
  <g fill="none" fill-rule="evenodd" stroke="none" stroke-width="1">
    <path fill="#3AC" fill-rule="evenodd" clip-rule="evenodd" d="M2 4.5h14v9H2v-9zm-2 0a2 2 0 0 1 2-2h14a2 2 0 0 1 2 2v9a2 2 0 0 1-2 2H2a2 2 0 0 1-2-2v-9zm5.6 6.3a.6.6 0 0 0 0 1.2h6.8a.6.6 0 0 0 0-1.2H5.6zM12.5 9a.6.6 0 0 1 .6-.6h.8a.6.6 0 0 1 0 1.2h-.8a.6.6 0 0 1-.6-.6zm.6-3a.6.6 0 0 0 0 1.2h.8a.6.6 0 0 0 0-1.2h-.8zM9.5 9a.6.6 0 0 1 .6-.6h.8a.6.6 0 0 1 0 1.2h-.8a.6.6 0 0 1-.6-.6zm.6-3a.6.6 0 0 0 0 1.2h.8a.6.6 0 0 0 0-1.2h-.8zM6.5 9a.6.6 0 0 1 .6-.6h.8a.6.6 0 0 1 0 1.2h-.8a.6.6 0 0 1-.6-.6zm.6-3a.6.6 0 0 0 0 1.2h.8a.6.6 0 0 0 0-1.2h-.8zM3.5 9a.6.6 0 0 1 .6-.6h.8a.6.6 0 0 1 0 1.2h-.8a.6.6 0 0 1-.6-.6zm.6-3a.6.6 0 0 0 0 1.2h.8a.6.6 0 0 0 0-1.2h-.8z"/>
  </g>
</svg>
