<svg xmlns="http://www.w3.org/2000/svg" width="18" height="18" viewBox="0 0 18 18">
  <title>Line Chart</title>
  <g fill="none" fill-rule="evenodd" stroke="none" stroke-width="1">
    <path fill="#3AC" d="M2,14.2484101 L7.20354428,7.39527212 C7.57010816,6.91250255 8.2784561,6.8642696 8.70707831,7.29289322 L10.8917702,9.47759225 L16.199947,2.4 C16.5313168,1.9581722 17.1581161,1.86862915 17.5999425,2.2 C18.0417688,2.53137085 18.1313116,3.1581722 17.7999418,3.6 L11.7999614,11.6 C11.434833,12.0868395 10.7231675,12.1374162 10.2928596,11.7071068 L8.10330619,9.51754625 L3.18122007,16 L16.9999411,16 C17.5522259,16 17.9999411,16.4477153 17.9999411,17 C17.9999411,17.5522847 17.5522259,18 16.9999411,18 L1,18 C0.44771525,18 6.76353751e-17,17.5522847 0,17 L0,1 C-6.76353751e-17,0.44771525 0.44771525,1.01453063e-16 1,0 C1.55228475,-1.01453063e-16 2,0.44771525 2,1 L2,14.2484101 Z"/>
  </g>
</svg>
