<svg xmlns="http://www.w3.org/2000/svg" width="18" height="18" viewBox="0 0 18 18">
  <title>Link</title>
  <g fill="none" fill-rule="evenodd" stroke="none" stroke-width="1">
    <path fill="#3AC" d="M9.95659266,14.0016017 L11.9791373,14.0016017 C11.7304152,16.2515769 9.82287854,18.0016017 7.50660172,18.0016017 C5.02132034,18.0016017 3.00660172,15.9868831 3.00660172,13.5016017 L3.00660172,9.50160172 C3.00660172,7.01632034 5.02132034,5.00160172 7.50660172,5.00160172 C9.82287854,5.00160172 11.7304152,6.75162649 11.9791373,9.00160172 L9.95659266,9.00160172 C9.72495749,7.86048156 8.71608067,7.00160172 7.50660172,7.00160172 C6.12588984,7.00160172 5.00660172,8.12088984 5.00660172,9.50160172 L5.00660172,13.5016017 C5.00660172,14.8823136 6.12588984,16.0016017 7.50660172,16.0016017 C8.71608067,16.0016017 9.72495749,15.1427219 9.95659266,14.0016017 Z M8.05661078,4.00160172 L6.03406611,4.00160172 C6.28278825,1.75162649 8.19032489,0.0016017178 10.5066017,0.0016017178 C12.9918831,0.0016017178 15.0066017,2.01632034 15.0066017,4.50160172 L15.0066017,8.50160172 C15.0066017,10.9868831 12.9918831,13.0016017 10.5066017,13.0016017 C8.19032489,13.0016017 6.28278825,11.2515769 6.03406611,9.00160172 L8.05661078,9.00160172 C8.28824594,10.1427219 9.29712276,11.0016017 10.5066017,11.0016017 C11.8873136,11.0016017 13.0066017,9.88231359 13.0066017,8.50160172 L13.0066017,4.50160172 C13.0066017,3.12088984 11.8873136,2.00160172 10.5066017,2.00160172 C9.29712276,2.00160172 8.28824594,2.86048156 8.05661078,4.00160172 Z" transform="rotate(45 9.007 9.002)"/>
  </g>
</svg>
