<svg xmlns="http://www.w3.org/2000/svg" width="18" height="18" viewBox="0 0 18 18">
  <title>List</title>
  <g fill="none" fill-rule="evenodd" stroke="none" stroke-width="1">
    <path fill="#3AC" d="M6,6 C5.44771525,6 5,5.55228475 5,5 C5,4.44771525 5.44771525,4 6,4 L16,4 C16.5522847,4 17,4.44771525 17,5 C17,5.55228475 16.5522847,6 16,6 L6,6 Z M6,10 C5.44771525,10 5,9.55228475 5,9 C5,8.44771525 5.44771525,8 6,8 L16,8 C16.5522847,8 17,8.44771525 17,9 C17,9.55228475 16.5522847,10 16,10 L6,10 Z M6,14 C5.44771525,14 5,13.5522847 5,13 C5,12.4477153 5.44771525,12 6,12 L16,12 C16.5522847,12 17,12.4477153 17,13 C17,13.5522847 16.5522847,14 16,14 L6,14 Z M1,5 C1,4.44771525 1.44771525,4 2,4 C2.55228475,4 3,4.44771525 3,5 C3,5.55228475 2.55228475,6 2,6 C1.44771525,6 1,5.55228475 1,5 Z M1,9 C1,8.44771525 1.44771525,8 2,8 C2.55228475,8 3,8.44771525 3,9 C3,9.55228475 2.55228475,10 2,10 C1.44771525,10 1,9.55228475 1,9 Z M1,13 C1,12.4477153 1.44771525,12 2,12 C2.55228475,12 3,12.4477153 3,13 C3,13.5522847 2.55228475,14 2,14 C1.44771525,14 1,13.5522847 1,13 Z"/>
  </g>
</svg>
