<svg xmlns="http://www.w3.org/2000/svg" width="18" height="18" viewBox="0 0 18 18">
  <title>Markdown</title>
  <g fill="none" fill-rule="evenodd" stroke="none" stroke-width="1">
    <path fill="#3AC" d="M2,3 L16,3 C17.1045695,3 18,3.8954305 18,5 L18,13 C18,14.1045695 17.1045695,15 16,15 L2,15 C0.8954305,15 1.3527075e-16,14.1045695 0,13 L0,5 C-1.3527075e-16,3.8954305 0.8954305,3 2,3 Z M15,10 L15,6 C15,5.44771525 14.5522847,5 14,5 C13.4477153,5 13,5.44771525 13,6 L13,10 L12.1419925,10 C12.0162975,10 11.8952136,10.0473419 11.8028525,10.1325983 C11.5999421,10.3199002 11.5872889,10.6362297 11.7745908,10.8391401 L13.6325983,12.8519815 C13.6416384,12.8617749 13.6510665,12.871203 13.6608599,12.8802431 C13.8637703,13.067545 14.1800998,13.0548918 14.3674017,12.8519815 L16.2254092,10.8391401 C16.3106656,10.7467789 16.3580075,10.625695 16.3580075,10.5 C16.3580075,10.2238576 16.1341498,10 15.8580075,10 L15,10 Z M4,12 L4,8.41421356 L5.29289322,9.70710678 C5.68341751,10.0976311 6.31658249,10.0976311 6.70710678,9.70710678 L7.99014927,8.4240643 L7.97564629,11.9959397 C7.97340385,12.5482199 8.41929755,12.9977493 8.97157775,12.9999918 C9.52385795,13.0022342 9.97338736,12.5563405 9.9756298,12.0040603 L9.99999176,6.00406029 C10.003617,5.11120378 8.92424332,4.66154312 8.29289322,5.29289322 L6,7.58578644 L3.70710678,5.29289322 C3.07714192,4.66292836 2,5.10909515 2,6 L2,12 C2,12.5522847 2.44771525,13 3,13 C3.55228475,13 4,12.5522847 4,12 Z"/>
  </g>
</svg>
