<svg xmlns="http://www.w3.org/2000/svg" width="18" height="18" viewBox="0 0 18 18">
  <title>Medal</title>
  <g fill="none" fill-rule="evenodd" stroke="none" stroke-width="1">
    <path fill="#3AC" fill-rule="evenodd" clip-rule="evenodd" d="M9 .927a5.5 5.5 0 0 1 3.5 9.743v5.403a1 1 0 0 1-1.32.948l-.105-.043-2.077-.976-2.072.976a1 1 0 0 1-1.42-.791l-.006-.115v-5.403A5.5 5.5 0 0 1 9 .927zM7.5 11.72v2.775l1.071-.503a1 1 0 0 1 .733-.047l.118.047 1.077.506V11.72a5.531 5.531 0 0 1-2.999 0zM9 2.927a3.5 3.5 0 1 0 0 7 3.5 3.5 0 0 0 0-7z" />
  </g>
</svg>
