<svg xmlns="http://www.w3.org/2000/svg" width="18" height="18" viewBox="0 0 18 18">
  <title>Moon</title>
  <g fill="none" fill-rule="evenodd" stroke="none" stroke-width="1">
    <path fill="#3AC" d="M2.99973133,8.97884538 C2.99973133,12.8578853 6.07407802,15.995299 9.85747913,15.995299 C11.2506564,15.995299 12.5749303,15.5680002 13.6867597,14.8011095 C9.43920682,13.9451667 6.23840898,10.3252222 6.23840898,5.97179385 C6.23840898,4.81477654 6.46590433,3.69079536 6.89577675,2.64779898 C4.58293328,3.78218441 2.99973133,6.20221908 2.99973133,8.97884538 Z M9.81098207,1.6422269 C8.79667258,2.86976411 8.2381403,4.37969431 8.2381403,5.97179385 C8.2381403,9.83612975 11.5328125,12.9882474 15.619729,12.9882474 C15.7320456,12.9882474 15.844033,12.9858688 15.9556411,12.9811262 C16.8088871,12.9448693 17.3118147,13.9284112 16.7843129,14.6017042 C15.115062,16.7323034 12.5882991,18 9.85747913,18 C4.96160006,18 1,13.9571319 1,8.97884538 C1,4.34948231 4.44114205,0.479584558 8.93646973,0.00595084068 C9.82771086,-0.0879515128 10.3826511,0.950381885 9.81098207,1.6422269 Z" transform="matrix(-1 0 0 1 18 0)"/>
  </g>
</svg>
