<svg xmlns="http://www.w3.org/2000/svg" width="18" height="18" viewBox="0 0 18 18">
  <title>Multidoc</title>
  <g fill="none" fill-rule="evenodd" stroke="none" stroke-width="1">
    <path fill="#3AC" fill-rule="evenodd" clip-rule="evenodd" d="M15 6.402V12H7V2h3.3v2.402a2 2 0 0 0 2 2H15zM11.3 0h.948a2 2 0 0 1 1.317.495l2.751 2.408c.435.379.684.928.684 1.505V12a2 2 0 0 1-2 2h-2v2a2 2 0 0 1-2 2H3a2 2 0 0 1-2-2V6a2 2 0 0 1 2-2v11.5a.5.5 0 0 0 .5.5h7a.5.5 0 0 0 .5-.5V14H7a2 2 0 0 1-2-2V2a2 2 0 0 1 2-2h4.3zm1 2.045 2.693 2.357H12.3V2.045z"/>
  </g>
</svg>
