<svg xmlns="http://www.w3.org/2000/svg" width="18" height="18" viewBox="0 0 18 18">
  <title>Nine Dots</title>
  <path fill="#3AC" fill-rule="evenodd" d="M3,13 C4.1045695,13 5,13.8954305 5,15 C5,16.1045695 4.1045695,17 3,17 C1.8954305,17 1,16.1045695 1,15 C1,13.8954305 1.8954305,13 3,13 Z M9,13 C10.1045695,13 11,13.8954305 11,15 C11,16.1045695 10.1045695,17 9,17 C7.8954305,17 7,16.1045695 7,15 C7,13.8954305 7.8954305,13 9,13 Z M15,13 C16.1045695,13 17,13.8954305 17,15 C17,16.1045695 16.1045695,17 15,17 C13.8954305,17 13,16.1045695 13,15 C13,13.8954305 13.8954305,13 15,13 Z M3,7 C4.1045695,7 5,7.8954305 5,9 C5,10.1045695 4.1045695,11 3,11 C1.8954305,11 1,10.1045695 1,9 C1,7.8954305 1.8954305,7 3,7 Z M9,7 C10.1045695,7 11,7.8954305 11,9 C11,10.1045695 10.1045695,11 9,11 C7.8954305,11 7,10.1045695 7,9 C7,7.8954305 7.8954305,7 9,7 Z M15,7 C16.1045695,7 17,7.8954305 17,9 C17,10.1045695 16.1045695,11 15,11 C13.8954305,11 13,10.1045695 13,9 C13,7.8954305 13.8954305,7 15,7 Z M3,1 C4.1045695,1 5,1.8954305 5,3 C5,4.1045695 4.1045695,5 3,5 C1.8954305,5 1,4.1045695 1,3 C1,1.8954305 1.8954305,1 3,1 Z M9,1 C10.1045695,1 11,1.8954305 11,3 C11,4.1045695 10.1045695,5 9,5 C7.8954305,5 7,4.1045695 7,3 C7,1.8954305 7.8954305,1 9,1 Z M15,1 C16.1045695,1 17,1.8954305 17,3 C17,4.1045695 16.1045695,5 15,5 C13.8954305,5 13,4.1045695 13,3 C13,1.8954305 13.8954305,1 15,1 Z"/>
</svg>
