<svg xmlns="http://www.w3.org/2000/svg" width="18" height="18" viewBox="0 0 18 18">
  <title>Phone</title>
  <g fill="none" fill-rule="evenodd" stroke="none" stroke-width="1">
    <path fill="#3AC" d="M15.5459415,7.04594155 L12.5459415,7.04594155 L12.5459415,8.82244072 C12.5459415,9.3172802 12.1840256,9.73770839 11.6946912,9.8113156 C10.6586478,9.96716053 9.60706234,10.0459415 8.54594155,10.0459415 C7.48482075,10.0459415 6.43323532,9.96716053 5.39719186,9.8113156 C4.90785753,9.73770839 4.54594155,9.3172802 4.54594155,8.82244072 L4.54594155,7.04594155 L1.54594155,7.04594155 L1.54594155,10.7152195 C3.7522779,11.590157 6.11635126,12.0459415 8.54594155,12.0459415 C10.9755318,12.0459415 13.3396052,11.590157 15.5459415,10.7152195 L15.5459415,7.04594155 Z M10.5459415,7.94201539 L10.5459415,7.04594155 C10.5459415,5.94137205 11.441372,5.04594155 12.5459415,5.04594155 L15.5459415,5.04594155 C16.650511,5.04594155 17.5459415,5.94137205 17.5459415,7.04594155 L17.5459415,11.3817668 C17.5459415,11.7792418 17.3105405,12.138982 16.9463131,12.2981197 C14.3196361,13.4457637 11.4740013,14.0459415 8.54594155,14.0459415 C5.6178818,14.0459415 2.77224698,13.4457637 0.145569945,12.2981197 C-0.218657403,12.138982 -0.454058454,11.7792418 -0.454058454,11.3817668 L-0.454058454,7.04594155 C-0.454058454,5.94137205 0.441372046,5.04594155 1.54594155,5.04594155 L4.54594155,5.04594155 C5.65051105,5.04594155 6.54594155,5.94137205 6.54594155,7.04594155 L6.54594155,7.94201539 C7.20688387,8.01111552 7.87413964,8.04594155 8.54594155,8.04594155 C9.21774346,8.04594155 9.88499922,8.01111552 10.5459415,7.94201539 Z" transform="rotate(45 8.546 9.546)"/>
  </g>
</svg>
