<svg xmlns="http://www.w3.org/2000/svg" width="18" height="18" viewBox="0 0 18 18">
  <title>Pie Chart</title>
  <g fill="none" fill-rule="evenodd" stroke="none" stroke-width="1">
    <path fill="#3AC" d="M3.80842239,13.69556 C5.08929237,15.1108603 6.94081133,16 9,16 C11.0781397,16 12.9447696,15.0944192 14.2267964,13.656351 L9.04097292,9.30488345 L3.80842239,13.69556 Z M2.68622896,12.0263761 L8.00391998,7.56425746 L8.05392793,2.06338912 C4.63538204,2.52525416 2,5.45486385 2,9 C2,10.0839904 2.24639314,11.1104326 2.68622896,12.0263761 Z M15.3371387,11.9772227 C15.7623245,11.0737708 16,10.0646414 16,9 C16,5.49221815 13.4198622,2.58705977 10.0538704,2.07880859 L10.004563,7.50261418 L15.3371387,11.9772227 Z M9,18 C4.02943725,18 0,13.9705627 0,9 C0,4.02943725 4.02943725,0 9,0 C13.9705627,0 18,4.02943725 18,9 C18,13.9705627 13.9705627,18 9,18 Z" transform="rotate(90 9 9)"/>
  </g>
</svg>
