<svg xmlns="http://www.w3.org/2000/svg" width="18" height="18" viewBox="0 0 18 18">
  <title>Pin</title>
  <g fill="none" fill-rule="evenodd" stroke="none" stroke-width="1">
    <path fill="#3AC" d="M9,18 C6.0887594,18 1,12.0071517 1,8 C1,3.581722 4.581722,0 9,0 C13.418278,0 17,3.581722 17,8 C17,12.0071517 11.9112406,18 9,18 Z M9,16 C10.7275434,16 15,10.9684821 15,8 C15,4.6862915 12.3137085,2 9,2 C5.6862915,2 3,4.6862915 3,8 C3,10.9684821 7.27245661,16 9,16 Z M9,11 C7.34314575,11 6,9.65685425 6,8 C6,6.34314575 7.34314575,5 9,5 C10.6568542,5 12,6.34314575 12,8 C12,9.65685425 10.6568542,11 9,11 Z M9,9 C9.55228475,9 10,8.55228475 10,8 C10,7.44771525 9.55228475,7 9,7 C8.44771525,7 8,7.44771525 8,8 C8,8.55228475 8.44771525,9 9,9 Z"/>
  </g>
</svg>
