<svg xmlns="http://www.w3.org/2000/svg" width="18" height="18" viewBox="0 0 18 18">
  <title>Publish</title>
  <g fill="none" fill-rule="evenodd" stroke="none" stroke-width="1">
    <path fill="#3AC" fill-rule="evenodd" clip-rule="evenodd" d="M11.367 0H6.624C5.577 0 4.728.893 4.728 1.995v2.244h1.896V1.994h3.788v4.994c0 1.102.849 1.995 1.896 1.995h3.796v7.021h-5.523V18h5.523C17.151 18 18 17.107 18 16.005V6.983l-.001-.064a2.018 2.018 0 0 0-.128-.659 2.022 2.022 0 0 0-.426-.688L12.708.584A1.85 1.85 0 0 0 11.367 0zm.941 2.999L16.1 6.99h-3.792V2.999zM4.275 7a.888.888 0 0 0-.702.357L.258 11.149a1.094 1.094 0 0 0 0 1.411.862.862 0 0 0 1.242.086l.006-.005.074-.075 1.774-2.027-.001 6.445c0 .526.379 1.016.92 1.016s.921-.489.921-1.016l.001-6.454 1.772 2.021a.863.863 0 0 0 1.326-.003 1.096 1.096 0 0 0-.003-1.411L4.97 7.348A.886.886 0 0 0 4.275 7z" />
  </g>
</svg>
