<svg xmlns="http://www.w3.org/2000/svg" width="18" height="18" viewBox="0 0 18 18">
  <title>Random</title>
  <g fill="none" fill-rule="evenodd" stroke="none" stroke-width="1">
    <path fill="#3AC" d="M1.98903254,8 C2.53526013,8 2.97806508,8.44771525 2.97806508,9 C2.97806508,11.7478383 4.40072481,13 7.66984735,13 L13.759,13.0002826 L12.3689332,11.5813001 L12.286657,11.4869873 C12.0101174,11.1269845 12.0101174,10.6198192 12.286657,10.2598164 L12.3689332,10.1655036 L12.4621074,10.0822219 C12.8177637,9.80230281 13.318806,9.80230281 13.6744624,10.0822219 L13.7676365,10.1655036 L16.6842523,13.1432826 L16.708739,13.1633157 C17.066073,13.5226565 17.0947645,14.0893054 16.7939613,14.4819249 L16.7118956,14.5762335 L13.7827009,17.5780608 C13.3973324,17.9691078 12.7711132,17.9705355 12.3840013,17.5812495 C12.0266672,17.2219086 11.9979757,16.6552598 12.2987789,16.2626402 L12.3808446,16.1683316 L13.521,15.0002826 L7.66984735,15 C3.36455014,15 1,12.9188284 1,9 C1,8.44771525 1.44280495,8 1.98903254,8 Z M5.61599874,0.291033073 C5.97333283,0.650373958 6.00202428,1.2170228 5.70122113,1.60964236 L5.61915538,1.70395096 L4.479,2.872 L10.3301527,2.87228259 C14.6354499,2.87228259 17,4.95345423 17,8.87228259 C17,9.42456734 16.557195,9.87228259 16.0109675,9.87228259 C15.4647399,9.87228259 15.0219349,9.42456734 15.0219349,8.87228259 C15.0219349,6.12444427 13.5992752,4.87228259 10.3301527,4.87228259 L4.241,4.872 L5.63106675,6.29098251 L5.71334299,6.38529529 C5.98988257,6.74529805 5.98988257,7.25246341 5.71334299,7.61246617 L5.63106675,7.70677895 L5.53789263,7.79006067 C5.18223626,8.06997978 4.68119402,8.06997978 4.32553764,7.79006067 L4.23236352,7.70677895 L1.31574768,4.729 L1.29126104,4.70896693 C0.93392695,4.34962604 0.905235502,3.7829772 1.20603865,3.39035764 L1.2881044,3.29604904 L4.21729907,0.294221799 C4.60266764,-0.0968252443 5.22888681,-0.0982528854 5.61599874,0.291033073 Z"/>
  </g>
</svg>
