<svg xmlns="http://www.w3.org/2000/svg" width="18" height="18" viewBox="0 0 18 18">
  <title>Redo</title>
  <g fill="none" fill-rule="evenodd" stroke="none" stroke-width="1">
    <path fill="#3AC" d="M10.0958657,4.66205066 L11.213752,6.300415 C11.5256893,6.75758764 11.4091012,7.38186048 10.9533452,7.6947674 C10.4975892,8.00767433 9.87525076,7.89072386 9.56331343,7.43355122 L7.36802215,4.21615142 C7.12723362,3.86325384 7.13595511,3.39603118 7.38974508,3.05242321 L9.58503636,0.0802034765 C9.91381683,-0.364934628 10.5400836,-0.458432677 10.9838424,-0.128630261 C11.4276012,0.201172154 11.5208095,0.82938557 11.192029,1.27452367 L10.1693422,2.65914627 C10.2139378,2.65603783 10.2594331,2.65328223 10.3058283,2.65087947 C14.4608389,2.65087947 17.8291405,6.00874384 17.8291405,10.1508795 C17.8291405,14.2930151 14.4608389,17.6508795 10.3058283,17.6508795 C6.15081766,17.6508795 2.78251605,14.2930151 2.78251605,10.1508795 C2.82460962,9.62228399 3.17508503,9.35798625 3.83394229,9.35798625 C4.49279954,9.35798625 4.81015993,9.62228399 4.78602344,10.1508795 L4.78873264,10.1508795 C4.78873264,13.1884456 7.25882049,15.6508795 10.3058283,15.6508795 C13.352836,15.6508795 15.8229239,13.1884456 15.8229239,10.1508795 C15.8229239,7.11331334 13.352836,4.65087947 10.3058283,4.65087947 C10.227142,4.65087947 10.1571544,4.6546032 10.0958657,4.66205066 Z" transform="scale(-1 1) rotate(-35 0 41.36)"/>
  </g>
</svg>
