<svg xmlns="http://www.w3.org/2000/svg" width="18" height="18" viewBox="0 0 18 18">
  <title>Reply</title>
  <g fill="none" fill-rule="evenodd" stroke="none" stroke-width="1">
    <path fill="#3AC" d="M4.49683175,7.87228259 L10.3301527,7.87228259 C14.6354499,7.87228259 17,9.95345423 17,13.8722826 C17,14.4245673 16.557195,14.8722826 16.0109675,14.8722826 C15.4647399,14.8722826 15.0219349,14.4245673 15.0219349,13.8722826 C15.0219349,11.1244443 13.5992752,9.87228259 10.3301527,9.87228259 L4.25364154,9.87228259 L7.63106675,13.2909825 C8.01730799,13.6819439 8.01730799,14.3158176 7.63106675,14.706779 C7.24482552,15.0977403 6.61860475,15.0977403 6.23236352,14.706779 L1.34156196,9.75620809 C1.32439245,9.74115816 1.30761341,9.72541114 1.29126104,9.70896693 C0.90414911,9.31968097 0.902735835,8.68709608 1.2881044,8.29604904 L6.21729907,3.2942218 C6.60266764,2.90317476 7.22888681,2.90174711 7.61599874,3.29103307 C8.00311067,3.68031903 8.00452395,4.31290392 7.61915538,4.70395096 L4.49683175,7.87228259 Z"/>
  </g>
</svg>
