<svg xmlns="http://www.w3.org/2000/svg" width="18" height="18" viewBox="0 0 18 18">
  <title>Rocket</title>
  <g fill="none" fill-rule="evenodd" stroke="none" stroke-width="1">
    <path fill="#3AC" fill-rule="nonzero" d="M8.1359719,2.07774533 C8.56710589,2.3211991 8.98763428,2.43713879 9.4045888,2.43713879 C9.82157195,2.43713879 10.2421295,2.32118318 10.6732945,2.0776952 C10.3081503,1.51801012 9.88524837,0.971157984 9.4045888,0.437138792 C8.9239665,0.97117393 8.5010942,1.51804278 8.1359719,2.07774533 Z M7.19405124,3.84210938 C6.6677722,5.09308759 6.40462768,6.40254184 6.40461766,7.77047213 C6.40461689,7.87522396 6.00083134,8.2349359 5.19326099,8.84960794 C4.69630654,9.22785858 4.40456994,9.81653712 4.40456775,10.4410668 L4.40456775,13.4371388 L7.40461766,11.4371388 C8.23245878,11.7704721 8.89911583,11.9371388 9.4045888,11.9371388 C9.91006178,11.9371388 10.5767411,11.7704721 11.4046268,11.4371388 L14.4045888,13.4371388 L14.4045694,10.4568622 C14.4045653,9.82550817 14.1064479,9.23122521 13.6003743,8.853737 C12.8032019,8.25911478 12.4046196,7.89802626 12.4046268,7.77047213 C12.4047041,6.40251291 12.1415851,5.0930322 11.6152698,3.84203001 C10.9055623,4.23479324 10.1662531,4.43713879 9.4045888,4.43713879 C8.64297582,4.43713879 7.90371495,4.2348205 7.19405124,3.84210938 Z M14.7961768,7.25059855 C15.8083257,8.00557401 16.4045612,9.19414051 16.4045694,10.4568491 L16.4045888,13.4371258 C16.4045992,15.0345277 14.6242923,15.9873198 13.2951787,15.1012329 L11.1258168,13.6549733 C10.502118,13.8404528 9.93371432,13.9371388 9.4045888,13.9371388 C8.87546566,13.9371388 8.30707385,13.8404539 7.68339978,13.654977 L5.51396414,15.1012467 C4.18485556,15.9873064 2.40457846,15.0345261 2.40456775,13.4371388 L2.40456775,10.4410597 C2.40457214,9.19200591 2.98804278,8.014654 3.98194733,7.25815602 C4.15550269,7.12605653 4.30672518,7.00836618 4.43443761,6.90627938 C4.6319777,4.0633687 5.80933319,1.44221843 7.91798762,-0.900776343 C8.71244552,-1.78352446 10.0966135,-1.78356141 10.8911186,-0.900855717 C13.0057255,1.44850082 14.1838106,4.07755284 14.376434,6.92942402 C14.4951428,7.0232276 14.6354574,7.13071548 14.7961768,7.25059855 Z M9.4045888,9.43713879 C8.57616168,9.43713879 7.9045888,8.76556592 7.9045888,7.93713879 C7.9045888,7.10871167 8.57616168,6.43713879 9.4045888,6.43713879 C10.2330159,6.43713879 10.9045888,7.10871167 10.9045888,7.93713879 C10.9045888,8.76556592 10.2330159,9.43713879 9.4045888,9.43713879 Z M7.60629066,14.9015083 C8.13848884,15.0919286 8.73792126,15.1871388 9.40458793,15.1871388 C10.0712546,15.1871388 10.6712549,15.0919286 11.2045888,14.9015083 L12.2631386,15.7342155 C12.4801758,15.9049477 12.5177135,16.2192968 12.3469813,16.4363341 C12.2696175,16.5346802 12.1581905,16.6004442 12.0347027,16.6206404 L10.3737688,16.8922834 C10.0459777,18.2858875 9.7060225,18.9912142 9.35390316,19.0082636 C9.00178382,19.025313 8.59780737,18.3271624 8.1419738,16.9138118 L6.73101905,16.6434218 C6.45981174,16.5914487 6.28208734,16.3294592 6.33406048,16.0582518 C6.35672467,15.9399851 6.4213095,15.8338706 6.51594635,15.7594088 L7.60629066,14.9015083 Z" transform="rotate(45 9.405 8.723)"/>
  </g>
</svg>
