<svg xmlns="http://www.w3.org/2000/svg" width="18" height="18" viewBox="0 0 18 18">
  <title>Scissors</title>
  <g fill="none" fill-rule="evenodd" stroke="none" stroke-width="1">
    <path fill="#3AC" fill-rule="evenodd" clip-rule="evenodd" d="M15.511 7.418a2 2 0 0 0 1.38-2.469L11.53 6.466l1.517-5.361a2 2 0 0 0-2.469 1.38l-1.307 4.62-2.242.634a3 3 0 1 0-2.003 2.646l3.606-1.02-1.049 3.705.005.002a3 3 0 1 0 2.666-2.096l.637-2.251 4.62-1.307zM4.409 8.48l-.003.002-.024.006.001.002a1 1 0 1 1 .026-.01zm5.115 5.115a1 1 0 1 0 1.855.75 1 1 0 0 0-1.855-.75z"/>
  </g>
</svg>
