<svg xmlns="http://www.w3.org/2000/svg" width="18" height="18" viewBox="0 0 18 18">
  <title>Search</title>
  <g fill="none" fill-rule="evenodd" stroke="none" stroke-width="1">
    <path fill="#3AC" d="M13.2607109,12.3028008 L17.6676929,16.2555629 C18.0788293,16.6243243 18.1131811,17.2565564 17.7444198,17.6676929 C17.3756584,18.0788293 16.7434263,18.1131811 16.3322898,17.7444198 L11.7789563,13.6603902 C10.5654151,14.5048904 9.09052626,14.9999971 7.5,15 C3.35786267,14.9999924 0,11.6421297 0,7.5 C0,3.35786267 3.35786267,0 7.5,0 C11.6421297,0 14.9999924,3.35786267 15,7.5 C14.9999966,9.32717769 14.3465978,11.0017471 13.2607109,12.3028008 Z M7.49999898,12.999999 C10.5375608,12.9999934 12.9999934,10.5375608 12.999999,7.49999898 C12.9999934,4.46243161 10.5375608,1.99999898 7.49999898,1.99999898 C4.46243161,1.99999898 1.99999898,4.46243161 1.99999898,7.49999898 C1.99999898,10.5375608 4.46243161,12.9999934 7.49999898,12.999999 Z"/>
  </g>
</svg>
