<svg xmlns="http://www.w3.org/2000/svg" width="18" height="18" viewBox="0 0 18 18">
  <title>Share</title>
  <g fill="none" fill-rule="evenodd" stroke="none" stroke-width="1">
    <path fill="#3AC" fill-rule="evenodd" clip-rule="evenodd" d="M16.90974,1.50811c0.8326,1.44216,0.33851,3.28624-1.10367,4.11887
	c-1.13613,0.65595-2.52173,0.48847-3.46569-0.31728l-5.6543,3.26449c0.01988,0.13986,0.03016,0.28279,0.03016,0.42813
	c0,0.14571-0.01034,0.289-0.03031,0.42919l5.65043,3.2622c0.94407-0.80868,2.33197-0.97763,3.46971-0.32072
	c1.44218,0.8326,1.93627,2.67671,1.10367,4.11889s-2.67671,1.93627-4.11889,1.10367
	c-1.13613-0.65601-1.6839-1.93969-1.45806-3.16005l-5.58137-3.22246c-0.53802,0.49922-1.25856,0.80446-2.0504,0.80446
	c-1.66526,0-3.01522-1.34991-3.01522-3.01518S2.03576,5.9871,3.70103,5.9871c0.79221,0,1.51307,0.30551,2.05116,0.80515
	l5.58151-3.2225c-0.22835-1.22195,0.31941-2.50839,1.45715-3.16528C14.23303-0.42816,16.07704,0.06596,16.90974,1.50811z
	 M14.801,3.88614c0.48073-0.27755,0.64546-0.89224,0.36786-1.37296c-0.2775-0.48072-0.8922-0.64543-1.37293-0.36788
	c-0.48073,0.27754-0.64546,0.89223-0.36786,1.37295C13.70557,3.99897,14.32027,4.16368,14.801,3.88614z M13.79593,15.85466
	c0.48073,0.2776,1.09543,0.11287,1.37293-0.36786c0.2776-0.48073,0.11287-1.09543-0.36786-1.37293
	c-0.48073-0.2776-1.09543-0.11287-1.37293,0.36786S13.3152,15.57716,13.79593,15.85466z M4.7061,9.00231
	c0,0.55507-0.44999,1.00504-1.00507,1.00504c-0.55509,0-1.00507-0.44997-1.00507-1.00504c0-0.55508,0.44998-1.00507,1.00507-1.00507
	C4.25611,7.99723,4.7061,8.44722,4.7061,9.00231z" />
  </g>
</svg>
