<svg xmlns="http://www.w3.org/2000/svg" width="18" height="18" viewBox="0 0 18 18">
  <title>Share</title>
  <g fill="none" fill-rule="evenodd" stroke="none" stroke-width="1">
    <path fill="#3AC" d="M13.5715304,10 C13.0191214,10 12.5713055,9.55228475 12.5713055,9 C12.5713055,8.44771525 13.0191214,8 13.5715304,8 L16.9997751,8 C17.552184,8 18,8.44771525 18,9 L18,17 C18,17.5522847 17.552184,18 16.9997751,18 L1.00022494,18 C0.447815959,18 0,17.5522847 0,17 L0,9 C0,8.44771525 0.447815959,8 1.00022494,8 L4.40908664,8 C4.96149562,8 5.40931158,8.44771525 5.40931158,9 C5.40931158,9.55228475 4.96149562,10 4.40908664,10 L2.00044988,10 L2.00044988,16 L15.9995501,16 L15.9995501,10 L13.5715304,10 Z M8.03352165,3.41893419 L5.74295292,5.70681596 C5.35199152,6.0974281 4.71811786,6.0974281 4.32715647,5.70681596 C3.93619507,5.31620383 3.93619507,4.68289642 4.32715647,4.29228429 L8.26539609,0.358664431 C8.44886243,0.138486958 8.72511958,-0.00161986031 9.034082,-0.00157456535 C9.33672339,-0.00153019707 9.60794464,0.132981023 9.79128968,0.345473754 L13.7397136,4.27704936 C14.1307607,4.66677896 14.1321883,5.30008475 13.7429023,5.69157743 C13.3536164,6.08307012 12.7210315,6.08449939 12.3299845,5.69476979 L10.0335235,3.4081081 L10.0318834,13.0014963 C10.0318025,13.5539052 9.58402162,14.0016555 9.03173688,14.0015746 C8.47945213,14.0014936 8.03180251,13.553612 8.03188346,13.001203 L8.03352165,3.41893419 Z"/>
  </g>
</svg>
