<svg xmlns="http://www.w3.org/2000/svg" width="18" height="18" viewBox="0 0 18 18">
  <title>Sort</title>
  <g fill="none" fill-rule="evenodd" stroke="none" stroke-width="1">
    <path fill="#3AC" fill-rule="evenodd" clip-rule="evenodd" d="M5 12a1 1 0 0 1-1-1V5.414L2.707 6.707a.999.999 0 1 1-1.414-1.414l3-3a.997.997 0 0 1 1.414 0l3 3a.999.999 0 1 1-1.414 1.414L6 5.414V11a1 1 0 0 1-1 1zm8-6a1 1 0 0 0-1 1v5.586l-1.293-1.293a.999.999 0 1 0-1.414 1.414l3 3a.997.997 0 0 0 1.414 0l3-3a.999.999 0 1 0-1.414-1.414L14 12.586V7a1 1 0 0 0-1-1z" />
  </g>
</svg>
