<svg xmlns="http://www.w3.org/2000/svg" width="18" height="18" viewBox="0 0 18 18">
  <title>Sort Ascending</title>
  <g fill="none" fill-rule="evenodd" stroke="none" stroke-width="1">
    <path fill="#3AC" fill-rule="evenodd" clip-rule="evenodd" d="M1 3c0-.552.379-1 .846-1h9.308c.467 0 .846.448.846 1s-.379 1-.846 1H1.846C1.379 4 1 3.552 1 3zm0 4a1 1 0 0 1 1-1h5a1 1 0 0 1 0 2H2a1 1 0 0 1-1-1zm.833 3c-.46 0-.833.448-.833 1s.373 1 .833 1h3.333c.461 0 .834-.448.834-1s-.373-1-.833-1H1.833zM13 16a1 1 0 0 1-1-1V9.414l-1.293 1.293a.999.999 0 1 1-1.414-1.414l3-3a.997.997 0 0 1 1.414 0l3 3a.999.999 0 1 1-1.414 1.414L14 9.414V15a1 1 0 0 1-1 1z" />
  </g>
</svg>
