<svg xmlns="http://www.w3.org/2000/svg" width="18" height="18" viewBox="0 0 18 18">
  <title>Sound</title>
  <g fill="none" fill-rule="evenodd" stroke="none" stroke-width="1">
    <path fill="#3AC" d="M2,11.8014146 L4,11.8014146 C4.47544236,11.8014146 4.93533461,11.9742378 5.29720648,12.2888927 L7,13.7695061 L7,4.48375971 L5.41421356,6.10184797 C5.03914081,6.48456081 4.53043298,6.69956664 4,6.69956664 L2,6.69956664 L2,11.8014146 Z M1,4.65882745 L4,4.65882745 L7.29289322,1.29885933 C7.68341751,0.900380222 8.31658249,0.900380222 8.70710678,1.29885933 C8.89464316,1.49021575 9,1.74975075 9,2.02036959 L9,15.9796304 C9,16.543165 8.55228475,17 8,17 C7.76227882,17 7.5323327,16.9135884 7.35139676,16.7562609 L4,13.8421538 L1,13.8421538 C0.44771525,13.8421538 2.13162821e-14,13.3853188 2.13162821e-14,12.8217842 L-7.10542736e-15,5.67919705 C-7.10542736e-15,5.11566248 0.44771525,4.65882745 1,4.65882745 Z M14.2897174,4.35671294 C13.900955,3.95644412 13.9038051,3.31038838 14.2960834,2.91370705 C14.6883617,2.51702571 15.3215202,2.51993395 15.7102826,2.92020277 C17.2317835,4.48673631 18,6.44639833 18,8.74030583 C18,11.0342133 17.2317835,12.9938753 15.7102826,14.5604089 C15.3215202,14.9606777 14.6883617,14.9635859 14.2960834,14.5669046 C13.9038051,14.1702233 13.900955,13.5241675 14.2897174,13.1238987 C15.4348832,11.9448387 16,10.5032688 16,8.74030583 C16,6.97734289 15.4348832,5.53577293 14.2897174,4.35671294 Z M12.716401,12.0031302 C12.3310781,12.4068469 11.6979686,12.4153953 11.3023112,12.0222236 C10.9066539,11.6290518 10.8982761,10.9830461 11.283599,10.5793294 C11.7814135,10.0577512 12.0189164,9.46414725 12.0189164,8.74459659 C12.0189164,8.02393751 11.7805397,7.42614211 11.2808131,6.89835164 C10.8970764,6.49306496 10.9079874,5.8470986 11.3051833,5.45554539 C11.7023793,5.06399219 12.3354503,5.07512536 12.7191869,5.48041204 C13.5780154,6.387471 14.0189164,7.49315209 14.0189164,8.74459659 C14.0189164,9.9971495 13.5771417,11.1013011 12.716401,12.0031302 Z"/>
  </g>
</svg>
