<svg xmlns="http://www.w3.org/2000/svg" width="18" height="18" viewBox="0 0 18 18">
  <title>Sparkles</title>
  <g fill="none" fill-rule="evenodd" stroke="none" stroke-width="1">
    <path fill="#3AC" d="M9.7511023,11.4840591 C10.0412039,11.5905431 10.2724407,11.8217799 10.3789247,12.1118815 L11.0205016,13.8597718 L11.5868676,12.1380662 C11.6808687,11.8523106 11.9022932,11.6308861 12.1880488,11.536885 L13.9097544,10.970519 L12.1618641,10.3289421 C11.8717625,10.2224581 11.6405257,9.99122126 11.5340417,9.7011197 L10.8924648,7.95322944 L10.3260988,9.674935 C10.2320977,9.96069062 10.0106732,10.1821151 9.7249176,10.2761162 L8.00321204,10.8424822 L9.7511023,11.4840591 Z M4.65948939,11.7122627 C3.75941362,11.3818828 3.73202717,10.1185015 4.61861913,9.82685143 L8.57526886,8.52528626 L9.87683403,4.56863653 C10.1684841,3.68204457 11.4318654,3.70943101 11.7622453,4.60950679 L13.2366523,8.62633154 L17.253477,10.1007385 C18.1535528,10.4311184 18.1809392,11.6944997 17.2943473,11.9861498 L13.3376975,13.2877149 L12.0361324,17.2443647 C11.7444823,18.1309566 10.481101,18.1035702 10.1507211,17.2034944 L8.67631414,13.1866697 L4.65948939,11.7122627 Z M0.718527432,5.34654019 C-0.181548338,5.01616033 -0.208934784,3.75277904 0.67765718,3.46112896 L2.0623782,3.00561614 L2.51789102,1.62089512 C2.8095411,0.734303155 4.07292239,0.7616896 4.40330225,1.66176537 L4.91930506,3.06754604 L6.32508572,3.58354884 C7.22516149,3.9139287 7.25254794,5.17730999 6.36595597,5.46896008 L4.98123495,5.92447289 L4.52572214,7.30919391 C4.23407205,8.19578588 2.97069077,8.16839943 2.6403109,7.26832366 L2.1243081,5.86254299 L0.718527432,5.34654019 Z"/>
  </g>
</svg>
