<svg xmlns="http://www.w3.org/2000/svg" width="18" height="18" viewBox="0 0 18 18">
  <title>Star</title>
  <g fill="none" fill-rule="evenodd" stroke="none" stroke-width="1">
    <path fill="#3AC" d="M9,12.6687491 L13.0381674,15.4528762 L11.7376473,10.6020877 L15.5338922,7.47198436 L10.6919591,7.25815932 L9,2.53952192 L7.30804089,7.25815932 L2.46610784,7.47198436 L6.26235266,10.6020877 L4.96183256,15.4528762 L9,12.6687491 Z M6.04712103,17.1523013 C4.53239751,18.1966321 2.58310566,16.7251036 3.07093298,14.9055645 L4.02192832,11.3584626 L1.24595341,9.06959853 C-0.178024528,7.8954914 0.566538703,5.5145082 2.38275609,5.43430206 L5.92338251,5.27794414 L7.16061463,1.82747673 C7.79527139,0.0575077557 10.2047286,0.0575077557 10.8393854,1.82747673 L12.0766175,5.27794414 L15.6172439,5.43430206 C17.4334613,5.5145082 18.1780245,7.8954914 16.7540466,9.06959853 L13.9780717,11.3584626 L14.929067,14.9055645 C15.4168943,16.7251036 13.4676025,18.1966321 11.952879,17.1523013 L9,15.1164297 L6.04712103,17.1523013 Z"/>
  </g>
</svg>
