<svg xmlns="http://www.w3.org/2000/svg" width="18" height="18" viewBox="0 0 18 18">
  <title>Sun</title>
  <g fill="none" fill-rule="evenodd" stroke="none" stroke-width="1">
    <path fill="#3AC" d="M9,14 C6.23857625,14 4,11.7614237 4,9 C4,6.23857625 6.23857625,4 9,4 C11.7614237,4 14,6.23857625 14,9 C14,11.7614237 11.7614237,14 9,14 Z M9,12 C10.6568542,12 12,10.6568542 12,9 C12,7.34314575 10.6568542,6 9,6 C7.34314575,6 6,7.34314575 6,9 C6,10.6568542 7.34314575,12 9,12 Z M3,9 C3,9.55228475 2.55228475,10 2,10 L1,10 C0.44771525,10 0,9.55228475 0,9 C0,8.44771525 0.44771525,8 1,8 L2,8 C2.55228475,8 3,8.44771525 3,9 Z M18,9 C18,9.55228475 17.5522847,10 17,10 L16,10 C15.4477153,10 15,9.55228475 15,9 C15,8.44771525 15.4477153,8 16,8 L17,8 C17.5522847,8 18,8.44771525 18,9 Z M9,0 C9.55228475,0 10,0.44771525 10,1 L10,2 C10,2.55228475 9.55228475,3 9,3 C8.44771525,3 8,2.55228475 8,2 L8,1 C8,0.44771525 8.44771525,0 9,0 Z M9,15 C9.55228475,15 10,15.4477153 10,16 L10,17 C10,17.5522847 9.55228475,18 9,18 C8.44771525,18 8,17.5522847 8,17 L8,16 C8,15.4477153 8.44771525,15 9,15 Z M15.363961,2.63603897 C15.7544853,3.02656326 15.7544853,3.65972824 15.363961,4.05025253 L14.6568542,4.75735931 C14.26633,5.1478836 13.633165,5.1478836 13.2426407,4.75735931 C12.8521164,4.36683502 12.8521164,3.73367004 13.2426407,3.34314575 L13.9497475,2.63603897 C14.3402718,2.24551468 14.9734367,2.24551468 15.363961,2.63603897 Z M4.75735931,13.2426407 C5.1478836,13.633165 5.1478836,14.26633 4.75735931,14.6568542 L4.05025253,15.363961 C3.65972824,15.7544853 3.02656326,15.7544853 2.63603897,15.363961 C2.24551468,14.9734367 2.24551468,14.3402718 2.63603897,13.9497475 L3.34314575,13.2426407 C3.73367004,12.8521164 4.36683502,12.8521164 4.75735931,13.2426407 Z M2.63603897,2.63603897 C3.02656326,2.24551468 3.65972824,2.24551468 4.05025253,2.63603897 L4.75735931,3.34314575 C5.1478836,3.73367004 5.1478836,4.36683502 4.75735931,4.75735931 C4.36683502,5.1478836 3.73367004,5.1478836 3.34314575,4.75735931 L2.63603897,4.05025253 C2.24551468,3.65972824 2.24551468,3.02656326 2.63603897,2.63603897 Z M13.2426407,13.2426407 C13.633165,12.8521164 14.26633,12.8521164 14.6568542,13.2426407 L15.363961,13.9497475 C15.7544853,14.3402718 15.7544853,14.9734367 15.363961,15.363961 C14.9734367,15.7544853 14.3402718,15.7544853 13.9497475,15.363961 L13.2426407,14.6568542 C12.8521164,14.26633 12.8521164,13.633165 13.2426407,13.2426407 Z"/>
  </g>
</svg>
