<svg xmlns="http://www.w3.org/2000/svg" width="18" height="18" viewBox="0 0 18 18">
  <title>Tag</title>
  <g fill="none" fill-rule="evenodd" stroke="none" stroke-width="1">
    <path fill="#3AC" d="M6.06094262,4.72141109 L6.06094262,13.9963709 C6.06094262,14.5486557 6.50865787,14.9963709 7.06094262,14.9963709 L13.0609426,14.9963709 C13.6132274,14.9963709 14.0609426,14.5486557 14.0609426,13.9963709 L14.0609426,4.72141109 L11.579975,1.82461076 C11.5130101,1.74642195 11.4401083,1.67352013 11.3619195,1.60655524 C10.5229811,0.88804558 9.26041994,0.98567236 8.54191027,1.82461076 L6.06094262,4.72141109 Z M4.54191027,3.42043426 L7.02287792,0.523633929 C8.45989725,-1.15424287 10.9850195,-1.34949643 12.6628963,0.0875228946 C12.8192739,0.221452669 12.9650775,0.367256309 13.0990073,0.523633929 L15.579975,3.42043426 C15.8903543,3.78283593 16.0609426,4.24426303 16.0609426,4.72141109 L16.0609426,13.9963709 C16.0609426,15.6532252 14.7177969,16.9963709 13.0609426,16.9963709 L7.06094262,16.9963709 C5.40408837,16.9963709 4.06094262,15.6532252 4.06094262,13.9963709 L4.06094262,4.72141109 C4.06094262,4.24426303 4.23153099,3.78283593 4.54191027,3.42043426 Z M10.0609426,4.99637091 C9.50865787,4.99637091 9.06094262,4.54865566 9.06094262,3.99637091 C9.06094262,3.44408616 9.50865787,2.99637091 10.0609426,2.99637091 C10.6132274,2.99637091 11.0609426,3.44408616 11.0609426,3.99637091 C11.0609426,4.54865566 10.6132274,4.99637091 10.0609426,4.99637091 Z" transform="rotate(45 10.06 8.06)"/>
  </g>
</svg>
