<svg xmlns="http://www.w3.org/2000/svg" width="18" height="18" viewBox="0 0 18 18">
  <title>Team</title>
  <g fill="none" fill-rule="evenodd" stroke="none" stroke-width="1">
    <path fill="#3AC" d="M6.01850852,3.66487203 C6.18513882,2.16575271 7.45643134,1 9,1 C10.5435687,1 11.8148612,2.16575271 11.9814915,3.66487203 C14.3564123,4.78453106 16,7.20032529 16,10 C16,10.0568244 15.9993229,10.1134907 15.9979763,10.1699913 C17.1642257,10.5812558 18,11.6930251 18,13 C18,14.6568542 16.6568542,16 15,16 C14.3841789,16 13.8116955,15.8144488 13.335408,15.4962045 C12.1431799,16.4379211 10.6372302,17 9,17 C7.36276975,17 5.85682006,16.4379211 4.66459202,15.4962045 C4.18830448,15.8144488 3.61582114,16 3,16 C1.34314575,16 0,14.6568542 0,13 C0,11.6930251 0.835774318,10.5812558 2.00202365,10.1699913 C2.00067709,10.1134907 2,10.0568244 2,10 C2,7.20032529 3.64358775,4.78453106 6.01850852,3.66487203 Z M6.50482102,5.66612575 C5.00765935,6.52996102 4,8.14730479 4,10 C4,10.0574751 4.00096976,10.1147236 4.00289381,10.1717302 C5.16657432,10.5843826 6,11.6948628 6,13 C6,13.3116333 5.95248373,13.6121687 5.86430099,13.8947562 C6.72193628,14.58612 7.81263471,15 9,15 C10.1873653,15 11.2780637,14.58612 12.135699,13.8947562 C12.0475163,13.6121687 12,13.3116333 12,13 C12,11.6948628 12.8334257,10.5843826 13.9971062,10.1717302 C13.9990302,10.1147236 14,10.0574751 14,10 C14,8.14730479 12.9923406,6.52996102 11.495179,5.66612575 C10.9570538,6.47041973 10.0403719,7 9,7 C7.95962805,7 7.04294621,6.47041973 6.50482102,5.66612575 Z M3,14 C3.55228475,14 4,13.5522847 4,13 C4,12.4477153 3.55228475,12 3,12 C2.44771525,12 2,12.4477153 2,13 C2,13.5522847 2.44771525,14 3,14 Z M15,14 C15.5522847,14 16,13.5522847 16,13 C16,12.4477153 15.5522847,12 15,12 C14.4477153,12 14,12.4477153 14,13 C14,13.5522847 14.4477153,14 15,14 Z M9,5 C9.55228475,5 10,4.55228475 10,4 C10,3.44771525 9.55228475,3 9,3 C8.44771525,3 8,3.44771525 8,4 C8,4.55228475 8.44771525,5 9,5 Z"/>
  </g>
</svg>
