<svg xmlns="http://www.w3.org/2000/svg" width="18" height="18" viewBox="0 0 18 18">
  <title>Terminal</title>
  <g fill="none" fill-rule="evenodd" stroke="none" stroke-width="1">
    <path fill="#3AC" fill-rule="nonzero" d="M4,2 L14,2 C16.209139,2 18,3.790861 18,6 L18,12 C18,14.209139 16.209139,16 14,16 L4,16 C1.790861,16 0,14.209139 0,12 L0,6 C-4.4408921e-16,3.790861 1.790861,2 4,2 Z M4,4 C2.8954305,4 2,4.8954305 2,6 L2,12 C2,13.1045695 2.8954305,14 4,14 L14,14 C15.1045695,14 16,13.1045695 16,12 L16,6 C16,4.8954305 15.1045695,4 14,4 L4,4 Z M5.58578644,9 L4.29289322,7.70710678 C3.90236893,7.31658249 3.90236893,6.68341751 4.29289322,6.29289322 C4.68341751,5.90236893 5.31658249,5.90236893 5.70710678,6.29289322 L7.70710678,8.29289322 C8.09763107,8.68341751 8.09763107,9.31658249 7.70710678,9.70710678 L5.70710678,11.7071068 C5.31658249,12.0976311 4.68341751,12.0976311 4.29289322,11.7071068 C3.90236893,11.3165825 3.90236893,10.6834175 4.29289322,10.2928932 L5.58578644,9 Z M10,10 L13,10 C13.5522847,10 14,10.4477153 14,11 C14,11.5522847 13.5522847,12 13,12 L10,12 C9.44771525,12 9,11.5522847 9,11 C9,10.4477153 9.44771525,10 10,10 Z"/>
  </g>
</svg>
