<svg xmlns="http://www.w3.org/2000/svg" width="18" height="18" viewBox="0 0 18 18">
  <title>Undo</title>
  <g fill="none" fill-rule="evenodd" stroke="none" stroke-width="1">
    <path fill="#3AC" d="M8.09586572,4.66205066 L9.21375196,6.300415 C9.52568929,6.75758764 9.40910122,7.38186048 8.9533452,7.6947674 C8.49758919,8.00767433 7.87525076,7.89072386 7.56331343,7.43355122 L5.36802215,4.21615142 C5.12723362,3.86325384 5.13595511,3.39603118 5.38974508,3.05242321 L7.58503636,0.0802034765 C7.91381683,-0.364934628 8.54008363,-0.458432677 8.9838424,-0.128630261 C9.42760117,0.201172154 9.5208095,0.82938557 9.19202903,1.27452367 L8.16934222,2.65914627 C8.21393777,2.65603783 8.25943311,2.65328223 8.30582826,2.65087947 C12.4608389,2.65087947 15.8291405,6.00874384 15.8291405,10.1508795 C15.8291405,14.2930151 12.4608389,17.6508795 8.30582826,17.6508795 C4.15081766,17.6508795 0.782516054,14.2930151 0.782516054,10.1508795 C0.82460962,9.62228399 1.17508503,9.35798625 1.83394229,9.35798625 C2.49279954,9.35798625 2.81015993,9.62228399 2.78602344,10.1508795 L2.78873264,10.1508795 C2.78873264,13.1884456 5.25882049,15.6508795 8.30582826,15.6508795 C11.352836,15.6508795 13.8229239,13.1884456 13.8229239,10.1508795 C13.8229239,7.11331334 11.352836,4.65087947 8.30582826,4.65087947 C8.22714195,4.65087947 8.15715444,4.6546032 8.09586572,4.66205066 Z" transform="rotate(-35 8.306 8.674)"/>
  </g>
</svg>
