<svg xmlns="http://www.w3.org/2000/svg" width="18" height="18" viewBox="0 0 18 18">
  <title>Upload</title>
  <g fill="none" fill-rule="evenodd" stroke="none" stroke-width="1">
    <path fill="#3AC" d="M7.99954184,3.42045372 L4.70887612,6.70733213 C4.31790185,7.09785642 3.68400731,7.09785642 3.29303303,6.70733213 C2.90205876,6.31680784 2.90205876,5.68364286 3.29303303,5.29311857 L8.23135257,0.360482668 C8.41482463,0.140297521 8.69112752,0.00018006681 9.00014659,0.000225358395 C9.30296001,0.000269740447 9.57431861,0.134894754 9.75767368,0.347536989 L14.7059662,5.27788707 C15.0970261,5.66752902 15.0984538,6.30069238 14.709155,6.69209703 C14.3198562,7.08350167 13.6872505,7.08493062 13.2961906,6.69528867 L9.99960948,3.41066092 L9.99798089,12.680372 C9.99789994,13.2326568 9.55010432,13.680306 8.99780138,13.680225 C8.44549844,13.6801441 7.99783407,13.2323638 7.99791502,12.680079 L7.99954184,3.42045372 Z M1,15.9999341 L17,15.9999341 C17.5522847,15.9999341 18,16.4476494 18,16.9999341 L18,17 C18,17.5522847 17.5522847,18 17,18 L1,18 C0.44771525,18 6.76353751e-17,17.5522847 0,17 L0,16.9999341 C-6.76353751e-17,16.4476494 0.44771525,15.9999341 1,15.9999341 Z"/>
  </g>
</svg>
