<svg xmlns="http://www.w3.org/2000/svg" width="18" height="18" viewBox="0 0 18 18">
  <title>User</title>
  <g fill="none" fill-rule="evenodd" stroke="none" stroke-width="1">
    <path fill="#3AC" d="M12,17 L12,12 C12,11.4477153 11.5522847,11 11,11 L7,11 C6.44771525,11 6,11.4477153 6,12 L6,17 C6,17.6666667 5.66666667,18 5,18 C4.33333333,18 4,17.6666667 4,17 L4,12 C4,10.3431458 5.34314575,9 7,9 L11,9 C12.6568542,9 14,10.3431458 14,12 L14,17 C14,17.6666667 13.6667473,18 13.0002419,18 C12.3337364,18 12.0003225,17.6666667 12,17 Z M9,6 C10.1045695,6 11,5.1045695 11,4 C11,2.8954305 10.1045695,2 9,2 C7.8954305,2 7,2.8954305 7,4 C7,5.1045695 7.8954305,6 9,6 Z M9,8 C6.790861,8 5,6.209139 5,4 C5,1.790861 6.790861,0 9,0 C11.209139,0 13,1.790861 13,4 C13,6.209139 11.209139,8 9,8 Z"/>
  </g>
</svg>
