<svg xmlns="http://www.w3.org/2000/svg" width="18" height="18" viewBox="0 0 18 18">
  <title>Version History</title>
  <g fill="none" fill-rule="evenodd" stroke="none" stroke-width="1">
    <path fill="#3AC" d="M11.5 7.5a1 1 0 0 0-2 0v1.519l-2.125 1.7a1 1 0 1 0 1.25 1.561l2.496-1.997.017-.014a1.008 1.008 0 0 0 .362-.728m-7.751 1.096s0-.001 0 0a1.012 1.012 0 0 1-1.43 0L.296 8.614a1.011 1.011 0 1 1 1.43-1.43l.232.232A8.09 8.09 0 0 1 18 8.91v.002A8.09 8.09 0 0 1 9.91 17a1.011 1.011 0 0 1 0-2.022 6.067 6.067 0 1 0-5.908-7.454l.339-.339a1.011 1.011 0 1 1 1.43 1.43l-2.022 2.022z"/>
  </g>
</svg>
