<svg xmlns="http://www.w3.org/2000/svg" width="18" height="18" viewBox="0 0 18 18">
  <title>Waypoint</title>
  <g fill="none" fill-rule="evenodd" stroke="none" stroke-width="1">
    <path fill="#3AC" d="M10,5 L13.9966256,5 C14.4288125,5 14.8493716,5.13999738 15.1953308,5.39902973 L17.1987052,6.89902973 C18.2665584,7.69857065 18.267206,9.29959546 17.2,10.1 L15.2,11.6 C14.8538077,11.8596443 14.4327404,12 14,12 L10,12 L10,17 C10,17.5522847 9.55228475,18 9,18 C8.44771525,18 8,17.5522847 8,17 L8,9 L4,9 C3.56725957,9 3.14619234,8.85964426 2.8,8.6 L0.800000002,7.1 C-0.267206047,6.29959546 -0.266558439,4.69857065 0.801294781,3.89902973 L2.80466922,2.39902973 C3.15062842,2.13999738 3.57118753,2 4.00337444,2 L8,2 L8,1 C8,0.44771525 8.44771525,1.01453063e-16 9,0 C9.55228475,-1.01453063e-16 10,0.44771525 10,1 L10,5 Z M8,6.99990909 L8,4 L4.00337444,4 L2,5.5 L4,7 L8,6.99990909 Z M13.9966256,7 L10,7 L10,10 L14,10 L16,8.5 L13.9966256,7 Z"/>
  </g>
</svg>
