<svg xmlns="http://www.w3.org/2000/svg" width="18" height="18" viewBox="0 0 18 18">
  <title>Website</title>
  <g fill="none" fill-rule="evenodd" stroke="none" stroke-width="1">
    <path fill="#3AC" fill-rule="evenodd" clip-rule="evenodd" d="M9 17.333A8.333 8.333 0 1 1 9 .667a8.333 8.333 0 0 1 0 16.666zm-1.908-1.944a14.94 14.94 0 0 1-1.403-5.556H2.385a6.673 6.673 0 0 0 4.707 5.556zM9 15.46a13.264 13.264 0 0 1-1.642-5.627h3.283A13.252 13.252 0 0 1 9 15.46zm6.615-5.627h-3.304a14.902 14.902 0 0 1-1.403 5.556 6.673 6.673 0 0 0 4.707-5.556zM5.689 8.167H2.385a6.674 6.674 0 0 1 4.707-5.556 14.897 14.897 0 0 0-1.403 5.556zm4.952 0A13.252 13.252 0 0 0 9 2.54a13.268 13.268 0 0 0-1.642 5.627h3.283zm1.67 0a14.902 14.902 0 0 0-1.403-5.556 6.675 6.675 0 0 1 4.707 5.556h-3.304z"/>
  </g>
</svg>
