<svg width="85" height="85" viewBox="0 0 85 85" xmlns="http://www.w3.org/2000/svg">
  <g fill="none" fill-rule="evenodd">
    <path fill="#03EF62" d="M0 0h85v85H0z"/>
    <path d="M40.11 29.486v12.962l-14.081 7.845v-28.7l14.08 7.893zm4.556 27.233V45.036l18.856-10.51-4.586-2.566-14.27 7.952V28.189a2.231 2.231 0 00-1.144-1.931L26.345 16.64a1.826 1.826 0 00-.138-.072 3.358 3.358 0 00-3.186.166 3.197 3.197 0 00-1.543 2.728v32.953a3.199 3.199 0 001.541 2.733 3.36 3.36 0 003.19.169l.13-.065L40.1 47.58v10.453c.003.799.441 1.536 1.15 1.934l17.659 9.787 4.586-2.569-18.828-10.466z" fill="#05192D"/>
  </g>
</svg>
