<svg width="18" height="18" viewBox="0 0 18 18" xmlns="http://www.w3.org/2000/svg">
  <g fill-rule="nonzero">
    <path d="M4 2a2 2 0 0 0-2 2v10a2 2 0 0 0 2 2h10a2 2 0 0 0 2-2V4a2 2 0 0 0-2-2H4zm0-2h10a4 4 0 0 1 4 4v10a4 4 0 0 1-4 4H4a4 4 0 0 1-4-4V4a4 4 0 0 1 4-4z"></path>
    <path d="M12.621 8.52a.744.744 0 0 0-1.057 0l-1.75 1.745V5.781a.782.782 0 0 0-1.563 0v4.484L6.506 8.52a.744.744 0 1 0-1.057 1.029l3.057 3.057a.744.744 0 0 0 1.057 0l3.058-3.057a.744.744 0 0 0 0-1.029z"></path>
  </g>
</svg>
