<svg width="18" height="18" viewBox="0 0 18 18" xmlns="http://www.w3.org/2000/svg"><path d="M16.982 2.157a3.519 3.519 0 0 0-4.88 0l-8.936 8.72a2.206 2.206 0 0 0 0 3.022c.414.406.976.634 1.563.634.586 0 1.149-.228 1.562-.634l8.078-7.807a.815.815 0 0 0 .056-1.187.813.813 0 0 0-.609-.226.811.811 0 0 0-.585.25l-8.086 7.807a.638.638 0 0 1-.801 0 .628.628 0 0 1 .064-.804l8.863-8.635a1.854 1.854 0 0 1 2.549 0c.355.366.545.855.529 1.358a1.637 1.637 0 0 1-.537 1.14L6.86 14.493a3.076 3.076 0 0 1-2.147.898c-1.634.048-3-1.197-3.062-2.788a3.08 3.08 0 0 1 .922-2.272l8.19-7.932a.772.772 0 0 0 .272-.578.77.77 0 0 0-.232-.593.813.813 0 0 0-.609-.227.811.811 0 0 0-.577.25l-8.214 7.94a4.691 4.691 0 0 0-1.402 3.412c.06 2.48 2.167 4.444 4.712 4.396a4.74 4.74 0 0 0 3.301-1.374l8.96-8.698a3.195 3.195 0 0 0 1.025-2.272 3.435 3.435 0 0 0-1.017-2.498z" fill-rule="nonzero" /></svg>