<svg width="18" height="18" viewBox="0 0 18 18" xmlns="http://www.w3.org/2000/svg"><path d="M9.125 17.798a8.674 8.674 0 1 1 0-17.348 8.674 8.674 0 0 1 0 17.348zm0-1.77a6.904 6.904 0 1 0 0-13.808 6.904 6.904 0 0 0 0 13.808zm.76-11.101v3.482c0 .373-.023.743-.068 1.11-.044.368-.103.742-.176 1.124H8.363a16.664 16.664 0 0 1-.177-1.123 9.198 9.198 0 0 1-.067-1.111V4.927h1.765zM7.911 12.84a1.01 1.01 0 0 1 .308-.736 1.075 1.075 0 0 1 .764-.305c.15 0 .29.028.42.082.13.055.243.13.34.223a1.008 1.008 0 0 1 .31.736 1.032 1.032 0 0 1-.31.743 1.105 1.105 0 0 1-.76.298c-.155 0-.297-.026-.427-.08a1.022 1.022 0 0 1-.645-.962z"  fill-rule="evenodd"/></svg>