<svg xmlns="http://www.w3.org/2000/svg" width="18" height="18" viewBox="0 0 18 18"><path d="M18 14.75v1.5c0 .2-.07.38-.22.53a.72.72 0 0 1-.53.22H.75a.72.72 0 0 1-.53-.22.72.72 0 0 1-.22-.53v-1.5c0-.2.07-.38.22-.53A.72.72 0 0 1 .75 14h16.5c.2 0 .38.07.53.22.15.15.22.33.22.53zm0-6v1.5c0 .2-.07.38-.22.53a.72.72 0 0 1-.53.22H.75a.72.72 0 0 1-.53-.22.72.72 0 0 1-.22-.53v-1.5c0-.2.07-.38.22-.53A.72.72 0 0 1 .75 8h16.5c.2 0 .38.07.53.22.15.15.22.33.22.53zm0-6v1.5c0 .2-.07.38-.22.53a.72.72 0 0 1-.53.22H.75a.72.72 0 0 1-.53-.22.72.72 0 0 1-.22-.53v-1.5c0-.2.07-.38.22-.53A.72.72 0 0 1 .75 2h16.5c.2 0 .38.07.53.22.15.15.22.33.22.53z"/></svg>