<svg width="24px" height="24px" viewBox="0 0 24 24" version="1.1" xmlns="http://www.w3.org/2000/svg" >
    <g transform="translate(3.000000, 0.000000)" fill-rule="nonzero">
            <path d="M17,6.88452997 L17,19.9592333 C17,20.6185894 16.4511577,20.9331099 15.7857472,21.4244691 C15.251476,21.8198302 14.5714944,21.329734 14.5714944,20.6830093 C14.5714944,20.6830093 14.5714944,8.17166384 14.5714944,7.90766877 C14.5714944,7.64114743 14.4816397,7.38725743 14.1902191,7.23189191 C13.8987984,7.07652639 4.79433106,2.0972509 4.79433106,2.0972509 C4.64740648,2.04040986 4.00628101,1.61978613 3.15144705,2.07704075 C2.33911194,2.51155896 1.89712393,2.98397119 1.78419842,3.20628283 L11.7167862,8.86765085 C11.980279,9.01164817 12.1429889,9.23395981 12.1429889,9.51942816 L12.1429889,23.1638051 C12.1429889,23.454326 11.970565,23.765057 11.6949296,23.9027387 C11.5686473,23.9684216 11.4290082,24 11.2905834,24 C11.1266593,24 10.9615209,23.9583166 10.8218819,23.868634 C10.5608175,23.7031634 1.38228075,17.8485359 0.776368617,17.4683324 C0.48494795,17.2864411 0.143742919,16.9138165 0.136457402,16.6371901 L0.000461090901,3.64459044 C0.000461090901,3.39448985 -0.027466723,2.95365597 0.351380144,2.34103583 C1.19771433,0.971798223 4.15077709,-0.585646392 5.64552226,0.221496438 L16.572583,5.97507326 C16.8360759,6.11654431 17,6.39948639 17,6.88452997 Z"></path>
        </g>
</svg>