<svg xmlns="http://www.w3.org/2000/svg" width="18" height="18" viewBox="0 0 18 18"><path d="M5.6 13.18v.64a.3.3 0 0 1-.11.23.34.34 0 0 1-.24.1h-.68a.34.34 0 0 1-.24-.1.3.3 0 0 1-.1-.23v-.64a.3.3 0 0 1 .1-.23c.07-.06.15-.1.24-.1h.68c.1 0 .17.04.24.1.07.07.1.14.1.23zm0-2.57v.64a.3.3 0 0 1-.11.23.34.34 0 0 1-.24.1h-.68a.34.34 0 0 1-.24-.1.3.3 0 0 1-.1-.23v-.64a.3.3 0 0 1 .1-.23c.07-.06.15-.1.24-.1h.68c.1 0 .17.04.24.1.07.06.1.14.1.23zm2.72 0v.64a.3.3 0 0 1-.1.23.34.34 0 0 1-.24.1H7.3a.34.34 0 0 1-.24-.1.3.3 0 0 1-.1-.23v-.64a.3.3 0 0 1 .1-.23c.06-.06.14-.1.24-.1h.68c.09 0 .17.04.24.1.06.06.1.14.1.23zM5.59 8.04v.64a.3.3 0 0 1-.1.22.34.34 0 0 1-.24.1h-.68a.34.34 0 0 1-.24-.1.3.3 0 0 1-.1-.22v-.64a.3.3 0 0 1 .1-.23c.07-.06.15-.1.24-.1h.68c.1 0 .17.04.24.1.07.06.1.14.1.23zm8.18 5.14v.64a.3.3 0 0 1-.1.23.34.34 0 0 1-.24.1h-.68a.34.34 0 0 1-.24-.1.3.3 0 0 1-.1-.23v-.64a.3.3 0 0 1 .1-.23c.07-.06.15-.1.24-.1h.68c.1 0 .17.04.24.1.07.07.1.14.1.23zm-2.72-2.57v.64a.3.3 0 0 1-.1.23.34.34 0 0 1-.25.1h-.68a.34.34 0 0 1-.24-.1.3.3 0 0 1-.1-.23v-.64a.3.3 0 0 1 .1-.23c.07-.06.15-.1.24-.1h.68c.1 0 .18.04.24.1.07.06.1.14.1.23zM8.32 8.04v.64a.3.3 0 0 1-.1.22.34.34 0 0 1-.24.1H7.3a.34.34 0 0 1-.24-.1.3.3 0 0 1-.1-.22v-.64a.3.3 0 0 1 .1-.23c.06-.06.14-.1.24-.1h.68c.09 0 .17.04.24.1.06.06.1.14.1.23zM5.59 5.46v.65a.3.3 0 0 1-.1.22.34.34 0 0 1-.24.1h-.68a.34.34 0 0 1-.24-.1.3.3 0 0 1-.1-.22v-.65a.3.3 0 0 1 .1-.22c.07-.07.15-.1.24-.1h.68c.1 0 .17.03.24.1.07.06.1.14.1.22zm8.18 5.15v.64a.3.3 0 0 1-.1.23.34.34 0 0 1-.24.1h-.68a.34.34 0 0 1-.24-.1.3.3 0 0 1-.1-.23v-.64a.3.3 0 0 1 .1-.23c.07-.06.15-.1.24-.1h.68c.1 0 .17.04.24.1.07.06.1.14.1.23zm-2.72-2.57v.64a.3.3 0 0 1-.1.22.34.34 0 0 1-.25.1h-.68a.34.34 0 0 1-.24-.1.3.3 0 0 1-.1-.22v-.64a.3.3 0 0 1 .1-.23c.07-.06.15-.1.24-.1h.68c.1 0 .18.04.24.1.07.06.1.14.1.23zM8.32 5.46v.65a.3.3 0 0 1-.1.22.34.34 0 0 1-.24.1H7.3a.34.34 0 0 1-.24-.1.3.3 0 0 1-.1-.22v-.65a.3.3 0 0 1 .1-.22c.06-.07.14-.1.24-.1h.68c.09 0 .17.03.24.1.06.06.1.14.1.22zM5.59 2.9v.65a.3.3 0 0 1-.1.22.34.34 0 0 1-.24.1h-.68a.34.34 0 0 1-.24-.1.3.3 0 0 1-.1-.22v-.65a.3.3 0 0 1 .1-.22c.07-.07.15-.1.24-.1h.68c.1 0 .17.03.24.1.07.06.1.14.1.22zm8.18 5.15v.64a.3.3 0 0 1-.1.22.34.34 0 0 1-.24.1h-.68a.34.34 0 0 1-.24-.1.3.3 0 0 1-.1-.22v-.64a.3.3 0 0 1 .1-.23c.07-.06.15-.1.24-.1h.68c.1 0 .17.04.24.1.07.06.1.14.1.23zm-2.72-2.58v.65a.3.3 0 0 1-.1.22.34.34 0 0 1-.25.1h-.68a.34.34 0 0 1-.24-.1.3.3 0 0 1-.1-.22v-.65a.3.3 0 0 1 .1-.22c.07-.07.15-.1.24-.1h.68c.1 0 .18.03.24.1.07.06.1.14.1.22zM8.32 2.9v.65a.3.3 0 0 1-.1.22.34.34 0 0 1-.24.1H7.3a.34.34 0 0 1-.24-.1.3.3 0 0 1-.1-.22v-.65a.3.3 0 0 1 .1-.22c.06-.07.14-.1.24-.1h.68c.09 0 .17.03.24.1.06.06.1.14.1.22zm5.45 2.57v.65a.3.3 0 0 1-.1.22.34.34 0 0 1-.24.1h-.68a.34.34 0 0 1-.24-.1.3.3 0 0 1-.1-.22v-.65a.3.3 0 0 1 .1-.22c.07-.07.15-.1.24-.1h.68c.1 0 .17.03.24.1.07.06.1.14.1.22zM11.05 2.9v.65a.3.3 0 0 1-.1.22.34.34 0 0 1-.25.1h-.68a.34.34 0 0 1-.24-.1.3.3 0 0 1-.1-.22v-.65a.3.3 0 0 1 .1-.22c.07-.07.15-.1.24-.1h.68c.1 0 .18.03.24.1.07.06.1.14.1.22zm2.72 0v.65a.3.3 0 0 1-.1.22.34.34 0 0 1-.24.1h-.68a.34.34 0 0 1-.24-.1.3.3 0 0 1-.1-.22v-.65a.3.3 0 0 1 .1-.22c.07-.07.15-.1.24-.1h.68c.1 0 .17.03.24.1.07.06.1.14.1.22zm-2.72 13.82h4.09V1.3H2.86V16.7h4.1v-2.25a.3.3 0 0 1 .1-.22c.06-.07.14-.1.24-.1h3.4c.1 0 .18.03.24.1.07.06.1.14.1.22v2.25zM16.5.64v16.72a.6.6 0 0 1-.2.45c-.14.13-.3.19-.48.19H2.18a.68.68 0 0 1-.48-.2.6.6 0 0 1-.2-.44V.64A.6.6 0 0 1 1.7.2C1.84.06 2 0 2.18 0h13.64c.18 0 .34.06.48.2.13.12.2.27.2.44z"/></svg>