<svg width="18" height="18" viewBox="0 0 18 18" xmlns="http://www.w3.org/2000/svg" fill="none"><path fill-rule="evenodd" clip-rule="evenodd" d="M9 18c-2.387 0-4.676-.948-6.364-2.636-1.688-1.688-2.636-3.977-2.636-6.364s.948-4.676 2.636-6.364c1.688-1.688 3.977-2.636 6.364-2.636s4.676.948 6.364 2.636c1.688 1.688 2.636 3.977 2.636 6.364s-.948 4.676-2.636 6.364c-1.688 1.688-3.977 2.636-6.364 2.636zm0-1.837c1.9 0 3.722-.755 5.065-2.098 1.343-1.343 2.098-3.165 2.098-5.065 0-1.9-.755-3.722-2.098-5.065-1.343-1.343-3.165-2.098-5.065-2.098-1.9 0-3.722.755-5.065 2.098-1.343 1.343-2.098 3.165-2.098 5.065 0 1.9.755 3.722 2.098 5.065 1.343 1.343 3.165 2.098 5.065 2.098z"/></svg>