<svg xmlns="http://www.w3.org/2000/svg" width="18" height="18" viewBox="0 0 18 18"><path d="M17.56 2.46c.3.3.44.67.44 1.1v11.88c0 .43-.15.8-.44 1.1-.3.3-.65.46-1.06.46h-15c-.41 0-.77-.15-1.06-.46-.3-.3-.44-.67-.44-1.1V3.56c0-.43.15-.8.44-1.1.3-.3.65-.46 1.06-.46h15c.41 0 .77.15 1.06.46zM1.5 3.25a.28.28 0 0 0-.21.1.3.3 0 0 0-.09.21v2.19h15.6V3.56a.3.3 0 0 0-.09-.22.28.28 0 0 0-.21-.09h-15zm15 12.5c.08 0 .15-.03.21-.1a.3.3 0 0 0 .09-.21V9.5H1.2v5.94c0 .08.03.16.09.22s.13.09.21.09h15zM2.4 14.5v-1.25h2.4v1.25H2.4zm3.6 0v-1.25h3.6v1.25H6z"/></svg>