<svg xmlns="http://www.w3.org/2000/svg" width="18" height="18" viewBox="0 0 18 18">
  <path d="M9.63 13.837c.616-.09 1.078-.301 1.386-.631.308-.331.462-.773.462-1.325 0-.219-.039-.41-.116-.573a1.447 1.447 0 0 0-.318-.438 2.2 2.2 0 0 0-.481-.342 4.345 4.345 0 0 0-.606-.265l-.327 3.575zm-.741-9.828a3.263 3.263 0 0 0-.837.217c-.231.099-.419.22-.563.361-.144.142-.25.297-.318.467a1.467 1.467 0 0 0-.101.544c0 .219.037.412.111.583.074.171.178.323.313.458s.295.255.481.361c.186.106.392.2.616.284l.298-3.276zm1.29 3.796c.308.09.616.188.924.294.308.106.603.226.886.361.282.135.546.292.789.472.244.18.457.39.64.631s.325.518.428.834c.103.315.154.675.154 1.079 0 .597-.101 1.161-.303 1.691a4.154 4.154 0 0 1-.89 1.407 4.59 4.59 0 0 1-1.434.997c-.565.257-1.213.411-1.944.462l-.116 1.31a.728.728 0 0 1-.441.608.665.665 0 0 1-.272.048h-.972l.183-2.033a7.679 7.679 0 0 1-2.108-.621 7.108 7.108 0 0 1-.924-.511 5.244 5.244 0 0 1-.78-.622l.818-1.204a.824.824 0 0 1 .289-.255.76.76 0 0 1 .375-.101c.147 0 .301.045.462.135a9.8 9.8 0 0 1 .534.323c.195.125.417.252.664.381.247.128.534.228.861.299l.366-3.999a13.94 13.94 0 0 1-.919-.284 7.301 7.301 0 0 1-.881-.371 4.568 4.568 0 0 1-.784-.496 3.033 3.033 0 0 1-.63-.679 3.26 3.26 0 0 1-.423-.911 4.196 4.196 0 0 1-.154-1.19c0-.501.099-.988.298-1.46.199-.472.489-.894.871-1.267.41-.391.888-.703 1.41-.92.558-.241 1.2-.381 1.925-.419L9.187.647a.7.7 0 0 1 .217-.448.676.676 0 0 1 .495-.197h.982l-.173 1.889c.693.122 1.287.321 1.78.597.494.277.917.588 1.271.935l-.654.964a.984.984 0 0 1-.289.323.647.647 0 0 1-.366.101.922.922 0 0 1-.342-.082l-.438-.202-.534-.246a4.545 4.545 0 0 0-.621-.212l-.337 3.739z" clip-rule="evenodd"/>
</svg>
