<svg height="24" viewBox="0 0 24 24"  width="24" xmlns="http://www.w3.org/2000/svg"><g transform="translate(0.000000, 2.000000)" fill-rule="nonzero"><path d="M9.7524,11.3868302 C8.9256,12.7379593 9.4824,13.8475331 10.6308,14.4706102 C11.778,15.0948161 13.08,14.9954849 13.9092,13.6443558 C14.736,12.2954842 19.9656,0.251584762 19.5108,0.00438570027 C19.056,-0.242813361 10.5804,10.0368298 9.7524,11.3868302 Z M12,2.80823259 C12.5256,2.80823259 13.0368,2.84999681 13.5372,2.93126774 C14.0628,2.31157694 14.6508,1.62867542 15.2232,0.980765555 C14.2008,0.703089897 13.1208,0.550706914 12,0.550706914 C5.2716,0.550706914 0,5.88862637 0,12.7029676 C0,13.1217386 0.0192,13.5405097 0.0588,13.947993 C0.1176,14.5699414 0.7068,15.0259615 1.3596,14.9729097 C2.0208,14.9153428 2.508,14.3690216 2.4492,13.7470733 C2.4168,13.4061869 2.4,13.0528841 2.4,12.7029676 C2.4,7.15396951 6.6168,2.80823259 12,2.80823259 Z M20.6628,4.21918614 C20.328,5.06575826 19.974,5.92813307 19.662,6.67311655 C20.88,8.33239792 21.6,10.4138366 21.6,12.7029676 C21.6,13.0596567 21.582,13.419732 21.5484,13.767391 C21.4884,14.3893393 21.9744,14.937918 22.6344,14.9954849 C22.6704,14.9977425 22.7076,15 22.7448,15 C23.358,15 23.8824,14.5586537 23.9388,13.9728258 C23.9784,13.5551836 24,13.1285112 24,12.7029676 C24,9.3686022 22.7364,6.39318336 20.6628,4.21918614 Z"></path></g></svg>