<?xml version="1.0" encoding="UTF-8"?>
<svg width="24px" height="24px" viewBox="0 0 24 24" version="1.1" xmlns="http://www.w3.org/2000/svg" xmlns:xlink="http://www.w3.org/1999/xlink">
    <!-- Generator: Sketch 51.3 (57544) - http://www.bohemiancoding.com/sketch -->
    <title>Icon</title>
    <desc>Created with Sketch.</desc>
    <defs></defs>
    <g id="Icon" stroke="none" stroke-width="1" fill="none" fill-rule="evenodd">
        <g id="enterprise" transform="translate(0.000000, 4.000000)" fill="#8468C4" fill-rule="nonzero">
            <path d="M8.68085106,1.0212766 L8.68085106,15.3191489 L15.3191489,15.3191489 L15.3191489,1.0212766 L8.68085106,1.0212766 Z M8.68085106,0 L15.3191489,0 C15.8831844,3.45372128e-17 16.3404255,0.457241107 16.3404255,1.0212766 L16.3404255,15.3191489 C16.3404255,15.8831844 15.8831844,16.3404255 15.3191489,16.3404255 L8.68085106,16.3404255 C8.11681557,16.3404255 7.65957447,15.8831844 7.65957447,15.3191489 L7.65957447,1.0212766 C7.65957447,0.457241107 8.11681557,1.03611638e-16 8.68085106,0 Z M10.212766,2.55319149 L11.2340426,2.55319149 L11.2340426,5.61702128 L10.212766,5.61702128 L10.212766,2.55319149 Z M12.7659574,2.55319149 L13.787234,2.55319149 L13.787234,5.61702128 L12.7659574,5.61702128 L12.7659574,2.55319149 Z M10.212766,6.63829787 L11.2340426,6.63829787 L11.2340426,9.70212766 L10.212766,9.70212766 L10.212766,6.63829787 Z M12.7659574,6.63829787 L13.787234,6.63829787 L13.787234,9.70212766 L12.7659574,9.70212766 L12.7659574,6.63829787 Z M10.212766,10.7234043 L11.2340426,10.7234043 L11.2340426,13.787234 L10.212766,13.787234 L10.212766,10.7234043 Z M12.7659574,10.7234043 L13.787234,10.7234043 L13.787234,13.787234 L12.7659574,13.787234 L12.7659574,10.7234043 Z M15.3191489,4.08510638 L22.9787234,4.08510638 C23.5427589,4.08510638 24,4.54234749 24,5.10638298 L24,15.3191489 C24,15.8831844 23.5427589,16.3404255 22.9787234,16.3404255 L15.3191489,16.3404255 L15.3191489,4.08510638 Z M16.3404255,5.10638298 L16.3404255,15.3191489 L22.9787234,15.3191489 L22.9787234,5.10638298 L16.3404255,5.10638298 Z M17.8723404,6.63829787 L18.893617,6.63829787 L18.893617,9.70212766 L17.8723404,9.70212766 L17.8723404,6.63829787 Z M20.4255319,6.63829787 L21.4468085,6.63829787 L21.4468085,9.70212766 L20.4255319,9.70212766 L20.4255319,6.63829787 Z M17.8723404,10.7234043 L18.893617,10.7234043 L18.893617,13.787234 L17.8723404,13.787234 L17.8723404,10.7234043 Z M20.4255319,10.7234043 L21.4468085,10.7234043 L21.4468085,13.787234 L20.4255319,13.787234 L20.4255319,10.7234043 Z M8.68085106,4.08510638 L8.68085106,16.3404255 L1.0212766,16.3404255 C0.457241107,16.3404255 6.90744256e-17,15.8831844 0,15.3191489 L0,5.10638298 C-6.90744256e-17,4.54234749 0.457241107,4.08510638 1.0212766,4.08510638 L8.68085106,4.08510638 Z M7.65957447,5.10638298 L1.0212766,5.10638298 L1.0212766,15.3191489 L7.65957447,15.3191489 L7.65957447,5.10638298 Z M3.57446809,6.63829787 L2.55319149,6.63829787 L2.55319149,9.70212766 L3.57446809,9.70212766 L3.57446809,6.63829787 Z M6.12765957,6.63829787 L5.10638298,6.63829787 L5.10638298,9.70212766 L6.12765957,9.70212766 L6.12765957,6.63829787 Z M3.57446809,10.7234043 L2.55319149,10.7234043 L2.55319149,13.787234 L3.57446809,13.787234 L3.57446809,10.7234043 Z M6.12765957,10.7234043 L5.10638298,10.7234043 L5.10638298,13.787234 L6.12765957,13.787234 L6.12765957,10.7234043 Z" id="Shape"></path>
        </g>
    </g>
</svg>