<svg xmlns="http://www.w3.org/2000/svg" width="24" height="24" viewBox="0 0 24 24">
    <path fill="#FFF" d="M5 3h12v16H5z"/>
    <path d="M16.788 13.04c.185.312.238.312-.107.629.265.229.265.416-.131.594.009.635.138 1.201-.675 1.25-.812.05-1.844-.49-2.11.964-.268 1.454-.199.909-.278 1.274h-5.74c.715-1.95 1.32-4.104 0-5.162-1.318-1.058-3.487-5.496.782-7.77a6.275 6.275 0 0 1 1.528-.57l-.178-.475.055-.022c.019-.01 1.836-.7 3.41.064l.051.025-.188.428c1.013.226 1.77.597 2.048.77.636.397 1.481 1.016 1.56 1.608.08.593-.687.294-.687.294.476 1.146.502 1.966.29 2.839-.21.872.979 1.767.95 2.407-.078.29-.634.398-.634.398s-.132.145.054.455zM11.93.04a.741.741 0 0 0-.482 0L1.493 3.544a.732.732 0 0 0-.489.771l1.403 13.262c.026.24.165.451.375.568l8.663 4.764a.735.735 0 0 0 .716-.004l8.446-4.766a.738.738 0 0 0 .37-.549L22.59 4.327a.74.74 0 0 0-.485-.785L11.93.04zm-1.173 8.405a.945.945 0 1 1 1.62-.974.945.945 0 0 1-1.62.974zm4.807-1.356c-.358-1.403-1.529-2.033-1.529-2.033l-.199.276c-.248-.254-.848-.524-.89-.541l.155-.422a.315.315 0 0 0-.09-.05c-.904-.336-1.734-.34-2.865-.015l.534 1.418c-.76.243-1.321.91-1.38.986l-.741-.524c-.409.536-.7 1.504-.7 2.25h-.952c.009.669.13 1.836.933 2.805l.705-.535c.648.94 1.997 1.622 3.121 1.507l-.016-1.955.015.026c.285.083.873-.095 1.13-.297l.536.71c.573-.187 1.006-1.27 1.05-1.387l.85.29a4.44 4.44 0 0 0 .022-2.4l.31-.109z"/></svg>