<?xml version="1.0" encoding="UTF-8"?>
<svg width="24px" height="24px" viewBox="0 0 24 24" version="1.1" xmlns="http://www.w3.org/2000/svg" xmlns:xlink="http://www.w3.org/1999/xlink">
    <!-- Generator: Sketch 51.3 (57544) - http://www.bohemiancoding.com/sketch -->
    <title>Icon</title>
    <desc>Created with Sketch.</desc>
    <defs></defs>
    <g id="Icon" stroke="none" stroke-width="1" fill="none" fill-rule="evenodd">
        <g id="academic" transform="translate(0.000000, 1.000000)" fill="#33AACC" fill-rule="nonzero">
            <path d="M1.58356659,6.64675963 C1.40742246,6.736958 1.29607994,6.92333948 1.2965487,7.12721236 C1.29701747,7.33108524 1.40921581,7.51691295 1.58577271,7.60623757 L11.7457056,12.7723049 C11.8891947,12.8457237 12.0574132,12.8457237 12.2009023,12.7723049 L22.4167236,7.52609025 C22.5932797,7.43605137 22.704962,7.24944062 22.7044929,7.04525457 C22.7040238,6.84106853 22.5914853,6.6550128 22.4145175,6.565849 L12.2545847,1.39978164 C12.1109813,1.32660338 11.9427627,1.32688546 11.7993879,1.40054494 L1.58356659,6.64675963 Z M20.6900645,9.91448044 L20.6900645,17.6322859 C17.8110737,19.8771742 14.9320829,21 12.0538274,21 C9.175572,21 6.29658118,19.8779375 3.41832574,17.6322859 L3.41832574,10.0358464 L1.01732829,8.81531717 C0.118017781,8.35892812 -0.254916046,7.23247787 0.184149087,6.29869126 C0.359763906,5.92606002 0.649402063,5.62434616 1.00776843,5.44073327 L11.2235897,0.194518578 C11.7277204,-0.0640324504 12.3189489,-0.0648785256 12.8237644,0.192228654 L22.9829619,5.35829602 C23.8818495,5.81467598 24.2547103,6.94056416 23.8161411,7.87415862 C23.6407147,8.2466685 23.3513493,8.54836759 22.9932572,8.73211662 L20.6900645,9.91524375 L20.6900645,9.91448044 Z M4.7184677,16.9453088 C7.20403321,18.7596915 9.64327013,19.6497085 12.0538274,19.6497085 C14.4643848,19.6497085 16.9036217,18.7596915 19.3891872,16.9453088 L19.3891872,10.6785516 L12.0670642,14.2218265 L4.7184677,10.8304498 L4.7184677,16.9445455 L4.7184677,16.9453088 Z M11.8810145,8.38710148 C11.6802933,8.26533932 11.5574015,8.04167539 11.5586311,7.80036175 C11.5598608,7.55904811 11.6850251,7.33674603 11.8869758,7.21719456 C12.0889266,7.09764309 12.3369827,7.09900494 12.5377038,7.22076712 L17.4926566,10.2266733 C17.6926784,10.3480393 17.8147506,10.5701619 17.8147506,10.8098405 L17.8147506,15.2423691 C17.8147506,15.615031 17.5237039,15.9171332 17.1646796,15.9171332 C16.8056553,15.9171332 16.5146086,15.615031 16.5146086,15.2423691 L16.5146086,11.1968376 L11.8817498,8.38710148 L11.8810145,8.38710148 Z" id="Shape"></path>
        </g>
    </g>
</svg>