<svg width="18" height="18" viewBox="0 0 18 18" xmlns="http://www.w3.org/2000/svg"><path d="M4.808 2.077c-.954 0-1.731.776-1.731 1.73v10.385c0 .955.777 1.731 1.73 1.731h9c.955 0 1.731-.776 1.731-1.73V3.807c0-.955-.776-1.731-1.73-1.731h-9zm9 15.923h-9A3.812 3.812 0 0 1 1 14.192V3.808C1 1.708 2.708 0 4.808 0h9c2.1 0 3.807 1.709 3.807 3.808v10.384c0 2.1-1.708 3.808-3.807 3.808zM12.077 7.615a1.038 1.038 0 1 0 0-2.077H6.538a1.038 1.038 0 1 0 0 2.077h5.539zm0 4.847a1.038 1.038 0 1 0 0-2.077H6.538a1.038 1.038 0 1 0 0 2.077h5.539z"  fill-rule="evenodd"/></svg>