<svg width="18" height="18" viewBox="0 0 18 18" xmlns="http://www.w3.org/2000/svg"><path d="M8.848 10.875c0 .102-.039.191-.117.27l-3.891 3.891 1.688 1.688c.148.148.223.324.223.527s-.074.379-.223.527c-.148.148-.324.223-.527.223h-5.25c-.203 0-.379-.074-.527-.223-.148-.148-.223-.324-.223-.527v-5.25c0-.203.074-.379.223-.527.148-.149.324-.223.527-.223s.379.074.527.223l1.688 1.688 3.891-3.891c.078-.078.168-.117.27-.117.102 0 .191.039.27.117l1.336 1.336c.078.078.117.168.117.27zm9.152-10.125v5.25c0 .203-.074.379-.223.527-.148.148-.324.223-.527.223s-.379-.074-.527-.223l-1.688-1.688-3.891 3.891c-.078.078-.168.117-.27.117-.102 0-.191-.039-.27-.117l-1.336-1.336c-.078-.078-.117-.168-.117-.27 0-.102.039-.191.117-.27l3.891-3.891-1.688-1.688c-.149-.148-.223-.324-.223-.527s.074-.379.223-.527c.148-.148.324-.223.527-.223h5.25c.203 0 .379.074.527.223.148.148.223.324.223.527z"/></svg>