<svg xmlns="http://www.w3.org/2000/svg" width="18" height="18" viewBox="0 0 18 18"><path d="M14.625 0c.93 0 1.725.33 2.385.99.66.66.99 1.455.99 2.385v11.25c0 .93-.33 1.725-.99 2.385a3.25 3.25 0 0 1-2.385.99h-2.203v-6.973h2.332l.351-2.718h-2.683V6.574c0-.437.092-.765.275-.984.184-.219.541-.328 1.073-.328l1.43-.012V2.824c-.493-.07-1.188-.105-2.087-.105-1.062 0-1.912.312-2.549.937-.636.625-.955 1.508-.955 2.649v2.004H7.266v2.718h2.343V18H3.375a3.25 3.25 0 0 1-2.385-.99A3.25 3.25 0 0 1 0 14.625V3.375C0 2.445.33 1.65.99.99A3.25 3.25 0 0 1 3.375 0h11.25z"/></svg>