<svg xmlns="http://www.w3.org/2000/svg" width="18" height="18" viewBox="0 0 18 18"><path d="M9 0a9 9 0 0 1 7.8 13.5 9 9 0 0 1-12.3 3.3A9 9 0 0 1 1.2 4.5 9 9 0 0 1 9 0zm3.2 6.1l-.1.1-.2.1a2 2 0 0 0 .2-.2c0-.1.1-.2.3-.2l.6-.2c.2 0 .4 0 .6.2v-.2l.2-.1h.2l.2-.2v-.2L14 5v-.2H13.6h-.1l-.2-.1-.1-.2v-.2l-.2-.1v-.1A1.3 1.3 0 0 1 13 4h-.1-.1a2.3 2.3 0 0 0-.2.2h-.1a.3.3 0 0 1-.2 0l-.1.1c.1 0 .1 0 0-.1H12s.1-.1 0-.2v-.2l-.3-.2h-.1l-.4-.1h-.4V4l-.1.2.2.2s.1.1 0 .2l-.1.2-.2.1v.3l.1.1v.1a.5.5 0 0 1-.2.1h-.2l-.2-.3-.2-.4h-.3L9 4.5h-.7v-.2c0-.1-.1-.2-.2-.1V4v-.2l.2-.3a2.2 2.2 0 0 0 .2-.2l.6-.2.1-.2.1-.2h.7v-.3-.2L10 2h-.3v.1l-.1.1-.2.3-.2-.1v-.2L9 2.2l-.2.2v-.2L8.3 2c.2-.1.1-.2 0-.3H8c-.1-.1-.2 0-.2 0h-.1V2H8a1.8 1.8 0 0 0 .2.1l.1.2a11 11 0 0 0-.3.1v.4l-.1-.2-.1-.2h-.4H6.8V2 2l-.2-.1-1.1.5h.1l.2-.1h.1l.5-.2.3.3h-.4l-.2.1v.1l-.3-.1h-.4C4.3 3 3.4 3.8 2.6 5l.2.1V5.4H3v.1l.6.4.2.2-.1.2h-.1l-.1-.1v.2l.1.1-.1.2v1.1l.3.3.2.5h.1a5.2 5.2 0 0 0 .3.3h.2v.4l.2.2s0 .2.2.3v.2l.2.2.2.2v.2h.1c0-.1 0-.4-.3-.7a9.6 9.6 0 0 1-.2-.5v-.2a1.8 1.8 0 0 1 .2.1v.3l.2.2a16 16 0 0 0 .5.6v.1l.2.2.2.2.1.3v.3l.2.1.1.2H7l.2.1.2.2h.2l.2.1H8l.4.1c0 .2.2.3.2.3.3.1.5.2.7.1V13a11.5 11.5 0 0 0 .2.3l.3.1.2.2v-.1l.1.2.2.2.2-.4c-.2 0-.4 0-.6-.2v-.1a.7.7 0 0 1 0-.2v-.1h.1v-.2-.2l-.2-.2-.1-.2-.2.1H9V12v-.2l.1-.2v-.1l.1-.2-.2-.1c-.2 0-.3 0-.3.2v.1l-.1.2h-.1H8a.7.7 0 0 1-.2-.3 1 1 0 0 1-.1-.8v-.3-.2-.2H8v-.1H8v-.1H8.9v-.2-.1c0 .2 0 .2.3 0l.2.1h.2v.1h.1c0 .1 0 .1 0 0h.2l.1.3c0 .3.2.5.2.5h.2a1.1 1.1 0 0 0 0-.4v-.3l-.2-.2v-.2l.1-.3H10.6l.2-.2c.1-.1.2-.3.1-.4h.2v-.1h-.2v-.1V8v-.1l.2-.1h.2v-.2l.3-.1.2-.1v-.2l.1-.1.2-.2h.2l.2-.1.3-.2c.1-.1 0-.2 0-.2v-.2h-.3H12.8c.1-.1 0-.2 0-.2l-.6.1zm-1.9 10.3c1.6-.3 3-1 4.1-2.2h-.1L14 14l-.3-.1v-.2a6.3 6.3 0 0 0-.4-.3 4 4 0 0 0-.2-.1H13 13h-.2l-.5-.2-.2-.1H12h-.2v.4c-.1 0-.1-.1 0-.2V13l-.2-.1h-.1a2.3 2.3 0 0 0-.2.2 1.1 1.1 0 0 0-.2.2l-.1.1v.2l-.2-.1h-.1v1.3c-.3.2-.4.4-.4.5 0 .2 0 .3.2.3l-.1.2-.1.3v.2z"/></svg>