<svg xmlns="http://www.w3.org/2000/svg" width="18" height="18" viewBox="0 0 18 18"><path d="M13.884 8.09H9.116v1.933h2.744c-.255 1.227-1.325 1.932-2.744 1.932-1.674 0-3.023-1.319-3.023-2.955 0-1.636 1.349-2.955 3.023-2.955a3 3 0 0 1 1.884.66l1.488-1.455A5.161 5.161 0 0 0 9.116 4C6.28 4 4 6.227 4 9s2.28 5 5.116 5C11.674 14 14 12.182 14 9c0-.295-.047-.614-.116-.91zM18 14.626c0 .93-.33 1.725-.99 2.385a3.25 3.25 0 0 1-2.385.99H3.375a3.25 3.25 0 0 1-2.385-.99A3.25 3.25 0 0 1 0 14.626V3.376c0-.93.33-1.725.99-2.385a3.25 3.25 0 0 1 2.385-.99h11.25c.93 0 1.725.33 2.385.99.66.66.99 1.455.99 2.385v11.25z"></path></svg>