<svg xmlns="http://www.w3.org/2000/svg" width="18" height="18" viewBox="0 0 18 18"><path d="M15.88 13.24c0-.3-.1-.55-.3-.75l-2.3-2.3c-.2-.2-.46-.3-.75-.3-.3 0-.57.11-.8.35a30.32 30.32 0 0 0 .45.44l.17.2a.89.89 0 0 1 .18.6c0 .28-.1.53-.3.74a1.12 1.12 0 0 1-1.05.27.89.89 0 0 1-.3-.14 2.63 2.63 0 0 1-.44-.4l-.2-.21a1.07 1.07 0 0 0-.06 1.55l2.27 2.28c.2.2.45.3.75.3s.55-.1.75-.29l1.62-1.6a1 1 0 0 0 .31-.74zM8.13 5.46c0-.3-.1-.54-.31-.75L5.55 2.43c-.2-.2-.46-.31-.75-.31s-.54.1-.75.3l-1.62 1.6a1 1 0 0 0-.31.74c0 .3.1.55.3.75l2.3 2.3c.2.2.45.3.75.3s.57-.12.8-.35a30.32 30.32 0 0 0-.45-.44l-.17-.2a.89.89 0 0 1-.18-.6c0-.28.1-.53.3-.74a1.12 1.12 0 0 1 1.05-.27c.1.02.2.07.3.14a2.63 2.63 0 0 1 .44.4l.2.21c.25-.22.37-.5.37-.8zM18 13.24a3 3 0 0 1-.94 2.23l-1.62 1.61c-.6.61-1.36.92-2.24.92-.89 0-1.64-.31-2.25-.94l-2.27-2.28a3.05 3.05 0 0 1-.92-2.24c0-.9.33-1.67.98-2.3l-.98-.98c-.63.65-1.4.98-2.29.98-.88 0-1.63-.31-2.25-.93L.92 7A3.06 3.06 0 0 1 0 4.76a3 3 0 0 1 .94-2.23L2.56.92A3.05 3.05 0 0 1 4.8 0c.89 0 1.64.31 2.25.94l2.27 2.28c.61.61.92 1.36.92 2.24 0 .9-.33 1.67-.98 2.3l.98.98c.63-.65 1.4-.98 2.29-.98.88 0 1.63.31 2.25.93l2.3 2.3c.61.61.92 1.36.92 2.25z"/></svg>