<svg xmlns="http://www.w3.org/2000/svg" width="18" height="18" viewBox="0 0 18 18"><path d="M2.777 15.07h2.707V6.937H2.777v8.133zM5.66 4.43a1.385 1.385 0 0 0-.422-1.008c-.273-.266-.636-.399-1.09-.399-.453 0-.822.133-1.107.399a1.318 1.318 0 0 0-.428 1.008c0 .398.139.732.416 1.002.278.27.639.404 1.084.404h.012c.46 0 .832-.135 1.113-.404.282-.27.422-.604.422-1.002zm6.856 10.64h2.707v-4.664c0-1.203-.286-2.113-.856-2.73-.57-.617-1.324-.926-2.262-.926-1.062 0-1.878.457-2.449 1.371h.024V6.937H6.973c.023.516.023 3.227 0 8.133H9.68v-4.547c0-.296.027-.515.082-.656.117-.273.293-.506.527-.697.234-.191.524-.287.867-.287.906 0 1.36.613 1.36 1.84v4.347zM18 3.375v11.25c0 .93-.33 1.725-.99 2.385a3.25 3.25 0 0 1-2.385.99H3.375a3.25 3.25 0 0 1-2.385-.99A3.25 3.25 0 0 1 0 14.625V3.375C0 2.445.33 1.65.99.99A3.25 3.25 0 0 1 3.375 0h11.25c.93 0 1.725.33 2.385.99.66.66.99 1.455.99 2.385z"/></svg>