<svg width="18" height="18" viewBox="0 0 18 18" xmlns="http://www.w3.org/2000/svg"><path d="M16.7019 3H1.29807C0.582311 3 0 3.62113 0 4.38461V13.6154C0 14.3789 0.582311 15 1.29807 15H16.7019C17.4177 15 18 14.3789 18 13.6154V4.38461C18 3.62113 17.4177 3 16.7019 3ZM9.81818 13.2832L7.71429 13.2857V9.42983L6.13636 11.9016L4.55844 9.42983V13.2857H2.45455V5.57394H4.55844L6.13636 8.14453L7.71429 5.57394L9.81818 5.57143V13.2832ZM13.4837 13.2857L10.6364 9.13294H12.3545V5.57143H14.6455V9.13294H16.3636L13.4837 13.2857Z" fill-rule="evenodd"/>
</svg>
