<svg width="24px" height="24px" viewBox="0 0 24 24" xmlns="http://www.w3.org/2000/svg">
    <path d="M11.5407436,12.4651207 C11.2052016,12.6525311 10.7950427,12.6525311 10.4595007,12.4651207 L2.2002199,7.85206107 L2.2002199,16.7462715 L11.0001222,21.6612847 L19.8000244,16.7462715 L19.8000244,7.85206107 L11.5407436,12.4651207 Z M20.3593908,5.03952693 C21.0926632,4.62997186 22,5.15431853 22,5.98762893 L22,17.3819504 C22,17.7747095 21.7862424,18.1370194 21.4406336,18.3300524 L11.5407436,23.8594423 C11.2052016,24.0468526 10.7950427,24.0468526 10.4595007,23.8594423 L0.559610689,18.3300524 C0.214001872,18.1370194 0.000244341054,17.7747095 0.000244341054,17.3819504 L0.000244341054,5.98762893 C0.000244341054,5.15431853 0.907581157,4.62997186 1.64085355,5.03952693 L11.0001222,10.2669632 L20.3593908,5.03952693 Z M1.58822137,6.96329587 C1.04376843,7.23002947 0.383921882,7.00943867 0.114412862,6.47059266 C-0.155096157,5.93174666 0.0677899314,5.27869533 0.612242874,5.01196186 L10.6119532,0.112992785 C10.9227751,-0.0392822816 11.2879556,-0.0375612149 11.5972981,0.117636519 L21.3619923,5.0166056 C21.9038537,5.2884588 22.1204457,5.9435812 21.8457638,6.47986253 C21.5710818,7.01614387 20.9091426,7.23050533 20.367281,6.95865213 L11.094084,2.30626826 L1.58822137,6.96329587 Z M12.0504313,11.9046447 C12.051149,11.9003619 12.05176,11.8963021 12.0522933,11.8924153 C12.0520762,11.8939972 12.0518584,11.8957475 12.0516408,11.8976624 L12.0504313,11.9046447 Z M9.94963739,11.9080409 C9.94908106,11.9017453 9.94851353,11.8965149 9.94795101,11.8924153 C9.94815142,11.893876 9.94836282,11.8953611 9.94858673,11.8968733 L9.94963739,11.9080409 Z M12.1551093,22.4263918 C12.1551093,22.6137864 12.1464536,22.7759994 12.1279175,22.9110899 C12.1141834,23.0111832 12.0950099,23.1026466 12.0619147,23.1991252 C12.0220133,23.3113772 12.0220133,23.3113772 11.9060443,23.5022684 C11.6914487,23.7824091 11.6914487,23.7824091 11.0001222,23.9659892 C10.3087956,23.7824091 10.3087956,23.7824091 10.0942,23.5022684 C9.97823096,23.3113772 9.97823096,23.3113772 9.9383296,23.1991252 C9.90523438,23.1026466 9.88606091,23.0111832 9.87232685,22.9110899 C9.85379073,22.7759994 9.84513498,22.6137864 9.84513498,22.4263918 L9.84513498,12.0841237 C9.84513498,11.8967291 9.85379073,11.7345161 9.87232685,11.5994256 C9.88606091,11.4993323 9.90523438,11.4078689 9.9383296,11.3113903 C9.97823096,11.1991383 9.97823096,11.1991383 10.0942,11.0082471 C10.3087956,10.7281064 10.3087956,10.7281064 11.0001222,10.5445263 C11.6914487,10.7281064 11.6914487,10.7281064 11.9060443,11.0082471 C12.0220133,11.1991383 12.0220133,11.1991383 12.0619147,11.3113903 C12.0950099,11.4078689 12.1141834,11.4993323 12.1279175,11.5994256 C12.1464536,11.7345161 12.1551093,11.8967291 12.1551093,12.0841237 L12.1551093,22.4263918 Z"></path>
</svg>