<?xml version="1.0" encoding="UTF-8"?>
<svg width="24px" height="24px" viewBox="0 0 24 24" version="1.1" xmlns="http://www.w3.org/2000/svg" xmlns:xlink="http://www.w3.org/1999/xlink">
    <path d="M6.25714091,5.41882078 C6.25714091,5.41882078 6.25714091,3.46621011 6.25767865,2.44912563 C6.25767865,-0.568029016 17.2584574,-1.20163693 17.7800025,2.86488838 C17.7800025,4.54863794 17.7800025,6.65361114 17.7800025,8.57179845 C17.7800025,10.4899859 16.134513,11.6232609 14.7450536,11.6232609 C13.3555941,11.6232609 12.9722,11.6232609 11.6987665,11.6232609 C6.59133825,11.6232609 5.17474011,11.4713389 5.46669611,17.8892404 C4.41484892,17.8892404 4.58764825,17.8892404 3.61670798,17.8892404 C-1.03493695,17.8892404 -1.37323602,6.43164273 3.61670798,6.23486973 C7.91180211,6.23486973 12.0600288,6.23486973 12.0600288,6.23486973 L12.0600288,5.41882078 L6.25714091,5.41882078 Z M8.75879411,1.87872939 C8.25179571,1.8912029 7.68658545,2.27585623 7.68658545,2.9471777 C7.68658545,3.61849904 8.19480865,3.98165806 8.70303171,3.96915453 C9.21125491,3.956651 9.77046918,3.59265036 9.77046918,2.89590906 C9.77046918,2.19916775 9.26579265,1.86625603 8.75879411,1.87872939 Z M17.7558384,18.5811792 C17.7558384,18.5811792 17.7558384,20.5337899 17.7553008,21.5508744 C17.7553008,24.568029 6.75452198,25.2016369 6.23297678,21.1351116 C6.23297678,19.4513619 6.23297678,17.6725281 6.23297678,15.4282014 C6.23297678,13.1838749 7.67902025,12.3767391 9.26792571,12.3767391 C10.8568313,12.3767391 11.0407793,12.3767391 12.3142128,12.3767391 C16.9227314,12.3767391 18.8026128,12.3767391 18.5462832,6.11075956 C19.6232633,6.11075956 19.4253312,6.11075956 20.3962713,6.11075956 C25.0126412,6.11075956 25.3862154,17.5683573 20.3962713,17.7651303 C16.1011772,17.7651303 11.9529506,17.7651303 11.9529506,17.7651303 L11.9529506,18.5811792 L17.7558384,18.5811792 Z M15.2541852,22.1212706 C15.7611836,22.1087971 16.3263938,21.7241436 16.3263938,21.0528223 C16.3263938,20.3815008 15.8181708,20.0183419 15.3099476,20.0308455 C14.8017244,20.043349 14.2425101,20.4073496 14.2425101,21.1040909 C14.2425101,21.8008322 14.7471868,22.133744 15.2541852,22.1212706 Z" id="Combined-Shape"></path>
</svg>