<svg width="18" height="18" viewBox="0 0 18 18" xmlns="http://www.w3.org/2000/svg"><path d="M5.42 5.158a6.038 6.038 0 0 1 3.448-1.079 6.06 6.06 0 0 1 6.053 6.053 6.06 6.06 0 0 1-6.053 6.052 6.06 6.06 0 0 1-6.052-6.052.908.908 0 1 0-1.816 0C1 14.47 4.53 18 8.868 18c4.339 0 7.868-3.53 7.868-7.868 0-4.339-3.53-7.868-7.868-7.868a7.851 7.851 0 0 0-4.213 1.221L5.19.962a.796.796 0 0 0-1.558-.33L2.625 5.378a.795.795 0 0 0 .614.944L7.987 7.33a.796.796 0 1 0 .33-1.558l-2.898-.614z"  fill-rule="evenodd"/></svg>