<svg width="18" height="18" viewBox="0 0 18 18" xmlns="http://www.w3.org/2000/svg"><path d="M3.082 11.836a3.082 3.082 0 1 1 0 6.164 3.082 3.082 0 0 1 0-6.164zM16.459 18c-.851 0-1.541-.69-1.541-1.541 0-8.252-5.126-13.377-13.377-13.377C.718 2.863.243 1.968.461 1.145.603.611 1.021.194 1.541 0c4.873 0 9 1.558 11.953 4.505C16.448 7.454 18 11.588 18 16.46a1.54 1.54 0 0 1-1.541 1.54zm-5.834 0c-.85 0-1.54-.69-1.54-1.541 0-5.005-2.539-7.543-7.544-7.543a1.541 1.541 0 0 1 0-3.083c6.752 0 10.626 3.872 10.626 10.624A1.54 1.54 0 0 1 10.627 18h-.002z"  fill-rule="evenodd"/></svg>