<svg viewBox="0 0 24 24">
    <path fill-rule="nonzero" d="M22.615 15.218l-2.426.809.839 2.515c.329 1.018-.21 2.126-1.228 2.456-.21.06-.45.12-.659.09-.778-.03-1.527-.54-1.797-1.318l-.838-2.515-5 1.676.838 2.516c.33 1.018-.21 2.126-1.228 2.455-.21.06-.45.12-.659.09-.778-.03-1.527-.539-1.796-1.318l-.839-2.515-2.425.809c-.21.06-.45.12-.66.09-.778-.03-1.526-.54-1.796-1.318-.33-1.018.21-2.126 1.228-2.455l2.425-.809-1.617-4.821-2.425.809c-.21.06-.45.12-.659.09-.778-.03-1.527-.54-1.796-1.318-.33-1.018.21-2.126 1.227-2.456l2.426-.808-.839-2.515C2.581 4.438 3.121 3.33 4.14 3c1.018-.33 2.126.21 2.455 1.228l.839 2.515 5-1.677-.838-2.515c-.33-1.018.21-2.126 1.228-2.455 1.018-.33 2.126.21 2.455 1.227l.839 2.516 2.425-.809c1.018-.33 2.126.21 2.456 1.228.329 1.018-.21 2.126-1.228 2.455l-2.426.809 1.617 4.82 2.426-.808c1.018-.33 2.126.21 2.455 1.228.33 1.018-.21 2.126-1.227 2.455zM8.647 10.466l1.617 4.827 4.997-1.673-1.617-4.827-4.997 1.673z" />
</svg>
