<?xml version="1.0" encoding="UTF-8"?>
<svg width="24px" height="24px" viewBox="0 0 24 24" version="1.1" xmlns="http://www.w3.org/2000/svg" xmlns:xlink="http://www.w3.org/1999/xlink">
   <path d="M20.625,0 L17.875,0 C17.116,0 16.5,0.596265007 16.5,1.33392619 L16.5,24 L22,24 L22,1.33392619 C22,0.596265007 21.385375,0 20.625,0 Z M12.375,8.00355714 L9.625,8.00355714 C8.866,8.00355714 8.25,8.59982214 8.25,9.33748333 L8.25,24 L13.75,24 L13.75,9.33748333 C13.75,8.59982214 13.135375,8.00355714 12.375,8.00355714 Z M4.125,16.0071143 L1.375,16.0071143 C0.616,16.0071143 0,16.6033793 0,17.3410405 L0,24 L5.5,24 L5.5,17.3410405 C5.5,16.6033793 4.885375,16.0071143 4.125,16.0071143 Z" id="Shape"></path>
</svg>