<svg width="18" height="18" viewBox="0 0 18 18" xmlns="http://www.w3.org/2000/svg"><path d="M8.607 1.84L2.213 8.233a1.486 1.486 0 0 0 0 2.1l5.455 5.454c.579.58 1.52.578 2.099 0l6.411-6.412-.717-6.453L8.607 1.84zM8.717 18a3.253 3.253 0 0 1-2.307-.954L.954 11.59a3.269 3.269 0 0 1 0-4.616L7.668.26a.885.885 0 0 1 .768-.25L16.41 1.27a.89.89 0 0 1 .746.78l.84 7.554a.892.892 0 0 1-.256.728l-6.714 6.714A3.255 3.255 0 0 1 8.717 18zm.367-6.65A1.735 1.735 0 1 1 6.63 8.895a1.737 1.737 0 0 1 2.454 2.455"  fill-rule="evenodd"/></svg>