<svg xmlns="http://www.w3.org/2000/svg" width="352" height="193" viewBox="0 0 352 193">
  <g id="Full-Logo-+-Tagline-Regular" fill="none" fill-rule="evenodd" stroke="none" stroke-width="1">
    <g id="Group" fill="#05192D" transform="translate(32 32)">
      <path id="Combined-Shape" fill-rule="nonzero" d="M177.304613,102.965438 L177.304613,108.625027 L182.835402,108.625027 L182.835402,111.631511 L177.304613,111.631511 L177.304613,123.262656 C177.304613,125.05716 178.473051,125.681095 179.991469,125.681095 C181.016795,125.645426 182.013934,125.335635 182.879494,124.783843 L182.879494,128.060883 C182.372437,128.256898 181.088257,128.999546 179.647,128.999546 C176.41175,128.999546 173.840635,126.890314 173.840635,123.378609 L173.840635,111.631511 L170.406971,111.631511 L170.406971,108.625027 L173.835124,108.625027 L173.835124,102.965438 L177.304613,102.965438 Z M147.385439,100.662952 L147.385439,128.764881 L143.91595,128.764881 L143.91595,125.487841 C142.344839,127.715382 139.782047,129.028009 137.059644,128.999546 C132.344557,128.999546 128.370766,124.471875 128.370766,118.696334 C128.370766,112.920793 132.344557,108.393122 137.059644,108.393122 C139.797269,108.378377 142.364646,109.722298 143.91595,111.982129 L143.91595,100.662952 L147.385439,100.662952 Z M192.615558,108.390361 C195.770891,108.390361 198.146348,109.795595 199.628941,112.059431 L199.628941,108.625027 L203.095674,108.625027 L203.095674,128.778684 L199.628941,128.778684 L199.628941,125.330476 C198.146348,127.594312 195.770891,128.999546 192.615558,128.999546 L192.576978,128.999546 C187.86189,128.999546 184.083757,124.549177 184.083757,118.696334 C184.083757,112.918032 187.86189,108.390361 192.576978,108.390361 L192.615558,108.390361 Z M157.890356,108.390361 C161.048445,108.390361 163.423902,109.795595 164.903739,112.059431 L164.903739,108.625027 L168.373228,108.625027 L168.373228,128.778684 L164.903739,128.778684 L164.903739,125.330476 C163.423902,127.594312 161.04569,128.999546 157.890356,128.999546 L157.851776,128.999546 C153.139444,128.999546 149.358555,124.549177 149.358555,118.696334 C149.358555,112.918032 153.139444,108.390361 157.851776,108.390361 L157.890356,108.390361 Z M159.06155,111.794397 L159.022969,111.794397 C155.16492,111.794397 152.828044,114.720818 152.828044,118.696334 C152.828044,122.754673 155.2035,125.598272 159.022969,125.598272 L159.06155,125.598272 C162.528283,125.598272 164.903739,122.561419 164.903739,118.696334 C164.903739,114.831249 162.528283,111.794397 159.06155,111.794397 Z M138.07376,111.824765 C134.411369,111.824765 131.840255,114.831249 131.840255,118.696334 C131.840255,122.561419 134.411369,125.598272 138.07376,125.598272 C141.736152,125.598272 143.91595,122.561419 143.91595,118.696334 C143.91595,114.831249 141.736152,111.824765 138.07376,111.824765 Z M193.783996,111.794397 L193.745415,111.794397 C189.887366,111.794397 187.55049,114.720818 187.55049,118.696334 C187.55049,122.754673 189.925946,125.598272 193.745415,125.598272 L193.783996,125.598272 C197.250729,125.598272 199.628941,122.561419 199.628941,118.696334 C199.628941,114.831249 197.250729,111.794397 193.783996,111.794397 Z M211.988478,84.7526054 C216.196508,84.7912562 218.767623,88.1870095 218.767623,91.1023879 L215.422142,91.1023879 C215.415103,90.2196045 215.032083,89.3818518 214.369446,88.7999015 C213.710033,88.200693 212.845369,87.8793135 211.955409,87.9026497 C209.929933,87.9026497 208.527257,88.9545049 208.527257,90.3873472 C208.527257,91.8201894 209.384295,92.4965793 211.136952,92.8858486 L213.473827,93.3938312 C217.370458,94.2745184 219.25539,96.4224013 219.25539,99.2825643 C219.25539,102.678318 216.527198,105.370073 212.007769,105.370073 C207.138359,105.370073 204.644405,101.623701 204.644405,98.5785666 L207.918236,98.5785666 C207.932747,99.5990128 208.404232,100.558908 209.202415,101.193021 L209.188637,101.181977 C209.96656,101.855865 210.965765,102.217729 211.99399,102.197943 C214.410782,102.197943 215.810703,100.908661 215.810703,99.310172 C215.810703,97.6702716 214.680846,96.9690348 212.151068,96.3837505 L209.968514,95.8757679 C207.488339,95.2904836 205.099104,93.8465983 205.099104,90.450845 C205.099104,87.3670593 207.854854,84.7111938 211.988478,84.7526054 Z M192.615558,84.7526054 C195.770891,84.7526054 198.146348,86.1578399 199.628941,88.4189146 L199.628941,84.9845105 L203.095674,84.9845105 L203.095674,105.138168 L199.628941,105.138168 L199.628941,101.68996 C198.146348,103.953796 195.770891,105.35903 192.615558,105.35903 L192.576978,105.35903 C187.86189,105.35903 184.083757,100.908661 184.083757,95.0558177 C184.083757,89.2802764 187.86189,84.7526054 192.576978,84.7526054 L192.615558,84.7526054 Z M193.783996,88.1538802 L193.745415,88.1538802 C189.887366,88.1538802 187.55049,91.0830625 187.55049,95.0558177 C187.55049,99.114157 189.925946,101.957755 193.745415,101.957755 L193.783996,101.957755 C197.250729,101.957755 199.628941,98.9209027 199.628941,95.0558177 C199.628941,91.1907327 197.250729,88.1538802 193.783996,88.1538802 Z M172.738336,61.1921515 C178.191964,61.1921515 182.127175,65.7584733 182.127175,71.186157 C182.127175,71.6913788 182.088594,72.1993614 182.050014,72.6300423 L166.750092,72.6300423 C167.091536,75.9429723 169.127413,78.3624689 172.637652,78.4785223 L172.895555,78.4819965 L173.183156,78.4768499 C176.264673,78.3491031 177.859354,76.2258263 178.150628,75.2058454 L181.777195,75.2058454 C181.542956,76.8843966 179.021445,81.8013369 172.892658,81.8013369 C167.089049,81.8013369 163.192419,77.3123167 163.192419,71.4981246 C163.192419,65.7584733 167.20479,61.1921515 172.738336,61.1921515 Z M192.615558,61.1921515 C195.770891,61.1921515 198.146348,62.5973859 199.628941,64.8612214 L199.628941,61.4268173 L203.095674,61.4268173 L203.095674,81.566671 L199.628941,81.566671 L199.628941,78.1322669 C198.146348,80.3961024 195.770891,81.8013369 192.615558,81.8013369 L192.576978,81.8013369 C187.86189,81.8013369 184.083757,77.3509676 184.083757,71.4981246 C184.083757,65.7198225 187.86189,61.1921515 192.576978,61.1921515 L192.615558,61.1921515 Z M146.757128,61.1838691 C152.406414,61.1838691 155.173187,65.7115401 155.446006,68.0858067 L151.783615,68.0858067 C151.457992,67.087853 150.832343,66.2151683 149.992378,65.5873053 L149.992378,65.6011091 C149.05872,64.9075448 147.918911,64.5496108 146.757128,64.5851439 C143.017575,64.5851439 140.446461,67.7075805 140.446461,71.4870815 C140.446461,75.2665825 143.056156,78.389019 146.757128,78.389019 C148.011067,78.3995213 149.232096,77.9872316 150.223861,77.2184504 C150.970091,76.6320888 151.515301,75.8272581 151.783615,74.915964 L155.36609,74.915964 C155.051934,77.0997371 152.130839,81.7847722 146.754372,81.7847722 C141.223582,81.7847722 136.976972,77.1797995 136.976972,71.4815599 C136.976972,65.7833203 141.226338,61.1838691 146.757128,61.1838691 Z M161.120095,53.4647422 L161.120095,81.566671 L157.653362,81.566671 L157.653362,53.4647422 L161.120095,53.4647422 Z M213.812785,61.1921515 C214.462993,61.1957633 215.112504,61.2353949 215.758344,61.3108648 L215.7611,61.3108648 L215.7611,64.706618 C215.14195,64.6221853 214.517537,64.5825117 213.892701,64.5879047 C211.087348,64.5879047 208.670556,66.3437576 208.670556,70.2861443 L208.670556,81.566671 L205.201067,81.566671 L205.201067,61.4268173 L208.6678,61.4268173 L208.6678,64.2759371 C209.836238,62.4427825 211.550314,61.1921515 213.812785,61.1921515 Z M193.783996,64.596187 L193.745415,64.596187 C189.887366,64.596187 187.55049,67.5226086 187.55049,71.4981246 C187.55049,75.5564638 189.925946,78.4000621 193.745415,78.4000621 L193.783996,78.4000621 C197.250729,78.4000621 199.628941,75.3632096 199.628941,71.4981246 C199.628941,67.6330396 197.250729,64.596187 193.783996,64.596187 Z M172.749359,64.510603 C169.555445,64.510603 167.411471,66.7357877 166.827253,69.7809225 L178.632884,69.7809225 C178.125826,66.8130894 176.020433,64.510603 172.749359,64.510603 Z M274.163703,22.7621576 C280.366321,22.7683657 285.810634,26.9041985 287.485081,32.8874171 C289.159528,38.8706356 286.654932,45.2391488 281.356728,48.4701671 C276.058525,51.7011853 269.261411,51.0051598 264.72526,46.767102 L264.72526,46.767102 L264.72526,60.7449059 L260.360153,60.7449059 L260.360153,22.8919198 L264.72526,22.8919198 L264.72526,26.4974919 C267.282481,24.0947565 270.657778,22.7589597 274.163703,22.7621576 L274.163703,22.7621576 Z M188.922854,28.9683856 L184.728602,31.1521586 C182.467818,27.962847 178.441419,26.5540902 174.690278,27.6399482 C170.939137,28.7258063 168.283274,32.0689043 168.068874,35.9747177 C167.854473,39.8805312 170.128404,43.4952266 173.738073,44.9866141 C177.347743,46.4780016 181.504056,45.5200553 184.100292,42.5983318 L188.572873,44.779344 C185.013149,49.67853 178.689547,51.6934715 172.958869,49.7545625 C167.228192,47.8156534 163.418827,42.3723382 163.552927,36.3141316 C163.687027,30.255925 167.733508,24.9871361 173.544346,23.3046345 C179.355185,21.6221328 185.583412,23.915927 188.922854,28.9683856 Z M85.5216139,11.7659965 L85.5216139,49.7708252 L81.1537506,49.7708252 L81.1537506,46.7174081 C75.6646605,51.8825519 67.0606012,51.7026301 61.7914321,46.3125174 C56.522263,40.9224047 56.522263,32.3007777 61.7914321,26.910665 C67.0606012,21.5205523 75.6646605,21.3406305 81.1537506,26.5057743 L81.1537506,26.5057743 L81.1537506,11.7659965 L85.5216139,11.7659965 Z M192.959606,26.910665 C198.228775,21.5205523 206.832834,21.3406305 212.321924,26.5057743 L212.321924,26.5057743 L212.321924,22.8919198 L216.692543,22.8919198 L216.692543,49.7708252 L212.321924,49.7708252 L212.321924,46.7174081 C206.832834,51.8825519 198.228775,51.7026301 192.959606,46.3125174 C187.690437,40.9224047 187.690437,32.3007777 192.959606,26.910665 Z M137.304485,26.910665 C142.573654,21.5205523 151.177713,21.3406305 156.666803,26.5057743 L156.666803,26.5057743 L156.666803,22.8974413 L161.037422,22.8919198 L161.037422,49.7708252 L156.666803,49.7708252 L156.666803,46.7174081 C151.177713,51.8825519 142.573654,51.7026301 137.304485,46.3125174 C132.035316,40.9224047 132.035316,32.3007777 137.304485,26.910665 Z M91.2238365,26.9097648 C96.4923797,21.5197697 105.095698,21.3390273 110.585157,26.5030135 L110.585157,26.5030135 L110.585157,22.8974413 L114.955776,22.8919198 L114.955776,49.7708252 L110.585157,49.7708252 L110.585157,46.7174081 C105.095698,51.8813942 96.4923797,51.7006519 91.2238365,46.3106568 C85.9552933,40.9206617 85.9552933,32.2997599 91.2238365,26.9097648 Z M224.38384,22.8753551 L224.38384,22.9305706 L224.281878,41.4774571 L234.963163,23.9134065 C235.354871,23.2706228 236.052271,22.8784046 236.804004,22.8781159 L237.652775,22.8781159 C238.512473,22.8759119 239.337634,23.2168838 239.945793,23.8256337 C240.553952,24.4343836 240.895005,25.260759 240.893537,26.1220265 C240.893537,31.0638138 240.918339,40.0667011 240.918339,41.3753084 L251.541754,23.9134065 C251.933074,23.2702208 252.63072,22.8778642 253.382594,22.8781159 L254.209319,22.8781159 C255.070224,22.8744423 255.897086,23.2146765 256.506876,23.8235062 C257.116666,24.432336 257.459089,25.2595448 257.458349,26.1220265 L257.458349,49.7763468 L252.999545,49.7763468 L252.999545,29.7331202 C250.943756,33.0626149 243.577637,45.1244409 241.367526,48.7410562 C240.976716,49.3834026 240.280334,49.775636 239.529441,49.7763468 L238.617288,49.7763468 C237.42667,49.7748234 236.46229,48.8074493 236.462291,47.61466 L236.462291,29.6696224 C234.05101,33.5678367 226.651822,45.6821175 224.323214,49.5610063 L224.201961,49.7625429 L219.922282,49.7625429 L219.922282,22.8753551 L224.38384,22.8753551 Z M126.011844,15.4764781 L126.011844,22.8449866 L133.772035,22.8449866 L133.772035,27.0910586 L126.011844,27.0910586 L126.011844,43.6225793 C126.013361,44.6038776 126.807035,45.3989982 127.786547,45.4005184 L132.873661,45.4005184 L132.873661,49.773586 L127.789303,49.773586 C124.400267,49.7690236 121.654046,47.0177949 121.649492,43.6225793 L121.649492,27.0910586 L116.920626,27.0910586 L116.920626,22.8449866 L121.638469,22.8449866 L121.638469,15.4764781 L126.011844,15.4764781 Z M274.54365,27.1593483 C269.397514,26.9533803 265.032894,30.9103967 264.72526,36.0608166 L264.72526,36.0608166 L264.72526,37.2010166 C265.024227,42.2063437 269.164061,46.1116856 274.169214,46.1100381 L274.169214,46.1100381 L274.163703,46.1017553 C279.313943,46.1030662 283.518459,41.9757245 283.62193,36.8171333 C283.725401,31.658542 279.689786,27.3653162 274.54365,27.1593483 Z M101.116401,27.1379917 C95.8930397,27.1379917 91.6586684,31.3800847 91.6586684,36.6129716 C91.6586684,41.8458584 95.8930397,46.0879518 101.116401,46.0879518 C103.624972,46.088684 106.031008,45.0906653 107.804836,43.3136031 C109.578663,41.5365408 110.574865,39.126117 110.574135,36.6129716 C110.574135,31.3800847 106.339763,27.1379917 101.116401,27.1379917 Z M75.3034665,27.8572635 C71.7694423,26.3898467 67.7010509,27.1998042 64.9955868,29.9094121 C62.2901227,32.6190201 61.480454,36.6945944 62.9441697,40.2354906 C64.4078855,43.7763869 67.8566923,46.0851905 71.6822389,46.0851906 L71.6822389,46.0851906 C74.1908098,46.088684 76.596846,45.0906653 78.3706736,43.3136031 C80.1445011,41.5365408 81.1407031,39.126117 81.1399723,36.6129716 C81.1410865,32.7804489 78.8374907,29.3246802 75.3034665,27.8572635 Z M206.471003,27.8569995 C202.936641,26.3897446 198.868033,27.2002082 196.162786,29.9103887 C193.457538,32.6205692 192.64855,36.6965963 194.113134,40.2374041 C195.577718,43.7782118 199.027371,46.0863072 202.853168,46.0851906 L202.853168,46.0851906 C205.361262,46.0879514 207.76659,45.0896095 209.539821,43.3126266 C211.313053,41.5356438 212.308876,39.1256385 212.308146,36.6129716 C212.30926,32.7801977 210.005366,29.3242544 206.471003,27.8569995 Z M150.819275,27.8572635 C147.285251,26.3898467 143.216859,27.1998042 140.511395,29.9094121 C137.805931,32.6190201 136.996263,36.6945944 138.459978,40.2354906 C139.923694,43.7763869 143.372501,46.0851905 147.198048,46.0851906 L147.198048,46.0851906 C149.706394,46.0879514 152.112006,45.0896975 153.885675,43.312794 C155.659344,41.5358906 156.655781,39.1258925 156.655781,36.6129716 C156.656895,32.7804489 154.353299,29.3246802 150.819275,27.8572635 Z"/>
      <path id="Logo" d="M20.4280506,15.1645105 L20.4280506,29.0263618 L5.74541624,37.4163571 L5.74541624,6.72206054 L20.4280506,15.1645105 Z M25.1734515,44.2906869 L25.1734515,31.7954192 L44.8439928,20.5563041 L40.0627671,17.7955291 L25.1817188,26.3014769 L25.1817188,13.784123 C25.1809085,12.9316068 24.7260043,12.1443345 23.9884791,11.7190633 L6.0761062,1.4241333 L5.93280722,1.3468316 C4.86834565,0.82761935 3.61189151,0.894903888 2.60874425,1.52483892 C1.605597,2.15477396 0.997517606,3.25833946 1.00000762,4.44442116 L1.00000762,39.6884749 C0.998469983,40.874066 1.60693237,41.9767557 2.60991535,42.6060262 C3.61289832,43.2352967 4.86878666,43.3022988 5.93280722,42.7833037 L6.0705947,42.7115236 L20.4280506,34.5065002 L20.4280506,45.6738351 C20.4285859,46.5300403 20.8871411,47.3202778 21.6295574,47.7444164 L40.0296981,58.2353614 L44.8136795,55.4745864 L25.1734515,44.2906869 Z"/>
    </g>
  </g>
</svg>
