<svg xmlns="http://www.w3.org/2000/svg" width="237" height="100" viewBox="0 0 237 100">
  <g id="Monochrome-Inverted" fill="none" fill-rule="evenodd" stroke="none" stroke-width="1">
    <g id="Group" fill="#FFF" fill-rule="nonzero" transform="translate(32 32)">
      <g id="logo">
        <path id="Combined-Shape" d="M164.489621,13.0835248 C168.225503,13.0829499 171.505181,15.5689085 172.514089,19.1659795 C173.522996,22.7630505 172.014522,26.5919914 168.82327,28.534341 C165.632018,30.4766906 161.538033,30.0576748 158.806421,27.5091249 L158.806421,27.5091249 L158.806421,35.9091249 L156.174421,35.9091249 L156.174421,13.1571249 L158.806421,13.1571249 L158.806421,15.3251249 C160.347045,13.8829225 162.379298,13.0819217 164.489621,13.0851249 L164.489621,13.0851249 Z M0.968818136,0.315250471 C1.57266059,-0.0631271016 2.32889073,-0.103541045 2.96962072,0.208324923 C2.99842072,0.222724923 3.02722072,0.237124923 3.05602072,0.254724923 L3.05602072,0.254724923 L13.8416207,6.43712492 C14.2848525,6.69378056 14.5584004,7.16654925 14.5600207,7.67872492 L14.5600207,7.67872492 L14.5600207,15.2147249 L23.5200207,10.1027249 L26.4000207,11.7523249 L14.5600207,18.5091249 L14.5600207,26.0195249 L26.3824207,32.7475249 L23.5024207,34.3987249 L12.4144207,28.1075249 C11.9694645,27.8513935 11.6945334,27.3777316 11.6928207,26.8643249 L11.6928207,26.8643249 L11.6928207,20.1443249 L3.05282072,25.0771249 L2.97122072,25.1187249 C2.32951814,25.4307685 1.57225662,25.3898096 0.967954991,25.010372 C0.36365336,24.6309343 -0.00223887606,23.9666712 1.03098712e-05,23.2531249 L1.03098712e-05,23.2531249 L1.03098712e-05,2.06912492 C-0.00119428258,1.35652839 0.36497568,0.693628044 0.968818136,0.315250471 Z M113.153621,16.8083249 L110.630421,18.1203249 C109.269167,16.2018873 106.843698,15.3539214 104.583657,16.0063213 C102.323615,16.6587212 100.72318,18.6688335 100.593725,21.0175897 C100.46427,23.3663458 101.834103,25.5401682 104.008757,26.436992 C106.183411,27.3338158 108.687379,26.7575421 110.251221,25.0003249 L112.944021,26.3107249 C110.801055,29.2555359 106.993659,30.4670662 103.542969,29.3021816 C100.09228,28.137297 97.7981893,24.8660257 97.8785036,21.2249044 C97.958818,17.583783 100.39492,14.4168483 103.893617,13.4052504 C107.392315,12.3936525 111.142586,13.7718868 113.153621,16.8083249 Z M54.3264221,15.5710625 C57.499861,12.3308761 62.6816904,12.2230083 65.9872207,15.3283249 L65.9872207,15.3283249 L65.9872207,13.1571249 L68.6176207,13.1523249 L68.6176207,29.3123249 L65.9872207,29.3123249 L65.9872207,27.4771249 C62.6816904,30.5824415 57.499861,30.4745737 54.3264221,27.2343873 C51.1529833,23.9942009 51.1529833,18.8112489 54.3264221,15.5710625 Z M82.0752221,15.5710625 C85.248661,12.3308761 90.4304904,12.2230083 93.7360207,15.3283249 L93.7360207,15.3283249 L93.7360207,13.1555249 L96.3680207,13.1523249 L96.3680207,29.3123249 L93.7360207,29.3123249 L93.7360207,27.4771249 C90.4304904,30.5824415 85.248661,30.4745737 82.0752221,27.2343873 C78.9017833,23.9942009 78.9017833,18.8112489 82.0752221,15.5710625 Z M115.585622,15.5710625 C118.759061,12.3308761 123.94089,12.2230083 127.246421,15.3283249 L127.246421,15.3283249 L127.246421,13.1571249 L129.876821,13.1571249 L129.876821,21.4035249 L129.878421,21.4035249 L129.878421,29.3123249 L127.246421,29.3123249 L127.246421,27.4771249 C123.94089,30.5824415 118.759061,30.4745737 115.585622,27.2343873 C112.412183,23.9942009 112.412183,18.8112489 115.585622,15.5710625 Z M50.8960207,6.47552492 L50.8960207,29.3123249 L48.2640207,29.3123249 L48.2640207,27.4771249 C44.9584904,30.5824415 39.776661,30.4745737 36.6032221,27.2343873 C33.4297833,23.9942009 33.4297833,18.8112489 36.6032221,15.5710625 C39.776661,12.3308761 44.9584904,12.2230083 48.2640207,15.3283249 L48.2640207,15.3283249 L48.2640207,6.47552492 L50.8960207,6.47552492 Z M152.480021,13.1475239 C153.55543,13.1475239 154.427221,14.0193161 154.427221,15.0947249 L154.427221,29.3123253 L151.740821,29.3123253 L151.740821,17.2675249 C150.502421,19.2675249 146.067221,26.5171249 144.737621,28.6915249 C144.502092,29.0774062 144.082503,29.312667 143.630421,29.3123253 L143.081621,29.3123253 C142.364976,29.3123253 141.784021,28.7313696 141.784021,28.0147249 L141.784021,17.2371249 C140.332821,19.5795249 135.876821,26.8611249 134.473621,29.1907249 L134.400021,29.3123253 L131.825621,29.3123253 L131.825621,13.1523249 L134.510421,13.1523249 L134.510421,13.1859249 L134.448021,24.3331249 L140.886421,13.7731249 C141.122305,13.3866099 141.542413,13.1507917 141.995221,13.1507249 L142.505621,13.1507249 C143.579158,13.1507217 144.450174,14.0195911 144.452821,15.0931249 L144.452942,15.5952133 C144.454335,18.6358089 144.467221,23.5180763 144.467221,24.2627249 L150.864021,13.7699249 C151.099454,13.382943 151.519849,13.1469639 151.972821,13.1475239 L152.480021,13.1475239 Z M75.2752207,8.70112492 L75.2752207,13.1283249 L79.9472207,13.1283249 L79.9472207,15.6787249 L75.2768207,15.6787249 L75.2768207,25.6163249 C75.2768207,26.2057232 75.7546224,26.6835249 76.3440207,26.6835249 L79.4080207,26.6835249 L79.4080207,29.3123249 L76.3456207,29.3123249 C74.3051076,29.3105605 72.6513851,27.6568381 72.6496207,25.6163249 L72.6400207,15.6787249 L69.8016207,15.6787249 L69.8016207,13.1187249 L72.6400207,13.1187249 L72.6400207,8.70112492 L75.2752207,8.70112492 Z M164.71822,15.7280756 C161.619937,15.6041376 158.991996,17.981923 158.806421,21.0771249 L158.806421,21.0771249 L158.806421,21.7587249 C158.986656,24.7640137 161.475733,27.1093552 164.486421,27.1107249 L164.486421,27.1107249 C167.590381,27.1128655 170.121614,24.6323822 170.183866,21.5322471 C170.246117,18.432112 167.816502,15.8520135 164.71822,15.7280756 Z M42.5600207,15.7091249 C39.4150904,15.7091249 36.8656207,18.2585946 36.8656207,21.4035249 C36.8656207,24.5484552 39.4150904,27.0979249 42.5600207,27.0979249 C44.0702695,27.0979249 45.5186624,26.4979809 46.5865696,25.4300738 C47.6544767,24.3621666 48.2544207,22.9137737 48.2544207,21.4035249 C48.2544207,18.2585946 45.704951,15.7091249 42.5600207,15.7091249 Z M121.544021,15.7091249 C118.39909,15.7091249 115.849621,18.2585946 115.849621,21.4035249 C115.849621,24.5484552 118.39909,27.0979249 121.544021,27.0979249 C123.054269,27.0979249 124.502662,26.4979809 125.57057,25.4300738 C126.638477,24.3621666 127.238421,22.9137737 127.238421,21.4035249 C127.238421,18.2585946 124.688951,15.7091249 121.544021,15.7091249 Z M60.2848207,15.7091249 C57.1398904,15.7091249 54.5904207,18.2585946 54.5904207,21.4035249 C54.5904207,24.5484552 57.1398904,27.0979251 60.2848207,27.0979251 C61.7951996,27.0983495 63.2438392,26.4985418 64.3118384,25.4305426 C65.3798376,24.3625434 65.9796453,22.9139038 65.9792209,21.4035249 C65.9792209,18.2585946 63.429751,15.7091249 60.2848207,15.7091249 Z M88.0336207,15.7075249 C84.8886904,15.7075249 82.3392207,18.2569946 82.3392207,21.4019249 C82.3392207,24.5468552 84.8886904,27.0963249 88.0336207,27.0963249 C89.5438695,27.0963249 90.9922624,26.4963809 92.0601696,25.4284738 C93.1280767,24.3605666 93.7280207,22.9121737 93.7280207,21.4019249 C93.7280207,18.2569946 91.178551,15.7075249 88.0336207,15.7075249 Z M2.85762072,3.43872492 L2.85762072,21.8883249 L11.6992207,16.8451249 L11.6992207,8.51232492 L2.85762072,3.43872492 Z"/>
      </g>
    </g>
  </g>
</svg>
