<svg xmlns="http://www.w3.org/2000/svg" width="161" height="37"><title>DataCamp</title><g fill="none" fill-rule="evenodd"><path fill="#FFF" d="M56.958 17.49a10.19 10.19 0 01-.678 3.773 8.437 8.437 0 01-4.868 4.885c-1.226.47-2.529.704-3.842.688h-7.058V8.145h7.056a10.274 10.274 0 013.843.693 8.683 8.683 0 012.961 1.92 8.603 8.603 0 011.909 2.956c.463 1.204.693 2.484.677 3.775zm-3.535 0a8.762 8.762 0 00-.403-2.76 5.749 5.749 0 00-1.166-2.068 5.093 5.093 0 00-1.844-1.3 6.304 6.304 0 00-2.44-.455h-3.6v13.16h3.6a6.243 6.243 0 002.44-.454 5.098 5.098 0 001.846-1.3 5.744 5.744 0 001.165-2.066c.28-.891.416-1.823.403-2.757h-.001zm5.796-2.069c1.512-1.396 3.33-2.093 5.456-2.093a5.308 5.308 0 012.064.38c.582.238 1.105.601 1.536 1.063a4.55 4.55 0 01.954 1.624c.224.665.334 1.364.327 2.067v8.376H68.12a1.418 1.418 0 01-.691-.137c-.163-.09-.29-.274-.385-.55l-.281-.957c-.309.283-.634.549-.973.796-.31.222-.64.416-.988.574a5.234 5.234 0 01-1.095.354 6.214 6.214 0 01-1.29.118c-.52.006-1.04-.07-1.536-.225a3.363 3.363 0 01-1.217-.679 3.052 3.052 0 01-.795-1.124 4.018 4.018 0 01-.281-1.564c0-.34.057-.678.166-1a2.91 2.91 0 01.545-.947c.285-.33.613-.617.98-.852.46-.295.959-.53 1.48-.698.666-.217 1.349-.38 2.043-.483.882-.135 1.772-.21 2.664-.226v-.775c0-.888-.187-1.545-.563-1.972-.374-.426-.918-.64-1.627-.64a3.842 3.842 0 00-1.274.182 5.177 5.177 0 00-.89.407c-.257.15-.491.285-.704.407a1.358 1.358 0 01-.703.181.91.91 0 01-.563-.175 1.445 1.445 0 01-.372-.407l-.553-1.022.002-.003zm7.25 5.75c-.773.028-1.544.107-2.306.237a6.07 6.07 0 00-1.499.446c-.32.136-.599.354-.807.633-.16.233-.244.508-.244.79 0 .56.164.961.493 1.202.328.241.758.361 1.288.361a3.705 3.705 0 001.683-.354 4.961 4.961 0 001.39-1.077v-2.237l.002-.001zM77.08 27.04c-1.145 0-2.022-.325-2.632-.975-.61-.65-.916-1.549-.917-2.694v-7.41h-1.348a.623.623 0 01-.436-.169.657.657 0 01-.179-.503v-1.262l2.11-.355.665-3.62c.034-.156.12-.299.244-.4a.715.715 0 01.462-.14h1.64v4.18h3.516v2.27H76.69v7.184c0 .413.1.737.301.97.207.236.508.366.822.354.165.004.333-.02.492-.07.12-.042.237-.092.35-.151.098-.052.186-.101.263-.148a.43.43 0 01.235-.071.357.357 0 01.234.07c.073.062.138.134.193.213l.948 1.551c-.47.392-1.009.69-1.588.879-.599.198-1.227.3-1.858.297h-.001zm5.193-11.619c1.513-1.396 3.33-2.093 5.456-2.093a5.308 5.308 0 012.064.38c.582.238 1.106.601 1.537 1.063.427.469.752 1.021.954 1.624.224.665.333 1.364.327 2.067v8.376h-1.436a1.418 1.418 0 01-.69-.137c-.163-.09-.292-.274-.385-.55l-.282-.957a11.29 11.29 0 01-.972.796c-.31.222-.64.416-.987.574a5.234 5.234 0 01-1.096.354 6.201 6.201 0 01-1.288.118c-.52.006-1.041-.07-1.537-.225a3.363 3.363 0 01-1.218-.679 3.05 3.05 0 01-.793-1.124 4.018 4.018 0 01-.281-1.564 2.955 2.955 0 01.711-1.947c.285-.33.614-.617.98-.852a6.39 6.39 0 011.48-.698c.666-.217 1.35-.38 2.043-.483a20.226 20.226 0 012.667-.229v-.775c0-.888-.187-1.544-.562-1.971-.376-.426-.92-.64-1.627-.64a3.838 3.838 0 00-1.275.182 5.213 5.213 0 00-.89.406c-.257.15-.491.287-.703.407a1.384 1.384 0 01-.704.182.91.91 0 01-.563-.176 1.433 1.433 0 01-.372-.407l-.555-1.02-.003-.002zm7.253 5.752c-.774.027-1.545.106-2.306.236a6.13 6.13 0 00-1.5.445c-.32.137-.598.355-.807.636-.16.23-.245.505-.243.787 0 .56.162.96.492 1.201.329.242.759.363 1.29.363a3.75 3.75 0 001.684-.354c.522-.275.992-.64 1.39-1.08v-2.235.001zm19.384 1.253c.19 0 .37.08.5.22l1.357 1.486a7.46 7.46 0 01-2.773 2.159c-1.094.5-2.412.75-3.952.75-1.374 0-2.611-.237-3.71-.71a8.16 8.16 0 01-2.81-1.979 8.654 8.654 0 01-1.786-3.025 11.41 11.41 0 01-.622-3.838c-.016-1.316.21-2.625.667-3.858a8.857 8.857 0 011.873-3.017 8.504 8.504 0 012.885-1.972 9.548 9.548 0 013.716-.71c1.348 0 2.545.226 3.591.673a8.547 8.547 0 012.675 1.763l-1.153 1.614c-.07.106-.159.198-.262.27a.731.731 0 01-.442.12.841.841 0 01-.397-.112 5.22 5.22 0 01-.448-.27c-.163-.108-.35-.226-.565-.355a4.586 4.586 0 00-.742-.355 6.12 6.12 0 00-.98-.27 6.625 6.625 0 00-1.289-.11 5.662 5.662 0 00-2.27.447 4.93 4.93 0 00-1.775 1.291 5.96 5.96 0 00-1.153 2.068c-.286.9-.425 1.84-.41 2.786a8.233 8.233 0 00.442 2.803 6.14 6.14 0 001.197 2.068 5.119 5.119 0 001.78 1.278c.696.3 1.448.451 2.204.446.426.002.851-.025 1.274-.079a5.39 5.39 0 001.054-.246c.317-.11.623-.255.91-.432.303-.19.588-.409.851-.653.081-.074.17-.137.268-.187a.646.646 0 01.292-.068l.003.004zm3.77-7.005c1.513-1.396 3.33-2.093 5.458-2.093a5.304 5.304 0 012.061.38c.583.238 1.106.601 1.537 1.063.428.469.753 1.021.955 1.624.223.665.333 1.364.325 2.067v8.376h-1.434a1.418 1.418 0 01-.69-.137c-.163-.09-.292-.274-.385-.55l-.282-.957c-.309.283-.634.549-.973.796-.309.222-.64.416-.986.574a5.234 5.234 0 01-1.096.354 6.209 6.209 0 01-1.29.118c-.52.006-1.038-.07-1.536-.225a3.366 3.366 0 01-1.216-.679 3.042 3.042 0 01-.795-1.124 4.032 4.032 0 01-.28-1.564c0-.34.056-.678.166-1 .12-.347.306-.669.545-.947.285-.33.614-.617.98-.852.46-.295.959-.53 1.479-.698.667-.217 1.35-.38 2.044-.483.882-.135 1.773-.21 2.665-.226v-.775c0-.888-.187-1.545-.564-1.972-.375-.426-.919-.64-1.626-.64a3.838 3.838 0 00-1.275.182 5.213 5.213 0 00-.891.407c-.256.15-.49.285-.703.407a1.36 1.36 0 01-.703.181.909.909 0 01-.564-.175 1.433 1.433 0 01-.372-.407l-.555-1.022.001-.003zm7.25 5.75c-.772.028-1.543.107-2.306.237a6.148 6.148 0 00-1.498.449c-.32.136-.599.355-.808.635a1.378 1.378 0 00-.242.788c0 .56.164.96.493 1.202.329.24.758.361 1.288.361a3.727 3.727 0 001.684-.355 4.98 4.98 0 001.39-1.08V21.17zm6.412 5.666V13.573h1.935a.778.778 0 01.807.582l.205.982c.225-.252.467-.49.723-.71a4.466 4.466 0 011.73-.924 4.06 4.06 0 011.082-.136c.83 0 1.51.227 2.043.68a4.09 4.09 0 011.198 1.802c.19-.419.45-.8.77-1.131a4.19 4.19 0 011.01-.768c.37-.2.764-.348 1.171-.44.41-.095.83-.141 1.25-.143a5.215 5.215 0 011.936.337c.542.21 1.03.547 1.42.981.399.458.7.996.879 1.578.21.69.311 1.407.3 2.128v8.447h-3.163v-8.443c0-.845-.184-1.48-.553-1.906-.365-.427-.904-.64-1.612-.64a2.38 2.38 0 00-.903.168c-.274.11-.522.274-.731.485a2.23 2.23 0 00-.493.794 3.154 3.154 0 00-.18 1.099v8.442h-3.175v-8.442c0-.888-.177-1.534-.532-1.939-.354-.405-.873-.608-1.556-.608a2.537 2.537 0 00-1.29.343 4.336 4.336 0 00-1.107.936v9.709H126.343zm24.803-11.453a6.844 6.844 0 011.832-1.486c.683-.38 1.485-.57 2.408-.57a4.284 4.284 0 011.966.454 4.39 4.39 0 011.537 1.312 6.27 6.27 0 011 2.118c.247.942.366 1.914.352 2.889a9.166 9.166 0 01-.397 2.752 6.743 6.743 0 01-1.134 2.196 5.25 5.25 0 01-1.78 1.454 5.134 5.134 0 01-2.337.524 4.666 4.666 0 01-1.884-.343 4.632 4.632 0 01-1.397-.946v5.428h-3.163V13.573h1.936a.778.778 0 01.806.582l.255 1.229zm.166 8.011c.311.402.713.721 1.173.93.436.185.904.277 1.377.273.444.006.884-.087 1.29-.272.39-.187.728-.472.979-.828.293-.424.504-.899.622-1.402a8.17 8.17 0 00.218-1.996 8.966 8.966 0 00-.185-1.972 3.83 3.83 0 00-.532-1.311 2.105 2.105 0 00-.838-.736 2.6 2.6 0 00-1.122-.237 3.169 3.169 0 00-1.678.421c-.5.313-.943.714-1.307 1.181l.005 5.95h-.002z"/><path fill="#3AC" d="M16.88 36.268c-.192 0-.382-.05-.552-.143L2.788 28.61a1.162 1.162 0 01-.586-.893L.007 6.8a1.157 1.157 0 01.761-1.217L16.332.066c.244-.086.509-.086.753 0L32.987 5.58c.51.182.826.697.762 1.238l-2.525 20.917a1.16 1.16 0 01-.574.87l-13.205 7.514a1.14 1.14 0 01-.564.149z"/><path fill="#FFF" d="M23.61 15.388c.31-1.285.272-2.493-.424-4.182 0 0 1.12.437 1.004-.432-.117-.87-1.35-1.788-2.277-2.366-.409-.256-1.512-.803-2.992-1.135l.276-.63-.076-.037c-2.296-1.128-4.95-.105-4.977-.094l-.08.031.26.701a9.146 9.146 0 00-2.227.838c-6.238 3.35-3.074 9.89-1.142 11.447 1.934 1.557 1.043 4.728 0 7.603h8.379c.117-.538.016.264.406-1.88.39-2.147 1.895-1.35 3.082-1.42 1.186-.07.998-.905.984-1.839.579-.264.579-.541.192-.877.502-.473.424-.473.154-.925-.268-.454-.077-.672-.077-.672s.81-.158.926-.59c.037-.933-1.7-2.257-1.39-3.54z"/><path fill="#3AC" d="M21.879 15.118l-1.24-.425c-.066.171-.703 1.762-1.524 2.041l-.782-1.045c-.377.297-1.236.559-1.65.437v-.038h-.021l.024 2.88c-1.647.17-3.615-.835-4.557-2.219l-1.029.788C9.93 16.11 9.75 14.39 9.74 13.399h1.379c0-1.095.424-2.522 1.021-3.31l1.082.772c.09-.11.905-1.097 1.998-1.452h.017l-.781-2.087c1.65-.478 2.862-.471 4.182.025.04.013.081.032.117.055l.02.017-.233.621c.062.027.938.424 1.3.797l.292-.407a5.01 5.01 0 012.226 2.995l-.447.161v-.012c.313 1.163.301 2.39-.032 3.545h-.001z"/><path fill="#FFF" d="M16.604 11.313c-.558 0-1.062.338-1.276.858a1.404 1.404 0 00.299 1.518c.394.396.987.516 1.502.301.516-.214.853-.723.853-1.287 0-.767-.618-1.389-1.379-1.39h.001z"/></g></svg>
