<svg xmlns="http://www.w3.org/2000/svg" width="203" height="100" viewBox="0 0 203 100">
  <g id="Wordmark-Monochrome" fill="none" fill-rule="evenodd" stroke="none" stroke-width="1">
    <g id="Group" fill="#05192D" transform="translate(32 32)">
      <g id="logo" transform="translate(0 6)">
        <path id="Logo" d="M8.56002072,21.0979249 C5.41509044,21.0979249 2.86562072,18.5484552 2.86562072,15.4035249 C2.86562072,12.2585946 5.41509044,9.70912492 8.56002072,9.70912492 C11.704951,9.70912492 14.2544207,12.2585946 14.2544207,15.4035249 C14.2544207,16.9137737 13.6544767,18.3621666 12.5865696,19.4300738 C11.5186624,20.4979809 10.0702695,21.0979249 8.56002072,21.0979249 M14.2640207,0.475524923 L14.2640207,9.32832492 C10.9584904,6.22300832 5.77666096,6.33087614 2.60322212,9.57106252 C-0.570216718,12.8112489 -0.570216718,17.9942009 2.60322212,21.2343873 C5.77666096,24.4745737 10.9584904,24.5824415 14.2640207,21.4771249 L14.2640207,23.3123249 L16.8960207,23.3123249 L16.8960207,0.475524923 L14.2640207,0.475524923 Z M87.5440207,21.0979249 C84.3990904,21.0979249 81.8496207,18.5484552 81.8496207,15.4035249 C81.8496207,12.2585946 84.3990904,9.70912492 87.5440207,9.70912492 C90.688951,9.70912492 93.2384207,12.2585946 93.2384207,15.4035249 C93.2384207,16.9137737 92.6384767,18.3621666 91.5705696,19.4300738 C90.5026624,20.4979809 89.0542695,21.0979249 87.5440207,21.0979249 M95.8768207,15.4035249 L95.8768207,15.4035249 L95.8768207,7.15712492 L93.2464207,7.15712492 L93.2464207,9.32832492 C89.9408904,6.22300832 84.759061,6.33087614 81.5856221,9.57106252 C78.4121833,12.8112489 78.4121833,17.9942009 81.5856221,21.2343873 C84.759061,24.4745737 89.9408904,24.5824415 93.2464207,21.4771249 L93.2464207,23.3123249 L95.8784207,23.3123249 L95.8784207,15.4035249 L95.8768207,15.4035249 Z M116.864021,7.76992492 C117.099454,7.38294298 117.519849,7.14696389 117.972821,7.14752393 L118.480021,7.14752393 C119.55543,7.14752393 120.427221,8.01931606 120.427221,9.09472492 L120.427221,23.3123253 L117.740821,23.3123253 L117.740821,11.2675249 C116.502421,13.2675249 112.067221,20.5171249 110.737621,22.6915249 C110.502092,23.0774062 110.082503,23.312667 109.630421,23.3123253 L109.081621,23.3123253 C108.364976,23.3123253 107.784021,22.7313696 107.784021,22.0147249 L107.784021,11.2371249 C106.332821,13.5795249 101.876821,20.8611249 100.473621,23.1907249 L100.400021,23.3123253 L97.8256207,23.3123253 L97.8256207,7.15232492 L100.510421,7.15232492 L100.510421,7.18592492 L100.448021,18.3331249 L106.886421,7.77312492 C107.122305,7.38660994 107.542413,7.15079171 107.995221,7.15072492 L108.505621,7.15072492 C109.579158,7.15072166 110.450174,8.01959105 110.452821,9.09312492 C110.452821,12.0643249 110.467221,17.4755249 110.467221,18.2627249 L116.864021,7.76992492 Z M78.9440207,20.3107249 C76.8010546,23.2555359 72.993659,24.4670662 69.5429694,23.3021816 C66.0922797,22.137297 63.7981893,18.8660257 63.8785036,15.2249044 C63.958818,11.583783 66.3949196,8.41684829 69.8936173,7.40525041 C73.3923149,6.39365254 77.1425865,7.77188677 79.1536207,10.8083249 L76.6304207,12.1203249 C75.2691672,10.2018873 72.8436985,9.35392144 70.5836568,10.0063213 C68.3236151,10.6587212 66.7231798,12.6688335 66.5937251,15.0175897 C66.4642704,17.3663458 67.8341028,19.5401682 70.0087571,20.436992 C72.1834113,21.3338158 74.6873788,20.7575421 76.2512207,19.0003249 L78.9440207,20.3107249 Z M130.486421,21.1107249 C127.475733,21.1093552 124.986656,18.7640137 124.806421,15.7587249 L124.806421,15.0771249 C124.991996,11.981923 127.619937,9.60413764 130.71822,9.72807556 C133.816502,9.85201348 136.246117,12.432112 136.183866,15.5322471 C136.121614,18.6323822 133.590381,21.1128655 130.489621,21.112325 M130.489621,7.08512492 C128.379298,7.0819217 126.347045,7.88292252 124.806421,9.32512492 L124.806421,7.15712492 L122.174421,7.15712492 L122.174421,29.9091249 L124.806421,29.9091249 L124.806421,21.5091249 C127.538033,24.0576748 131.632018,24.4766906 134.82327,22.534341 C138.014522,20.5919914 139.522996,16.7630505 138.514089,13.1659795 C137.505181,9.56890853 134.225503,7.08294988 130.489621,7.08352482 M41.2768207,9.67872492 L41.2768207,19.6163249 C41.2768207,20.2057232 41.7546224,20.6835249 42.3440207,20.6835249 L45.4080207,20.6835249 L45.4080207,23.3123249 L42.3456207,23.3123249 C40.3051076,23.3105605 38.6513851,21.6568381 38.6496207,19.6163249 L38.6400207,9.67872492 L35.8016207,9.67872492 L35.8016207,7.11872492 L38.6400207,7.11872492 L38.6400207,2.70112492 L41.2752207,2.70112492 L41.2752207,7.12832492 L45.9472207,7.12832492 L45.9472207,9.67872492 L41.2768207,9.67872492 Z M54.0336207,21.0963249 C50.8886904,21.0963249 48.3392207,18.5468552 48.3392207,15.4019249 C48.3392207,12.2569946 50.8886904,9.70752492 54.0336207,9.70752492 C57.178551,9.70752492 59.7280207,12.2569946 59.7280207,15.4019249 C59.7280207,16.9121737 59.1280767,18.3605666 58.0601696,19.4284738 C56.9922624,20.4963809 55.5438695,21.0963249 54.0336207,21.0963249 M59.7360207,7.15552492 L59.7360207,9.32832492 C56.4304904,6.22300832 51.248661,6.33087614 48.0752221,9.57106252 C44.9017833,12.8112489 44.9017833,17.9942009 48.0752221,21.2343873 C51.248661,24.4745737 56.4304904,24.5824415 59.7360207,21.4771249 L59.7360207,23.3123249 L62.3680207,23.3123249 L62.3680207,7.15232492 L59.7360207,7.15552492 Z M26.2848207,21.0979251 C23.1398904,21.0979251 20.5904207,18.5484552 20.5904207,15.4035249 C20.5904207,12.2585946 23.1398904,9.70912492 26.2848207,9.70912492 C29.429751,9.70912492 31.9792209,12.2585946 31.9792209,15.4035249 C31.9796453,16.9139038 31.3798376,18.3625434 30.3118384,19.4305426 C29.2438392,20.4985418 27.7951996,21.0983495 26.2848207,21.0979251 M31.9872207,7.15712492 L31.9872207,9.32832492 C28.6816904,6.22300832 23.499861,6.33087614 20.3264221,9.57106252 C17.1529833,12.8112489 17.1529833,17.9942009 20.3264221,21.2343873 C23.499861,24.4745737 28.6816904,24.5824415 31.9872207,21.4771249 L31.9872207,23.3123249 L34.6176207,23.3123249 L34.6176207,7.15232492 L31.9872207,7.15712492 Z"/>
      </g>
    </g>
  </g>
</svg>
