<svg xmlns="http://www.w3.org/2000/svg" xmlns:xlink="http://www.w3.org/1999/xlink" width="169" height="40" viewBox="0 0 169 40">
  <defs>
    <path id="path-1" d="M25.8790001,16.9707722 L25.8781089,16.9725918 C25.5394384,18.3864438 27.4431233,19.8476061 27.4021263,20.8756966 C27.2755705,21.3524394 26.3878972,21.5271238 26.3878972,21.5271238 C26.3878972,21.5271238 26.1784562,21.7673149 26.4725648,22.267713 C26.7684559,22.7672012 26.8531236,22.7672012 26.3032296,23.288525 C26.727459,23.6588195 26.727459,23.9645172 26.0928973,24.2556579 C26.1080484,25.2855681 26.3139244,26.2072103 25.014499,26.2845445 C23.7132911,26.360969 22.0645003,25.482088 21.6367059,27.8494257 C21.2089116,30.2149437 21.3194251,29.3306039 21.1910868,29.923803 L12.0077676,29.923803 C13.1503351,26.7530991 14.1271322,23.2548618 12.0077676,21.5380416 C9.89018549,19.8212214 6.42148613,12.6063914 13.2590662,8.91254407 C14.0308785,8.4976686 14.8508177,8.18833163 15.701059,7.98817241 L15.4140803,7.21482998 L15.5032041,7.18025702 C15.532615,7.16842943 18.4416167,6.0402593 20.9575824,7.28397589 L21.0413588,7.32582736 L20.7383378,8.02001592 C22.3603914,8.38667122 23.5698018,8.98987831 24.0180946,9.27192085 C25.0341063,9.9097009 26.3852235,10.9223246 26.5135618,11.8812692 C26.6410089,12.8402138 25.4137738,12.3580121 25.4137738,12.3580121 C26.1757825,14.2204026 26.2176707,15.553281 25.8790001,16.9707722 Z M23.9806626,16.6732628 L23.9815538,16.6741726 C24.3469615,15.3995223 24.3603301,14.046628 24.0172034,12.7637894 L24.0172034,12.7774366 L24.5073844,12.5991129 C24.1437592,11.219834 23.2703457,10.0361651 22.067174,9.29648584 L21.7463283,9.74502445 C21.3497272,9.33378824 20.3898636,8.89616741 20.3221295,8.86614352 L20.5779149,8.18105311 L20.5556339,8.16285682 C20.5164194,8.13647219 20.4718575,8.11554646 20.4272956,8.10189924 C18.9808159,7.55419083 17.6528709,7.54691232 15.8436572,8.0746048 L16.6992459,10.3764358 L16.6814211,10.3764358 C15.4827057,10.7676561 14.5887937,11.8557944 14.4907575,11.9777095 L13.3054106,11.1261231 C12.6512417,11.994996 12.1860153,13.5689753 12.1860153,14.7772091 L10.6744752,14.7772091 C10.6869525,15.8698965 10.8830249,17.76686 12.166408,19.3408393 L13.2947157,18.4719663 C14.3267696,19.9986353 16.4835662,21.1076993 18.289215,20.9193677 L18.2624778,17.742295 L18.2865413,17.742295 L18.2865413,17.7850563 C18.7392903,17.918799 19.6813292,17.6303878 20.0939725,17.3028545 L20.9513437,18.4555897 C21.8506031,18.1471625 22.5493339,16.3930399 22.620633,16.2037985 L23.9806626,16.6732628 Z M18.1991999,12.476288 L18.1983087,12.476288 C19.0316165,12.4771978 19.7089576,13.163198 19.7089576,14.0093256 C19.7089576,14.6316388 19.3399849,15.1920846 18.7749398,15.4286364 C18.2098948,15.666098 17.5601821,15.5332651 17.1279315,15.0965541 C16.695681,14.6562038 16.5664514,13.9956784 16.7999558,13.4224952 C17.0352427,12.849312 17.5869192,12.476288 18.1991999,12.476288 Z M18.5022209,40 C18.2909975,40 18.0833389,39.9454111 17.8961789,39.8426021 L3.05527916,31.5541908 C2.69611014,31.3513022 2.45636704,30.9837371 2.41358761,30.5688616 L0.00724426538,7.49960196 C-0.0551424138,6.90822245 0.290658037,6.35323553 0.842334529,6.15762538 L17.9006351,0.0709655408 C18.1680066,-0.0236551803 18.4585503,-0.0236551803 18.7259217,0.0709655408 L36.1558687,6.15307631 C36.7146751,6.35323553 37.0613668,6.92095985 36.9909589,7.51779825 L34.2236641,30.5888775 C34.1755372,30.9919254 33.9420328,31.3476629 33.5944499,31.5478221 L19.1207403,39.8362334 C18.9335803,39.9435915 18.7196831,40 18.5031122,40 L18.5022209,40 Z M4.37609429,29.958376 L18.5022209,37.8464688 L32.2736348,29.9611054 L34.9206124,7.88718299 L18.3204083,2.08529512 L2.07313459,7.88627317 L4.37609429,29.958376 Z M64.5485455,12.4792088 C64.5632727,13.7588451 64.3317273,15.0294815 63.8661818,16.2223906 C63.0021818,18.4576633 61.2201818,20.2200269 58.9677273,21.0676633 C57.7339091,21.5340269 56.4231818,21.7663906 55.1018182,21.7500269 L48,21.7500269 L48,3.21084512 L55.1001818,3.21084512 C56.4215455,3.19448148 57.7330909,3.42684512 58.9669091,3.89811784 C60.0796364,4.32357239 61.0941818,4.97239057 61.9467273,5.80284512 C62.7837273,6.63739057 63.4374545,7.63557239 63.867,8.73439057 C64.3333636,9.92893602 64.5640909,11.1987542 64.5485455,12.4792088 Z M60.9910909,12.4792088 C61.005,11.5505724 60.8683636,10.6268451 60.5860909,9.74239057 C60.3430909,8.98393602 59.9438182,8.28602693 59.4128182,7.69120875 C58.899,7.12911784 58.2649091,6.68811784 57.5571818,6.40093602 C56.7766364,6.0916633 55.9429091,5.93948148 55.1026364,5.95093602 L51.4805455,5.95093602 L51.4805455,19.0033906 L55.1026364,19.0033906 C55.9429091,19.0164815 56.7766364,18.8642997 57.5571818,18.5533906 C58.2649091,18.2670269 58.899,17.8268451 59.4144545,17.2647542 C59.9446364,16.6707542 60.3447273,15.9720269 60.5869091,15.2143906 C60.8683636,14.3307542 61.0058182,13.4062088 60.9919091,12.4800269 L60.9910909,12.4792088 Z M66.8230909,10.4280269 C68.3449091,9.0436633 70.1743636,8.35148148 72.3130909,8.35148148 C73.0249091,8.33920875 73.7285455,8.4676633 74.3896364,8.72784512 C74.9754545,8.96511784 75.5023636,9.32511784 75.936,9.78329966 C76.3663636,10.2480269 76.6928182,10.7962088 76.8957273,11.3934815 C77.1207273,12.0537542 77.2311818,12.7467542 77.2246364,13.4438451 L77.2246364,21.7516633 L75.7797273,21.7516633 C75.54,21.7647542 75.3010909,21.718936 75.0842727,21.6166633 C74.9206364,21.5266633 74.7921818,21.3442088 74.6972727,21.070936 L74.4141818,20.1218451 C74.1032727,20.4024815 73.776,20.665936 73.4348182,20.9105724 C73.1239091,21.1314815 72.7909091,21.3237542 72.4415455,21.4800269 C72.0880909,21.6371178 71.7182727,21.754936 71.3394545,21.8318451 C70.9115455,21.9152997 70.4770909,21.9545724 70.0418182,21.9488451 C69.5181818,21.9545724 68.9945455,21.8784815 68.4954545,21.7254815 C68.0438182,21.5880269 67.6281818,21.358936 67.2706364,21.0521178 C66.9220909,20.7461178 66.6488182,20.3648451 66.4712727,19.936936 C66.2732727,19.4435724 66.1767273,18.9166633 66.1881818,18.3856633 C66.1881818,18.0485724 66.2454545,17.7131178 66.3559091,17.3932088 C66.477,17.0495724 66.6627273,16.7304815 66.9040909,16.4547542 C67.1904545,16.1274815 67.521,15.8427542 67.8891818,15.6095724 C68.3530909,15.3166633 68.8546364,15.0834815 69.3782727,14.9173906 C70.0491818,14.7022088 70.7364545,14.5410269 71.4343636,14.437936 C72.3220909,14.3045724 73.218,14.2301178 74.1155455,14.2137542 L74.1155455,13.4446633 C74.1155455,12.5642997 73.9273636,11.9130269 73.5485455,11.4892088 C73.1721818,11.0670269 72.6256364,10.8551178 71.9121818,10.8551178 C71.4785455,10.8436633 71.0449091,10.9042088 70.6300909,11.0351178 C70.3191818,11.1414815 70.0189091,11.2764815 69.7341818,11.4384815 C69.4756364,11.5873906 69.24,11.7215724 69.0264545,11.8418451 C68.8112727,11.9645724 68.5666364,12.025936 68.3187273,12.0218451 C68.1158182,12.0275724 67.9161818,11.9670269 67.7517273,11.8483906 C67.6028182,11.7387542 67.4751818,11.602936 67.3778182,11.4450269 L66.8214545,10.4304815 L66.8230909,10.4280269 Z M74.118,16.1307542 C73.3407273,16.1585724 72.5650909,16.2371178 71.7976364,16.3663906 C71.2780909,16.4482088 70.7716364,16.597936 70.2897273,16.8082088 C69.9681818,16.9432088 69.6875455,17.1600269 69.4772727,17.4365724 C69.3169091,17.6672997 69.2318182,17.9405724 69.2318182,18.2195724 C69.2318182,18.775936 69.3970909,19.1735724 69.7284545,19.4124815 C70.0581818,19.6513906 70.491,19.7708451 71.0244545,19.7708451 C71.6094545,19.7872088 72.1895455,19.6644815 72.7180909,19.4190269 C73.245,19.1490269 73.7179091,18.7865724 74.1171818,18.3512997 L74.1171818,16.1323906 L74.118,16.1307542 Z M84.7960909,21.9521617 C83.6440909,21.9521617 82.7620909,21.6305724 82.1476364,20.9850269 C81.534,20.3402997 81.2263636,19.4492997 81.2255455,18.3128451 L81.2255455,10.963936 L79.869,10.963936 C79.707,10.9663906 79.5499091,10.9066633 79.4304545,10.7962088 C79.302,10.6628451 79.2357273,10.4812088 79.2504545,10.2971178 L79.2504545,9.04529966 L81.3728182,8.69348148 L82.0420909,5.10329966 C82.0764545,4.94784512 82.1631818,4.80629966 82.2875455,4.7056633 C82.4217273,4.60748148 82.5861818,4.55839057 82.7522727,4.56657239 L84.4033636,4.56657239 L84.4033636,8.71229966 L87.9403636,8.71229966 L87.9403636,10.963936 L84.4033636,10.963936 L84.4033636,18.0902997 C84.4033636,18.4993906 84.504,18.820936 84.7060909,19.0516633 C84.9139091,19.2864815 85.2166364,19.4157542 85.5324545,19.4034815 C85.6993636,19.4075724 85.8679091,19.3838451 86.0274545,19.3331178 C86.1485455,19.2922088 86.2663636,19.2431178 86.3809091,19.1842088 C86.4790909,19.1326633 86.5674545,19.0835724 86.6451818,19.036936 C86.7155455,18.9911178 86.7965455,18.9673906 86.8808182,18.9665724 C86.9650909,18.9616633 87.0485455,18.9870269 87.1164545,19.036936 C87.1900909,19.0982997 87.2555455,19.1694815 87.3103636,19.2480269 L88.2643636,20.7862088 C87.7922727,21.1748451 87.2498182,21.4710269 86.6672727,21.6575724 C86.0642727,21.853936 85.4318182,21.9545724 84.7977273,21.9521617 L84.7960909,21.9521617 Z M90.0218182,10.4280269 C91.5436364,9.0436633 93.3730909,8.35148148 95.5118182,8.35148148 C96.2236364,8.33920875 96.9272727,8.4676633 97.5883636,8.72784512 C98.1741818,8.96511784 98.7010909,9.32511784 99.1347273,9.78329966 C99.5642727,10.2480269 99.8915455,10.7962088 100.094455,11.3934815 C100.320273,12.0537542 100.429909,12.7467542 100.423364,13.4438451 L100.423364,21.7516633 L98.9792727,21.7516633 C98.7395455,21.7647542 98.5006364,21.718936 98.2838182,21.6166633 C98.1201818,21.5266633 97.9909091,21.3442088 97.8968182,21.070936 L97.6137273,20.1218451 C97.3028182,20.4024815 96.9755455,20.665936 96.6351818,20.9105724 C96.3242727,21.1314815 95.9912727,21.3237542 95.6419091,21.4800269 C95.2884545,21.6371178 94.9186364,21.754936 94.5398182,21.8318451 C94.1127273,21.9152997 93.6782727,21.9545724 93.243,21.9488451 C92.7193636,21.9545724 92.1957273,21.8784815 91.6966364,21.7254815 C91.245,21.5880269 90.8293636,21.358936 90.4718182,21.0521178 C90.1240909,20.7461178 89.85,20.3648451 89.6732727,19.936936 C89.4752727,19.4435724 89.3787273,18.9166633 89.3901818,18.3856633 C89.3901818,18.0485724 89.4474545,17.7131178 89.5579091,17.3932088 C89.6806364,17.0495724 89.8655455,16.7304815 90.1060909,16.4547542 C90.3924545,16.1274815 90.7238182,15.8427542 91.092,15.6095724 C91.5559091,15.3166633 92.0574545,15.0842997 92.5810909,14.9173906 C93.252,14.7022088 93.9392727,14.5410269 94.6371818,14.437936 C95.5265455,14.3037542 96.4232727,14.2284815 97.3208182,14.2112997 L97.3208182,13.4422088 C97.3208182,12.5618451 97.1326364,11.9105724 96.7546364,11.4867542 C96.3766364,11.0645724 95.8300909,10.8526633 95.1182727,10.8526633 C94.683,10.8412088 94.2493636,10.9017542 93.8353636,11.0326633 C93.5244545,11.1390269 93.2241818,11.2740269 92.9386364,11.4360269 C92.6809091,11.584936 92.4452727,11.719936 92.2317273,11.8393906 C92.0157273,11.9604815 91.7719091,12.0226633 91.524,12.0193906 C91.3210909,12.0251178 91.1214545,11.9637542 90.957,11.8451178 C90.8072727,11.7354815 90.6804545,11.5996633 90.5830909,11.4417542 L90.0242727,10.4296633 L90.0218182,10.4280269 Z M97.32,16.1332088 C96.5410909,16.1602088 95.7654545,16.237936 94.9988182,16.3672088 C94.4792727,16.4506633 93.972,16.5987542 93.4909091,16.8090269 C93.1685455,16.9440269 92.8887273,17.1608451 92.6784545,17.4390269 C92.5172727,17.6681178 92.4313636,17.9405724 92.4329771,18.2203906 C92.4329771,18.7751178 92.5966364,19.1727542 92.9288182,19.4116633 C93.2593636,19.6513906 93.6921818,19.7716633 94.2256364,19.7716633 C94.8106364,19.7855724 95.3907273,19.6652997 95.9209091,19.4198451 C96.4461818,19.1473906 96.9190909,18.784936 97.32,18.3496633 L97.32,16.1323906 L97.32,16.1332088 Z M116.823818,17.3760269 C117.014455,17.3760269 117.196091,17.4553906 117.326182,17.5936633 L118.692545,19.0680269 C117.946364,19.9925724 116.990727,20.7256633 115.902545,21.2092088 C114.801273,21.7050269 113.475818,21.9537542 111.926182,21.9537542 C110.543455,21.9537542 109.298182,21.7181178 108.193636,21.2501178 C107.121818,20.8017542 106.156364,20.1332997 105.364364,19.2864815 C104.565,18.4192088 103.953818,17.398936 103.568455,16.2862088 C103.140545,15.0622088 102.928636,13.7743906 102.942545,12.4792088 C102.926182,11.1733906 103.153636,9.87575421 103.613455,8.65257239 C104.030727,7.53820875 104.673,6.52039057 105.498545,5.6596633 C106.319182,4.81693602 107.306727,4.15011784 108.400636,3.70420875 C109.587,3.22639057 110.858455,2.9866633 112.139727,3.00057239 C113.496273,3.00057239 114.700636,3.22393602 115.753636,3.66739057 C116.753455,4.07648148 117.666545,4.67048148 118.445455,5.41584512 L117.285273,7.01702693 C117.214091,7.12175421 117.124909,7.21339057 117.021,7.28539057 C116.890091,7.37048148 116.734636,7.41139057 116.576727,7.40320875 C116.437636,7.39911784 116.298545,7.36229966 116.177455,7.29275421 C116.038364,7.22075421 115.888636,7.13075421 115.725818,7.02439057 C115.562182,6.91802693 115.374,6.80102693 115.158,6.67257239 C114.920727,6.53348148 114.669545,6.4156633 114.411,6.32075421 C114.090273,6.20457239 113.760545,6.11457239 113.425091,6.05239057 C112.997182,5.97384512 112.562727,5.93784512 112.128273,5.94275421 C111.342818,5.93457239 110.565545,6.08511784 109.843091,6.38702693 C109.159091,6.67502693 108.548727,7.11357239 108.057818,7.66748148 C107.536636,8.26720875 107.141455,8.96429966 106.897636,9.7186633 C106.609636,10.6104815 106.469727,11.5432088 106.485273,12.4816633 C106.468909,13.4266633 106.619455,14.3675724 106.929545,15.2618451 C107.191364,16.0178451 107.600455,16.7141178 108.133909,17.3130269 C108.633,17.8595724 109.243364,18.2915724 109.925727,18.5812088 C110.626091,18.8782088 111.382091,19.0287542 112.143,19.0230269 C112.571727,19.0254815 112.999636,18.9984815 113.425091,18.9452997 C113.785091,18.8994815 114.141,18.8176633 114.485455,18.7014815 C114.804545,18.5918451 115.112182,18.4478451 115.401818,18.2727542 C115.706182,18.0845724 115.993364,17.866936 116.257636,17.6247542 C116.339455,17.5511178 116.429455,17.488936 116.527636,17.4398451 C116.617636,17.3948451 116.719091,17.371936 116.820545,17.371936 L116.823818,17.3760269 Z M120.617727,10.4280269 C122.139545,9.0436633 123.969,8.35148148 126.109364,8.35148148 C126.817909,8.33920875 127.523182,8.4676633 128.183455,8.72784512 C128.769273,8.96511784 129.296182,9.32511784 129.729818,9.78329966 C130.160182,10.2480269 130.487455,10.7962088 130.690364,11.3934815 C130.914545,12.0537542 131.025818,12.7467542 131.017636,13.4438451 L131.017636,21.7516633 L129.575182,21.7516633 C129.335455,21.7647542 129.096545,21.718936 128.879727,21.6166633 C128.716091,21.5266633 128.586818,21.3442088 128.492727,21.070936 L128.209636,20.1218451 C127.898727,20.4024815 127.571455,20.665936 127.230273,20.9105724 C126.919364,21.1314815 126.587182,21.3237542 126.237818,21.4800269 C125.884364,21.6371178 125.514545,21.754936 125.135727,21.8318451 C124.708636,21.9152997 124.273364,21.9545724 123.838091,21.9488451 C123.314455,21.9545724 122.792455,21.8784815 122.291727,21.7254815 C121.841727,21.5880269 121.424455,21.358936 121.067727,21.0521178 C120.718364,20.7461178 120.445909,20.3648451 120.268364,19.936936 C120.072,19.4435724 119.973818,18.9166633 119.986091,18.3856633 C119.986091,18.0485724 120.043364,17.7131178 120.153818,17.3932088 C120.274909,17.0495724 120.461455,16.7304815 120.702,16.4547542 C120.988364,16.1274815 121.319727,15.8427542 121.687091,15.6095724 C122.151818,15.3166633 122.652545,15.0842997 123.176182,14.9173906 C123.847091,14.7022088 124.534364,14.5410269 125.233091,14.437936 C126.120818,14.3045724 127.016727,14.2301178 127.914273,14.2137542 L127.914273,13.4446633 C127.914273,12.5642997 127.726091,11.9130269 127.347273,11.4892088 C126.969273,11.0670269 126.422727,10.8551178 125.710909,10.8551178 C125.275636,10.8436633 124.842,10.9042088 124.428,11.0351178 C124.117091,11.1414815 123.816818,11.2764815 123.531273,11.4384815 C123.273545,11.5873906 123.037909,11.7215724 122.824364,11.8418451 C122.608364,11.9645724 122.364545,12.025936 122.116636,12.0218451 C121.912091,12.0275724 121.713273,11.9670269 121.548818,11.8483906 C121.399091,11.7387542 121.272273,11.602936 121.174909,11.4450269 L120.616091,10.4304815 L120.617727,10.4280269 Z M127.912636,16.1307542 C127.135364,16.1585724 126.359727,16.2371178 125.592273,16.3663906 C125.072727,16.4506633 124.566273,16.6003906 124.084364,16.8114815 C123.762818,16.9464815 123.482182,17.1632997 123.271909,17.4414815 C123.112364,17.6705724 123.026455,17.9430269 123.028068,18.2228451 C123.028068,18.7792088 123.193364,19.1760269 123.523909,19.414936 C123.855273,19.6538451 124.287273,19.7732997 124.820727,19.7732997 C125.405727,19.7880269 125.985818,19.666936 126.514364,19.4214815 C127.041273,19.1490269 127.515,18.7865724 127.913455,18.3496633 L127.913455,16.1307542 L127.912636,16.1307542 Z M134.364,21.7508451 L134.364,8.59448148 L136.311273,8.59448148 C136.686,8.56829966 137.027182,8.81048148 137.122909,9.17211784 L137.329091,10.1457542 C137.555727,9.89620875 137.799545,9.66057239 138.057273,9.44211784 C138.308455,9.23102693 138.580909,9.04693602 138.870545,8.89148148 C139.165091,8.73602693 139.476,8.61329966 139.798364,8.52575421 C140.153455,8.43329966 140.52,8.3866633 140.886545,8.39075421 C141.721091,8.39075421 142.405909,8.61575421 142.942636,9.06411784 C143.499,9.54111784 143.916273,10.1604815 144.147818,10.8526633 C144.339273,10.4370269 144.601091,10.0590269 144.921818,9.73011784 C145.219636,9.42739057 145.563273,9.1696633 145.938818,8.96920875 C146.310273,8.77039057 146.707909,8.62393602 147.117,8.53148148 C147.530182,8.43820875 147.951545,8.39239057 148.375364,8.39075421 C149.038091,8.37929966 149.699182,8.49220875 150.322636,8.72457239 C150.868364,8.93320875 151.358455,9.26702693 151.752,9.69820875 C152.152909,10.1522997 152.455636,10.6857542 152.635636,11.2625724 C152.846727,11.9465724 152.949,12.6583906 152.938364,13.3734815 L152.938364,21.7516633 L149.755636,21.7516633 L149.755636,13.3775724 C149.755636,12.5397542 149.569909,11.9097542 149.199273,11.4875724 C148.831091,11.0637542 148.289455,10.8526633 147.576818,10.8526633 C147.265909,10.8493906 146.957455,10.9058451 146.668636,11.0187542 C146.392091,11.1275724 146.142545,11.2912088 145.932273,11.4998451 C145.713,11.7240269 145.543636,11.9932088 145.436455,12.2877542 C145.311273,12.6371178 145.250727,13.0061178 145.256455,13.3775724 L145.256455,21.7508451 L142.060636,21.7508451 L142.060636,13.3775724 C142.060636,12.4972088 141.882273,11.8557542 141.525545,11.4548451 C141.168818,11.0522997 140.646818,10.8510269 139.959545,10.8510269 C139.504636,10.8485724 139.057091,10.9655724 138.662727,11.1913906 C138.241364,11.4368451 137.864182,11.7502088 137.547545,12.1200269 L137.547545,21.7500269 L134.364818,21.7500269 L134.364,21.7508451 Z M159.321818,10.3912088 C159.845455,9.79720875 160.469727,9.29893602 161.164364,8.91684512 C161.851636,8.54048148 162.659182,8.35229966 163.587818,8.35229966 C164.273455,8.34411784 164.951727,8.49957239 165.566182,8.80229966 C166.175727,9.11075421 166.705091,9.55502693 167.112545,10.1032088 C167.578909,10.7332088 167.919273,11.4474815 168.118909,12.2042997 C168.367636,13.1386633 168.487091,14.1024815 168.472364,15.0695724 C168.480545,15.9941178 168.346364,16.9153906 168.073091,17.7990269 C167.831727,18.5893906 167.444727,19.3290269 166.932545,19.9778451 C166.449818,20.5832997 165.838636,21.0766633 165.140727,21.4202997 C164.409273,21.7737542 163.602545,21.9521178 162.789273,21.9398451 C162.141273,21.9562088 161.496545,21.8416633 160.894364,21.5994815 C160.372364,21.3744815 159.896182,21.0570269 159.488727,20.6610269 L159.488727,26.0446633 L156.306,26.0446633 L156.306,8.59529966 L158.253273,8.59529966 C158.627182,8.56829966 158.968364,8.81048148 159.064909,9.17211784 L159.321818,10.3912088 Z M159.488727,18.3373906 C159.801273,18.7358451 160.205455,19.0524815 160.668545,19.2602997 C161.107091,19.4427542 161.578364,19.5343906 162.053727,19.5302997 C162.501273,19.5360269 162.943909,19.4435724 163.351364,19.2602997 C163.744091,19.0745724 164.084455,18.7922997 164.337273,18.4396633 C164.631818,18.0191178 164.844545,17.5478451 164.963182,17.0487542 C165.118636,16.399936 165.192273,15.7347542 165.182455,15.0687542 C165.193909,14.4117542 165.130909,13.7563906 164.995909,13.1132997 C164.901,12.6502088 164.719364,12.2092088 164.460818,11.8123906 C164.251364,11.4982088 163.959273,11.2462088 163.618091,11.0825724 C163.263,10.9222088 162.877636,10.8420269 162.489,10.8477542 C161.898273,10.8297542 161.314091,10.9737542 160.800273,11.2650269 C160.297091,11.575936 159.851182,11.9727542 159.485455,12.4366633 L159.490364,18.3373906 L159.488727,18.3373906 Z M53.7646598,29.097429 L53.7646598,30.4005413 L49.7129636,30.4005413 L49.7129636,33.0067659 L53.1325699,33.0067659 L53.1325699,34.3159675 L49.7129636,34.3159675 L49.7129636,37.902571 L48,37.902571 L48,29.097429 L53.7646598,29.097429 Z M67.031446,33.5 C67.031446,34.1454701 66.9197779,34.7432313 66.6964384,35.2933018 C66.4730988,35.8433722 66.159164,36.3193485 65.7546244,36.7212449 C65.3500849,37.1231414 64.8633805,37.4367377 64.2944968,37.6620433 C63.725613,37.8873489 63.0956364,38 62.404548,38 C61.7134596,38 61.0824295,37.8873489 60.5114388,37.6620433 C59.9404481,37.4367377 59.4516368,37.1231414 59.0449902,36.7212449 C58.6383437,36.3193485 58.3233554,35.8433722 58.1000158,35.2933018 C57.8766763,34.7432313 57.7650082,34.1454701 57.7650082,33.5 C57.7650082,32.8545299 57.8766763,32.2567687 58.1000158,31.7066982 C58.3233554,31.1566278 58.6383437,30.6806515 59.0449902,30.2787551 C59.4516368,29.8768586 59.9404481,29.5632623 60.5114388,29.3379567 C61.0824295,29.1126511 61.7134596,29 62.404548,29 C63.0956364,29 63.725613,29.113666 64.2944968,29.3410014 C64.8633805,29.5683367 65.3500849,29.881933 65.7546244,30.2817997 C66.159164,30.6816664 66.4730988,31.1566278 66.6964384,31.7066982 C66.9197779,32.2567687 67.031446,32.8545299 67.031446,33.5 Z M65.2868779,33.5 C65.2868779,33.0169123 65.2205091,32.5835608 65.0877696,32.1999323 C64.95503,31.8163039 64.7643515,31.4905291 64.5157282,31.2225981 C64.267105,30.9546671 63.9647583,30.7496624 63.6086792,30.6075778 C63.2526002,30.4654932 62.8512271,30.394452 62.404548,30.394452 C61.9578689,30.394452 61.5554424,30.4654932 61.1972563,30.6075778 C60.8390702,30.7496624 60.5346167,30.9546671 60.2838864,31.2225981 C60.0331562,31.4905291 59.8403707,31.8163039 59.7055242,32.1999323 C59.5706777,32.5835608 59.5032554,33.0169123 59.5032554,33.5 C59.5032554,33.9830877 59.5706777,34.4164392 59.7055242,34.8000677 C59.8403707,35.1836961 60.0331562,35.508456 60.2838864,35.7743572 C60.5346167,36.0402584 60.8390702,36.2442483 61.1972563,36.3863329 C61.5554424,36.5284175 61.9578689,36.5994587 62.404548,36.5994587 C62.8512271,36.5994587 63.2526002,36.5284175 63.6086792,36.3863329 C63.9647583,36.2442483 64.267105,36.0402584 64.5157282,35.7743572 C64.7643515,35.508456 64.95503,35.1836961 65.0877696,34.8000677 C65.2205091,34.4164392 65.2868779,33.9830877 65.2868779,33.5 Z M73.2946762,34.462111 L73.2946762,37.902571 L71.5943544,37.902571 L71.5943544,29.097429 L74.3818708,29.097429 C75.005536,29.097429 75.5396466,29.1593363 75.9842187,29.2831529 C76.4287908,29.4069695 76.7932923,29.5805131 77.0777342,29.8037889 C77.3621761,30.0270647 77.5707637,30.2939768 77.7035032,30.6045332 C77.8362427,30.9150895 77.9026115,31.2571023 77.9026115,31.6305819 C77.9026115,31.9269298 77.8573122,32.2070352 77.7667122,32.4709066 C77.6761122,32.734778 77.5454816,32.9742885 77.3748165,33.1894452 C77.2041513,33.4046019 76.9934568,33.5933686 76.7427266,33.755751 C76.4919963,33.9181334 76.2065052,34.0480374 75.8862448,34.1454668 C76.1011564,34.2631941 76.2865676,34.4316633 76.4424839,34.6508796 L78.7306493,37.902571 L77.2009917,37.902571 C77.0535034,37.902571 76.9281401,37.8741545 76.8248982,37.8173207 C76.7216564,37.7604869 76.6342182,37.6792969 76.5625809,37.5737483 L74.6410277,34.7543978 C74.5693905,34.6488493 74.49038,34.5737485 74.403994,34.5290934 C74.3176079,34.4844382 74.1901377,34.462111 74.0215796,34.462111 L73.2946762,34.462111 Z M73.2946762,33.2868742 L74.3565872,33.2868742 C74.6768477,33.2868742 74.956018,33.2483089 75.1941063,33.1711773 C75.4321947,33.0940456 75.6281406,32.9874838 75.7819499,32.8514885 C75.9357592,32.7154932 76.0505878,32.5541281 76.1264389,32.3673884 C76.2022901,32.1806486 76.2402151,31.9756439 76.2402151,31.7523681 C76.2402151,31.3058164 76.0874616,30.9627887 75.7819499,30.7232747 C75.4764383,30.4837606 75.0097499,30.3640054 74.3818708,30.3640054 L73.2946762,30.3640054 L73.2946762,33.2868742 Z M88.5896904,37.902571 L88.5896904,29.097429 L91.7438189,29.097429 C92.3422003,29.097429 92.8531346,29.1522322 93.2766369,29.2618403 C93.7001392,29.3714485 94.0477852,29.5277392 94.3195852,29.7307172 C94.5913852,29.9336952 94.7904916,30.1792949 94.9169102,30.4675237 C95.0433288,30.7557525 95.1065371,31.0805124 95.1065371,31.4418133 C95.1065371,31.6488508 95.074933,31.8467514 95.0117236,32.035521 C94.9485143,32.2242905 94.8505414,32.4008787 94.7178019,32.5652909 C94.5850623,32.7297031 94.4165067,32.8788897 94.2121299,33.0128552 C94.0077532,33.1468207 93.764401,33.2604867 93.4820661,33.3538566 C94.7378243,33.6258471 95.365694,34.2794265 95.365694,35.3146143 C95.365694,35.6880939 95.2919509,36.0331513 95.1444625,36.349797 C94.9969741,36.6664427 94.7820657,36.939444 94.4997308,37.1688092 C94.2173959,37.3981744 93.86975,37.5778072 93.4567825,37.7077131 C93.0438151,37.8376191 92.5718593,37.902571 92.0409012,37.902571 L88.5896904,37.902571 Z M90.2900122,34.0419486 L90.2900122,36.623816 L92.0156176,36.623816 C92.3316641,36.623816 92.5960857,36.5872805 92.8088904,36.5142084 C93.021695,36.4411363 93.1923576,36.3437083 93.3208832,36.2219215 C93.4494088,36.1001347 93.5421144,35.9580522 93.5990027,35.7956698 C93.6558911,35.6332874 93.6843349,35.4607587 93.6843349,35.2780785 C93.6843349,35.0872792 93.6527307,34.9157653 93.5895214,34.7635318 C93.5263121,34.6112983 93.4272857,34.4813943 93.2924391,34.373816 C93.1575926,34.2662376 92.9848231,34.1840328 92.7741254,34.1271989 C92.5634278,34.0703651 92.3084874,34.0419486 92.0092967,34.0419486 L90.2900122,34.0419486 Z M90.2900122,32.9093369 L91.6490054,32.9093369 C92.2263171,32.9093369 92.6645617,32.8078495 92.9637524,32.6048714 C93.2629431,32.4018934 93.4125362,32.0791632 93.4125362,31.6366712 C93.4125362,31.1779409 93.2776917,30.8511512 93.0079987,30.6562923 C92.7383057,30.4614334 92.3169166,30.3640054 91.7438189,30.3640054 L90.2900122,30.3640054 L90.2900122,32.9093369 Z M103.670575,36.5811908 C103.999263,36.5811908 104.293182,36.5284173 104.55234,36.4228687 C104.811498,36.3173202 105.03062,36.1691485 105.209713,35.9783491 C105.388806,35.7875498 105.525758,35.5561583 105.620572,35.2841678 C105.715386,35.0121773 105.762792,34.7077148 105.762792,34.3707713 L105.762792,29.097429 L107.463114,29.097429 L107.463114,34.3707713 C107.463114,34.8944546 107.375676,35.3785499 107.200797,35.8230717 C107.025918,36.2675936 106.774138,36.6512162 106.445449,36.9739513 C106.116761,37.2966863 105.718548,37.5483753 105.250799,37.7290257 C104.78305,37.9096761 104.256314,38 103.670575,38 C103.084835,38 102.558099,37.9096761 102.09035,37.7290257 C101.622601,37.5483753 101.225442,37.2966863 100.89886,36.9739513 C100.572279,36.6512162 100.321552,36.2675936 100.146673,35.8230717 C99.9717943,35.3785499 99.8843561,34.8944546 99.8843561,34.3707713 L99.8843561,29.097429 L101.584678,29.097429 L101.584678,34.364682 C101.584678,34.7016255 101.632084,35.0060879 101.726898,35.2780785 C101.821712,35.550069 101.95761,35.7824754 102.134596,35.9753045 C102.311582,36.1681336 102.529651,36.3173202 102.788809,36.4228687 C103.047967,36.5284173 103.341886,36.5811908 103.670575,36.5811908 Z M117.259727,30.6989175 C117.213373,30.7882278 117.159646,30.85115 117.098544,30.8876861 C117.037441,30.9242221 116.964752,30.9424899 116.880473,30.9424899 C116.796194,30.9424899 116.701381,30.9110287 116.596032,30.8481055 C116.490683,30.7851824 116.366374,30.715156 116.223099,30.6380244 C116.079825,30.5608927 115.912323,30.4908663 115.720588,30.4279432 C115.528853,30.36502 115.302356,30.3335589 115.041091,30.3335589 C114.80511,30.3335589 114.599683,30.3609605 114.424803,30.4157645 C114.249924,30.4705686 114.102438,30.5466842 113.982341,30.6441137 C113.862243,30.7415431 113.772698,30.8582537 113.713702,30.994249 C113.654707,31.1302443 113.62521,31.2794309 113.62521,31.4418133 C113.62521,31.6488508 113.685258,31.8213796 113.805355,31.9594046 C113.925453,32.0974296 114.084527,32.2151551 114.282583,32.3125846 C114.480639,32.410014 114.706082,32.4972933 114.958919,32.5744249 C115.211757,32.6515565 115.469857,32.7337614 115.73323,32.8210419 C115.996602,32.9083225 116.254702,33.00981 116.50754,33.1255074 C116.760377,33.2412049 116.98582,33.3873469 117.183876,33.5639378 C117.381932,33.7405286 117.541006,33.956697 117.661104,34.2124493 C117.781201,34.4682015 117.841249,34.7787532 117.841249,35.1441137 C117.841249,35.5419506 117.770667,35.9144096 117.629499,36.261502 C117.488332,36.6085944 117.281851,36.9110271 117.010051,37.1688092 C116.738251,37.4265913 116.406407,37.6295662 116.01451,37.7777402 C115.622612,37.9259141 115.173832,38 114.668158,38 C114.377395,38 114.090851,37.9725984 113.808516,37.9177943 C113.526181,37.8629903 113.255438,37.7848449 112.99628,37.6833559 C112.737122,37.5818669 112.494823,37.4600819 112.269377,37.3179973 C112.04393,37.1759127 111.842717,37.0175922 111.665731,36.8430311 L112.158761,36.0575101 C112.205115,36.0006763 112.260949,35.9529772 112.326265,35.9144114 C112.391581,35.8758455 112.464271,35.8565629 112.544336,35.8565629 C112.649685,35.8565629 112.76346,35.8981728 112.885665,35.9813938 C113.007869,36.0646148 113.152195,36.1569684 113.318646,36.2584574 C113.485097,36.3599464 113.681043,36.4523 113.90649,36.535521 C114.131936,36.618742 114.402679,36.6603518 114.718725,36.6603518 C115.20333,36.6603518 115.578366,36.5497305 115.843845,36.3284844 C116.109324,36.1072384 116.242062,35.7895826 116.242062,35.3755074 C116.242062,35.1441125 116.182014,34.9553458 116.061916,34.8092016 C115.941819,34.6630575 115.782744,34.5402576 115.584688,34.4407984 C115.386633,34.3413392 115.161189,34.2571045 114.908352,34.188092 C114.655515,34.1190795 114.398468,34.0439788 114.137203,33.9627876 C113.875937,33.8815963 113.61889,33.7841684 113.366053,33.6705007 C113.113216,33.556833 112.887773,33.4086613 112.689717,33.2259811 C112.491661,33.0433008 112.332587,32.814954 112.212489,32.5409337 C112.092391,32.2669134 112.032343,31.9289601 112.032343,31.5270636 C112.032343,31.2063583 112.098712,30.8937769 112.231452,30.5893099 C112.364191,30.2848429 112.55803,30.0148862 112.812974,29.7794317 C113.067918,29.5439772 113.3808,29.3552105 113.751628,29.2131258 C114.122456,29.0710412 114.545952,29 115.022128,29 C115.561514,29 116.058754,29.08119 116.513861,29.2435724 C116.968968,29.4059548 117.356645,29.6332868 117.676906,29.9255751 L117.259727,30.6989175 Z M124.224577,37.902571 L122.517934,37.902571 L122.517934,29.097429 L124.224577,29.097429 L124.224577,37.902571 Z M130.336105,29.097429 C130.411956,29.097429 130.475165,29.1004736 130.525732,29.1065629 C130.5763,29.1126523 130.621599,29.1248308 130.661632,29.1430988 C130.701664,29.1613668 130.740643,29.1877535 130.778568,29.2222598 C130.816494,29.2567661 130.858633,29.3024354 130.904986,29.3592693 L135.702548,35.2476319 C135.685693,35.1055473 135.674104,34.9665095 135.667783,34.8305142 C135.661463,34.6945189 135.658302,34.5676596 135.658302,34.4499323 L135.658302,29.097429 L137.156355,29.097429 L137.156355,37.902571 L136.27775,37.902571 C136.142904,37.902571 136.031236,37.8822735 135.942743,37.8416779 C135.85425,37.8010823 135.767865,37.7280114 135.683586,37.6224628 L130.904986,31.7584574 C130.917628,31.8883633 130.927109,32.0172524 130.93343,32.1451286 C130.939751,32.2730047 130.942912,32.3897153 130.942912,32.4952639 L130.942912,37.902571 L129.444858,37.902571 L129.444858,29.097429 L130.336105,29.097429 Z M147.932707,29.097429 L147.932707,30.4005413 L143.881011,30.4005413 L143.881011,32.8423545 L147.073065,32.8423545 L147.073065,34.1028417 L143.881011,34.1028417 L143.881011,36.5933694 L147.932707,36.5933694 L147.932707,37.902571 L142.168047,37.902571 L142.168047,29.097429 L147.932707,29.097429 Z M157.470163,30.6989175 C157.42381,30.7882278 157.370082,30.85115 157.30898,30.8876861 C157.247878,30.9242221 157.175188,30.9424899 157.090909,30.9424899 C157.00663,30.9424899 156.911817,30.9110287 156.806469,30.8481055 C156.70112,30.7851824 156.57681,30.715156 156.433536,30.6380244 C156.290261,30.5608927 156.122759,30.4908663 155.931024,30.4279432 C155.739289,30.36502 155.512793,30.3335589 155.251528,30.3335589 C155.015546,30.3335589 154.810119,30.3609605 154.63524,30.4157645 C154.460361,30.4705686 154.312875,30.5466842 154.192777,30.6441137 C154.072679,30.7415431 153.983134,30.8582537 153.924139,30.994249 C153.865143,31.1302443 153.835646,31.2794309 153.835646,31.4418133 C153.835646,31.6488508 153.895694,31.8213796 154.015792,31.9594046 C154.135889,32.0974296 154.294964,32.2151551 154.49302,32.3125846 C154.691075,32.410014 154.916519,32.4972933 155.169356,32.5744249 C155.422193,32.6515565 155.680294,32.7337614 155.943666,32.8210419 C156.207038,32.9083225 156.465139,33.00981 156.717976,33.1255074 C156.970813,33.2412049 157.196256,33.3873469 157.394312,33.5639378 C157.592368,33.7405286 157.751442,33.956697 157.87154,34.2124493 C157.991638,34.4682015 158.051686,34.7787532 158.051686,35.1441137 C158.051686,35.5419506 157.981103,35.9144096 157.839936,36.261502 C157.698768,36.6085944 157.492288,36.9110271 157.220488,37.1688092 C156.948688,37.4265913 156.616844,37.6295662 156.224946,37.7777402 C155.833048,37.9259141 155.384269,38 154.878594,38 C154.587832,38 154.301287,37.9725984 154.018952,37.9177943 C153.736617,37.8629903 153.465875,37.7848449 153.206717,37.6833559 C152.947559,37.5818669 152.70526,37.4600819 152.479813,37.3179973 C152.254367,37.1759127 152.053154,37.0175922 151.876167,36.8430311 L152.369198,36.0575101 C152.415551,36.0006763 152.471385,35.9529772 152.536701,35.9144114 C152.602018,35.8758455 152.674707,35.8565629 152.754772,35.8565629 C152.860121,35.8565629 152.973896,35.8981728 153.096101,35.9813938 C153.218306,36.0646148 153.362631,36.1569684 153.529083,36.2584574 C153.695534,36.3599464 153.89148,36.4523 154.116926,36.535521 C154.342373,36.618742 154.613115,36.6603518 154.929162,36.6603518 C155.413766,36.6603518 155.788803,36.5497305 156.054282,36.3284844 C156.319761,36.1072384 156.452498,35.7895826 156.452498,35.3755074 C156.452498,35.1441125 156.39245,34.9553458 156.272353,34.8092016 C156.152255,34.6630575 155.993181,34.5402576 155.795125,34.4407984 C155.597069,34.3413392 155.371626,34.2571045 155.118789,34.188092 C154.865951,34.1190795 154.608904,34.0439788 154.347639,33.9627876 C154.086374,33.8815963 153.829327,33.7841684 153.576489,33.6705007 C153.323652,33.556833 153.098209,33.4086613 152.900153,33.2259811 C152.702097,33.0433008 152.543023,32.814954 152.422925,32.5409337 C152.302828,32.2669134 152.24278,31.9289601 152.24278,31.5270636 C152.24278,31.2063583 152.309148,30.8937769 152.441888,30.5893099 C152.574627,30.2848429 152.768466,30.0148862 153.023411,29.7794317 C153.278355,29.5439772 153.591236,29.3552105 153.962064,29.2131258 C154.332892,29.0710412 154.756388,29 155.232565,29 C155.771951,29 156.26919,29.08119 156.724297,29.2435724 C157.179404,29.4059548 157.567082,29.6332868 157.887342,29.9255751 L157.470163,30.6989175 Z M167.418477,30.6989175 C167.372124,30.7882278 167.318397,30.85115 167.257294,30.8876861 C167.196192,30.9242221 167.123502,30.9424899 167.039223,30.9424899 C166.954944,30.9424899 166.860132,30.9110287 166.754783,30.8481055 C166.649434,30.7851824 166.525124,30.715156 166.38185,30.6380244 C166.238575,30.5608927 166.071073,30.4908663 165.879338,30.4279432 C165.687604,30.36502 165.461107,30.3335589 165.199842,30.3335589 C164.96386,30.3335589 164.758433,30.3609605 164.583554,30.4157645 C164.408675,30.4705686 164.261189,30.5466842 164.141091,30.6441137 C164.020994,30.7415431 163.931448,30.8582537 163.872453,30.994249 C163.813458,31.1302443 163.78396,31.2794309 163.78396,31.4418133 C163.78396,31.6488508 163.844008,31.8213796 163.964106,31.9594046 C164.084204,32.0974296 164.243278,32.2151551 164.441334,32.3125846 C164.63939,32.410014 164.864833,32.4972933 165.11767,32.5744249 C165.370507,32.6515565 165.628608,32.7337614 165.89198,32.8210419 C166.155352,32.9083225 166.413453,33.00981 166.66629,33.1255074 C166.919128,33.2412049 167.144571,33.3873469 167.342627,33.5639378 C167.540682,33.7405286 167.699757,33.956697 167.819854,34.2124493 C167.939952,34.4682015 168,34.7787532 168,35.1441137 C168,35.5419506 167.929417,35.9144096 167.78825,36.261502 C167.647082,36.6085944 167.440602,36.9110271 167.168802,37.1688092 C166.897002,37.4265913 166.565158,37.6295662 166.17326,37.7777402 C165.781363,37.9259141 165.332583,38 164.826909,38 C164.536146,38 164.249601,37.9725984 163.967267,37.9177943 C163.684932,37.8629903 163.414189,37.7848449 163.155031,37.6833559 C162.895873,37.5818669 162.653574,37.4600819 162.428128,37.3179973 C162.202681,37.1759127 162.001468,37.0175922 161.824482,36.8430311 L162.317512,36.0575101 C162.363865,36.0006763 162.419699,35.9529772 162.485016,35.9144114 C162.550332,35.8758455 162.623022,35.8565629 162.703087,35.8565629 C162.808436,35.8565629 162.922211,35.8981728 163.044415,35.9813938 C163.16662,36.0646148 163.310946,36.1569684 163.477397,36.2584574 C163.643848,36.3599464 163.839794,36.4523 164.06524,36.535521 C164.290687,36.618742 164.561429,36.6603518 164.877476,36.6603518 C165.362081,36.6603518 165.737117,36.5497305 166.002596,36.3284844 C166.268075,36.1072384 166.400813,35.7895826 166.400813,35.3755074 C166.400813,35.1441125 166.340765,34.9553458 166.220667,34.8092016 C166.100569,34.6630575 165.941495,34.5402576 165.743439,34.4407984 C165.545383,34.3413392 165.31994,34.2571045 165.067103,34.188092 C164.814266,34.1190795 164.557218,34.0439788 164.295953,33.9627876 C164.034688,33.8815963 163.777641,33.7841684 163.524804,33.6705007 C163.271966,33.556833 163.046523,33.4086613 162.848467,33.2259811 C162.650412,33.0433008 162.491337,32.814954 162.37124,32.5409337 C162.251142,32.2669134 162.191094,31.9289601 162.191094,31.5270636 C162.191094,31.2063583 162.257463,30.8937769 162.390202,30.5893099 C162.522942,30.2848429 162.716781,30.0148862 162.971725,29.7794317 C163.226669,29.5439772 163.53955,29.3552105 163.910378,29.2131258 C164.281206,29.0710412 164.704702,29 165.180879,29 C165.720265,29 166.217504,29.08119 166.672611,29.2435724 C167.127718,29.4059548 167.515396,29.6332868 167.835657,29.9255751 L167.418477,30.6989175 Z"/>
  </defs>
  <g id="Logos" fill="none" fill-rule="evenodd" stroke="none" stroke-width="1">
    <g id="Single-Color" transform="translate(-27 -30)">
      <g id="datacamp-for-business/single-color" transform="translate(27 30)">
        <g id="single-color">
          <mask id="mask-2" fill="#fff">
            <use xlink:href="#path-1"/>
          </mask>
          <use id="Mask" fill="#FFF" xlink:href="#path-1"/>
          <g id="colors/primary/white" fill="#FFF" mask="url(#mask-2)">
            <rect id="Color" width="173" height="41" x="0" y="0"/>
          </g>
        </g>
      </g>
    </g>
  </g>
</svg>
