<svg xmlns="http://www.w3.org/2000/svg" xmlns:xlink="http://www.w3.org/1999/xlink" width="34" height="36" viewBox="0 0 34 36">
  <defs>
    <path id="path-1" d="M23.7575455,15.2631818 C24.0684545,13.9884545 24.03,12.7898182 23.3304545,11.115 C23.3304545,11.115 24.4570909,11.5486364 24.3400909,10.6862727 C24.2222727,9.82390909 22.9819091,8.91327273 22.0491818,8.33972727 C21.6376364,8.08609091 20.5273636,7.54363636 19.0382727,7.21390909 L19.3164545,6.58963636 L19.2395455,6.552 C16.9298182,5.43354545 14.2592727,6.44809091 14.2322727,6.45872727 L14.1504545,6.48981818 L14.4139091,7.18527273 C13.6333636,7.36527273 12.8806364,7.64345455 12.1720909,8.01654545 C5.895,11.3383636 9.07936364,17.8265455 11.0233636,19.3704545 C12.969,20.9143636 12.0722727,24.0602727 11.0233636,26.9116364 L19.4539091,26.9116364 C19.5717273,26.3781818 19.4702727,27.1734545 19.863,25.0461818 C20.2557273,22.9172727 21.7693636,23.7076364 22.9639091,23.6389091 C24.1568182,23.5693636 23.9678182,22.7405455 23.9539091,21.8143636 C24.5364545,21.5525455 24.5364545,21.2776364 24.147,20.9446364 C24.6518182,20.4758182 24.5740909,20.4758182 24.3024545,20.0266364 C24.0324545,19.5766364 24.2247273,19.3606364 24.2247273,19.3606364 C24.2247273,19.3606364 25.0396364,19.2035455 25.1558182,18.7748182 C25.1934545,17.8502727 23.4458182,16.5362727 23.7567273,15.2648182 L23.7575455,15.2631818 Z M16.9854545,35.973 C16.7915455,35.973 16.6009091,35.9239091 16.4290909,35.8314545 L2.80472727,28.3778182 C2.475,28.1953636 2.25490909,27.8648182 2.21563636,27.4917273 L0.00654545455,6.74590909 C-0.0507272727,6.21409091 0.266727273,5.715 0.773181818,5.53909091 L16.4331818,0.0654545455 C16.6786364,-0.0196363636 16.9453636,-0.0196363636 17.1908182,0.0654545455 L33.192,5.535 C33.705,5.715 34.0232727,6.22554545 33.9586364,6.76227273 L31.4181818,27.5097273 C31.374,27.8721818 31.1596364,28.1920909 30.8405455,28.3720909 L17.5532727,35.8257273 C17.3814545,35.9222727 17.1850909,35.973 16.9862727,35.973 L16.9854545,35.973 Z M22.0148182,14.9956364 L20.7662727,14.5734545 C20.7008182,14.7436364 20.0593636,16.3210909 19.2338182,16.5984545 L18.4467273,15.5618182 C18.0679091,15.8563636 17.2030909,16.1157273 16.7874545,15.9954545 L16.7874545,15.957 L16.7653636,15.957 L16.7899091,18.8140909 C15.1322727,18.9834545 13.1522727,17.9860909 12.2048182,16.6131818 L11.169,17.3945455 C9.99081818,15.9790909 9.81081818,14.2731818 9.79936364,13.2905455 L11.187,13.2905455 C11.187,12.204 11.6140909,10.7885455 12.2146364,10.0071818 L13.3028182,10.773 C13.3928182,10.6633636 14.2134545,9.68481818 15.3139091,9.333 L15.3302727,9.333 L14.5448182,7.263 C16.2057273,6.78845455 17.4248182,6.795 18.7527273,7.28754545 C18.7936364,7.29981818 18.8345455,7.31863636 18.8705455,7.34236364 L18.891,7.35872727 L18.6561818,7.97481818 C18.7183636,8.00181818 19.5995455,8.39536364 19.9636364,8.76518182 L20.2581818,8.36181818 C21.3627273,9.027 22.1645455,10.0914545 22.4983636,11.3318182 L22.0483636,11.4921818 L22.0483636,11.4799091 C22.3633636,12.6335455 22.3510909,13.8501818 22.0156364,14.9964545 L22.0148182,14.9956364 Z M4.01727273,26.9427273 L16.9854545,34.0363636 L29.628,26.9451818 L32.058,7.09445455 L16.8185455,1.87690909 L1.90309091,7.09363636 L4.01727273,26.9427273 Z M16.7072727,11.2213636 C16.1451818,11.2213636 15.6387273,11.5568182 15.4227273,12.0722727 C15.2083636,12.5877273 15.327,13.1817273 15.7238182,13.5777273 C16.1206364,13.9704545 16.7170909,14.0899091 17.2358182,13.8763636 C17.7545455,13.6636364 18.0932727,13.1596364 18.0932727,12.6 C18.0932727,11.8390909 17.4714545,11.2221818 16.7064545,11.2213636 L16.7072727,11.2213636 Z"/>
  </defs>
  <g id="Logos" fill="none" fill-rule="evenodd" stroke="none" stroke-width="1">
    <g id="Icon" transform="translate(-32 -32)">
      <g id="logo" transform="translate(32 32)">
        <mask id="mask-2" fill="#fff">
          <use xlink:href="#path-1"/>
        </mask>
        <use id="Logo" fill="#859094" xlink:href="#path-1"/>
      </g>
    </g>
  </g>
</svg>
