<svg xmlns="http://www.w3.org/2000/svg" width="161" height="37" viewBox="0 0 161 37">
  <g id="Logos" fill="none" fill-rule="evenodd" stroke="none" stroke-width="1">
    <g id="Inverted" transform="translate(-32 -32)">
      <g id="datacamp/inverted" transform="translate(32 32)">
        <g id="logo">
          <path id="Shape" fill="#FFF" d="M56.9582222,17.4891432 C56.9728586,18.7792583 56.7427424,20.0602997 56.2800707,21.2629773 C55.421404,23.5165543 53.650404,25.2933496 51.4118535,26.1479271 C50.1856515,26.6181097 48.8830152,26.8523761 47.5698081,26.8358785 L40.5118283,26.8358785 L40.5118283,8.14488255 L47.5681818,8.14488255 C48.8813889,8.12838492 50.1848384,8.36265134 51.4110404,8.83778324 C52.516899,9.26672176 53.5251818,9.920853 54.3724646,10.758108 C55.204298,11.5994874 55.8539899,12.6058431 56.2808838,13.7136594 C56.7443687,14.9179867 56.9736717,16.1982032 56.9582222,17.4891432 L56.9582222,17.4891432 Z M53.4227273,17.4891432 C53.4365505,16.5529024 53.3007576,15.6216109 53.0202273,14.7299137 C52.7787273,13.9652483 52.3819192,13.2616241 51.854197,12.6619351 C51.3435505,12.0952413 50.7133737,11.6506301 50.0100152,11.3610966 C49.2342879,11.0492913 48.4057071,10.8958632 47.5706212,10.9074116 L43.9708889,10.9074116 L43.9708889,24.0667504 L47.5706212,24.0667504 C48.4057071,24.0799485 49.2342879,23.9265205 50.0100152,23.6130654 C50.7133737,23.3243568 51.3435505,22.8805704 51.8558232,22.3138766 C52.3827323,21.7150125 52.7803535,21.0105635 53.0210404,20.2467229 C53.3007576,19.3558506 53.4373636,18.4237342 53.4235404,17.4899681 L53.4227273,17.4891432 Z M59.2187273,15.4211646 C60.7311515,14.0254647 62.5493131,13.3276147 64.6748384,13.3276147 C65.3822626,13.3152415 66.0815556,13.4447479 66.7385657,13.7070603 C67.3207677,13.946276 67.8444242,14.309224 68.2753838,14.7711578 C68.7030909,15.2396906 69.0275303,15.7923614 69.2291869,16.3945251 C69.452798,17.0602047 69.5625707,17.7588795 69.5560657,18.4616788 L69.5560657,26.8375282 L68.1200758,26.8375282 C67.8818283,26.8507264 67.6443939,26.804533 67.4289141,26.7014228 C67.2662879,26.6106858 67.1386263,26.4267371 67.044303,26.1512266 L66.7629596,25.1943638 C66.4539697,25.4772982 66.1287172,25.7429101 65.7896414,25.9895498 C65.4806515,26.2122679 65.1497071,26.4061151 64.8025,26.5636675 C64.4512273,26.7220448 64.0836919,26.8408278 63.7072121,26.9183667 C63.2819444,27.0025046 62.8501717,27.0420989 62.4175859,27.0363248 C61.8971818,27.0420989 61.3767778,26.9653849 60.8807677,26.811132 C60.4319192,26.6725519 60.0188485,26.441585 59.6635101,26.1322543 C59.3171162,25.8237486 59.0455303,25.4393537 58.8690808,25.0079405 C58.672303,24.5105368 58.5763535,23.9793129 58.5877374,23.4439647 C58.5877374,23.1041134 58.6446566,22.7659118 58.7544293,22.4433831 C58.8747727,22.0969327 59.0593535,21.7752288 59.2992273,21.4972437 C59.5838232,21.167291 59.9123283,20.8802321 60.2782374,20.6451408 C60.7392828,20.3498332 61.2377323,20.1147419 61.7581364,19.9472909 C62.424904,19.730347 63.1079343,19.5678452 63.8015354,19.4639101 C64.6837828,19.3294544 65.5741616,19.2543902 66.4661667,19.2378925 L66.4661667,18.4625037 C66.4661667,17.5749309 66.2791465,16.918325 65.9026667,16.4910363 C65.5286263,16.0653973 64.9854545,15.8517529 64.276404,15.8517529 C63.8454444,15.8402045 63.4144848,15.9012458 63.0022273,16.0332269 C62.6932374,16.1404615 62.3948182,16.276567 62.1118485,16.4398936 C61.854899,16.5900221 61.6207172,16.7253027 61.4084899,16.8465603 C61.1946364,16.9702926 60.9515101,17.0321587 60.7051313,17.0280343 C60.5034747,17.0338085 60.3050707,16.9727672 60.1416313,16.8531594 C59.9936414,16.7426252 59.8667929,16.6056948 59.7700303,16.4464926 L59.217101,15.4236393 L59.2187273,15.4211646 Z M66.4686061,21.1705905 C65.6961313,21.1986365 64.9252828,21.2778251 64.1625657,21.4081565 C63.6462273,21.4906446 63.142899,21.641598 62.6639646,21.8535926 C62.344404,21.9896981 62.0655,22.2082918 61.8565253,22.4871018 C61.6971515,22.7197185 61.6125859,22.995229 61.6125859,23.2765137 C61.6125859,23.8374333 61.7768384,24.2383258 62.1061566,24.4791913 C62.4338485,24.7200568 62.8639949,24.8404895 63.3941566,24.8404895 C63.9755455,24.8569871 64.5520556,24.7332549 65.0773384,24.4857903 C65.6009949,24.2135793 66.0709848,23.8481567 66.4677929,23.4093196 L66.4677929,21.1722403 L66.4686061,21.1705905 Z M77.0807828,27.0396243 C75.9358939,27.0396243 75.0593384,26.7154457 74.4486768,26.064614 C73.8388283,25.4146072 73.5330909,24.516311 73.5322778,23.3705502 L73.5322778,15.9614622 L72.1841061,15.9614622 C72.0231061,15.9639368 71.8669848,15.9037204 71.7482677,15.7923614 C71.6206061,15.6579057 71.5547424,15.4747819 71.5693788,15.2891835 L71.5693788,14.0271144 L73.6786414,13.6724153 L74.3437828,10.0528341 C74.3779343,9.89610654 74.4641263,9.753402 74.5877222,9.65194154 C74.7210758,9.55295573 74.8845152,9.50346282 75.0495808,9.51171164 L76.6904798,9.51171164 L76.6904798,13.6913875 L80.2056465,13.6913875 L80.2056465,15.9614622 L76.6904798,15.9614622 L76.6904798,23.1461823 C76.6904798,23.5586232 76.7904949,23.8828018 76.9913384,24.1154184 C77.1978737,24.3521595 77.4987323,24.4824908 77.812601,24.4701176 C77.9784798,24.474242 78.1459848,24.4503204 78.3045455,24.3991777 C78.4248889,24.3579337 78.5419798,24.3084408 78.6558182,24.2490493 C78.7533939,24.1970817 78.8412121,24.1475888 78.9184596,24.1005705 C78.9883889,24.0543772 79.0688889,24.0304556 79.1526414,24.0296307 C79.2363939,24.0246814 79.3193333,24.0502528 79.3868232,24.1005705 C79.4600051,24.1624367 79.5250556,24.2342014 79.5795354,24.31339 L80.5276465,25.8641678 C80.0584697,26.2559866 79.5193636,26.5545938 78.9404141,26.7426668 C78.3411364,26.9406385 77.7125859,27.0420989 77.0824091,27.0396243 L77.0807828,27.0396243 Z M82.2742525,15.4211646 C83.7866768,14.0254647 85.6048384,13.3276147 87.7303636,13.3276147 C88.4377879,13.3152415 89.1370808,13.4447479 89.7940909,13.7070603 C90.3762929,13.946276 90.8999495,14.309224 91.3309091,14.7711578 C91.757803,15.2396906 92.0830556,15.7923614 92.2847121,16.3945251 C92.5091364,17.0602047 92.618096,17.7588795 92.6115909,18.4616788 L92.6115909,26.8375282 L91.1764141,26.8375282 C90.9381667,26.8507264 90.7007323,26.804533 90.4852525,26.7014228 C90.3226263,26.6106858 90.1941515,26.4267371 90.1006414,26.1512266 L89.819298,25.1943638 C89.5103081,25.4772982 89.1850556,25.7429101 88.8467929,25.9895498 C88.537803,26.2122679 88.2068586,26.4061151 87.8596515,26.5636675 C87.5083788,26.7220448 87.1408434,26.8408278 86.7643636,26.9183667 C86.3399091,27.0025046 85.9081364,27.0420989 85.4755505,27.0363248 C84.9551465,27.0420989 84.4347424,26.9653849 83.9387323,26.811132 C83.4898838,26.6725519 83.0768131,26.441585 82.7214747,26.1322543 C82.3758939,25.8237486 82.1034949,25.4393537 81.9278586,25.0079405 C81.7310808,24.5105368 81.6351313,23.9793129 81.6465152,23.4439647 C81.6465152,23.1041134 81.7034343,22.7659118 81.8132071,22.4433831 C81.9351768,22.0969327 82.1189444,21.7752288 82.3580051,21.4972437 C82.642601,21.167291 82.9719192,20.8802321 83.3378283,20.6451408 C83.7988737,20.3498332 84.2973232,20.1155667 84.8177273,19.9472909 C85.4844949,19.730347 86.1675253,19.5678452 86.8611263,19.4639101 C87.745,19.3286295 88.6361919,19.2527404 89.528197,19.2354179 L89.528197,18.460029 C89.528197,17.5724563 89.3411768,16.9158504 88.9655101,16.4885616 C88.5898434,16.0629226 88.0466717,15.8492782 87.3392475,15.8492782 C86.9066616,15.8377299 86.475702,15.8987712 86.0642576,16.0307522 C85.7552677,16.1379869 85.4568485,16.2740924 85.1730657,16.4374189 C84.9169293,16.5875474 84.6827475,16.7236529 84.4705202,16.8440857 C84.2558535,16.9661682 84.0135404,17.0288592 83.7671616,17.0255596 C83.5655051,17.0313338 83.367101,16.9694677 83.2036616,16.8498598 C83.0548586,16.7393257 82.9288232,16.6023953 82.8320606,16.4431931 L82.2766919,15.4228144 L82.2742525,15.4211646 Z M89.5273838,21.1730652 C88.7532828,21.2002863 87.9824343,21.27865 87.2205303,21.4089813 C86.7041919,21.4931193 86.2000505,21.6424229 85.7219293,21.8544175 C85.4015556,21.990523 85.1234646,22.2091167 84.9144899,22.4895765 C84.754303,22.7205434 84.6689242,22.995229 84.6705505,23.2773385 C84.6705505,23.8366084 84.8331768,24.2375009 85.1633081,24.4783664 C85.4918131,24.7200568 85.9219596,24.8413144 86.4521212,24.8413144 C87.0335101,24.8553374 87.6100202,24.7340797 88.1369293,24.4866152 C88.6589596,24.2119296 89.1289495,23.846507 89.5273838,23.4076699 L89.5273838,21.1722403 L89.5273838,21.1730652 Z M108.910808,22.4260606 C109.100268,22.4260606 109.280783,22.5060741 109.410071,22.6454791 L110.768,24.1319161 C110.026424,25.0640324 109.076687,25.8031265 107.995222,26.2906316 C106.900747,26.79051 105.583475,27.041274 104.043404,27.041274 C102.669212,27.041274 101.431626,26.8037081 100.333899,26.3318757 C99.268697,25.8798405 98.309202,25.2059121 97.5220909,24.3521595 C96.7276616,23.4777848 96.1202525,22.4491573 95.7372677,21.3273181 C95.312,20.0932949 95.101399,18.794931 95.1152222,17.4891432 C95.0989596,16.1726319 95.3250101,14.8643694 95.7819899,13.6311712 C96.1966869,12.5076822 96.8349949,11.4815293 97.6554444,10.6137537 C98.4710152,9.76412546 99.4524646,9.09184682 100.539621,8.64228626 C101.718662,8.16055531 102.982268,7.91886495 104.255631,7.93288794 C105.603803,7.93288794 106.800732,8.15808066 107.847232,8.60516658 C108.840879,9.01760746 109.748333,9.61647162 110.522434,10.3679389 L109.369414,11.9822325 C109.298672,12.0878174 109.21004,12.1802042 109.106773,12.2527937 C108.976672,12.3385815 108.822177,12.3798255 108.665242,12.3715767 C108.52701,12.3674523 108.388778,12.3303326 108.268434,12.2602177 C108.130202,12.1876281 107.981399,12.0968911 107.819586,11.9896565 C107.65696,11.8824218 107.469939,11.7644637 107.255273,11.6349573 C107.019465,11.4947274 106.769833,11.3759444 106.512884,11.2802581 C106.194136,11.1631249 105.866444,11.0723879 105.533061,11.0096969 C105.107793,10.9305083 104.67602,10.8942135 104.244247,10.8991628 C103.463641,10.890914 102.691167,11.0426922 101.973172,11.3470736 C101.293394,11.6374319 100.686798,12.0795686 100.198919,12.6380135 C99.6809545,13.2426519 99.2882121,13.9454511 99.045899,14.7059921 C98.7596768,15.6051132 98.6206313,16.5454785 98.6360808,17.4916178 C98.6198182,18.4443563 98.7694343,19.3929703 99.0776111,20.2945661 C99.3378131,21.0567568 99.7443788,21.7587312 100.27454,22.3625447 C100.770551,22.9135657 101.377146,23.3491033 102.055298,23.6411114 C102.751338,23.9405435 103.502672,24.0923217 104.258884,24.0865476 C104.684965,24.0890222 105.110232,24.0618011 105.533061,24.0081838 C105.890838,23.9619904 106.244551,23.8795022 106.586879,23.762369 C106.904,23.6518349 107.209737,23.5066557 107.497586,23.330131 C107.800071,23.1404082 108.08548,22.9209896 108.348121,22.6768246 C108.429434,22.6025853 108.518879,22.5398942 108.616455,22.4904013 C108.705899,22.4450328 108.806727,22.4219362 108.907556,22.4219362 L108.910808,22.4260606 Z M112.681298,15.4211646 C114.193722,14.0254647 116.011884,13.3276147 118.139035,13.3276147 C118.843207,13.3152415 119.544126,13.4447479 120.200323,13.7070603 C120.782525,13.946276 121.306182,14.309224 121.737141,14.7711578 C122.164848,15.2396906 122.490101,15.7923614 122.691758,16.3945251 C122.914556,17.0602047 123.025141,17.7588795 123.01701,18.4616788 L123.01701,26.8375282 L121.58346,26.8375282 C121.345212,26.8507264 121.107778,26.804533 120.892298,26.7014228 C120.729672,26.6106858 120.601197,26.4267371 120.507687,26.1512266 L120.226343,25.1943638 C119.917354,25.4772982 119.592101,25.7429101 119.253025,25.9895498 C118.944035,26.2122679 118.613904,26.4061151 118.266697,26.5636675 C117.915424,26.7220448 117.547889,26.8408278 117.171409,26.9183667 C116.746955,27.0025046 116.314369,27.0420989 115.881783,27.0363248 C115.361379,27.0420989 114.842601,26.9653849 114.344965,26.811132 C113.897742,26.6725519 113.483045,26.441585 113.12852,26.1322543 C112.781313,25.8237486 112.51054,25.4393537 112.334091,25.0079405 C112.138939,24.5105368 112.041364,23.9793129 112.053561,23.4439647 C112.053561,23.1041134 112.11048,22.7659118 112.220253,22.4433831 C112.340596,22.0969327 112.52599,21.7752288 112.765051,21.4972437 C113.049646,21.167291 113.378965,20.8802321 113.744061,20.6451408 C114.205919,20.3498332 114.703556,20.1155667 115.22396,19.9472909 C115.890727,19.730347 116.573758,19.5678452 117.268172,19.4639101 C118.150419,19.3294544 119.040798,19.2543902 119.932803,19.2378925 L119.932803,18.4625037 C119.932803,17.5749309 119.745783,16.918325 119.369303,16.4910363 C118.993636,16.0653973 118.450465,15.8517529 117.74304,15.8517529 C117.310455,15.8402045 116.879495,15.9012458 116.468051,16.0332269 C116.159061,16.1404615 115.860641,16.276567 115.576859,16.4398936 C115.320722,16.5900221 115.08654,16.7253027 114.874313,16.8465603 C114.659646,16.9702926 114.417333,17.0321587 114.170955,17.0280343 C113.967672,17.0338085 113.770081,16.9727672 113.606641,16.8531594 C113.457838,16.7426252 113.331803,16.6056948 113.23504,16.4464926 L112.679672,15.4236393 L112.681298,15.4211646 Z M119.931177,21.1705905 C119.158702,21.1986365 118.387854,21.2778251 117.625136,21.4081565 C117.108798,21.4931193 116.60547,21.6440726 116.126535,21.8568921 C115.806975,21.9929976 115.528071,22.2115913 115.319096,22.4920511 C115.160535,22.723018 115.075157,22.9977036 115.076783,23.2798132 C115.076783,23.8407328 115.241035,24.2408004 115.56954,24.4816659 C115.898859,24.7225314 116.328192,24.8429641 116.858354,24.8429641 C117.439742,24.857812 118.016253,24.7357295 118.541535,24.488265 C119.065192,24.2135793 119.535995,23.8481567 119.93199,23.4076699 L119.93199,21.1705905 L119.931177,21.1705905 Z M126.342717,26.8367034 L126.342717,13.5726046 L128.27797,13.5726046 C128.650384,13.5462084 128.98946,13.7903734 129.084596,14.1549711 L129.289505,15.1365804 C129.514742,14.8849915 129.757056,14.6474255 130.013192,14.4271821 C130.262823,14.2143626 130.533596,14.0287642 130.821444,13.8720367 C131.114172,13.7153091 131.423162,13.5915769 131.743535,13.5033145 C132.096434,13.4101029 132.460717,13.3630846 132.825,13.367209 C133.654394,13.367209 134.334985,13.5940515 134.868399,14.0460867 C135.421328,14.5269928 135.836025,15.1514283 136.066141,15.8492782 C136.256414,15.4302383 136.516616,15.0491429 136.835364,14.7175405 C137.131343,14.4123342 137.472859,14.1524965 137.846086,13.9504004 C138.215247,13.7499542 138.610429,13.6023003 139.016995,13.5090887 C139.427626,13.4150522 139.846389,13.3688588 140.267591,13.367209 C140.926227,13.3556607 141.583237,13.4694944 142.202843,13.7037608 C142.745202,13.9141056 143.232268,14.2506574 143.623384,14.6853701 C144.021818,15.1431795 144.322677,15.6810024 144.501566,16.262544 C144.711354,16.9521452 144.812995,17.6697923 144.802424,18.390739 L144.802424,26.8375282 L141.639343,26.8375282 L141.639343,18.3948634 C141.639343,17.5501844 141.454763,16.9150255 141.086414,16.4893865 C140.720505,16.0620977 140.182212,15.8492782 139.473975,15.8492782 C139.164985,15.8459787 138.858434,15.9028956 138.571399,16.0167292 C138.296561,16.1264385 138.048556,16.2914149 137.839581,16.5017597 C137.621662,16.7277773 137.453343,16.9991634 137.346823,17.2961209 C137.222414,17.6483454 137.162242,18.0203671 137.167934,18.3948634 L137.167934,26.8367034 L133.991843,26.8367034 L133.991843,18.3948634 C133.991843,17.5072906 133.814581,16.8605833 133.460056,16.4563912 C133.10553,16.0505494 132.586753,15.8476285 131.903722,15.8476285 C131.451621,15.8451538 131.006838,15.9631119 130.614909,16.1907793 C130.196146,16.4382438 129.821293,16.7541735 129.506611,17.1270201 L129.506611,26.8358785 L126.34353,26.8358785 L126.342717,26.8367034 Z M151.146475,15.3840449 C151.666879,14.7851808 152.287298,14.2828278 152.977646,13.897608 C153.660677,13.5181624 154.463237,13.3284396 155.386141,13.3284396 C156.067545,13.3201908 156.741631,13.4769183 157.352293,13.7821245 C157.958076,14.093105 158.484172,14.5410158 158.889111,15.0936865 C159.352596,15.7288455 159.690859,16.4489673 159.889263,17.2119829 C160.136455,18.1539979 160.255172,19.1257086 160.240535,20.1007189 C160.248667,21.0328353 160.115313,21.9616521 159.843727,22.8525244 C159.603854,23.6493602 159.219242,24.3950533 158.710222,25.0491846 C158.230475,25.6595971 157.623066,26.1570008 156.929465,26.5034511 C156.202525,26.8598001 155.400778,27.0396243 154.592525,27.0272511 C153.948525,27.0437487 153.307778,26.9282652 152.709313,26.6841002 C152.190535,26.4572578 151.717293,26.1372036 151.312354,25.7379609 L151.312354,31.1656829 L148.149273,31.1656829 L148.149273,13.5734295 L150.084525,13.5734295 C150.456126,13.5462084 150.795202,13.7903734 150.891152,14.1549711 L151.146475,15.3840449 L151.146475,15.3840449 Z M151.312354,23.3952966 C151.62297,23.7970141 152.024657,24.1162433 152.484889,24.3257633 C152.920727,24.5097119 153.389091,24.6020987 153.86152,24.5979743 C154.306303,24.6037484 154.746207,24.5105368 155.151146,24.3257633 C155.541449,24.1385151 155.879712,23.8539309 156.13097,23.4984069 C156.423697,23.0744176 156.635111,22.5992857 156.753015,22.0961079 C156.90751,21.4419766 156.980692,20.7713477 156.970934,20.099894 C156.982318,19.4375139 156.919707,18.7767836 156.78554,18.1284266 C156.691217,17.6615435 156.510702,17.2169322 156.253753,16.8168646 C156.045591,16.50011 155.755303,16.2460464 155.416227,16.08107 C155.063328,15.9193932 154.680343,15.8385548 154.294106,15.844329 C153.707025,15.8261816 153.126449,15.9713607 152.615803,16.2650187 C152.115727,16.5784737 151.672571,16.9785414 151.309101,17.4462493 L151.31398,23.3952966 L151.312354,23.3952966 Z"/>
          <path id="Combined-Shape" fill="#3AC" d="M16.8806061,36.2675766 C16.6878939,36.2675766 16.4984343,36.2180837 16.3276768,36.124872 L2.78741414,28.6101992 C2.45972222,28.4262505 2.2409899,28.0929983 2.2019596,27.7168522 L0.00650505051,6.80115016 C-0.0504141414,6.26497701 0.265080808,5.76179913 0.768409091,5.58444955 L16.3317424,0.0659905413 C16.5756818,-0.0197971624 16.8407626,-0.0197971624 17.084702,0.0659905413 L32.9871111,5.58032514 C33.4969444,5.76179913 33.8132525,6.27652535 33.7490152,6.81764779 L31.2242424,27.7349996 C31.1803333,28.1004222 30.9672929,28.422951 30.6501717,28.604425 L17.4449192,36.1190979 C17.2741616,36.2164339 17.0790101,36.2675766 16.8814192,36.2675766 L16.8806061,36.2675766 Z"/>
          <path id="Shape" fill="#FFF" d="M23.6108939,15.3881693 C23.9198838,14.1030035 23.8816667,12.8945518 23.1864394,11.2060188 C23.1864394,11.2060188 24.3061212,11.6432061 24.1898434,10.7737807 C24.0727525,9.90435536 22.8400455,8.98626195 21.9130758,8.40801984 C21.5040707,8.15230649 20.4006515,7.60540988 18.9207525,7.27298253 L19.1972172,6.64359774 L19.1207828,6.60565318 C16.8253131,5.47803981 14.1712525,6.50089319 14.1444192,6.51161666 L14.0631061,6.54296217 L14.3249343,7.24411167 C13.5492071,7.42558565 12.8011263,7.70604545 12.0969545,8.08219154 C5.85861111,11.4312115 9.02331818,17.9725239 10.9553182,19.5290758 C12.8889444,21.0856277 11.9977525,24.2572981 10.9553182,27.132011 L19.3338232,27.132011 C19.4509141,26.5941881 19.3500859,27.3959732 19.7403889,25.2512806 C20.1306919,23.1049383 21.6349848,23.901774 22.8221566,23.832484 C24.007702,23.762369 23.8198687,22.9267638 23.8060455,21.9929976 C24.3849949,21.7290355 24.3849949,21.4518752 23.9979444,21.1161483 C24.4996465,20.6434911 24.422399,20.6434911 24.1524394,20.190631 C23.8841061,19.736946 24.0751919,19.5191772 24.0751919,19.5191772 C24.0751919,19.5191772 24.8850707,19.3607999 25.0005354,18.9285619 C25.0379394,17.9964455 23.3010909,16.6716854 23.6100808,15.3898191 L23.6108939,15.3881693 Z"/>
          <path id="Shape" fill="#3AC" d="M21.8789242,15.118433 L20.6380859,14.692794 C20.5730354,14.8643694 19.9355404,16.4547415 19.1150909,16.7343764 L18.3328586,15.6892512 C17.9563788,15.9862086 17.096899,16.2476961 16.6838283,16.1264385 L16.6838283,16.0876691 L16.6618737,16.0876691 L16.6862677,18.9681562 C15.0388636,19.1389067 13.0710859,18.1333759 12.1294798,16.7492243 L11.1000556,17.5369863 C9.92914646,16.1099409 9.75025758,14.3900624 9.73887374,13.3993794 L11.1179444,13.3993794 C11.1179444,12.3039364 11.542399,10.876891 12.1392374,10.0891289 L13.220702,10.8612182 C13.3101465,10.7506841 14.1257172,9.76412546 15.2193788,9.4094263 L15.2356414,9.4094263 L14.4550354,7.32247543 C16.1056919,6.84404401 17.3172576,6.85064306 18.6369697,7.34722189 C18.6776263,7.35959511 18.7182828,7.37856739 18.7540606,7.40248896 L18.7743889,7.4189866 L18.5410202,8.04012257 C18.6028182,8.06734367 19.4785606,8.4641118 19.840404,8.83695836 L20.1331313,8.43029164 C21.2308586,9.10092052 22.0277273,10.1740917 22.3594848,11.4246125 L21.9122626,11.5862893 L21.9122626,11.5739161 C22.2253182,12.7369993 22.2131212,13.9635985 21.8797374,15.1192579 L21.8789242,15.118433 Z"/>
          <path id="Path" fill="#FFF" d="M16.6041414,11.3132534 C16.0455202,11.3132534 15.5421919,11.6514549 15.3275253,12.1711305 C15.1144848,12.690806 15.2323889,13.2896701 15.6267576,13.6889129 C16.0211263,14.0848561 16.613899,14.2052889 17.1294242,13.9899947 C17.6449495,13.7755255 17.9815859,13.2673983 17.9815859,12.7031792 C17.9815859,11.9360391 17.3636061,11.3140783 16.6033283,11.3132534 L16.6041414,11.3132534 Z"/>
        </g>
      </g>
    </g>
  </g>
</svg>
