<?xml version="1.0" encoding="UTF-8"?>
<svg width="85px" height="85px" viewBox="0 0 85 85" version="1.1" xmlns="http://www.w3.org/2000/svg" xmlns:xlink="http://www.w3.org/1999/xlink">
    <title>Logomark</title>
    <g id="Page-1" stroke="none" stroke-width="1" fill="none" fill-rule="evenodd">
        <g id="Logo" transform="translate(-303.000000, -1240.000000)">
            <g id="Group-7" transform="translate(279.000000, 1119.000000)">
                <g id="Group-4-Copy" transform="translate(0.000000, 97.000000)">
                    <g id="Logomark" transform="translate(24.000000, 24.000000)">
                        <rect id="Rectangle" fill="#03EF62" x="0" y="0" width="85" height="85"></rect>
                        <g id="datacamp/logomark" transform="translate(21.000000, 15.000000)" fill="#05192D">
                            <path d="M19.10987,14.4858388 L19.10987,27.4479721 L5.02880336,35.2929499 L5.02880336,6.5935721 L19.10987,14.4858388 Z M23.6659589,41.719261 L23.6659589,30.0364165 L42.5222552,19.5258388 L37.9355885,16.9597943 L23.6659589,24.9117943 L23.6659589,13.1891277 C23.6633784,12.39241 23.2277281,11.656992 22.5218404,11.2577499 L5.34477373,1.64068321 C5.29890706,1.61330544 5.2530404,1.59090544 5.20717373,1.56850544 C4.1867519,1.0833806 2.98238539,1.14624673 2.02071036,1.73483407 C1.05903534,2.3234214 0.475875772,3.35459971 0.477794197,4.46308321 L0.477794197,37.4159721 C0.47421216,38.525933 1.05692943,39.5592312 2.01933573,40.1494675 C2.98174203,40.7397038 4.18775111,40.8034176 5.20972188,40.3180165 L5.33967744,40.2533054 L19.0996774,32.580061 L19.0996774,43.0333943 C19.102405,43.832027 19.5402583,44.5688343 20.2488922,44.967261 L37.9075589,54.7535721 L42.4942256,52.1850388 L23.6659589,41.719261 Z" id="Logo"></path>
                        </g>
                    </g>
                </g>
            </g>
        </g>
    </g>
</svg>