<?xml version="1.0" encoding="UTF-8"?>
<svg width="159px" height="98px" viewBox="0 0 159 98" version="1.1" xmlns="http://www.w3.org/2000/svg" xmlns:xlink="http://www.w3.org/1999/xlink">
    <title>logo</title>
    <g id="Logos" stroke="none" stroke-width="1" fill="none" fill-rule="evenodd">
        <g id="Logo-+-Tagline-Regular" transform="translate(-32.000000, -32.000000)" fill="#05192D">
            <g id="Group" transform="translate(32.000000, 32.000000)">
                <path d="M115.191092,52 L115.191092,57.8694753 L120.958493,57.8694753 L120.958493,60.9862122 L115.191092,60.9862122 L115.191092,73.0436614 C115.191092,74.9050172 116.409323,75.5523554 117.992816,75.5523554 C119.060327,75.5135746 120.098247,75.1923542 121,74.6216775 L121,78.0300268 C120.470785,78.2368441 119.132184,79 117.627554,79 C114.255109,79 111.57583,76.813941 111.57583,73.1718882 L111.57583,60.9862122 L108,60.9862122 L108,57.8694753 L111.57583,57.8694753 L111.57583,52 L115.191092,52 Z M131.975191,57 C135.295614,57 137.795352,58.5007257 139.352978,60.9167876 L139.352978,57.2511853 L143,57.2511853 L143,78.7509434 L139.352978,78.7509434 L139.352978,75.0853411 C137.795352,77.501403 135.295614,79 131.975191,79 L131.933319,79 C126.975714,79 123,74.250895 123,68.0010643 C123,61.8278665 126.977808,57 131.933319,57 L131.975191,57 Z M94.9723734,57 C98.2896609,57 100.788614,58.5007257 102.345751,60.9167876 L102.345751,57.2511853 L106,57.2511853 L106,78.7509434 L102.345751,78.7509434 L102.345751,75.0853411 C100.788614,77.501403 98.2896609,79 94.9723734,79 L94.9305149,79 C89.9744663,79 86,74.250895 86,68.0010643 C86,61.8278665 89.9765592,57 94.9305149,57 L94.9723734,57 Z M84,49 L84,78.7525216 L80.3525963,78.7525216 L80.3525963,75.2817811 C78.6993506,77.6398847 76.0033524,79.0294354 73.1394472,78.9995268 C68.1876047,78.9995268 64,74.2072027 64,68.0911838 C64,61.9751648 68.1876047,57.1807295 73.1394472,57.1807295 C76.2131491,57.1807295 78.7131491,58.6690945 80.3525963,60.9808103 L80.3525963,49 L84,49 Z M74.2051926,60.8182513 C70.3609715,60.8182513 67.6474037,63.9997634 67.6474037,68.0911838 C67.6474037,72.1826041 70.3525963,75.4063393 74.2051926,75.4063393 C78.0577889,75.4063393 80.3525963,72.1826041 80.3525963,68.0911838 C80.3525963,63.9997634 78.0494137,60.8182513 74.2051926,60.8182513 Z M96.2009209,60.6251572 L96.1632482,60.6251572 C92.1092507,60.6251572 89.6500628,63.7500726 89.6500628,68.0010643 C89.6500628,72.335075 92.1490163,75.3769715 96.1632482,75.3769715 L96.2051067,75.3769715 C99.8509837,75.3769715 102.349937,72.1264635 102.349937,68.0010643 L102.345751,68.0010643 C102.345751,63.8756652 99.8467978,60.6251572 96.2009209,60.6251572 Z M133.204124,60.6251572 L133.164346,60.6251572 C129.106982,60.6251572 126.649115,63.7500726 126.649115,68.0010643 C126.649115,72.335075 129.148854,75.3769715 133.164346,75.3769715 L133.204124,75.3769715 C136.85324,75.3769715 139.352978,72.1264635 139.352978,68.0010643 C139.352978,63.8756652 136.85324,60.6251572 133.204124,60.6251572 Z M131.975191,33 C135.295614,33 137.795352,34.4900822 139.352978,36.9167876 L139.352978,33.2511853 L143,33.2511853 L143,54.7509434 L139.352978,54.7509434 L139.352978,51.0832124 C137.795352,53.501403 135.295614,55 131.975191,55 L131.933319,55 C126.975714,55 123,50.250895 123,44.0010643 C123,37.8278665 126.977808,33 131.933319,33 L131.975191,33 Z M151.540872,33.0004278 C155.861035,33.0430007 158.489101,36.6680875 158.489101,39.792942 L155.074251,39.792942 C155.066634,38.8508649 154.674224,37.9567433 153.995232,37.3343541 C153.317225,36.6947267 152.428751,36.3516848 151.514305,36.3764627 C149.433924,36.3764627 147.993188,37.5003886 147.993188,39.0415295 C147.993188,40.542226 148.873978,41.2915099 150.674387,41.7087248 L153.073569,42.2515299 C157.074932,43.1668484 159,45.4594018 159,48.5012391 C159,52.1199399 156.200272,55 151.561308,55 C146.560627,55 144,51.0002713 144,47.7498265 L147.359673,47.7498265 C147.372809,48.8376262 147.852638,49.8622125 148.667575,50.5426121 C149.467388,51.2607186 150.493295,51.6464769 151.549046,51.6260937 C154.027929,51.6260937 155.468665,50.2509874 155.468665,48.5416834 C155.468665,46.7919351 154.307902,46.0426512 151.708447,45.4168288 L149.46049,44.8761523 C146.899864,44.25033 144.459809,42.7091892 144.459809,39.0841024 C144.459809,35.7932133 147.300409,32.9599835 151.540872,33.0004278 Z M133.204124,36.6251572 L133.164346,36.6251572 C129.106982,36.6251572 126.649115,39.7500726 126.649115,44.0010643 C126.649115,48.3329463 129.148854,51.3748428 133.164346,51.3748428 L133.204124,51.3748428 C136.85324,51.3748428 139.352978,48.1264635 139.352978,44.0010643 C139.352978,39.8756652 136.85324,36.6251572 133.204124,36.6251572 Z M83.0611123,8 C88.8729252,8 91.7194438,12.8342525 92,15.3759071 L88.2319465,15.3759071 C87.8964178,14.310787 87.2527578,13.3792973 86.3888769,12.7086599 C85.6270748,12.084954 84.5048502,11.6251572 83.0631602,11.6251572 C79.2152404,11.6251572 76.5694115,14.9586841 76.5694115,19.0010643 C76.5694115,23.0434446 79.2541496,26.3769715 83.0631602,26.3769715 C84.3537407,26.3878615 85.6102983,25.9469773 86.6305238,25.1253024 C87.397655,24.4987155 87.9580796,23.6394045 88.2339944,22.6666667 L91.9201336,22.6666667 C91.5986204,25.0082245 88.592369,30 83.0611123,30 C77.368075,30 73,25.0848573 73,19.0010643 C73,12.9172714 77.368075,8 83.0611123,8 Z M111.087212,8 C116.845329,8 121,12.8768263 121,18.6668602 C121,19.2096759 120.960071,19.7503628 120.918041,20.208031 L104.73437,20.208031 C105.104235,23.8268021 107.365451,26.4599903 111.232216,26.4599903 L111.242724,26.4599903 C114.699695,26.4599903 116.467059,24.0843735 116.796995,22.958297 L120.62173,22.958297 C120.375854,24.7506531 117.702742,30 111.242724,30 C105.114742,30 101,25.2083212 101,19.0010643 C101,12.8768263 105.238731,8 111.087212,8 Z M131.975191,8 C135.295614,8 137.795352,9.49008224 139.352978,11.9167876 L139.352978,8.25118529 L143,8.25118529 L143,29.7509434 L139.352978,29.7509434 L139.352978,26.0853411 C137.795352,28.501403 135.295614,30 131.975191,30 L131.933319,30 C126.975714,30 123,25.250895 123,19.0010643 C123,12.8278665 126.977808,8 131.933319,8 L131.975191,8 Z M99,0 L99,29 L95,29 L95,0 L99,0 Z M153.968338,8 C154.646492,8.00488779 155.323934,8.04469072 155.997927,8.11924809 L156,8.11924809 L156,11.6144508 C155.715982,11.5342667 154.499058,11.4931467 154.051263,11.4931467 C151.13023,11.4931467 148.61553,13.304484 148.61553,17.3691991 L148.61553,29 L145,29 L145,8.23438418 L148.613456,8.23438418 L148.613456,11.1785784 C149.830381,9.28705698 151.615341,8 153.968338,8 Z M133.204124,11.6251572 L133.164346,11.6251572 C129.106982,11.6251572 126.649115,14.7500726 126.649115,19.0010643 C126.649115,23.335075 129.148854,26.3769715 133.164346,26.3769715 L133.204124,26.3769715 C136.85324,26.3769715 139.352978,23.1264635 139.352978,19.0010643 C139.352978,14.8756652 136.85324,11.6251572 133.204124,11.6251572 Z M111.078806,11.5421384 C107.705895,11.5421384 105.442576,13.9177552 104.826836,17.1682632 L117.28034,17.1682632 C116.752863,14.0007741 114.523169,11.5421384 111.078806,11.5421384 Z" id="Tag-Line"></path>
                <path d="M27.4731106,37.0444675 L27.4731106,56.6612891 L6.7097168,68.5352847 L6.7097168,25.1039742 L27.4731106,37.0444675 Z M34.1848875,78.2605733 L34.1848875,60.5784192 L62.0000063,44.6730006 L55.2384755,40.7870412 L34.1848875,52.825203 L34.1848875,35.0910976 C34.1832905,33.8849859 33.5401482,32.7712969 32.4976156,32.1693549 L7.17610031,17.5938902 C7.10977021,17.5564853 7.0413673,17.5211584 6.96881875,17.4858315 C5.46316335,16.7555189 3.68854022,16.8537115 2.27219745,17.7457027 C0.855854678,18.6376939 -0.00269263166,20.197832 6.34471347e-06,21.8746797 L6.34471347e-06,71.7479548 C-0.00236583898,73.4261492 0.858221832,74.9870689 2.27693683,75.8778021 C3.69565183,76.7685353 5.47213224,76.8632858 6.97711001,76.1284908 C7.0413673,76.09732 7.10562458,76.0619931 7.16780905,76.0266662 L27.4814019,64.4165834 L27.4814019,80.2222555 C27.4833366,81.432629 28.1309038,82.5495127 29.1790379,83.1502323 L55.2011648,98 L61.966835,94.1098845 L34.1848875,78.2605733 Z" id="Logo"></path>
            </g>
        </g>
    </g>
</svg>