<svg xmlns="http://www.w3.org/2000/svg" xmlns:xlink="http://www.w3.org/1999/xlink" width="162" height="36" viewBox="0 0 162 36">
  <defs>
    <path id="path-1" d="M23.7575455,15.2631818 C24.0684545,13.9884545 24.03,12.7898182 23.3304545,11.115 C23.3304545,11.115 24.4570909,11.5486364 24.3400909,10.6862727 C24.2222727,9.82390909 22.9819091,8.91327273 22.0491818,8.33972727 C21.6376364,8.08609091 20.5273636,7.54363636 19.0382727,7.21390909 L19.3164545,6.58963636 L19.2395455,6.552 C16.9298182,5.43354545 14.2592727,6.44809091 14.2322727,6.45872727 L14.1504545,6.48981818 L14.4139091,7.18527273 C13.6333636,7.36527273 12.8806364,7.64345455 12.1720909,8.01654545 C5.895,11.3383636 9.07936364,17.8265455 11.0233636,19.3704545 C12.969,20.9143636 12.0722727,24.0602727 11.0233636,26.9116364 L19.4539091,26.9116364 C19.5717273,26.3781818 19.4702727,27.1734545 19.863,25.0461818 C20.2557273,22.9172727 21.7693636,23.7076364 22.9639091,23.6389091 C24.1568182,23.5693636 23.9678182,22.7405455 23.9539091,21.8143636 C24.5364545,21.5525455 24.5364545,21.2776364 24.147,20.9446364 C24.6518182,20.4758182 24.5740909,20.4758182 24.3024545,20.0266364 C24.0324545,19.5766364 24.2247273,19.3606364 24.2247273,19.3606364 C24.2247273,19.3606364 25.0396364,19.2035455 25.1558182,18.7748182 C25.1934545,17.8502727 23.4458182,16.5362727 23.7567273,15.2648182 L23.7575455,15.2631818 Z M16.9854545,35.973 C16.7915455,35.973 16.6009091,35.9239091 16.4290909,35.8314545 L2.80472727,28.3778182 C2.475,28.1953636 2.25490909,27.8648182 2.21563636,27.4917273 L0.00654545455,6.74590909 C-0.0507272727,6.21409091 0.266727273,5.715 0.773181818,5.53909091 L16.4331818,0.0654545455 C16.6786364,-0.0196363636 16.9453636,-0.0196363636 17.1908182,0.0654545455 L33.192,5.535 C33.705,5.715 34.0232727,6.22554545 33.9586364,6.76227273 L31.4181818,27.5097273 C31.374,27.8721818 31.1596364,28.1920909 30.8405455,28.3720909 L17.5532727,35.8257273 C17.3814545,35.9222727 17.1850909,35.973 16.9862727,35.973 L16.9854545,35.973 Z M22.0148182,14.9956364 L20.7662727,14.5734545 C20.7008182,14.7436364 20.0593636,16.3210909 19.2338182,16.5984545 L18.4467273,15.5618182 C18.0679091,15.8563636 17.2030909,16.1157273 16.7874545,15.9954545 L16.7874545,15.957 L16.7653636,15.957 L16.7899091,18.8140909 C15.1322727,18.9834545 13.1522727,17.9860909 12.2048182,16.6131818 L11.169,17.3945455 C9.99081818,15.9790909 9.81081818,14.2731818 9.79936364,13.2905455 L11.187,13.2905455 C11.187,12.204 11.6140909,10.7885455 12.2146364,10.0071818 L13.3028182,10.773 C13.3928182,10.6633636 14.2134545,9.68481818 15.3139091,9.333 L15.3302727,9.333 L14.5448182,7.263 C16.2057273,6.78845455 17.4248182,6.795 18.7527273,7.28754545 C18.7936364,7.29981818 18.8345455,7.31863636 18.8705455,7.34236364 L18.891,7.35872727 L18.6561818,7.97481818 C18.7183636,8.00181818 19.5995455,8.39536364 19.9636364,8.76518182 L20.2581818,8.36181818 C21.3627273,9.027 22.1645455,10.0914545 22.4983636,11.3318182 L22.0483636,11.4921818 L22.0483636,11.4799091 C22.3633636,12.6335455 22.3510909,13.8501818 22.0156364,14.9964545 L22.0148182,14.9956364 Z M4.01727273,26.9427273 L16.9854545,34.0363636 L29.628,26.9451818 L32.058,7.09445455 L16.8185455,1.87690909 L1.90309091,7.09363636 L4.01727273,26.9427273 Z M16.7072727,11.2213636 C16.1451818,11.2213636 15.6387273,11.5568182 15.4227273,12.0722727 C15.2083636,12.5877273 15.327,13.1817273 15.7238182,13.5777273 C16.1206364,13.9704545 16.7170909,14.0899091 17.2358182,13.8763636 C17.7545455,13.6636364 18.0932727,13.1596364 18.0932727,12.6 C18.0932727,11.8390909 17.4714545,11.2221818 16.7064545,11.2213636 L16.7072727,11.2213636 Z M57.312,17.3470909 C57.3267273,18.6267273 57.0951818,19.8973636 56.6296364,21.0902727 C55.7656364,23.3255455 53.9836364,25.0879091 51.7311818,25.9355455 C50.4973636,26.4019091 49.1866364,26.6342727 47.8652727,26.6179091 L40.7634545,26.6179091 L40.7634545,8.07872727 L47.8636364,8.07872727 C49.185,8.06236364 50.4965455,8.29472727 51.7303636,8.766 C52.8430909,9.19145455 53.8576364,9.84027273 54.7101818,10.6707273 C55.5471818,11.5052727 56.2009091,12.5034545 56.6304545,13.6022727 C57.0968182,14.7968182 57.3275455,16.0666364 57.312,17.3470909 Z M53.7545455,17.3470909 C53.7684545,16.4184545 53.6318182,15.4947273 53.3495455,14.6102727 C53.1065455,13.8518182 52.7072727,13.1539091 52.1762727,12.5590909 C51.6624545,11.997 51.0283636,11.556 50.3206364,11.2688182 C49.5400909,10.9595455 48.7063636,10.8073636 47.8660909,10.8188182 L44.244,10.8188182 L44.244,23.8712727 L47.8660909,23.8712727 C48.7063636,23.8843636 49.5400909,23.7321818 50.3206364,23.4212727 C51.0283636,23.1349091 51.6624545,22.6947273 52.1779091,22.1326364 C52.7080909,21.5386364 53.1081818,20.8399091 53.3503636,20.0822727 C53.6318182,19.1986364 53.7692727,18.2740909 53.7553636,17.3479091 L53.7545455,17.3470909 Z M59.5865455,15.2959091 C61.1083636,13.9115455 62.9378182,13.2193636 65.0765455,13.2193636 C65.7883636,13.2070909 66.492,13.3355455 67.1530909,13.5957273 C67.7389091,13.833 68.2658182,14.193 68.6994545,14.6511818 C69.1298182,15.1159091 69.4562727,15.6640909 69.6591818,16.2613636 C69.8841818,16.9216364 69.9946364,17.6146364 69.9880909,18.3117273 L69.9880909,26.6195455 L68.5431818,26.6195455 C68.3034545,26.6326364 68.0645455,26.5868182 67.8477273,26.4845455 C67.6840909,26.3945455 67.5556364,26.2120909 67.4607273,25.9388182 L67.1776364,24.9897273 C66.8667273,25.2703636 66.5394545,25.5338182 66.1982727,25.7784545 C65.8873636,25.9993636 65.5543636,26.1916364 65.205,26.3479091 C64.8515455,26.505 64.4817273,26.6228182 64.1029091,26.6997273 C63.675,26.7831818 63.2405455,26.8224545 62.8052727,26.8167273 C62.2816364,26.8224545 61.758,26.7463636 61.2589091,26.5933636 C60.8072727,26.4559091 60.3916364,26.2268182 60.0340909,25.92 C59.6855455,25.614 59.4122727,25.2327273 59.2347273,24.8048182 C59.0367273,24.3114545 58.9401818,23.7845455 58.9516364,23.2535455 C58.9516364,22.9164545 59.0089091,22.581 59.1193636,22.2610909 C59.2404545,21.9174545 59.4261818,21.5983636 59.6675455,21.3226364 C59.9539091,20.9953636 60.2844545,20.7106364 60.6526364,20.4774545 C61.1165455,20.1845455 61.6180909,19.9513636 62.1417273,19.7852727 C62.8126364,19.5700909 63.4999091,19.4089091 64.1978182,19.3058182 C65.0855455,19.1724545 65.9814545,19.098 66.879,19.0816364 L66.879,18.3125455 C66.879,17.4321818 66.6908182,16.7809091 66.312,16.3570909 C65.9356364,15.9349091 65.3890909,15.723 64.6756364,15.723 C64.242,15.7115455 63.8083636,15.7720909 63.3935455,15.903 C63.0826364,16.0093636 62.7823636,16.1443636 62.4976364,16.3063636 C62.2390909,16.4552727 62.0034545,16.5894545 61.7899091,16.7097273 C61.5747273,16.8324545 61.3300909,16.8938182 61.0821818,16.8897273 C60.8792727,16.8954545 60.6796364,16.8349091 60.5151818,16.7162727 C60.3662727,16.6066364 60.2386364,16.4708182 60.1412727,16.3129091 L59.5849091,15.2983636 L59.5865455,15.2959091 Z M66.8814545,20.9986364 C66.1041818,21.0264545 65.3285455,21.105 64.5610909,21.2342727 C64.0415455,21.3160909 63.5350909,21.4658182 63.0531818,21.6760909 C62.7316364,21.8110909 62.451,22.0279091 62.2407273,22.3044545 C62.0803636,22.5351818 61.9952727,22.8084545 61.9952727,23.0874545 C61.9952727,23.6438182 62.1605455,24.0414545 62.4919091,24.2803636 C62.8216364,24.5192727 63.2544545,24.6387273 63.7879091,24.6387273 C64.3729091,24.6550909 64.953,24.5323636 65.4815455,24.2869091 C66.0084545,24.0169091 66.4813636,23.6544545 66.8806364,23.2191818 L66.8806364,21.0002727 L66.8814545,20.9986364 Z M77.5595455,26.82 C76.4075455,26.82 75.5255455,26.4984545 74.9110909,25.8529091 C74.2974545,25.2081818 73.9898182,24.3171818 73.989,23.1807273 L73.989,15.8318182 L72.6324545,15.8318182 C72.4704545,15.8342727 72.3133636,15.7745455 72.1939091,15.6640909 C72.0654545,15.5307273 71.9991818,15.3490909 72.0139091,15.165 L72.0139091,13.9131818 L74.1362727,13.5613636 L74.8055455,9.97118182 C74.8399091,9.81572727 74.9266364,9.67418182 75.051,9.57354545 C75.1851818,9.47536364 75.3496364,9.42627273 75.5157273,9.43445455 L77.1668182,9.43445455 L77.1668182,13.5801818 L80.7038182,13.5801818 L80.7038182,15.8318182 L77.1668182,15.8318182 L77.1668182,22.9581818 C77.1668182,23.3672727 77.2674545,23.6888182 77.4695455,23.9195455 C77.6773636,24.1543636 77.9800909,24.2836364 78.2959091,24.2713636 C78.4628182,24.2754545 78.6313636,24.2517273 78.7909091,24.201 C78.912,24.1600909 79.0298182,24.111 79.1443636,24.0520909 C79.2425455,24.0005455 79.3309091,23.9514545 79.4086364,23.9048182 C79.479,23.859 79.56,23.8352727 79.6442727,23.8344545 C79.7285455,23.8295455 79.812,23.8549091 79.8799091,23.9048182 C79.9535455,23.9661818 80.019,24.0373636 80.0738182,24.1159091 L81.0278182,25.6540909 C80.5557273,26.0427273 80.0132727,26.3389091 79.4307273,26.5254545 C78.8277273,26.7218182 78.1952727,26.8224545 77.5611818,26.82 L77.5595455,26.82 Z M82.7852727,15.2959091 C84.3070909,13.9115455 86.1365455,13.2193636 88.2752727,13.2193636 C88.9870909,13.2070909 89.6907273,13.3355455 90.3518182,13.5957273 C90.9376364,13.833 91.4645455,14.193 91.8981818,14.6511818 C92.3277273,15.1159091 92.655,15.6640909 92.8579091,16.2613636 C93.0837273,16.9216364 93.1933636,17.6146364 93.1868182,18.3117273 L93.1868182,26.6195455 L91.7427273,26.6195455 C91.503,26.6326364 91.2640909,26.5868182 91.0472727,26.4845455 C90.8836364,26.3945455 90.7543636,26.2120909 90.6602727,25.9388182 L90.3771818,24.9897273 C90.0662727,25.2703636 89.739,25.5338182 89.3986364,25.7784545 C89.0877273,25.9993636 88.7547273,26.1916364 88.4053636,26.3479091 C88.0519091,26.505 87.6820909,26.6228182 87.3032727,26.6997273 C86.8761818,26.7831818 86.4417273,26.8224545 86.0064545,26.8167273 C85.4828182,26.8224545 84.9591818,26.7463636 84.4600909,26.5933636 C84.0084545,26.4559091 83.5928182,26.2268182 83.2352727,25.92 C82.8875455,25.614 82.6134545,25.2327273 82.4367273,24.8048182 C82.2387273,24.3114545 82.1421818,23.7845455 82.1536364,23.2535455 C82.1536364,22.9164545 82.2109091,22.581 82.3213636,22.2610909 C82.4440909,21.9174545 82.629,21.5983636 82.8695455,21.3226364 C83.1559091,20.9953636 83.4872727,20.7106364 83.8554545,20.4774545 C84.3193636,20.1845455 84.8209091,19.9521818 85.3445455,19.7852727 C86.0154545,19.5700909 86.7027273,19.4089091 87.4006364,19.3058182 C88.29,19.1716364 89.1867273,19.0963636 90.0842727,19.0791818 L90.0842727,18.3100909 C90.0842727,17.4297273 89.8960909,16.7784545 89.5180909,16.3546364 C89.1400909,15.9324545 88.5935455,15.7205455 87.8817273,15.7205455 C87.4464545,15.7090909 87.0128182,15.7696364 86.5988182,15.9005455 C86.2879091,16.0069091 85.9876364,16.1419091 85.7020909,16.3039091 C85.4443636,16.4528182 85.2087273,16.5878182 84.9951818,16.7072727 C84.7791818,16.8283636 84.5353636,16.8905455 84.2874545,16.8872727 C84.0845455,16.893 83.8849091,16.8316364 83.7204545,16.713 C83.5707273,16.6033636 83.4439091,16.4675455 83.3465455,16.3096364 L82.7877273,15.2975455 L82.7852727,15.2959091 Z M90.0834545,21.0010909 C89.3045455,21.0280909 88.5289091,21.1058182 87.7622727,21.2350909 C87.2427273,21.3185455 86.7354545,21.4666364 86.2543636,21.6769091 C85.932,21.8119091 85.6521818,22.0287273 85.4419091,22.3069091 C85.2807273,22.536 85.1948182,22.8084545 85.1964545,23.0882727 C85.1964545,23.643 85.3600909,24.0406364 85.6922727,24.2795455 C86.0228182,24.5192727 86.4556364,24.6395455 86.9890909,24.6395455 C87.5740909,24.6534545 88.1541818,24.5331818 88.6843636,24.2877273 C89.2096364,24.0152727 89.6825455,23.6528182 90.0834545,23.2175455 L90.0834545,21.0002727 L90.0834545,21.0010909 Z M109.587273,22.2439091 C109.777909,22.2439091 109.959545,22.3232727 110.089636,22.4615455 L111.456,23.9359091 C110.709818,24.8604545 109.754182,25.5935455 108.666,26.0770909 C107.564727,26.5729091 106.239273,26.8216364 104.689636,26.8216364 C103.306909,26.8216364 102.061636,26.586 100.957091,26.118 C99.8852727,25.6696364 98.9198182,25.0011818 98.1278182,24.1543636 C97.3284545,23.2870909 96.7172727,22.2668182 96.3319091,21.1540909 C95.904,19.9300909 95.6920909,18.6422727 95.706,17.3470909 C95.6896364,16.0412727 95.9170909,14.7436364 96.3769091,13.5204545 C96.7941818,12.4060909 97.4364545,11.3882727 98.262,10.5275455 C99.0826364,9.68481818 100.070182,9.018 101.164091,8.57209091 C102.350455,8.09427273 103.621909,7.85454545 104.903182,7.86845455 C106.259727,7.86845455 107.464091,8.09181818 108.517091,8.53527273 C109.516909,8.94436364 110.43,9.53836364 111.208909,10.2837273 L110.048727,11.8849091 C109.977545,11.9896364 109.888364,12.0812727 109.784455,12.1532727 C109.653545,12.2383636 109.498091,12.2792727 109.340182,12.2710909 C109.201091,12.267 109.062,12.2301818 108.940909,12.1606364 C108.801818,12.0886364 108.652091,11.9986364 108.489273,11.8922727 C108.325636,11.7859091 108.137455,11.6689091 107.921455,11.5404545 C107.684182,11.4013636 107.433,11.2835455 107.174455,11.1886364 C106.853727,11.0724545 106.524,10.9824545 106.188545,10.9202727 C105.760636,10.8417273 105.326182,10.8057273 104.891727,10.8106364 C104.106273,10.8024545 103.329,10.953 102.606545,11.2549091 C101.922545,11.5429091 101.312182,11.9814545 100.821273,12.5353636 C100.300091,13.1350909 99.9049091,13.8321818 99.6610909,14.5865455 C99.3730909,15.4783636 99.2331818,16.4110909 99.2487273,17.3495455 C99.2323636,18.2945455 99.3829091,19.2354545 99.693,20.1297273 C99.9548182,20.8857273 100.363909,21.582 100.897364,22.1809091 C101.396455,22.7274545 102.006818,23.1594545 102.689182,23.4490909 C103.389545,23.7460909 104.145545,23.8966364 104.906455,23.8909091 C105.335182,23.8933636 105.763091,23.8663636 106.188545,23.8131818 C106.548545,23.7673636 106.904455,23.6855455 107.248909,23.5693636 C107.568,23.4597273 107.875636,23.3157273 108.165273,23.1406364 C108.469636,22.9524545 108.756818,22.7348182 109.021091,22.4926364 C109.102909,22.419 109.192909,22.3568182 109.291091,22.3077273 C109.381091,22.2627273 109.482545,22.2398182 109.584,22.2398182 L109.587273,22.2439091 Z M113.381182,15.2959091 C114.903,13.9115455 116.732455,13.2193636 118.872818,13.2193636 C119.581364,13.2070909 120.286636,13.3355455 120.946909,13.5957273 C121.532727,13.833 122.059636,14.193 122.493273,14.6511818 C122.923636,15.1159091 123.250909,15.6640909 123.453818,16.2613636 C123.678,16.9216364 123.789273,17.6146364 123.781091,18.3117273 L123.781091,26.6195455 L122.338636,26.6195455 C122.098909,26.6326364 121.86,26.5868182 121.643182,26.4845455 C121.479545,26.3945455 121.350273,26.2120909 121.256182,25.9388182 L120.973091,24.9897273 C120.662182,25.2703636 120.334909,25.5338182 119.993727,25.7784545 C119.682818,25.9993636 119.350636,26.1916364 119.001273,26.3479091 C118.647818,26.505 118.278,26.6228182 117.899182,26.6997273 C117.472091,26.7831818 117.036818,26.8224545 116.601545,26.8167273 C116.077909,26.8224545 115.555909,26.7463636 115.055182,26.5933636 C114.605182,26.4559091 114.187909,26.2268182 113.831182,25.92 C113.481818,25.614 113.209364,25.2327273 113.031818,24.8048182 C112.835455,24.3114545 112.737273,23.7845455 112.749545,23.2535455 C112.749545,22.9164545 112.806818,22.581 112.917273,22.2610909 C113.038364,21.9174545 113.224909,21.5983636 113.465455,21.3226364 C113.751818,20.9953636 114.083182,20.7106364 114.450545,20.4774545 C114.915273,20.1845455 115.416,19.9521818 115.939636,19.7852727 C116.610545,19.5700909 117.297818,19.4089091 117.996545,19.3058182 C118.884273,19.1724545 119.780182,19.098 120.677727,19.0816364 L120.677727,18.3125455 C120.677727,17.4321818 120.489545,16.7809091 120.110727,16.3570909 C119.732727,15.9349091 119.186182,15.723 118.474364,15.723 C118.039091,15.7115455 117.605455,15.7720909 117.191455,15.903 C116.880545,16.0093636 116.580273,16.1443636 116.294727,16.3063636 C116.037,16.4552727 115.801364,16.5894545 115.587818,16.7097273 C115.371818,16.8324545 115.128,16.8938182 114.880091,16.8897273 C114.675545,16.8954545 114.476727,16.8349091 114.312273,16.7162727 C114.162545,16.6066364 114.035727,16.4708182 113.938364,16.3129091 L113.379545,15.2983636 L113.381182,15.2959091 Z M120.676091,20.9986364 C119.898818,21.0264545 119.123182,21.105 118.355727,21.2342727 C117.836182,21.3185455 117.329727,21.4682727 116.847818,21.6793636 C116.526273,21.8143636 116.245636,22.0311818 116.035364,22.3093636 C115.875818,22.5384545 115.789909,22.8109091 115.791545,23.0907273 C115.791545,23.6470909 115.956818,24.0439091 116.287364,24.2828182 C116.618727,24.5217273 117.050727,24.6411818 117.584182,24.6411818 C118.169182,24.6559091 118.749273,24.5348182 119.277818,24.2893636 C119.804727,24.0169091 120.278455,23.6544545 120.676909,23.2175455 L120.676909,20.9986364 L120.676091,20.9986364 Z M127.127455,26.6187273 L127.127455,13.4623636 L129.074727,13.4623636 C129.449455,13.4361818 129.790636,13.6783636 129.886364,14.04 L130.092545,15.0136364 C130.319182,14.7640909 130.563,14.5284545 130.820727,14.31 C131.071909,14.0989091 131.344364,13.9148182 131.634,13.7593636 C131.928545,13.6039091 132.239455,13.4811818 132.561818,13.3936364 C132.916909,13.3011818 133.283455,13.2545455 133.65,13.2586364 C134.484545,13.2586364 135.169364,13.4836364 135.706091,13.932 C136.262455,14.409 136.679727,15.0283636 136.911273,15.7205455 C137.102727,15.3049091 137.364545,14.9269091 137.685273,14.598 C137.983091,14.2952727 138.326727,14.0375455 138.702273,13.8370909 C139.073727,13.6382727 139.471364,13.4918182 139.880455,13.3993636 C140.293636,13.3060909 140.715,13.2602727 141.138818,13.2586364 C141.801545,13.2471818 142.462636,13.3600909 143.086091,13.5924545 C143.631818,13.8010909 144.121909,14.1349091 144.515455,14.5660909 C144.916364,15.0201818 145.219091,15.5536364 145.399091,16.1304545 C145.610182,16.8144545 145.712455,17.5262727 145.701818,18.2413636 L145.701818,26.6195455 L142.519091,26.6195455 L142.519091,18.2454545 C142.519091,17.4076364 142.333364,16.7776364 141.962727,16.3554545 C141.594545,15.9316364 141.052909,15.7205455 140.340273,15.7205455 C140.029364,15.7172727 139.720909,15.7737273 139.432091,15.8866364 C139.155545,15.9954545 138.906,16.1590909 138.695727,16.3677273 C138.476455,16.5919091 138.307091,16.8610909 138.199909,17.1556364 C138.074727,17.505 138.014182,17.874 138.019909,18.2454545 L138.019909,26.6187273 L134.824091,26.6187273 L134.824091,18.2454545 C134.824091,17.3650909 134.645727,16.7236364 134.289,16.3227273 C133.932273,15.9201818 133.410273,15.7189091 132.723,15.7189091 C132.268091,15.7164545 131.820545,15.8334545 131.426182,16.0592727 C131.004818,16.3047273 130.627636,16.6180909 130.311,16.9879091 L130.311,26.6179091 L127.128273,26.6179091 L127.127455,26.6187273 Z M152.085273,15.2590909 C152.608909,14.6650909 153.233182,14.1668182 153.927818,13.7847273 C154.615091,13.4083636 155.422636,13.2201818 156.351273,13.2201818 C157.036909,13.212 157.715182,13.3674545 158.329636,13.6701818 C158.939182,13.9786364 159.468545,14.4229091 159.876,14.9710909 C160.342364,15.6010909 160.682727,16.3153636 160.882364,17.0721818 C161.131091,18.0065455 161.250545,18.9703636 161.235818,19.9374545 C161.244,20.862 161.109818,21.7832727 160.836545,22.6669091 C160.595182,23.4572727 160.208182,24.1969091 159.696,24.8457273 C159.213273,25.4511818 158.602091,25.9445455 157.904182,26.2881818 C157.172727,26.6416364 156.366,26.82 155.552727,26.8077273 C154.904727,26.8240909 154.26,26.7095455 153.657818,26.4673636 C153.135818,26.2423636 152.659636,25.9249091 152.252182,25.5289091 L152.252182,30.9125455 L149.069455,30.9125455 L149.069455,13.4631818 L151.016727,13.4631818 C151.390636,13.4361818 151.731818,13.6783636 151.828364,14.04 L152.085273,15.2590909 Z M152.252182,23.2052727 C152.564727,23.6037273 152.968909,23.9203636 153.432,24.1281818 C153.870545,24.3106364 154.341818,24.4022727 154.817182,24.3981818 C155.264727,24.4039091 155.707364,24.3114545 156.114818,24.1281818 C156.507545,23.9424545 156.847909,23.6601818 157.100727,23.3075455 C157.395273,22.887 157.608,22.4157273 157.726636,21.9166364 C157.882091,21.2678182 157.955727,20.6026364 157.945909,19.9366364 C157.957364,19.2796364 157.894364,18.6242727 157.759364,17.9811818 C157.664455,17.5180909 157.482818,17.0770909 157.224273,16.6802727 C157.014818,16.3660909 156.722727,16.1140909 156.381545,15.9504545 C156.026455,15.7900909 155.641091,15.7099091 155.252455,15.7156364 C154.661727,15.6976364 154.077545,15.8416364 153.563727,16.1329091 C153.060545,16.4438182 152.614636,16.8406364 152.248909,17.3045455 L152.253818,23.2052727 L152.252182,23.2052727 Z"/>
  </defs>
  <g id="Symbols" fill="none" fill-rule="evenodd" stroke="none" stroke-width="1">
    <g id="datacamp/single-color">
      <g id="logo">
        <mask id="mask-2" fill="#fff">
          <use xlink:href="#path-1"/>
        </mask>
        <use id="Logo" fill="#859094" xlink:href="#path-1"/>
      </g>
    </g>
  </g>
</svg>
