<svg xmlns="http://www.w3.org/2000/svg" width="45" height="45" viewBox="0 0 45 45"><defs><linearGradient id="a" x1="6.464%" x2="95.497%" y1="102.377%" y2="10.4%"><stop offset="0%" stop-color="#37BBAB"/><stop offset="100%" stop-color="#75C97E"/></linearGradient><linearGradient id="b" x1="69.998%" x2="-16.184%" y1="24.089%" y2="115.035%"><stop offset="0%" stop-color="#405F8F"/><stop offset="100%" stop-color="#1C3050"/></linearGradient></defs><g fill="none"><rect width="33.886" height="4.5" y="31.909" fill="url(#a)" rx="2.25"/><rect width="44.7" height="4.5" y="40.091" fill="url(#a)" rx="2.25"/><path fill="url(#b)" d="M4.81 25.56l2.652.327c.087.328.087.731 0 1.211A74.963 74.963 0 0 0 3.992 27c-.523 0-1.701.022-3.534.065a1.816 1.816 0 0 1 0-1.178l2.16-.392c.35-.524.786-1.495 1.31-2.913L12.37 0h1.145l9.491 25.56 2.651.327c.087.328.087.731 0 1.211A97.82 97.82 0 0 0 21.044 27c-1.266 0-2.815.022-4.648.065a1.816 1.816 0 0 1 0-1.178l2.717-.392-2.88-8.084h-8.51L4.812 25.56zm7.266-20.618h-.032c-.262 1.025-.688 2.367-1.277 4.025l-2.454 6.808h7.33l-2.388-6.808a44.528 44.528 0 0 1-1.179-4.025z"/></g></svg>