<svg xmlns="http://www.w3.org/2000/svg" width="18" height="18" viewBox="0 0 18 18">
  <title>Apple</title>
  <g fill="none" fill-rule="evenodd" stroke="none" stroke-width="1">
    <path fill="#3AC" d="M2.4096895,6.61712216 C3.2096895,5.22512216 4.6606895,4.34712216 6.1966895,4.32412216 L6.2436895,4.32412216 C6.9036895,4.32412216 7.5276895,4.57112216 8.0786895,4.78912216 C8.4906895,4.95312216 8.8456895,5.09412216 9.1196895,5.09412216 C9.3636895,5.09412216 9.7176895,4.95412216 10.1266895,4.79312216 C10.7196895,4.55912216 11.4576895,4.26812216 12.2286895,4.26812216 C12.3276895,4.26812216 12.4256895,4.27312216 12.5206895,4.28212216 C13.1766895,4.31112216 14.8056895,4.54512216 15.8696895,6.10112216 C15.8922124,6.13394797 15.9004586,6.17450512 15.8925426,6.21351988 C15.8846265,6.25253464 15.8612252,6.28667055 15.8276895,6.30812216 L15.8126895,6.31712216 C15.5036895,6.50812216 13.9636895,7.56212216 13.9836895,9.55312216 C14.0046895,12.0041222 16.0316895,12.9031222 16.2626895,12.9981222 L16.2726895,13.0021222 C16.3426895,13.0341222 16.3756895,13.1121222 16.3526895,13.1831222 L16.3466895,13.1991222 C16.0564745,14.0999148 15.6389132,14.9545685 15.1066895,15.7371222 C14.3966895,16.7751222 13.5916895,17.9521222 12.2796895,17.9771222 C11.6656895,17.9881222 11.2506895,17.8071222 10.8476895,17.6331222 C10.4386895,17.4561222 10.0166895,17.2731222 9.3536895,17.2731222 C8.6576895,17.2731222 8.2136895,17.4631222 7.7836895,17.6461222 C7.4016895,17.8081222 7.0066895,17.9761222 6.4586895,17.9991222 L6.3926895,18.0001222 C5.2276895,18.0001222 4.3776895,16.9101222 3.5376895,15.6951222 C1.8546895,13.2651222 0.887689502,9.25812216 2.4086895,6.61712216 L2.4096895,6.61712216 Z M12.5206895,0.000122159067 C12.5981208,-0.00300155808 12.6648511,0.0541335743 12.6736895,0.131122159 C12.7816895,1.11512216 12.4246895,2.21312216 11.7196895,3.06912216 C11.0496895,3.87912216 10.0686895,4.38212216 9.1586895,4.38212216 C9.0946895,4.38212216 9.0306895,4.38012216 8.9686895,4.37512216 C8.89859436,4.37043428 8.84161307,4.31680484 8.8326895,4.24712216 C8.6876895,3.14312216 9.2406895,2.04912216 9.8076895,1.39212216 C10.4756895,0.610122159 11.5916895,0.0381221591 12.5216895,0.000122159067 L12.5206895,0.000122159067 Z"/>
  </g>
</svg>
