<svg xmlns="http://www.w3.org/2000/svg" width="18" height="18" viewBox="0 0 18 18">
  <title>DataCamp</title>
  <g stroke="none" stroke-width="1" fill="none" fill-rule="evenodd">
      <path d="M8.12191217,4.45428861 L8.12191217,8.81463628 L3.49532208,11.4536178 L3.49532208,1.79939951 L8.12191217,4.45428861 Z M9.61889789,13.6153724 L9.61889789,9.68536623 L15.8144764,6.14970029 L14.3074438,5.2865055 L9.61889789,7.96148838 L9.61889789,4.0180864 C9.61805001,3.75007756 9.47490919,3.50268943 9.24297698,3.36838789 L3.59913988,0.133291238 C3.58406955,0.124081594 3.56899923,0.116546431 3.5539289,0.109011268 C3.21865078,-0.0541804619 2.8229343,-0.0330328473 2.50695851,0.164962757 C2.19098273,0.36295836 1.99937506,0.709837677 2.00000539,1.08272178 L2.00000539,12.1677838 C1.99882845,12.5411649 2.19029079,12.8887573 2.50650685,13.0873076 C2.82272291,13.2858579 3.21897909,13.3072907 3.55476614,13.1440061 L3.5974654,13.1222378 L8.11856321,10.5410258 L8.11856321,14.0574353 C8.1194594,14.3260883 8.26332404,14.5739438 8.4961586,14.707971 L14.2982341,18 L15.8052667,17.135968 L9.61889789,13.6153724 Z" fill="#33AACC"></path>
  </g>
</svg>
