<svg xmlns="http://www.w3.org/2000/svg" width="18" height="18" viewBox="0 0 18 18">
  <title>DataCamp Certification</title>
  <g fill="none" fill-rule="evenodd" stroke="none" stroke-width="1">
    <path fill="#3AC" fill-rule="evenodd"  clip-rule="evenodd" d="M9.711 1.903a5.385 5.385 0 0 0-2.101-.424A5.437 5.437 0 0 0 2.179 6.91c0 2.994 2.253 5.244 5.092 5.419v3.041c0 .886.968 1.431 1.724.972l2.662-1.479 2.435 1.488a1.136 1.136 0 0 0 1.728-.968V8.947l-1.362.823v5.208l-2.23-1.363a1.134 1.134 0 0 0-1.149-.02l-2.444 1.374v-2.728a5.435 5.435 0 0 0 4.406-5.33.679.679 0 0 0-.681-.682H8.407c-.627 0-1.136.509-1.136 1.136v3.6A4.072 4.072 0 0 1 3.542 6.91 4.073 4.073 0 0 1 8.76 3.008l.951-1.105zm1.908 5.688H8.634v3.255a4.072 4.072 0 0 0 2.985-3.255z"/>
  </g>
</svg>
