<svg xmlns="http://www.w3.org/2000/svg" width="18" height="18" viewBox="0 0 18 18">
  <title>DataCamp Learn</title>
  <g fill="none" fill-rule="evenodd" stroke="none" stroke-width="1">
    <path fill="#3AC" d="M8.743 1.249.58 6.072a1.18 1.18 0 0 0-.005 2.029l2.343 1.401.009 2.901c0 .411.217.793.569 1.005l5.245 3.173c.375.227.847.227 1.222 0l3.931-2.38v-1.654l-4.542 2.751-5.009-3.032-.007-1.915 4.409 2.635c.373.224.84.222 1.213 0l7.469-4.483c.76-.458.764-1.557.007-2.02l-5.41-3.291h-.004L3.626 8.275 1.644 7.088l8.486-5.013h.002m1.89 2.774 4.341 2.64-7.012 4.209-4.35-2.602 7.021-4.247z"/>
  </g>
</svg>
