<svg xmlns="http://www.w3.org/2000/svg" width="18" height="18" viewBox="0 0 18 18">
  <g id="brands/datacamp" fill="none" fill-rule="evenodd" stroke="none" stroke-width="1">
    <path id="datacamp" fill="#3AC" d="M12.8554518,10.2054794 C13.0004518,10.4494553 13.0424518,10.4494553 12.7724518,10.6974308 C12.9794518,10.8764132 12.9794518,11.0233987 12.6694518,11.162385 C12.6764518,11.659336 12.7774518,12.1022923 12.1414518,12.1402885 C11.5054518,12.1792847 10.6984518,11.7573263 10.4894518,12.8952141 C10.2804518,14.0331019 10.3344518,13.606144 10.2724518,13.8921158 L5.78045176,13.8921158 C6.33945176,12.3662662 6.81345176,10.6804325 5.78045176,9.85251416 C4.74845176,9.02459582 3.05145176,5.55093841 6.39245176,3.77111394 C6.76945176,3.57113367 7.17245176,3.42114846 7.58845176,3.32515793 L7.44845176,2.95319461 L7.49145176,2.93619629 C7.50645176,2.92819708 8.92845176,2.38825033 10.1604518,2.98619136 L10.2004518,3.00618938 L10.0534518,3.34115635 C10.8464518,3.51813889 11.4384518,3.80811029 11.6564518,3.94409688 C12.1534518,4.25406631 12.8154518,4.73901848 12.8764518,5.20197282 C12.9394518,5.66592707 12.3394518,5.43195014 12.3394518,5.43195014 C12.7114518,6.32886169 12.7324518,6.97079837 12.5664518,7.65373102 C12.4014518,8.33666367 13.3324518,9.03659463 13.3104518,9.53754523 C13.2484518,9.76452284 12.8134518,9.84951446 12.8134518,9.84951446 C12.8134518,9.84951446 12.7104518,9.96250332 12.8554518,10.2054794 Z M9.05445176,0.0314827657 C8.93229123,-0.0104942552 8.79961229,-0.0104942552 8.67745176,0.0314827657 L0.885451764,2.77321236 C0.632782258,2.86073892 0.474251591,3.11137525 0.503451764,3.3771528 L1.60145176,13.7561292 C1.62145176,13.9441106 1.73045176,14.1090944 1.89445176,14.2000854 L8.67445176,17.9287176 C8.84902617,18.0248172 9.06091709,18.0236822 9.23445176,17.9257179 L15.8444518,14.1960858 C16.0032267,14.1063797 16.1103489,13.9470095 16.1334518,13.7661282 L17.3974518,3.38615191 C17.4295497,3.11792083 17.2718564,2.86314671 17.0174518,2.77221246 L9.05445176,0.0314827657 Z M8.13664364,6.60888475 C7.99577745,6.37440228 7.99577745,6.08134101 8.13664364,5.84685854 C8.27750982,5.61237607 8.53625946,5.47472892 8.80945176,5.48894452 C9.20266456,5.50940541 9.51099399,5.83416559 9.51099399,6.22787165 C9.51099399,6.6215777 9.20266456,6.94633788 8.80945176,6.96679877 C8.53625946,6.98101437 8.27750982,6.84336722 8.13664364,6.60888475 Z M11.8984518,5.5479387 C11.6184518,4.45004698 10.7024518,3.9570956 10.7024518,3.9570956 L10.5464518,4.1730743 C10.3524518,3.97409392 9.88245176,3.76311473 9.84945176,3.74911611 L9.97145176,3.41914866 C9.94193487,3.39742503 9.92174251,3.38732985 9.90045176,3.3801525 C9.19345176,3.11717844 8.54345176,3.11417873 7.65845176,3.36815369 L8.07645176,4.47804422 C7.48145176,4.66802549 7.04245176,5.19097391 6.99645176,5.24996809 L6.41645176,4.84000852 C6.09645176,5.2589672 5.86845176,6.01689245 5.86845176,6.59983496 L5.12345176,6.59983496 C5.13045176,7.12378329 5.22545176,8.03769315 5.85345176,8.7956184 L6.40545176,8.37665972 C6.91245176,9.11258714 7.96845176,9.64653448 8.84845176,9.55654335 L8.83545176,8.02669424 L8.84745176,8.04669226 C9.07045176,8.11168585 9.53045176,7.97269956 9.73145176,7.81471514 L10.1514518,8.36966041 C10.5994518,8.22367481 10.9384518,7.37575843 10.9734518,7.28476741 L11.6384518,7.51074512 C11.8163794,6.8982312 11.8222609,6.24856456 11.6554518,5.63293032 L11.8984518,5.5479387 Z"/>
  </g>
</svg>
