<svg xmlns="http://www.w3.org/2000/svg" width="18" height="18" viewBox="0 0 18 18">
  <title>DataCamp Recruit</title>
  <g fill="none" fill-rule="evenodd" stroke="none" stroke-width="1">
    <path fill="#3AC" fill-rule="evenodd"  clip-rule="evenodd" d="M7.304 5.61h3.629a3.832 3.832 0 0 0-.193-.677c-.133-.337-.318-.632-.566-.84-.234-.197-.561-.345-1.051-.345-.774 0-1.197.376-1.471.863a3.437 3.437 0 0 0-.348.999zm5.03 0a5.357 5.357 0 0 0-.309-1.185c-.187-.474-.485-.99-.963-1.39-.491-.411-1.133-.668-1.938-.668-1.379 0-2.214.746-2.675 1.569-.441.784-.557 1.651-.591 2.064a.92.92 0 0 0 .923.991h4.229v4.543l1.381.797v-5.34h1.59v7.261H4.019v-6.94l-1.381-.797v7.934c0 .654.53 1.183 1.184 1.183h10.356c.654 0 1.184-.53 1.184-1.183V6.794c0-.654-.53-1.184-1.184-1.184h-1.844zm-1.302 7.36-.022-.013v.013h.022z"/>
  </g>
</svg>
