<svg xmlns="http://www.w3.org/2000/svg" width="18" height="18" viewBox="0 0 18 18">
  <title>Figma</title>
  <g fill="none" fill-rule="evenodd" stroke="none" stroke-width="1">
    <path fill="#3AC" fill-rule="evenodd" clip-rule="evenodd" d="M11.667 0H6.333a3.667 3.667 0 0 0-2.516 6.333 3.667 3.667 0 0 0 0 5.333A3.666 3.666 0 1 0 10 14.334v-2.066a3.667 3.667 0 0 0 4.183-5.934l.076-.074A3.667 3.667 0 0 0 11.667 0ZM10 9.017a1.667 1.667 0 1 0 0-.033v.033Zm-3.68 3.65H8v1.666a1.667 1.667 0 1 1-1.68-1.666Zm1.68-2H6.32a1.667 1.667 0 0 1 .013-3.334H8v1.643a3.992 3.992 0 0 0 0 .049v1.642ZM11.667 2H10v3.333h1.667a1.667 1.667 0 0 0 0-3.333ZM6.333 2H8v3.333H6.333a1.667 1.667 0 1 1 0-3.333Z"/>
  </g>
</svg>
