<svg xmlns="http://www.w3.org/2000/svg" width="18" height="18" viewBox="0 0 18 18">
  <title>GitHub</title>
  <g fill="none" fill-rule="evenodd" stroke="none" stroke-width="1">
    <path fill-rule="evenodd" clip-rule="evenodd" fill="#3AC" d="M8.999.222a9 9 0 00-2.844 17.54c.45.082.614-.196.614-.434 0-.214-.008-.78-.012-1.53-2.503.544-3.032-1.207-3.032-1.207-.409-1.04-.999-1.317-.999-1.317-.817-.558.062-.547.062-.547.903.064 1.378.928 1.378.928.803 1.375 2.107.978 2.619.748.083-.582.315-.978.572-1.203-1.998-.228-4.1-.999-4.1-4.448 0-.983.351-1.786.927-2.415-.093-.228-.402-1.143.089-2.382 0 0 .755-.242 2.475.922A8.657 8.657 0 019 4.574a8.634 8.634 0 012.253.303c1.718-1.164 2.472-.922 2.472-.922.491 1.239.182 2.154.09 2.382.577.629.925 1.432.925 2.415 0 3.458-2.104 4.218-4.109 4.441.323.278.611.827.611 1.667 0 1.203-.011 2.174-.011 2.469 0 .241.162.521.619.433A9 9 0 008.999.222z" />
  </g>
</svg>
