<svg xmlns="http://www.w3.org/2000/svg" width="18" height="18" viewBox="0 0 18 18">
  <title>Google</title>
  <g fill="none" fill-rule="evenodd" stroke="none" stroke-width="1">
    <path fill="#3AC" fill-rule="nonzero" d="M9.17969676,0.000606479114 C11.4151533,-0.025848628 13.5745514,0.814101024 15.2015405,2.34188346 L15.2015405,2.34188346 L12.6320882,4.91133574 C11.7028526,4.02508965 10.4627695,3.54228395 9.17969676,3.56212528 C6.831806,3.56212528 4.8377523,5.14612482 4.1267713,7.27906783 C3.74978602,8.39679611 3.74978602,9.60711726 4.1267713,10.7248455 L4.1267713,10.7248455 C4.84436608,12.8544817 6.83511289,14.4384812 9.18300365,14.4384812 C10.3966317,14.4384812 11.4383015,14.1276337 12.2451823,13.5786902 L12.241,13.581 C13.1276806,12.9922687 13.751345,12.0918544 13.9945694,11.065651 L14.0408227,10.8438935 L9.17969676,10.8438935 L9.17969676,7.37827448 L17.6684793,7.37827448 C17.7742997,7.98012817 17.823903,8.59520941 17.823903,9.20698376 C17.823903,11.9450874 16.8450641,14.2599092 15.1420165,15.8273743 L15.143,15.826 C13.7249361,17.137532 11.800642,17.9227868 9.52384168,17.9946021 L9.17969676,18 C5.7769086,18 2.66512663,16.0820047 1.13734419,13.0429743 L1.13734419,13.0429743 L1.00076834,12.7586007 C-0.137363757,10.2786696 -0.0918384736,7.40975116 1.13734419,4.96093907 L1.13734419,4.96093907 L1.27622635,4.69543558 C2.84842436,1.80743766 5.87699061,0.000606479114 9.17969676,0.000606479114 Z"/>
  </g>
</svg>
