<svg xmlns="http://www.w3.org/2000/svg" width="18" height="18" viewBox="0 0 18 18">
  <title>Google Plus</title>
  <g fill="none" fill-rule="evenodd" stroke="none" stroke-width="1">
    <path fill="#3AC" d="M10.7461495,9.10499567 C10.7461495,8.90200404 10.72315,8.65201435 10.676151,8.35502659 L6.43423839,8.35502659 L6.43423839,9.90196282 L8.97718597,9.90196282 C8.94779442,10.1072495 8.88210506,10.3056679 8.78318997,10.4879387 C8.67819214,10.6909303 8.53119517,10.8979218 8.34319904,11.1089131 C8.1562029,11.3199044 7.89620825,11.4938972 7.5642151,11.6308915 C7.20463694,11.7726362 6.82069384,11.8422882 6.43423839,11.8358831 C5.68712852,11.8466949 4.96942619,11.5451212 4.4542792,11.0039174 C3.91777502,10.4764527 3.62072387,9.7522699 3.63229614,9 C3.63229614,8.21903219 3.90529051,7.55005977 4.45227924,6.99608261 C4.96742623,6.45487881 5.68512856,6.15330505 6.43223843,6.1641169 C7.15222359,6.1641169 7.74921128,6.39410742 8.22620145,6.85508842 L9.44417635,5.67213718 C8.6021937,4.89016942 7.5982144,4.5001855 6.43423839,4.5001855 C5.18426415,4.5001855 4.12128606,4.94016736 3.2463041,5.81813117 C2.37132213,6.69809489 1.93433114,7.7580512 1.93433114,9 C1.93433114,10.2419488 2.37132213,11.3029051 3.2463041,12.1818688 C4.12128606,13.0608326 5.18426415,13.4998145 6.43423839,13.4998145 C7.72321182,13.4998145 8.76419036,13.0898314 9.55717402,12.2698652 C10.3501577,11.449899 10.7471495,10.3949425 10.7471495,9.10499567 L10.7461495,9.10499567 Z M14.7890662,9.64497341 L16.0660399,9.64497341 L16.0660399,8.35502659 L14.7900662,8.35502659 L14.7900662,7.06607972 L13.5000928,7.06607972 L13.5000928,8.35602655 L12.2101193,8.35602655 L12.2101193,9.64497341 L13.5000928,9.64497341 L13.5000928,10.9339203 L14.7900662,10.9339203 L14.7900662,9.64397345 L14.7890662,9.64497341 Z M18,3.37523187 L18,14.6247681 C18,15.5547298 17.6700068,16.349697 17.0100204,17.0096698 C16.3858807,17.6548717 15.5226604,18.0131822 14.6250696,17.999629 L3.37530144,17.999629 C2.47771057,18.0131822 1.6144903,17.6548717 0.990350595,17.0096698 C0.345135376,16.385543 -0.0131824721,15.5223405 0.000371000079,14.6247681 L0.000371000079,3.37523187 C0.000371000079,2.44527021 0.330364198,1.65030298 0.990350595,0.990330183 C1.6144903,0.345128262 2.47771057,-0.0131822004 3.37530144,0.000370992432 L14.6250696,0.000370992432 C15.5550504,0.000370992432 16.350034,0.330357389 17.0100204,0.990330183 C17.6700068,1.65030298 18,2.44527021 18,3.37523187 L18,3.37523187 Z"/>
  </g>
</svg>
