<svg xmlns="http://www.w3.org/2000/svg" width="18" height="18" viewBox="0 0 18 18">
  <title>Google</title>
  <g fill="none" fill-rule="evenodd" stroke="none" stroke-width="1">
    <g fill-rule="nonzero" transform="translate(.5 .25)">
      <path fill="#4285F4" d="M17.0366945,8.90561731 C17.0366945,8.31594688 16.9888834,7.72308903 16.8868864,7.14298082 L8.70481062,7.14298082 L8.70481062,10.4833842 L13.3903,10.4833842 C13.1958682,11.560728 12.5711363,12.5137629 11.6563502,13.1193704 L11.6563502,15.2868077 L14.4517068,15.2868077 C16.0932218,13.7759764 17.0366945,11.5447909 17.0366945,8.90561731 Z"/>
      <path fill="#34A853" d="M8.70481062,17.3809346 C11.0443679,17.3809346 13.0173733,16.6127693 14.4548942,15.2868077 L11.6595376,13.1193704 C10.8818101,13.6484801 9.87777668,13.9480964 8.70799803,13.9480964 C6.44493851,13.9480964 4.52611904,12.4213281 3.83763896,10.3686375 L0.953034924,10.3686375 L0.953034924,12.6030103 C2.42561731,15.5322381 5.42496803,17.3809346 8.70481062,17.3809346 Z"/>
      <path fill="#FBBC04" d="M3.83445155,10.3686375 C3.47108706,9.29129365 3.47108706,8.12470241 3.83445155,7.04735858 L3.83445155,4.81298574 L0.953034924,4.81298574 C-0.277304476,7.26410231 -0.277304476,10.1518938 0.953034924,12.6030103 L3.83445155,10.3686375 L3.83445155,10.3686375 Z"/>
      <path fill="#EA4335" d="M8.70481062,3.46471225 C9.94152484,3.4455878 11.1368028,3.91094934 12.0324643,4.76517462 L14.5090802,2.28855878 C12.9408756,0.81597639 10.8594983,0.00637481554 8.70481062,0.0318740777 C5.42496803,0.0318740777 2.42561731,1.88057059 0.953034924,4.81298574 L3.83445155,7.04735858 C4.51974422,4.99148057 6.44175111,3.46471225 8.70481062,3.46471225 Z"/>
    </g>
  </g>
</svg>
