<svg xmlns="http://www.w3.org/2000/svg" width="18" height="18" viewBox="0 0 18 18">
  <title>Google Play</title>
  <g fill="none" fill-rule="evenodd" stroke="none" stroke-width="1">
    <path fill="#3AC" d="M3.942627,17.0960083 L11.6086426,12.7686157 L9.96344,10.9451904 L3.942627,17.0960083 Z M1.1422119,1.1682739 C1.0543823,1.326477 1,1.5083618 1,1.710083 L1,16.8360596 C1,17.1160279 1.1046143,17.3562622 1.2631226,17.5462036 L8.8896485,9.7549438 L1.1422119,1.1682739 Z M16.4795532,8.5270996 L13.8070678,7.0184936 L11.0847778,9.7996215 L13.036438,11.9626464 L16.4795532,10.0190429 C16.7927856,9.8607178 16.9656372,9.5739136 17,9.2730713 C16.9656372,8.972229 16.7927856,8.6854248 16.4795532,8.5270996 Z M12.3649292,6.2044067 L3.1452026,1 L10.0108642,8.609314 L12.3649292,6.2044067 Z"/>
  </g>
</svg>
