<svg width="18px" height="18px" viewBox="0 0 18 18" version="1.1" xmlns="http://www.w3.org/2000/svg" xmlns:xlink="http://www.w3.org/1999/xlink">
    <title>Instagram</title>
    <g stroke="none" stroke-width="1" fill="none" fill-rule="evenodd">
        <path d="M9.98618889,0.0036415079 C10.9121874,0.00551006242 11.4112436,0.0108621334 11.8321075,0.0226039709 L12.0220702,0.0284875744 C12.240179,0.0359058009 12.4511731,0.0453063187 12.7095,0.0571428571 C13.6671786,0.100678571 14.3211786,0.25275 14.8935,0.475 C15.4938941,0.70096334 16.0377651,1.05518696 16.4871786,1.51296429 C16.9448664,1.96236715 17.2990152,2.50619891 17.5249286,3.10653571 C17.7473571,3.67882143 17.8994286,4.33282143 17.9431429,5.2905 C17.9834257,6.17324 17.9954146,6.50331103 17.997075,8.45316917 L17.997075,9.5468283 C17.9954146,11.4966679 17.9834257,11.8266286 17.9431429,12.7095 C17.8994286,13.6671429 17.7473571,14.3211429 17.5249286,14.8934643 C17.0575167,16.1019908 16.1021337,17.0573739 14.8936071,17.5247857 C14.3213214,17.7472143 13.6673214,17.8992857 12.7096429,17.943 C12.4793629,17.9535086 12.2866936,17.9620917 12.0930676,17.9690682 L11.8976943,17.975521 C11.4675046,17.9883931 10.9724726,17.9942224 10.020317,17.9962529 L9.54697368,17.9969322 C9.3774208,17.9970766 9.19562,17.9971429 9.00014286,17.9971429 L8.71700651,17.9970917 C8.62592798,17.997057 8.53809019,17.9970044 8.45331456,17.9969322 L7.97997793,17.9962529 C6.44190966,17.9929728 6.09674286,17.97978 5.29064286,17.943 C4.333,17.8992857 3.679,17.7472143 3.10667857,17.5247857 C2.50634177,17.2988724 1.96251001,16.9447236 1.51310714,16.4870357 C1.05542196,16.0376307 0.701273572,15.4937995 0.475357143,14.8934643 C0.252928571,14.3211786 0.100857143,13.6671786 0.0571428571,12.7095 C0.0453063187,12.4511731 0.0359058009,12.240179 0.0284875744,12.0220702 L0.0226039709,11.8321075 C0.0108621334,11.4112436 0.00551006242,10.9121874 0.0036415079,9.98618889 L0.0036415079,8.01381111 C0.00680367709,6.44673669 0.0199423077,6.10238462 0.0571428571,5.2905 C0.100678571,4.33282143 0.25275,3.67882143 0.475,3.1065 C0.700999083,2.50613818 1.0552465,1.96230472 1.51303571,1.51292857 C1.96244004,1.0552425 2.50627138,0.701093972 3.10660714,0.475178571 C3.67889286,0.25275 4.33289286,0.100678571 5.29057143,0.0569642857 C5.54889835,0.0451758242 5.75989243,0.0358104396 5.97800122,0.0284178872 L6.1679639,0.022554055 C6.5888278,0.0108503885 7.08788401,0.00550729892 8.01388253,0.00364085766 Z M9.27829537,1.62397439 L8.72176783,1.62397422 C8.63226989,1.62400519 8.54598252,1.62405244 8.46272768,1.62411756 L7.99816437,1.62473559 C6.48958754,1.62773886 6.16130714,1.64003286 5.36435714,1.67639286 C4.48714286,1.71639286 4.01075,1.86296429 3.69371429,1.98617857 C3.30292588,2.13041252 2.94943,2.36039352 2.65921429,2.65921429 C2.3603623,2.94943227 2.13035609,3.30294157 1.98610714,3.69375 C1.86289286,4.01082143 1.71635714,4.48717857 1.67632143,5.36439286 C1.63996143,6.16140286 1.62766743,6.48964246 1.62466416,7.9982047 L1.62404613,8.46276465 C1.62391589,8.62927354 1.62385714,8.80791286 1.62385714,9.00010714 L1.6239028,9.27841091 C1.62393376,9.36790895 1.62398101,9.45419648 1.62404613,9.53745153 L1.62466416,10.0020165 C1.62766743,11.5106006 1.63996143,11.8389014 1.67632143,12.6358214 C1.71632143,13.5130357 1.86289286,13.9894286 1.98610714,14.3064643 C2.13034109,14.6972527 2.3603221,15.0507486 2.65914286,15.3409643 C2.94935702,15.6397869 3.30285336,15.8697682 3.69364286,16.014 C4.01071429,16.1371786 4.48707143,16.28375 5.36428571,16.3237857 C6.23707,16.3636086 6.54763309,16.3745631 8.46261871,16.376061 L9.53738318,16.376061 C11.4523827,16.3745631 11.7630286,16.3636086 12.6357143,16.3237857 C13.5129286,16.2837857 13.9893214,16.1372143 14.3063571,16.014 C15.091015,15.7113172 15.71121,15.0911221 16.0138929,14.3064643 C16.1370714,13.9893929 16.2836429,13.5130357 16.3236786,12.6358214 C16.3600386,11.8388114 16.3723326,11.5105718 16.3753358,10.0020096 L16.3759539,9.53744963 C16.3760841,9.37094074 16.3761429,9.19230143 16.3761429,9.00010714 L16.3760972,8.72180355 C16.3760662,8.6323056 16.376019,8.54601824 16.3759539,8.46276339 L16.3753358,7.99820009 C16.3723326,6.48962326 16.3600386,6.16134286 16.3236786,5.36439286 C16.2836786,4.48717857 16.1371071,4.01078571 16.0138929,3.69375 C15.86966,3.30296105 15.6396788,2.94946494 15.3408571,2.65925 C15.0506422,2.3604283 14.6971461,2.13044714 14.3063571,1.98621429 C13.9892857,1.863 13.5129286,1.71646429 12.6357143,1.67642857 C11.8387043,1.64006857 11.5104143,1.62774937 10.0018783,1.62473804 L9.53732798,1.62411821 C9.37082309,1.62398754 9.19218857,1.62392857 9,1.62392857 Z M9,4.37982143 C11.5516542,4.37982143 13.6201786,6.44834583 13.6201786,9 C13.6201786,11.5516542 11.5516542,13.6201786 9,13.6201786 C6.44834583,13.6201786 4.37982143,11.5516542 4.37982143,9 C4.37982143,6.44834583 6.44834583,4.37982143 9,4.37982143 Z M9.00004762,6.00096429 C7.34373058,6.00096429 6.001,7.34365915 6.001,8.99997619 C6.001,10.6562932 7.34368296,11.9990357 9,11.9990357 C10.6563275,11.9990357 11.9990714,10.6563275 11.9990714,9 C11.9990714,7.34368296 10.6563647,6.00096429 9.00004762,6.00096429 Z M13.8027143,3.11764286 C14.3989846,3.11764286 14.8823571,3.60101543 14.8823571,4.19728571 C14.8823571,4.793556 14.3989846,5.27692857 13.8027143,5.27692857 C13.206444,5.27692857 12.7230714,4.793556 12.7230714,4.19728571 C12.7230714,3.60101543 13.206444,3.11764286 13.8027143,3.11764286 Z" fill="#33AACC" fill-rule="nonzero"></path>
    </g>
</svg>
