<svg width="18px" height="18px" viewBox="0 0 18 18" version="1.1" xmlns="http://www.w3.org/2000/svg" xmlns:xlink="http://www.w3.org/1999/xlink">
    <title>Kaggle</title>
    <g stroke="none" stroke-width="1" fill="none" fill-rule="evenodd">
      <path fill="#33AACC" d="M14.119 17.894c-.016.069-.088.106-.211.106h-2.354a.474.474 0 0 1-.369-.186l-3.883-4.942-1.086 1.03v3.833c0 .177-.088.265-.264.265H4.129c-.177 0-.266-.088-.266-.264V.265C3.864.09 3.952 0 4.129 0h1.823c.175 0 .263.09.263.265v10.757l4.652-4.704c.124-.124.248-.185.371-.185h2.429c.108 0 .177.045.214.135.035.112.025.191-.027.236l-4.916 4.758 5.127 6.38c.071.078.088.156.052.268" />
    </g>
</svg>

