<svg xmlns="http://www.w3.org/2000/svg" width="18" height="18" viewBox="0 0 18 18">
  <title>Leanpub</title>
  <g fill="none" fill-rule="evenodd" stroke="none" stroke-width="1">
    <path fill="#3AC" d="M16.6376953,4.11621094 L18,15.2958984 C17.2324219,15.2958984 16.4794922,15.1289062 15.7412109,14.7949219 C14.5693359,14.2617187 13.4179688,13.9951172 12.2871094,13.9951172 C10.9628906,13.9951172 9.8671875,14.4287109 9,15.2958984 C8.1328125,14.4287109 7.03710938,13.9951172 5.71289062,13.9951172 C4.58203125,13.9951172 3.43066406,14.2617187 2.25878906,14.7949219 C1.50878906,15.1289062 0.770507812,15.2958984 0.0439453125,15.2958984 L0,15.2958984 L1.36230469,4.11621094 C2.67480469,3.37207031 4.08691406,3 5.59863281,3 C6.96386719,3 8.09765625,3.31054688 9,3.93164062 C9.90234375,3.31054688 11.0361328,3 12.4013672,3 C13.9130859,3 15.3251953,3.37207031 16.6376953,4.11621094 Z M12.2871094,12.7910156 C13.0429688,12.7910156 13.7226562,12.8745117 14.3261719,13.0415039 C14.9296875,13.2084961 15.6914062,13.4824219 16.6113281,13.8632812 L15.5214844,4.88964844 C14.5195312,4.43261719 13.4414062,4.20410156 12.2871094,4.20410156 C10.9746094,4.20410156 9.87890625,4.6171875 9,5.44335938 C8.12109375,4.6171875 7.02539062,4.20410156 5.71289062,4.20410156 C4.55859375,4.20410156 3.48046875,4.43261719 2.47851562,4.88964844 L1.38867188,13.8632812 C2.00390625,13.6113281 2.48876953,13.4208984 2.84326172,13.2919922 C3.19775391,13.1630859 3.6328125,13.0473633 4.1484375,12.9448242 C4.6640625,12.8422852 5.18554688,12.7910156 5.71289062,12.7910156 C6.89648438,12.7910156 7.9921875,13.1074219 9,13.7402344 C10.0078125,13.1074219 11.1035156,12.7910156 12.2871094,12.7910156 Z M11.4539079,5.34525373 L11.8415216,11.7373551 C10.8364963,11.7788679 9.88595016,12.038859 8.99782367,12.5150625 C8.00993419,11.9939202 6.91132469,11.7333984 5.71289063,11.7333984 C4.96977832,11.7333984 4.26235511,11.813243 3.59161161,11.973708 C3.28932952,12.0460243 2.97555976,12.1352386 2.65016934,12.2412904 L3.44970314,5.64162975 C4.17344006,5.39409494 4.92672456,5.27050781 5.71289063,5.27050781 C6.81347298,5.27050781 7.71583646,5.64448198 8.4645131,6.40793514 L9.00014004,6.95413366 L9.53562416,6.40779512 C10.090988,5.84117391 10.7245056,5.48958025 11.4539079,5.34525373 Z"/>
  </g>
</svg>
