<svg xmlns="http://www.w3.org/2000/svg" width="18" height="18" viewBox="0 0 18 18">
  <title>LinkedIn</title>
  <g fill="none" fill-rule="evenodd" stroke="none" stroke-width="1">
    <path fill="#3AC" d="M2.77731376,15.0697498 L5.48425797,15.0697498 L5.48425797,6.93708504 L2.77731376,6.93708504 L2.77731376,15.0697498 Z M5.66025434,4.43018838 C5.66368833,4.05056677 5.51113384,3.68617871 5.23826304,3.42222993 C4.96526867,3.1562409 4.60227615,3.02324638 4.14828551,3.02324638 C3.69529484,3.02324638 3.32630245,3.1562409 3.04130832,3.42222993 C2.75920508,3.68024217 2.60303719,4.04803187 2.61331714,4.43018838 C2.61331714,4.82817198 2.75231428,5.16215821 3.02930857,5.43214708 C3.30730284,5.70213595 3.6682954,5.83613042 4.11328623,5.83613042 L4.12528598,5.83613042 C4.5852765,5.83613042 4.95726883,5.70113599 5.23826304,5.43214708 C5.52025723,5.16215821 5.66025434,4.82817198 5.66025434,4.43018838 L5.66025434,4.43018838 Z M12.516113,15.0697498 L15.2230572,15.0697498 L15.2230572,10.405942 C15.2230572,9.20299163 14.9370631,8.29302914 14.3670749,7.67605458 C13.7970866,7.05908001 13.0431022,6.75009275 12.1051215,6.75009275 C11.0431434,6.75009275 10.2271602,7.20707391 9.65617198,8.12103623 L9.68017148,8.12103623 L9.68017148,6.93708504 L6.97322728,6.93708504 C6.9962268,7.45306377 6.9962268,10.163952 6.97322728,15.0697498 L9.68017148,15.0697498 L9.68017148,10.5229372 C9.68017148,10.2269494 9.70717093,10.0079584 9.76216979,9.86696426 C9.87916738,9.59397551 10.0551638,9.36098512 10.2891589,9.16999299 C10.5231541,8.97900087 10.8131481,8.88300482 11.1561411,8.88300482 C12.0621224,8.88300482 12.516113,9.49597955 12.516113,10.722929 L12.516113,15.0697498 L12.516113,15.0697498 Z M18,3.37523187 L18,14.6247681 C18,15.5547298 17.6700068,16.349697 17.0100204,17.0096698 C16.3858807,17.6548717 15.5226604,18.0131822 14.6250696,17.999629 L3.37530144,17.999629 C2.47771057,18.0131822 1.6144903,17.6548717 0.990350595,17.0096698 C0.345135376,16.385543 -0.0131824721,15.5223405 0.000371000079,14.6247681 L0.000371000079,3.37523187 C0.000371000079,2.44527021 0.330364198,1.65030298 0.990350595,0.990330183 C1.6144903,0.345128262 2.47771057,-0.0131822004 3.37530144,0.000370992432 L14.6250696,0.000370992432 C15.5550504,0.000370992432 16.350034,0.330357389 17.0100204,0.990330183 C17.6700068,1.65030298 18,2.44527021 18,3.37523187 L18,3.37523187 Z"/>
  </g>
</svg>
