<svg xmlns="http://www.w3.org/2000/svg" width="18" height="18" viewBox="0 0 18 18">
  <title>PayPal</title>
  <g fill="none" fill-rule="evenodd" stroke="none" stroke-width="1">
    <path fill="#3AC" d="M6.60391867,9.677 L8.26291867,9.677 C11.8669187,9.677 13.9119187,8.054 14.5629187,4.717 C14.5839187,4.607 14.6029187,4.501 14.6189187,4.395 C14.6549187,4.169 14.6729187,3.966 14.6809187,3.771 C14.6869187,3.637 14.6909187,3.558 14.6899187,3.484 C14.6819187,3.093 14.6129187,2.762 14.4739187,2.445 C14.3449187,2.149 14.1499187,1.858 13.8609187,1.527 C13.0079187,0.557 11.5219187,0 9.74691867,0 L4.09391867,0 C3.69591867,0 3.35691867,0.29 3.29491867,0.683 L2.27491867,7.254 L1.00591867,15.439 C0.959918668,15.734 1.18791867,16 1.48591867,16 L4.25791867,16 L5.10691867,10.957 C5.22391867,10.217 5.85391867,9.677 6.60391867,9.677 Z M15.7069187,5.09 C14.9149187,8.861 12.3499187,10.862 8.26191867,10.862 L6.60391867,10.862 C6.43991867,10.862 6.30191867,10.98 6.27591867,11.144 L5.17091867,18 L8.07791867,18 C8.42591867,18 8.72291867,17.747 8.77691867,17.403 L8.80591867,17.253 L9.36091867,13.739 L9.39691867,13.545 C9.45091867,13.201 9.74791867,12.948 10.0959187,12.948 L10.5359187,12.948 C13.3859187,12.948 15.6169187,11.79 16.2689187,8.442 C16.5369187,7.062 16.4009187,5.908 15.7069187,5.09 Z"/>
  </g>
</svg>
