<svg xmlns="http://www.w3.org/2000/svg" width="18" height="18" viewBox="0 0 18 18">
  <title>Python</title>
  <g fill="none" fill-rule="evenodd" stroke="none" stroke-width="1">
    <path fill="#3AC" fill-rule="nonzero" d="M7.5,0 C5.84325,0 4.5,1.34325 4.5,3 L4.5,3.75 L8.25,3.75 C8.664,3.75 9,4.086 9,4.5 C9,4.914 8.664,5.25 8.25,5.25 L4.5,5.25 L3.75,5.25 L3,5.25 C1.34325,5.25 0,6.59325 0,8.25 L0,11.25 C0,12.90675 1.34325,14.25 3,14.25 L3.75,14.25 L3.75,10.5 C3.75,9.2595 4.7595,8.25 6,8.25 L12,8.25 C12.414,8.25 12.75,7.914 12.75,7.5 L12.75,3 C12.75,1.34325 11.40675,0 9.75,0 L7.5,0 Z M6.75,1.5 C7.164,1.5 7.5,1.836 7.5,2.25 C7.5,2.664 7.164,3 6.75,3 C6.336,3 6,2.664 6,2.25 C6,1.836 6.336,1.5 6.75,1.5 Z M14.25,3.75 L14.25,7.5 C14.25,8.7405 13.2405,9.75 12,9.75 L6,9.75 C5.586,9.75 5.25,10.086 5.25,10.5 L5.25,15 C5.25,16.65675 6.59325,18 8.25,18 L10.5,18 C12.15675,18 13.5,16.65675 13.5,15 L13.5,14.25 L9.75,14.25 C9.336,14.25 9,13.914 9,13.5 C9,13.086 9.336,12.75 9.75,12.75 L13.5,12.75 L14.25,12.75 L15,12.75 C16.65675,12.75 18,11.40675 18,9.75 L18,6.75 C18,5.09325 16.65675,3.75 15,3.75 L14.25,3.75 Z M11.25,15 C11.664,15 12,15.336 12,15.75 C12,16.164 11.664,16.5 11.25,16.5 C10.836,16.5 10.5,16.164 10.5,15.75 C10.5,15.336 10.836,15 11.25,15 Z"/>
  </g>
</svg>
