<svg xmlns="http://www.w3.org/2000/svg" width="18" height="18" viewBox="0 0 18 18">
  <title>R</title>
  <g fill="none" fill-rule="evenodd" stroke="none" stroke-width="1">
    <path fill="#3AC" d="M7.41608168,13.9620647 C3.20088388,13.4608437 0,10.9945483 0,8.02756645 C0,4.69862459 4.02945247,2 9,2 C13.9705725,2 18,4.69862459 18,8.02756645 C18,9.72647219 16.9505155,11.2612152 15.2620493,12.3568672 L17.3509861,15.8789118 L13.8812582,15.8804594 L12.6364368,13.542838 C11.9594088,13.7433535 11.2385316,13.8895942 10.4861049,13.9733226 L10.4864165,15.8782628 L7.41608168,15.8795608 L7.41608168,13.9620647 Z M14.7654198,11.7755479 C16.1216901,11.1113684 16.9437799,10.029911 16.9437799,8.47725817 C16.9437799,5.61877647 14.1556413,4.35656932 10.3776068,4.35656932 C6.59954735,4.35656932 3.53682599,6.20146611 3.53682599,8.47725817 C3.53682599,10.113991 5.12098184,11.5278484 7.41608168,12.1928307 L7.41608168,5.74276308 L13.5817133,5.74276308 C13.5817133,5.74276308 16.3899464,5.79341112 16.3899464,8.46517652 C16.3899464,11.1369419 13.7065237,11.3358147 13.7065237,11.3358147 C13.7065237,11.3358147 14.251246,11.50019 14.5677152,11.6603217 C14.6201613,11.6868607 14.6908976,11.7260183 14.7654198,11.7755479 Z M12.0528663,12.5061892 C11.9469253,12.3483365 11.8198537,12.1763532 11.722039,12.0971579 C11.5514981,11.9590927 11.4787836,11.9099424 11.3101648,11.9099424 C11.1927932,11.9099424 10.4857675,11.9099424 10.4857675,11.9099424 L10.4858799,12.5975997 C11.0312386,12.5940901 11.5553979,12.5639627 12.0528663,12.5061892 Z M12.3710529,7.94157211 L10.5123021,7.94037393 L10.5113785,9.66400497 L12.3710529,9.66340588 C12.3710529,9.66340588 13.2322443,9.66073494 13.2322443,8.78661312 C13.2322443,7.894918 12.3710529,7.94157211 12.3710529,7.94157211 Z"/>
  </g>
</svg>
