<svg xmlns="http://www.w3.org/2000/svg" width="18" height="18" viewBox="0 0 18 18">
  <title>Slack</title>
  <g fill="none" fill-rule="evenodd" stroke="none" stroke-width="1">
    <g>
      <path fill="#36C5F0" d="M6.62540717,4.73452769 C7.66612378,4.73452769 8.51628664,5.58469055 8.51628664,6.62540717 C8.51628664,7.66612378 7.66612378,8.51628664 6.62540717,8.51628664 L1.89087948,8.51628664 C0.850162866,8.51628664 1.99840144e-13,7.66612378 1.99840144e-13,6.62540717 C1.99840144e-13,5.58469055 0.850162866,4.73452769 1.89087948,4.73452769 L6.62540717,4.73452769 L6.62540717,4.73452769 Z M6.62540717,2.10942375e-14 C7.66612378,2.10942375e-14 8.51628664,0.850162866 8.51628664,1.89087948 L8.51628664,3.78175896 L6.62540717,3.78175896 C5.58469055,3.78175896 4.73452769,2.93159609 4.73452769,1.89087948 C4.73452769,0.850162866 5.58469055,2.10942375e-14 6.62540717,2.10942375e-14 Z"/>
      <path fill="#2EB67D" d="M16.1091205,4.73452769 C17.1498371,4.73452769 18,5.58469055 18,6.62540717 C18,7.66612378 17.1498371,8.51628664 16.1091205,8.51628664 L14.218241,8.51628664 L14.218241,6.62540717 C14.218241,5.58469055 15.0684039,4.73452769 16.1091205,4.73452769 Z M11.3745928,2.57571742e-13 C12.4153094,2.57571742e-13 13.2654723,0.850162866 13.2654723,1.89087948 L13.2654723,6.62540717 C13.2654723,7.66612378 12.4153094,8.51628664 11.3745928,8.51628664 C10.3338762,8.51628664 9.48371336,7.66612378 9.48371336,6.62540717 L9.48371336,1.89087948 C9.48371336,0.850162866 10.3338762,2.57571742e-13 11.3745928,2.57571742e-13 Z"/>
      <path fill="#E01E5A" d="M6.62540717,9.48371336 C7.66612378,9.48371336 8.51628664,10.3338762 8.51628664,11.3745928 L8.51628664,16.1091205 C8.51628664,17.1498371 7.66612378,18 6.62540717,18 C5.58469055,18 4.73452769,17.1498371 4.73452769,16.1091205 L4.73452769,11.3745928 L4.73452769,11.3745928 C4.73452769,10.3338762 5.58469055,9.48371336 6.62540717,9.48371336 Z M3.78175896,9.48371336 L3.78175896,11.3745928 C3.78175896,12.4153094 2.93159609,13.2654723 1.89087948,13.2654723 C0.850162866,13.2654723 7.79376563e-14,12.4153094 7.79376563e-14,11.3745928 C7.79376563e-14,10.3338762 0.850162866,9.48371336 1.89087948,9.48371336 L3.78175896,9.48371336 Z"/>
      <path fill="#ECB22E" d="M11.3745928,14.218241 C12.4153094,14.218241 13.2654723,15.0684039 13.2654723,16.1091205 C13.2654723,17.1498371 12.4153094,18 11.3745928,18 C10.3338762,18 9.48371336,17.1498371 9.48371336,16.1091205 L9.48371336,14.218241 L11.3745928,14.218241 Z M16.1091205,9.48371336 C17.1498371,9.48371336 18,10.3338762 18,11.3745928 C18,12.4153094 17.1498371,13.2654723 16.1091205,13.2654723 L11.3745928,13.2654723 C10.3338762,13.2654723 9.48371336,12.4153094 9.48371336,11.3745928 C9.48371336,10.3338762 10.3338762,9.48371336 11.3745928,9.48371336 L16.1091205,9.48371336 Z"/>
    </g>
  </g>
</svg>
