<svg xmlns="http://www.w3.org/2000/svg" viewBox="0 0 64 64"><path d="M47.101 36.596l11.793 11.793c.055.055.112.109.171.159a32.958 32.958 0 01-4.661 5.857 32.973 32.973 0 01-5.897 4.688l-.151-.166-11.793-11.793 10.538-10.538zm15.276-15.274c2.211 6.632 2.161 13.887-.139 20.574l-10.22-10.218 10.359-10.356zm-30.732 30.73l10.204 10.203c-6.674 2.283-13.91 2.328-20.526.122l10.322-10.325zm17.12-47.641a31.17 31.17 0 016.083 4.741 31.232 31.232 0 014.43 5.572l-.14.127-11.974 11.972-10.405-10.405L48.733 4.446l.032-.035zm-32.38 32.382L26.79 47.197 14.819 59.17a3.358 3.358 0 00-.101.105 31.183 31.183 0 01-5.566-4.427 31.15 31.15 0 01-4.74-6.082l11.973-11.973zm15.457-15.457L42.246 31.74 31.707 42.279 21.303 31.875l10.539-10.539zm-30.097.815l9.785 9.786L1.42 42.048c-1.998-6.444-1.886-13.434.325-19.897zM9.596 9.596a33.04 33.04 0 015.849-4.659l11.542 11.544L16.448 27.02 4.912 15.484a32.99 32.99 0 014.253-5.45l.431-.438zm12.508-7.835C28.58-.465 35.588-.583 42.048 1.42L31.904 11.563l-9.8-9.802z" fill-rule="evenodd" clip-rule="evenodd" fill="#03ef62"/></svg>
