<svg xmlns="http://www.w3.org/2000/svg" xmlns:xlink="http://www.w3.org/1999/xlink" width="39" height="39" viewBox="0 0 39 39"><title>Excel</title><defs><linearGradient id="linearGradient-1" x1="82.617%" x2="13.975%" y1="15.111%" y2="84.102%"><stop offset="0%" stop-color="#2DBD7B"/><stop offset="100%" stop-color="#09874A"/></linearGradient><circle id="path-2" cx="19.5" cy="19.5" r="19.5"/></defs><g id="Symbols" fill="none" fill-rule="evenodd" stroke="none" stroke-width="1"><g id="technologies/Excel"><g id="Excel"><mask id="mask-3" fill="#fff"><use xlink:href="#path-2"/></mask><use id="Oval" fill="url(#linearGradient-1)" xlink:href="#path-2"/><path id="Combined-Shape" fill="#FFF" fill-rule="nonzero" d="M20.9713262,9.0156245 L20.97,11.0016245 L29.2508961,11.002284 C29.6300404,11.002284 29.9435422,11.2858672 29.9931595,11.6536132 L30,11.7558444 L30,26.2573768 C30,26.6734495 29.6645081,27.0109373 29.2508961,27.0109373 L29.2508961,27.0109373 L20.965,27.0106245 L20.9641577,29.0156245 L9,26.8414763 L9,11.1573227 L20.9713262,9.0156245 Z M20.97,13.0756245 L23.801756,13.0761681 L23.801756,14.8928429 L20.969,14.8926245 L20.969,15.5856245 L23.801756,15.5856327 L23.801756,17.4023075 L20.968,17.4016245 L20.968,18.0946245 L23.801756,18.0950973 L23.801756,19.9117721 L20.967,19.9116245 L20.967,20.6036245 L23.801756,20.6045617 L23.801756,22.4212365 L20.966,22.4206245 L20.966,23.1176245 L23.801756,23.1176319 L23.801756,24.8513789 L20.965,24.8506245 L20.965,26.3186245 L29.3082437,26.3186712 L29.3082437,11.6909445 L20.97,11.6906245 L20.97,13.0756245 Z M27.8447667,23.1176319 L27.8447667,24.8477734 L24.4896218,24.8477734 L24.4896218,23.1176319 L27.8447667,23.1176319 Z M17.1433692,15.4695636 L15.6666667,15.5380691 L14.6057348,18.0439281 L13.7240143,15.6318134 L12.2078853,15.7039245 L13.7706093,19.0138217 L12.125448,22.2876634 L13.5268817,22.3669856 L14.5519713,19.8755488 L15.5985663,22.4859688 L17.1899642,22.5797132 L15.4301075,19.0138217 L17.1433692,15.4695636 Z M27.8447667,20.6045617 L27.8447667,22.4212365 L24.4896218,22.4212365 L24.4896218,20.6045617 L27.8447667,20.6045617 Z M27.8447667,18.0950973 L27.8447667,19.9117721 L24.4896218,19.9117721 L24.4896218,18.0950973 L27.8447667,18.0950973 Z M27.8447667,15.5856327 L27.8447667,17.4023075 L24.4896218,17.4023075 L24.4896218,15.5856327 L27.8447667,15.5856327 Z M27.8447667,13.0761681 L27.8447667,14.8928429 L24.4896218,14.8928429 L24.4896218,13.0761681 L27.8447667,13.0761681 Z" mask="url(#mask-3)"/></g></g></g></svg>
