<svg xmlns="http://www.w3.org/2000/svg" viewBox="0 0 39 39">
  <title>Excel</title>
  <g fill="none" fill-rule="evenodd">
    <circle cx="19.5" cy="19.5" r="19.5" fill="#05192D"/>
    <path fill="#FFF" fill-rule="nonzero" d="M11.9713262,0 L11.97,1.986 L20.2508961,1.98665946 C20.6300404,1.98665946 20.9435422,2.27024266 20.9931595,2.63798871 L21,2.74021994 L21,17.2417523 C21,17.657825 20.6645081,17.9953128 20.2508961,17.9953128 L20.2508961,17.9953128 L11.965,17.995 L11.9641577,20 L0,17.8258518 L0,2.14169822 L11.9713262,0 Z M11.97,4.06 L14.801756,4.06054363 L14.801756,5.87721842 L11.969,5.877 L11.969,6.57 L14.801756,6.57000821 L14.801756,8.38668299 L11.968,8.386 L11.968,9.079 L14.801756,9.07947278 L14.801756,10.8961476 L11.967,10.896 L11.967,11.588 L14.801756,11.5889372 L14.801756,13.405612 L11.966,13.405 L11.966,14.102 L14.801756,14.1020074 L14.801756,15.8357544 L11.965,15.835 L11.965,17.303 L20.3082437,17.3030467 L20.3082437,2.67531999 L11.97,2.675 L11.97,4.06 Z M18.8447667,14.1020074 L18.8447667,15.8321489 L15.4896218,15.8321489 L15.4896218,14.1020074 L18.8447667,14.1020074 Z M8.14336918,6.45393907 L6.66666667,6.52244456 L5.60573477,9.02830359 L4.72401434,6.61618893 L3.2078853,6.68829998 L4.77060932,9.99819722 L3.12544803,13.2720389 L4.52688172,13.3513611 L5.55197133,10.8599243 L6.59856631,13.4703443 L8.18996416,13.5640887 L6.43010753,9.99819722 L8.14336918,6.45393907 Z M18.8447667,11.5889372 L18.8447667,13.405612 L15.4896218,13.405612 L15.4896218,11.5889372 L18.8447667,11.5889372 Z M18.8447667,9.07947278 L18.8447667,10.8961476 L15.4896218,10.8961476 L15.4896218,9.07947278 L18.8447667,9.07947278 Z M18.8447667,6.57000821 L18.8447667,8.38668299 L15.4896218,8.38668299 L15.4896218,6.57000821 L18.8447667,6.57000821 Z M18.8447667,4.06054363 L18.8447667,5.87721842 L15.4896218,5.87721842 L15.4896218,4.06054363 L18.8447667,4.06054363 Z" transform="translate(9 9.016)"/>
  </g>
</svg>
