<svg xmlns="http://www.w3.org/2000/svg" xmlns:xlink="http://www.w3.org/1999/xlink" width="39" height="39"><title>GIT</title><defs><linearGradient id="b" x1="50%" x2="50%" y1="98.012%" y2="5.507%"><stop offset="0%" stop-color="#EC7739"/><stop offset="100%" stop-color="#F8A477"/></linearGradient><circle id="a" cx="19.5" cy="19.5" r="19.5"/></defs><g fill="none" fill-rule="evenodd"><mask id="c" fill="#fff"><use xlink:href="#a"/></mask><use fill="url(#b)" xlink:href="#a"/><path fill="#FFF" d="M22.11 8.538l8.643 8.643a3.279 3.279 0 010 4.638l-8.643 8.643a3.279 3.279 0 01-4.637 0l-8.644-8.643a3.279 3.279 0 010-4.638l6.086-6.086 2.997 3.097a2.002 2.002 0 001.109 2.537v6.157a2.002 2.002 0 101.54 0v-5.954l2.316 2.395a2.001 2.001 0 101.103-1.073l-2.4-2.474a2.001 2.001 0 00-2.633-2.713l-2.955-3.05 1.48-1.479a3.279 3.279 0 014.638 0z" mask="url(#c)"/></g></svg>