<svg width="39" height="39" xmlns="http://www.w3.org/2000/svg" xmlns:xlink="http://www.w3.org/1999/xlink"><defs><linearGradient x1="83.421%" y1="14.303%" x2="13.975%" y2="84.102%" id="b"><stop stop-color="#FFDF56" offset="0%"/><stop stop-color="#F3C911" offset="100%"/></linearGradient><circle id="a" cx="19.5" cy="19.5" r="19.5"/></defs><g fill="none" fill-rule="evenodd"><mask id="c" fill="#fff"><use xlink:href="#a"/></mask><use fill="url(#b)" xlink:href="#a"/><path d="M14.874 24.518c.05.521.021 1.051.024 1.578.002.494.013.99-.005 1.484-.03.861-.588 1.437-1.354 1.42-.755-.017-1.236-.58-1.241-1.458-.003-.462 0-.925 0-1.388 0-.495-.006-.99.001-1.484.01-.758.506-1.329 1.19-1.381.692-.053 1.313.47 1.385 1.229zm2.648-5.973c.783-.007 1.315.618 1.317 1.556l.002 1.844v1.844c0 1.23.002 2.46-.002 3.689-.002.908-.525 1.515-1.299 1.521-.783.006-1.306-.586-1.307-1.503-.005-2.475-.004-4.95 0-7.424 0-.922.513-1.52 1.29-1.527zm3.95 2c.762.002 1.291.592 1.3 1.473.008.942.001 1.884.001 2.827 0 .894.007 1.788-.001 2.683-.009.88-.537 1.47-1.3 1.47-.755.002-1.296-.598-1.3-1.47a669.57 669.57 0 0 1 .001-5.51c.004-.877.544-1.474 1.3-1.473zm3.93-5.266c.784-.004 1.3.585 1.302 1.509.004 1.787 0 3.574 0 5.361 0 1.82.006 3.639-.004 5.458-.004.68-.394 1.181-.983 1.325a1.24 1.24 0 0 1-1.452-.71 1.89 1.89 0 0 1-.148-.737c-.01-3.575-.01-7.15-.004-10.724.002-.88.538-1.478 1.29-1.482zm-8.627-4.276h11.288c1.792.002 2.936 1.208 2.936 3.091 0 3.195.002 6.39 0 9.585-.002 1.63-1.222 2.91-2.781 2.938-.312.006-.5-.064-.469-.447.025-.308-.077-.63.426-.643 1.155-.027 1.794-.737 1.796-1.942.005-3.195.006-6.39 0-9.585-.003-1.206-.705-1.938-1.859-1.938-5.743-.004-11.485-.005-17.228 0-1.142 0-1.835.72-1.838 1.9-.005 3.243-.006 6.486.001 9.729.003 1.045.652 1.797 1.611 1.835.647.025.606-.02.604.726 0 .093-.019.186-.028.273-1.151.348-2.585-.477-3.045-1.769a3.164 3.164 0 0 1-.18-1.025c-.013-3.274-.009-6.55-.007-9.824.001-1.633 1.179-2.89 2.741-2.9 2.01-.013 4.022-.004 6.032-.004z" fill="#3D4251" mask="url(#c)"/></g></svg>