<svg xmlns="http://www.w3.org/2000/svg" viewBox="0 0 39 39">
  <title>R</title>
  <g fill="none" fill-rule="evenodd">
    <circle cx="19.5" cy="19.5" r="19.5" fill="#05192D"/>
    <g fill="#FFF" fill-rule="nonzero" transform="translate(7 9)">
      <path d="M12.4701285,16.6613265 C5.6003505,16.6613265 0.031257,12.931566 0.031257,8.3306805 C0.031257,3.7297605 5.6003505,0 12.4701285,0 C19.339941,0 24.909,3.7297605 24.909,8.3306805 C24.909,12.931566 19.339941,16.6613265 12.4701285,16.6613265 Z M14.3741145,3.257007 C9.1524705,3.257007 4.919493,5.806833 4.919493,8.952198 C4.919493,12.097563 9.1524705,14.647389 14.3741145,14.647389 C19.595724,14.647389 23.4492015,12.9041385 23.4492015,8.952198 C23.4492015,5.0014995 19.595724,3.257007 14.3741145,3.257007 Z"/>
      <path d="M18.975,12.903 C18.975,12.903 19.727859,13.1301825 20.16525,13.3515 C20.3170155,13.428297 20.579595,13.581546 20.769,13.78275 C20.954541,13.979814 21.045,14.1795 21.045,14.1795 L24.012,19.182 L19.2165,19.184139 L16.974,14.973 C16.974,14.973 16.514805,14.1840195 16.23225,13.95525 C15.996546,13.7644305 15.8960475,13.6965 15.663,13.6965 C15.500781,13.6965 14.523603,13.6965 14.523603,13.6965 L14.5245,19.181103 L10.281,19.182897 L10.281,5.172861 L18.8025,5.172861 C18.8025,5.172861 22.68375,5.2428615 22.68375,8.9355 C22.68375,12.6281385 18.975,12.903 18.975,12.903 Z M17.12925,8.211828 L14.5602765,8.210172 L14.559,10.592397 L17.12925,10.591569 C17.12925,10.591569 18.3195,10.5878775 18.3195,9.3797565 C18.3195,8.1473475 17.12925,8.211828 17.12925,8.211828 Z"/>
    </g>
  </g>
</svg>
