<svg xmlns="http://www.w3.org/2000/svg" viewBox="0 0 39 39">
  <title>Scala</title>
  <g fill="none" fill-rule="evenodd">
    <circle cx="19.5" cy="19.5" r="19.5" fill="#05192D"/>
    <path fill="#FFF" fill-rule="nonzero" d="M13.292316 1.42108547e-14L13.292316 5.3169264C13.292316 5.3169264 13.292316 7.5323124 3.55271368e-15 8.861544L3.55271368e-15 3.5446176C3.55271368e-15 3.5446176 13.292316 2.215386 13.292316 1.42108547e-14M3.55271368e-15 10.6338528C3.55271368e-15 10.6338528 13.292316 9.3046212 13.292316 7.0892352L13.292316 12.4061616C13.292316 12.4061616 13.292316 14.6215476 3.55271368e-15 15.9507792L3.55271368e-15 10.6338528zM3.55271368e-15 23.0400144L3.55271368e-15 17.723088C3.55271368e-15 17.723088 13.292316 16.3938564 13.292316 14.1784704L13.292316 19.4953968C13.292316 19.4953968 13.292316 21.7107828 3.55271368e-15 23.0400144" transform="translate(13 7)"/>
  </g>
</svg>
