<svg xmlns="http://www.w3.org/2000/svg" viewBox="0 0 39 39">
  <title>Spreadsheet</title>
  <g fill="none" fill-rule="evenodd">
    <circle cx="19.5" cy="19.5" r="19.5" fill="#05192D"/>
    <path fill="#FFF" d="M19.2333134,0 C20.5057775,-2.33747856e-16 21.5373134,1.03153594 21.5373134,2.304 L21.5373134,17.4870448 C21.5373134,18.7595088 20.5057775,19.7910448 19.2333134,19.7910448 L2.304,19.7910448 C1.03153594,19.7910448 -1.62052494e-15,18.7595088 0,17.4870448 L0,2.304 C-5.99921114e-16,1.03153594 1.03153594,-6.54430563e-16 2.304,0 L19.2333134,0 Z M9.15672614,13.6791045 L3.19540299,13.6791045 C2.87728697,13.6791045 2.61940299,13.9369885 2.61940299,14.2551045 L2.61940299,14.2551045 L2.61940299,16.1362197 C2.61940299,16.4543358 2.87728697,16.7122197 3.19540299,16.7122197 L3.19540299,16.7122197 L9.15672614,16.7122197 C9.47484215,16.7122197 9.73272614,16.4543358 9.73272614,16.1362197 L9.73272614,16.1362197 L9.73272614,14.2551045 C9.73272614,13.9369885 9.47484215,13.6791045 9.15672614,13.6791045 L9.15672614,13.6791045 Z M18.470159,13.6791045 L12.5088358,13.6791045 C12.1907198,13.6791045 11.9328358,13.9369885 11.9328358,14.2551045 L11.9328358,14.2551045 L11.9328358,16.1362197 C11.9328358,16.4543358 12.1907198,16.7122197 12.5088358,16.7122197 L12.5088358,16.7122197 L18.470159,16.7122197 C18.788275,16.7122197 19.046159,16.4543358 19.046159,16.1362197 L19.046159,16.1362197 L19.046159,14.2551045 C19.046159,13.9369885 18.788275,13.6791045 18.470159,13.6791045 L18.470159,13.6791045 Z M9.15672614,8.44029851 L3.19540299,8.44029851 C2.87728697,8.44029851 2.61940299,8.69818249 2.61940299,9.01629851 L2.61940299,9.01629851 L2.61940299,10.8974138 C2.61940299,11.2155298 2.87728697,11.4734138 3.19540299,11.4734138 L3.19540299,11.4734138 L9.15672614,11.4734138 C9.47484215,11.4734138 9.73272614,11.2155298 9.73272614,10.8974138 L9.73272614,10.8974138 L9.73272614,9.01629851 C9.73272614,8.69818249 9.47484215,8.44029851 9.15672614,8.44029851 L9.15672614,8.44029851 Z M18.470159,8.44029851 L12.5088358,8.44029851 C12.1907198,8.44029851 11.9328358,8.69818249 11.9328358,9.01629851 L11.9328358,9.01629851 L11.9328358,10.8974138 C11.9328358,11.2155298 12.1907198,11.4734138 12.5088358,11.4734138 L12.5088358,11.4734138 L18.470159,11.4734138 C18.788275,11.4734138 19.046159,11.2155298 19.046159,10.8974138 L19.046159,10.8974138 L19.046159,9.01629851 C19.046159,8.69818249 18.788275,8.44029851 18.470159,8.44029851 L18.470159,8.44029851 Z M9.15672614,3.20149254 L3.19540299,3.20149254 C2.87728697,3.20149254 2.61940299,3.45937652 2.61940299,3.77749254 L2.61940299,3.77749254 L2.61940299,5.6586078 C2.61940299,5.97672381 2.87728697,6.2346078 3.19540299,6.2346078 L3.19540299,6.2346078 L9.15672614,6.2346078 C9.47484215,6.2346078 9.73272614,5.97672381 9.73272614,5.6586078 L9.73272614,5.6586078 L9.73272614,3.77749254 C9.73272614,3.45937652 9.47484215,3.20149254 9.15672614,3.20149254 L9.15672614,3.20149254 Z M18.470159,3.20149254 L12.5088358,3.20149254 C12.1907198,3.20149254 11.9328358,3.45937652 11.9328358,3.77749254 L11.9328358,3.77749254 L11.9328358,5.6586078 C11.9328358,5.97672381 12.1907198,6.2346078 12.5088358,6.2346078 L12.5088358,6.2346078 L18.470159,6.2346078 C18.788275,6.2346078 19.046159,5.97672381 19.046159,5.6586078 L19.046159,5.6586078 L19.046159,3.77749254 C19.046159,3.45937652 18.788275,3.20149254 18.470159,3.20149254 L18.470159,3.20149254 Z" transform="translate(8.731 9.604)"/>
  </g>
</svg>
