<svg xmlns="http://www.w3.org/2000/svg" xmlns:xlink="http://www.w3.org/1999/xlink" width="39" height="39"><title>Spreadsheet</title><defs><linearGradient id="b" x1="52.222%" x2="50%" y1="96.37%" y2="6.139%"><stop offset="0%" stop-color="#2DA11E"/><stop offset="100%" stop-color="#A7EB8A"/></linearGradient><circle id="a" cx="19.5" cy="19.5" r="19.5"/></defs><g fill="none" fill-rule="evenodd"><use fill="url(#b)" xlink:href="#a"/><path d="M27.964 9.604a2.304 2.304 0 012.304 2.304v15.183a2.304 2.304 0 01-2.304 2.304H11.035a2.304 2.304 0 01-2.304-2.304V11.908a2.304 2.304 0 012.304-2.304h16.93zm-10.076 13.68h-5.962a.576.576 0 00-.576.575v1.881c0 .318.258.576.576.576h5.962a.576.576 0 00.576-.576v-1.88a.576.576 0 00-.576-.577zm9.313 0H21.24a.576.576 0 00-.576.575v1.881c0 .318.258.576.576.576H27.2a.576.576 0 00.576-.576v-1.88a.576.576 0 00-.576-.577zm-9.313-5.24h-5.962a.576.576 0 00-.576.576v1.881c0 .319.258.576.576.576h5.962a.576.576 0 00.576-.576v-1.88a.576.576 0 00-.576-.577zm9.313 0H21.24a.576.576 0 00-.576.576v1.881c0 .319.258.576.576.576H27.2a.576.576 0 00.576-.576v-1.88a.576.576 0 00-.576-.577zm-9.313-5.239h-5.962a.576.576 0 00-.576.576v1.882c0 .318.258.576.576.576h5.962a.576.576 0 00.576-.576V13.38a.576.576 0 00-.576-.576zm9.313 0H21.24a.576.576 0 00-.576.576v1.882c0 .318.258.576.576.576H27.2a.576.576 0 00.576-.576V13.38a.576.576 0 00-.576-.576z" fill="#FFF"/></g></svg>