<svg xmlns="http://www.w3.org/2000/svg" xmlns:xlink="http://www.w3.org/1999/xlink" width="39" height="39"><title>SQL</title><defs><linearGradient id="b" x1="50%" x2="50%" y1="0%" y2="100%"><stop offset="0%" stop-color="#B8BCF9"/><stop offset="100%" stop-color="#988DE6"/></linearGradient><circle id="a" cx="19.5" cy="19.5" r="19.5"/></defs><g fill="none" fill-rule="evenodd"><mask id="c" fill="#fff"><use xlink:href="#a"/></mask><use fill="url(#b)" xlink:href="#a"/><path fill="#FFF" fill-rule="nonzero" d="M13.132 15.92a.5.5 0 01-.271.072.65.65 0 01-.341-.117c-.112-.07-.242-.147-.39-.23a3.127 3.127 0 00-.515-.227 2.123 2.123 0 00-.69-.1c-.24 0-.447.029-.623.087-.174.057-.32.137-.438.237a.93.93 0 00-.261.358c-.058.14-.087.296-.087.465a.79.79 0 00.171.521c.119.145.278.268.477.372.205.106.438.2.7.285.259.083.53.174.816.274.28.098.555.211.823.34.273.132.516.298.731.5.216.203.39.451.52.744.132.295.197.65.197 1.065 0 .45-.076.873-.228 1.267a2.95 2.95 0 01-.67 1.034 3.15 3.15 0 01-1.074.692c-.422.168-.904.252-1.445.252a4.755 4.755 0 01-1.788-.357 4.505 4.505 0 01-.779-.412 3.855 3.855 0 01-.648-.537l-.043-.045.032-.053.524-.878c.054-.07.12-.13.197-.178a.504.504 0 01.271-.076c.129 0 .263.052.405.153.13.093.28.195.452.305.17.11.372.21.604.3.227.088.502.133.826.133.492 0 .868-.117 1.132-.348.26-.23.391-.559.391-.995 0-.24-.058-.431-.172-.578a1.455 1.455 0 00-.477-.387 3.643 3.643 0 00-.696-.273c-.267-.077-.538-.16-.814-.25a6.993 6.993 0 01-.82-.328 2.7 2.7 0 01-.733-.508 2.326 2.326 0 01-.52-.785c-.131-.314-.196-.7-.196-1.155a2.778 2.778 0 01.846-1.994 3.092 3.092 0 011.012-.644c.4-.161.856-.242 1.366-.242.576 0 1.109.092 1.597.275.488.183.905.441 1.25.773l.043.041-.466.91a.578.578 0 01-.198.241zm7.428 7.843a5.73 5.73 0 01-.751.048 5.219 5.219 0 01-2.022-.38 4.593 4.593 0 01-1.569-1.061 4.768 4.768 0 01-1.011-1.61 5.558 5.558 0 01-.358-2.015c0-.725.12-1.397.358-2.016a4.77 4.77 0 011.011-1.609 4.593 4.593 0 011.57-1.06 5.219 5.219 0 012.02-.38c.738 0 1.41.127 2.019.383.608.256 1.13.61 1.562 1.06.433.451.77.987 1.008 1.606.239.619.358 1.291.358 2.016 0 .442-.045.865-.135 1.269-.09.404-.22.782-.389 1.134a4.748 4.748 0 01-.618.97 4.442 4.442 0 01-.76.727l2.502 2.767h-1.657c-.22 0-.421-.03-.6-.092a1.204 1.204 0 01-.503-.346l-1.376-1.542a5.187 5.187 0 01-.659.13zm2.2-5.019c0-.527-.068-.998-.205-1.414a2.979 2.979 0 00-.586-1.055 2.516 2.516 0 00-.925-.66 3.163 3.163 0 00-1.236-.23c-.46 0-.873.077-1.24.23a2.539 2.539 0 00-.931.66 2.99 2.99 0 00-.592 1.055 4.449 4.449 0 00-.209 1.414c0 .528.07.999.209 1.415.138.414.335.764.591 1.05.256.286.567.505.933.658.366.153.78.23 1.239.23.46 0 .872-.077 1.236-.23.364-.153.672-.372.925-.658a2.94 2.94 0 00.586-1.05c.137-.417.205-.888.205-1.415zm9.255 3.3v1.659h-5.797v-9.916h1.948v8.257h3.849z" mask="url(#c)"/></g></svg>