<svg xmlns="http://www.w3.org/2000/svg" xmlns:xlink="http://www.w3.org/1999/xlink" viewBox="0 0 674 670">
  <defs>
    <polygon id="practice-b" points="31.05 237.05 40.95 246.95 19.899 268 40.95 289.05 31.05 298.95 .101 268"/>
    <filter id="practice-a" width="100%" height="100%" x="0%" y="0%" filterUnits="objectBoundingBox">
      <feOffset in="SourceAlpha" result="shadowOffsetOuter1"/>
      <feColorMatrix in="shadowOffsetOuter1" values="0 0 0 0 0   0 0 0 0 0   0 0 0 0 0  0 0 0 0.5 0"/>
    </filter>
  </defs>
  <g fill="none" fill-rule="evenodd">
    <g opacity=".3" transform="translate(27)">
      <path fill="#FFF" d="M310,24 L310,38 C157.987355,38 32.5659225,151.435468 14.2902336,297.997903 L0.185328088,297.997646 C18.5388679,143.67533 150.252556,24 310,24 L310,24 Z"/>
      <polygon fill="#FFF" fill-rule="nonzero" points="318.05 .05 327.95 9.95 306.899 31 327.95 52.05 318.05 61.95 287.101 31" transform="matrix(-1 0 0 1 615.05 0)"/>
      <ellipse cx="98.071" cy="123" fill="#FFF" stroke="#05192D" stroke-width="14" rx="83.071" ry="82"/>
      <g fill="#05192D" transform="translate(43 68)">
        <path fill-rule="nonzero" d="M54.875,0 C55.2089093,0 55.542122,0.00298234744 55.874613,0.00892185825 L55.8744881,10.0109109 C55.5422029,10.0036495 55.2090276,10 54.875,10 C30.0912219,10 10,30.0912219 10,54.875 C10,79.6587781 30.0912219,99.75 54.875,99.75 C79.6587781,99.75 99.75,79.6587781 99.75,54.875 C99.75,45.9322937 97.1341716,37.6005469 92.6259296,30.6031745 L100.899166,24.9794158 C106.497365,33.5802026 109.75,43.8477545 109.75,54.875 C109.75,85.1816256 85.1816256,109.75 54.875,109.75 C24.5683744,109.75 0,85.1816256 0,54.875 C0,24.5683744 24.5683744,0 54.875,0 Z M55.025,22 C55.3089817,22 55.5921263,22.0035844 55.8743909,22.0107104 L55.8743416,32.0153747 C55.5924905,32.0051544 55.3093472,32 55.025,32 C42.3086436,32 32,42.3086436 32,55.025 C32,67.7413564 42.3086436,78.05 55.025,78.05 C67.7413564,78.05 78.05,67.7413564 78.05,55.025 C78.05,50.5615589 76.7799648,46.3947504 74.5815587,42.8662389 L82.8575055,37.2409435 C86.1443918,42.3743303 88.05,48.4771258 88.05,55.025 C88.05,73.2642039 73.2642039,88.05 55.025,88.05 C36.7857961,88.05 22,73.2642039 22,55.025 C22,36.7857961 36.7857961,22 55.025,22 Z"/>
        <circle cx="54.875" cy="54.875" r="11.875"/>
        <polygon fill-rule="nonzero" points="61 0 61 56 51 56 51 0"/>
      </g>
    </g>
    <g opacity=".3" transform="translate(0 314)">
      <path fill="#FFF" d="M39,21 C39,173.222651 153.907478,298.705134 301.998413,315.973031 L301.999239,330.064876 C146.165827,312.724314 25,180.970655 25,21 L25,21 Z"/>
      <polygon fill="#FFF" fill-rule="nonzero" points="42.05 -9.95 51.95 -.05 30.899 21 51.95 42.05 42.05 51.95 11.101 21" transform="rotate(90 10.525 0)"/>
      <ellipse cx="129" cy="233" fill="#FFF" stroke="#05192D" stroke-width="14" rx="83" ry="82"/>
      <g fill="#05192D" fill-rule="nonzero" transform="translate(80 178)">
        <path d="M4.776,58.967 L48.817,89.753 L49,89.883 L49.107,89.807 L93.346,59.053 L95.8797677,60.8339233 C98.6439224,62.781396 98.7053481,66.9070251 96.0640446,68.9513047 L95.8797677,69.0874122 L51.8797677,100.087412 C50.1527197,101.304196 47.8472803,101.304196 46.1202323,100.087412 L46.1202323,100.087412 L2.12023234,69.0874122 C-0.706744113,67.0956788 -0.706744113,62.8256567 2.12023234,60.8339233 L2.12023234,60.8339233 L4.776,58.967 Z"/>
        <path d="M46.1202323,9.91258783 L2.12023234,40.9125878 C-0.706744113,42.9043212 -0.706744113,47.0956788 2.12023234,49.0874122 L46.1202323,80.0874122 C47.8472803,81.3041959 50.1527197,81.3041959 51.8797677,80.0874122 L95.8797677,49.0874122 C98.7067441,47.0956788 98.7067441,42.9043212 95.8797677,40.9125878 L51.8797677,9.91258783 C50.1527197,8.69580406 47.8472803,8.69580406 46.1202323,9.91258783 Z M49,20.116 L84.318,45 L49,69.883 L13.681,45 L49,20.116 Z"/>
        <g transform="translate(24)">
          <path d="M41.4005319,38.9037259 L49.7935319,44.8127259 L49.9608585,45.0436804 L27.9608585,61.0436804 C26.2725412,62.2715475 24.0074825,62.3170241 22.2764437,61.1801101 L22.0791415,61.0436804 L0.304531938,45.2057259 L8.94153194,39.1247259 L25.02,50.817 L41.4005319,38.9037259 Z"/>
          <polygon points="30 0 30 52.361 20 52.361 20 0"/>
        </g>
      </g>
    </g>
    <g opacity=".3" transform="translate(370 25)">
      <path fill="#FFF" d="M0.00364056905,0.719360319 C156.797725,17.1515836 279,149.34661 279,310 L279,310 L265,310 C265,157.093082 149.057143,31.1672759 0.00250146434,14.8006704 Z"/>
      <polygon fill="#FFF" fill-rule="nonzero" points="283.05 279.05 292.95 288.95 271.899 310 292.95 331.05 283.05 340.95 252.101 310" transform="rotate(-90 272.525 310)"/>
      <ellipse cx="178.071" cy="98" fill="#FFF" stroke="#05192D" stroke-width="14" rx="83.071" ry="82"/>
      <g fill="#05192D" fill-rule="nonzero" transform="translate(140 47)">
        <path d="M38 0C17.0172448 0 0 16.9554253 0 37.880119L.00303795559 38.3619508C.170997008 51.6771553 7.2916826 63.6917667 18.4477916 70.3682057L18.541 70.423 18.5417913 86 57.5338407 86 57.533 70.376 57.782652 70.2278276C69.0036588 63.3960438 76 51.2376037 76 37.880119 76 16.9554253 58.9827552 0 38 0zM38 10C53.4680383 10 66 22.4864361 66 37.880119 66 47.7086564 60.8551278 56.6495611 52.5822907 61.6863849 51.8525903 62.1306548 51.1028554 62.5413866 50.3353414 62.9171342L47.5338407 64.2886497 47.533 76 28.541 76 28.5417913 64.3166701 25.7288017 62.9484348C16.1805747 58.3041872 10 48.6451066 10 37.880119 10 22.4864361 22.5319617 10 38 10zM54.4007714 92.4994665L48.6277714 102.499467 27.3707714 102.499467 21.5977714 92.4994665 54.4007714 92.4994665z"/>
        <path d="M16.2358988,0.692 L13.429,11.514 L27.3722305,11.5140037 L22.1888988,33.307 L11.9108988,33.307 L14.715,21.514 L0.505898817,21.5140037 L5.90489882,0.692 L16.2358988,0.692 Z" transform="translate(23 22)"/>
      </g>
    </g>
    <g transform="translate(318 371)">
      <path fill="#FF931E" d="M328.932113,0.00101985356 C311.030482,154.806678 179.092788,275 19,275 L19,275 L19,261 C171.357975,261 297.003785,147.04856 314.832658,0.00273826507 Z"/>
      <g fill-rule="nonzero">
        <use fill="#000" filter="url(#practice-a)" xlink:href="#practice-b"/>
        <use fill="#FF931E" xlink:href="#practice-b"/>
      </g>
      <g transform="translate(154 101)">
        <ellipse cx="76.071" cy="75" fill="#FF931E" stroke="#05192D" stroke-width="14" rx="83.071" ry="82"/>
        <g fill="#05192D" fill-rule="nonzero" transform="translate(29 48)">
          <g transform="translate(0 1)">
            <path d="M9.99959354,8.1550254 L10.0375935,42.8660254 L0.0315935394,37.0890254 L0.00659353945,13.9250254 L9.99959354,8.1550254 Z"/>
            <polygon points="25 0 25.04 52 15.04 52.008 15 .008"/>
          </g>
          <g transform="rotate(-180 47 26.5)">
            <path d="M10.0005935,8.577 L10.0385935,44.445 L0.0325935394,38.668 L0.00759353945,14.347 L10.0005935,8.577 Z"/>
            <polygon points="25 0 25.04 52 15.04 52.008 15 .008"/>
          </g>
          <polygon points="74 22 74 32 19 32 19 22"/>
        </g>
      </g>
    </g>
  </g>
</svg>
