<svg width="18" height="18" viewBox="0 0 18 18" xmlns="http://www.w3.org/2000/svg"><path d="M14.263 17.948H3.655c-1.602 0-2.903-1.332-2.908-2.98V2.99C.747 1.34 2.049 0 3.655 0h10.608c1.607 0 2.909 1.34 2.909 2.991v11.977c-.006 1.648-1.306 2.98-2.909 2.98zM3.655 1.82c-.629 0-1.139.524-1.139 1.171v11.977c0 .647.51 1.171 1.14 1.171h10.607c.63 0 1.14-.524 1.14-1.171V2.99c0-.647-.51-1.171-1.14-1.171H3.655zm5.91 3.985H8.343a.898.898 0 0 1-.885-.91c0-.503.396-.91.885-.91h1.22c.49 0 .885.407.885.91 0 .503-.396.91-.885.91zm2.847 3.828H5.496a.898.898 0 0 1-.885-.91c0-.502.397-.91.885-.91h6.906a.88.88 0 0 1 .766.455.932.932 0 0 1 0 .91.88.88 0 0 1-.766.455h.01zm0 3.828H5.496a.898.898 0 0 1-.885-.91c0-.502.397-.91.885-.91h6.906c.489 0 .885.408.885.91 0 .503-.396.91-.885.91h.01z" fill-rule="nonzero" /></svg>