<svg xmlns="http://www.w3.org/2000/svg" viewBox="0 0 24 24">
  <path d="M11.19 16.04v-3.598c0-.176.006-.36.017-.553l-.907.67a.603.603 0 0 1-.347.118.565.565 0 0 1-.256-.056.537.537 0 0 1-.167-.12l-.54-.636L11.489 10h1.408v7.136H11.19V16.04z"/>
  <path fill-rule="nonzero" d="M3.273 5.455v15.272h16.363V5.455H3.273zM2.182 2.182h18.545c1.205 0 2.182.977 2.182 2.182v17.454A2.182 2.182 0 0 1 20.727 24H2.182A2.182 2.182 0 0 1 0 21.818V4.364c0-1.205.977-2.182 2.182-2.182z"/>
  <rect width="3.273" height="8.358" x="5.455" rx="1.636"/>
  <rect width="3.273" height="8.358" x="14.182" rx="1.636"/>
</svg>
