<?xml version="1.0" encoding="UTF-8"?>
<svg width="24px" height="24px" viewBox="0 0 24 24" version="1.1" xmlns="http://www.w3.org/2000/svg" xmlns:xlink="http://www.w3.org/1999/xlink">
    <path d="M6.31717098,17.684079 C6.31717098,17.684079 12.0268736,16.9003698 14.4642467,14.4642467 C16.9016197,12.0281235 17.684079,6.31717098 17.684079,6.31717098 C17.684079,6.31717098 11.9731264,7.10088016 9.53700328,9.53700328 C7.10088016,11.9731264 6.31717098,17.684079 6.31717098,17.684079 Z M10.770689,10.7681892 C11.7931358,9.74574241 13.7517838,9.0182803 15.4316963,8.56580386 C14.9804698,10.2432165 14.2505078,12.2156138 13.2318108,13.2305609 C12.5530962,13.9117754 11.4494037,13.9117754 10.770689,13.2305609 C10.0894745,12.5518463 10.0894745,11.4494037 10.770689,10.7681892 Z M12.000625,0 C5.3722202,0 0,5.3722202 0,11.999375 C0,18.6277798 5.3722202,24 12.000625,24 C18.6265299,24 24,18.6277798 24,11.999375 C24,5.3722202 18.6265299,4.44066081e-15 12.000625,0 Z M11.999375,21.4988803 C6.75339826,21.4988803 2.4998698,17.2466017 2.4998698,11.999375 C2.4998698,6.75339826 6.75214833,2.4998698 11.999375,2.4998698 C17.2453518,2.4998698 21.5001302,6.75214833 21.5001302,11.999375 C21.5001302,17.2453518 17.2453518,21.4988803 11.999375,21.4988803 Z" id="Shape"></path>
</svg>