<?xml version="1.0" encoding="UTF-8"?>
<svg width="24px" height="24px" viewBox="0 0 24 24" version="1.1" xmlns="http://www.w3.org/2000/svg" xmlns:xlink="http://www.w3.org/1999/xlink">
    <path d="M4.00005008,4.02 L4.00005008,19.98 C3.99473132,21.0436341 4.4132602,22.0655873 5.16311732,22.8199481 C5.91297443,23.5743089 6.93240317,23.9989497 7.99605008,24 L16.0040501,24 C18.2166909,23.9911803 20.0044797,22.192654 20.0000501,19.98 L20.0000501,4.02 C20.0053688,2.95636587 19.58684,1.93441267 18.8369828,1.18005191 C18.0871257,0.425691146 17.067697,0.00105034916 16.0040501,0 L7.99605008,0 C5.78340923,0.00881972724 3.99562042,1.807346 4.00005008,4.02 Z M16.0040501,2 C17.1140501,2 18.0000501,2.894 18.0000501,4.02 L18.0000501,19.98 C18.0000501,21.1 17.1000501,22 16.0040501,22 L7.99605008,22 C7.46249334,22.0000386 6.95113165,21.786455 6.57611143,21.4069255 C6.20109121,21.027396 5.99363457,20.5135182 6.00005008,19.98 L6.00005008,4.02 C6.00005008,2.9 6.90005008,2 7.99605008,2 L16.0040501,2 Z M10.0000501,17 L10.0000501,19.6 L14.0000501,19.6 L14.0000501,17 L10.0000501,17 Z"></path>
</svg>