<svg width="18" height="18" viewBox="0 0 18 18" xmlns="http://www.w3.org/2000/svg"><path d="M12.575 13.914l-.002.006-.066.038-.014.008c-2.935 1.738-5.652.726-7-.023l.012.023-.38-.24-.032-.021-.296-.199-.192-.144v-.002c-1.297-.982-2.41-2.371-3.243-4.047 1.02-2.058 2.455-3.699 4.143-4.664l-.02.041c1.344-.746 4.07-1.764 7.008-.03v-.002l.018.012.076.042.002.007c1.644.972 3.047 2.577 4.048 4.593-1.004 2.021-2.411 3.63-4.062 4.602m5.318-5.126c-1.87-4.1-5.161-6.788-8.893-6.788-3.734 0-7.025 2.688-8.894 6.788-.15.366-.133.762 0 1.039 1.869 4.1 5.16 6.798 8.893 6.798 3.733 0 7.024-2.698 8.894-6.798.14-.308.145-.715 0-1.039m-8.893-1.935c-1.386 0-2.525 1.11-2.525 2.46 0 1.349 1.14 2.459 2.525 2.459 1.386 0 2.525-1.11 2.525-2.46 0-1.35-1.14-2.46-2.525-2.46" fill-rule="evenodd"/></svg>