<svg viewBox="0 0 24 24">
    <path fill-opacity="0" d="M0 0h24v24H0z"/>
    <path fill-rule="nonzero" d="M4 5.333L2.667 6.667 4 8h6.667V5.333H4zm0-2.666h6.667a2.667 2.667 0 0 1 2.666 2.666V8a2.667 2.667 0 0 1-2.666 2.667H4a2.667 2.667 0 0 1-1.886-.781L.781 8.552a2.667 2.667 0 0 1 0-3.771l1.333-1.333c.5-.5 1.179-.781 1.886-.781zm16.19 8h-6.857v2.666h6.857L21.333 12l-1.143-1.333zM13.333 16v8h-2.666V1a1 1 0 0 1 1-1h.666a1 1 0 0 1 1 1v7h6.857c.779 0 1.519.34 2.025.931l1.143 1.334a2.667 2.667 0 0 1 0 3.47l-1.143 1.334A2.667 2.667 0 0 1 20.19 16h-6.857z"/>
</svg>
