<svg xmlns="http://www.w3.org/2000/svg" width="18" height="18" viewBox="0 0 18 18"><path d="M9 0c1.63 0 3.14.41 4.52 1.24A9.2 9.2 0 0 1 18 9.23c0 2-.57 3.81-1.72 5.42a8.83 8.83 0 0 1-4.43 3.33c-.21.04-.37.01-.47-.08a.48.48 0 0 1-.15-.36 723.64 723.64 0 0 1 0-2.54c0-.77-.2-1.34-.6-1.7.44-.05.84-.12 1.2-.22s.72-.25 1.1-.47c.38-.21.7-.48.95-.8.25-.31.46-.73.62-1.26a6.2 6.2 0 0 0 .24-1.8c0-.96-.3-1.78-.92-2.48.29-.73.25-1.55-.1-2.45-.22-.07-.53-.03-.95.13-.41.16-.77.34-1.07.53l-.45.29a8.13 8.13 0 0 0-4.5 0l-.5-.33c-.2-.12-.53-.28-.98-.46-.44-.18-.77-.23-1-.16-.34.9-.38 1.72-.09 2.45a3.6 3.6 0 0 0-.92 2.47c0 .69.08 1.29.24 1.8a3.18 3.18 0 0 0 1.56 2.07c.38.22.74.38 1.1.47.35.1.75.17 1.2.22-.3.29-.5.7-.57 1.23-.17.08-.34.14-.53.19-.19.04-.41.06-.67.06-.26 0-.51-.1-.77-.26a2.1 2.1 0 0 1-.65-.75 1.92 1.92 0 0 0-.57-.63 1.7 1.7 0 0 0-.58-.29l-.23-.03a.74.74 0 0 0-.34.05c-.06.04-.08.08-.06.14.02.06.06.11.1.17l.16.14.08.06c.17.08.34.23.51.46.17.22.3.43.37.61l.12.28c.1.3.27.55.51.74.24.18.5.3.79.36a4.89 4.89 0 0 0 1.46.04l.27-.05a111.75 111.75 0 0 0 .01 1.72c0 .14-.05.26-.15.36-.1.1-.26.12-.47.08a8.83 8.83 0 0 1-4.43-3.33A9.12 9.12 0 0 1 0 9.23a9.2 9.2 0 0 1 4.48-8A8.64 8.64 0 0 1 9 0zM3.41 13.25c.02-.06 0-.1-.08-.14-.08-.03-.13-.02-.15.02-.03.06 0 .1.08.14.07.05.12.04.15-.02zm.36.4c.06-.03.05-.1-.02-.18-.08-.08-.14-.09-.19-.04-.05.04-.04.1.03.2.07.07.14.08.18.03zm.35.55c.08-.06.08-.13 0-.23-.06-.1-.12-.13-.2-.07-.06.04-.06.11 0 .21.08.1.14.14.2.09zm.5.5c.06-.06.04-.14-.05-.23-.1-.1-.17-.1-.23-.03-.07.06-.06.14.04.23.1.1.17.1.24.03zm.67.3c.02-.08-.03-.15-.16-.19-.11-.03-.19 0-.22.09-.03.08.02.14.15.18.12.04.2.02.23-.08zm.73.06c0-.1-.06-.14-.2-.13-.12 0-.18.05-.18.13 0 .1.06.15.2.14.12 0 .18-.05.18-.14zm.68-.12c-.01-.08-.08-.12-.2-.1-.13.02-.19.08-.17.18.01.1.08.12.2.1.13-.04.19-.1.17-.18z"/></svg>