<svg xmlns="http://www.w3.org/2000/svg" width="18" height="18" viewBox="0 0 18 18"><path d="M10.746 9.105c0-.203-.023-.453-.07-.75H6.434v1.547h2.543a1.748 1.748 0 0 1-.194.586c-.105.203-.252.41-.44.621-.187.211-.447.385-.779.522a2.948 2.948 0 0 1-1.13.205 2.68 2.68 0 0 1-1.98-.832A2.751 2.751 0 0 1 3.632 9c0-.781.273-1.45.82-2.004a2.68 2.68 0 0 1 1.98-.832c.72 0 1.317.23 1.794.691l1.218-1.183C8.602 4.89 7.598 4.5 6.434 4.5c-1.25 0-2.313.44-3.188 1.318-.875.88-1.312 1.94-1.312 3.182s.437 2.303 1.312 3.182S5.184 13.5 6.434 13.5c1.289 0 2.33-.41 3.123-1.23.793-.82 1.19-1.875 1.19-3.165zm4.043.54h1.277v-1.29H14.79V7.066H13.5v1.29h-1.29v1.289h1.29v1.289h1.29v-1.29zM18 3.375v11.25c0 .93-.33 1.725-.99 2.385a3.25 3.25 0 0 1-2.385.99H3.375a3.25 3.25 0 0 1-2.385-.99A3.25 3.25 0 0 1 0 14.625V3.375C0 2.445.33 1.65.99.99A3.25 3.25 0 0 1 3.375 0h11.25c.93 0 1.725.33 2.385.99.66.66.99 1.455.99 2.385z"/></svg>