<svg width="18" height="18" viewBox="0 0 18 18" xmlns="http://www.w3.org/2000/svg"><path d="M11.413 13.649a.907.907 0 0 1-.907-.908c0-1.87 1.435-3.144 1.496-3.198a4.464 4.464 0 0 0 1.34-3.212 4.522 4.522 0 0 0-4.517-4.516h-.493A4.522 4.522 0 0 0 3.815 6.33c0 1.233.488 2.386 1.374 3.244.026.022 1.461 1.296 1.461 3.166a.907.907 0 1 1-1.814 0c0-1.034-.871-1.827-.88-1.835C2.684 9.674 2 8.06 2 6.331 2 2.841 4.84 0 8.332 0h.493a6.338 6.338 0 0 1 6.33 6.331 6.285 6.285 0 0 1-1.924 4.547c-.04.036-.91.829-.91 1.863 0 .501-.406.908-.908.908zm.567 1.024a3.327 3.327 0 0 1-6.653 0h6.653zm-3.393-1.026a.907.907 0 0 1-.907-.908V7.391a.907.907 0 1 1 1.814 0v5.348c0 .501-.406.908-.907.908z"  fill-rule="evenodd"/></svg>