<svg height="24" viewBox="0 0 24 24" width="24" xmlns="http://www.w3.org/2000/svg"><g transform="translate(4.000000, 0.000000)" fill-rule="nonzero"><path d="M14.133 0H1.864A1.87 1.87 0 0 0 0 1.867v20.266A1.87 1.87 0 0 0 1.864 24h12.27A1.874 1.874 0 0 0 16 22.133V1.867A1.872 1.872 0 0 0 14.133 0zM4 14.667c.919 0 1.667.596 1.667 1.333S4.919 17.333 4 17.333c-.92 0-1.667-.596-1.667-1.333S3.08 14.667 4 14.667zM2.333 12c0-.737.747-1.333 1.667-1.333.919 0 1.667.596 1.667 1.333S4.919 13.333 4 13.333c-.92 0-1.667-.596-1.667-1.333zM4 18.667c.919 0 1.667.596 1.667 1.333S4.919 21.333 4 21.333c-.92 0-1.667-.596-1.667-1.333S3.08 18.667 4 18.667zm4-4c.919 0 1.667.596 1.667 1.333S8.919 17.333 8 17.333c-.92 0-1.667-.596-1.667-1.333S7.08 14.667 8 14.667zM6.333 12c0-.737.747-1.333 1.667-1.333.919 0 1.667.596 1.667 1.333S8.919 13.333 8 13.333c-.92 0-1.667-.596-1.667-1.333zM8 18.667c.919 0 1.667.596 1.667 1.333S8.919 21.333 8 21.333c-.92 0-1.667-.596-1.667-1.333S7.08 18.667 8 18.667zm4-4c.919 0 1.667.596 1.667 1.333s-.748 1.333-1.667 1.333c-.92 0-1.667-.596-1.667-1.333s.747-1.333 1.667-1.333zM10.333 12c0-.737.747-1.333 1.667-1.333.919 0 1.667.596 1.667 1.333s-.748 1.333-1.667 1.333c-.92 0-1.667-.596-1.667-1.333zM12 18.667c.919 0 1.667.596 1.667 1.333s-.748 1.333-1.667 1.333c-.92 0-1.667-.596-1.667-1.333s.747-1.333 1.667-1.333zM1.333 8V4h13.334v4H1.333z"></path></g></svg>