<svg width="18" height="18" viewBox="0 0 18 18" xmlns="http://www.w3.org/2000/svg"><path d="M11.715 2.44l.501-.502a1.775 1.775 0 0 1 2.462.015l1.365 1.365a1.75 1.75 0 0 1-.001 2.476l-.492.491h.7A1.754 1.754 0 0 1 18 8.035v1.933a1.753 1.753 0 0 1-1.752 1.747h-.69l.49.488a1.75 1.75 0 0 1 0 2.478l-1.379 1.377a1.775 1.775 0 0 1-2.463-.014l-.491-.492v.7A1.754 1.754 0 0 1 9.965 18h-1.93a1.751 1.751 0 0 1-1.75-1.752v-.69l-.501.5a1.775 1.775 0 0 1-2.463-.014l-1.258-1.26-.109-.107a1.75 1.75 0 0 1 .005-2.473l.491-.492h-.703A1.754 1.754 0 0 1 0 9.962v-1.93a1.753 1.753 0 0 1 1.753-1.747h.69l-.49-.49a1.75 1.75 0 0 1 0-2.476L3.33 1.941a1.775 1.775 0 0 1 2.462.015l.492.491v-.7A1.754 1.754 0 0 1 8.035 0h1.933a1.753 1.753 0 0 1 1.747 1.752v.688zm1.958 9.987a1.498 1.498 0 0 1 1.062-2.549h1.428V8.122h-1.428a1.5 1.5 0 0 1-1.06-2.559l1.008-1.008-1.243-1.243-.996.995a1.48 1.48 0 0 1-1.071.455 1.534 1.534 0 0 1-1.041-.418 1.467 1.467 0 0 1-.454-1.08V1.837H8.122V3.26a1.498 1.498 0 0 1-2.558 1.063L4.555 3.315 3.312 4.558l1.015 1.014a1.5 1.5 0 0 1-1.062 2.55H1.837v1.753h1.43a1.501 1.501 0 0 1 1.059 2.558l-1.008 1.009 1.242 1.243.996-.995c.279-.29.664-.454 1.062-.454a1.497 1.497 0 0 1 1.504 1.494v1.433h1.756V14.74a1.498 1.498 0 0 1 2.558-1.063l1.009 1.01 1.243-1.244-1.015-1.015zM9 11.204a2.204 2.204 0 1 1 0-4.408 2.204 2.204 0 0 1 0 4.408z"  fill-rule="evenodd"/></svg>