<svg viewBox="0 0 18 18" version="1.1" xmlns="http://www.w3.org/2000/svg" xmlns:xlink="http://www.w3.org/1999/xlink">
    <path d="M1.5,4.5 L1.5,13.5 L16.5,13.5 L16.5,4.5 L1.5,4.5 Z M1.5,3 L16.5,3 C17.3284271,3 18,3.67157287 18,4.5 L18,13.5 C18,14.3284271 17.3284271,15 16.5,15 L1.5,15 C0.671572875,15 1.01453063e-16,14.3284271 0,13.5 L0,4.5 C-1.01453063e-16,3.67157287 0.671572875,3 1.5,3 Z M10.9069051,11.6152272 C10.9744591,11.5351274 11.0030566,11.4292157 10.985,11.326 L10.704,9.69 L11.893,8.53 C11.9894572,8.43560836 12.0240498,8.29468697 11.982264,8.1663603 C11.9404783,8.03803363 11.8295424,7.94449921 11.696,7.925 L10.053,7.687 L9.318,6.197 C9.25753252,6.07684903 9.13450863,6.0010375 9,6.0010375 C8.86549137,6.0010375 8.74246748,6.07684903 8.682,6.197 L7.947,7.687 L6.304,7.925 C6.17002498,7.94421475 6.05863276,8.03793812 6.01678963,8.16665356 C5.97494649,8.295369 6.00993385,8.43667781 6.107,8.531 L7.296,9.69 L7.016,11.326 C6.99356085,11.4588337 7.04824229,11.5929231 7.15717335,11.6721842 C7.26610442,11.7514453 7.41051338,11.7622194 7.53,11.7 L9,10.928 L10.47,11.7 C10.522,11.727 10.578,11.741 10.635,11.741 C10.7397825,11.7413835 10.8393511,11.6953269 10.9069051,11.6152272 Z"  fill-rule="nonzero"></path>
</svg>
