<svg viewBox="0 0 18 18" version="1.1" xmlns="http://www.w3.org/2000/svg" xmlns:xlink="http://www.w3.org/1999/xlink">
    <path d="M1.5,4.5 L1.5,13.5 L16.5,13.5 L16.5,4.5 L1.5,4.5 Z M1.5,3 L16.5,3 C17.3284271,3 18,3.67157288 18,4.5 L18,13.5 C18,14.3284271 17.3284271,15 16.5,15 L1.5,15 C0.671572875,15 1.01453063e-16,14.3284271 0,13.5 L0,4.5 C-1.01453063e-16,3.67157288 0.671572875,3 1.5,3 Z M6.968,6.161 L6.968,7.136 L4.725,7.136 L4.725,8.52 L6.593,8.52 L6.593,9.499 L4.724,9.499 L4.724,11.625 L3.45,11.625 L3.45,6.161 L6.968,6.161 Z M9.015,11.625 L7.74,11.625 L7.74,6.161 L9.015,6.161 L9.015,11.625 Z M10.695,6.161 C10.75,6.161 10.796,6.164 10.834,6.169 C10.9041107,6.17732777 10.9698535,6.20740162 11.022,6.255 C11.0553091,6.28646485 11.0863845,6.32021332 11.115,6.356 L13.71,9.637 C13.6917392,9.44251145 13.6817302,9.24733628 13.68,9.052 L13.68,6.162 L14.797,6.162 L14.797,11.625 L14.137,11.625 C14.0524326,11.6273477 13.9683059,11.612021 13.89,11.58 C13.8125199,11.5417206 13.7455757,11.4850755 13.695,11.415 L11.119,8.16 C11.126,8.255 11.133,8.348 11.137,8.44 C11.142,8.53 11.145,8.616 11.145,8.696 L11.145,11.625 L10.028,11.625 L10.028,6.161 L10.695,6.161 Z" fill-rule="nonzero"></path>
</svg>
