<svg viewBox="0 0 18 18"><path d="M10 1a1 1 0 0 0-2 0v2a1 1 0 0 0 2 0V1z"/><path d="M13.866 2.572a1 1 0 0 0-1.732-1l-1 1.732a1 1 0 0 0 1.732 1l1-1.732z" opacity=".45"/><path d="M16.428 5.866a1 1 0 0 0-1-1.732l-1.732 1a1 1 0 0 0 1 1.732l1.732-1z" opacity=".5"/><path d="M17 10a1 1 0 0 0 0-2h-2a1 1 0 0 0 0 2h2z" opacity=".55"/><path d="M15.428 13.866a1 1 0 0 0 1-1.732l-1.732-1a1 1 0 0 0-1 1.732l1.732 1z" opacity=".6"/><path d="M12.134 16.428a1 1 0 0 0 1.732-1l-1-1.732a1 1 0 0 0-1.732 1l1 1.732z" opacity=".65"/><path d="M8 17a1 1 0 0 0 2 0v-2a1 1 0 0 0-2 0v2z" opacity=".7"/><path d="M4.134 15.428a1 1 0 0 0 1.732 1l1-1.732a1 1 0 0 0-1.732-1l-1 1.732z" opacity=".75"/><path d="M1.572 12.134a1 1 0 0 0 1 1.732l1.732-1a1 1 0 0 0-1-1.732l-1.732 1z" opacity=".8"/><path d="M1 8a1 1 0 0 0 0 2h2a1 1 0 0 0 0-2H1z" opacity=".85"/><path d="M2.572 4.134a1 1 0 0 0-1 1.732l1.732 1a1 1 0 0 0 1-1.732l-1.732-1z" opacity=".9"/><path d="M5.866 1.572a1 1 0 0 0-1.732 1l1 1.732a1 1 0 0 0 1.732-1l-1-1.732z" opacity=".95"/></svg>
