<svg width="18" height="18" viewBox="0 0 18 18" xmlns="http://www.w3.org/2000/svg"><path d="M2.809 6.22A7.6 7.6 0 0 1 6.013 2.61a7.6 7.6 0 0 1 4.706-.973A2.944 2.944 0 0 1 14.432.591c1.478.69 2.122 2.436 1.439 3.9-.01.024-.022.047-.033.07.184.243.355.501.512.773 1.372 2.377 1.29 5.198.03 7.443a2.92 2.92 0 0 1 .236 2.879c-.683 1.465-2.434 2.094-3.912 1.405a2.965 2.965 0 0 1-.924-.672c-3.254.916-6.824-.426-8.578-3.464a7.536 7.536 0 0 1-.423-.852 2.967 2.967 0 0 1-1.047-.272C.255 11.11-.389 9.365.294 7.9a2.923 2.923 0 0 1 2.515-1.682zm1.655.41c1.293.763 1.823 2.389 1.18 3.766a2.896 2.896 0 0 1-1.188 1.293c.063.132.132.263.207.392 1.31 2.269 3.921 3.321 6.367 2.772a2.896 2.896 0 0 1 .235-1.692c.664-1.424 2.337-2.058 3.787-1.46a5.835 5.835 0 0 0-.4-5.9 2.956 2.956 0 0 1-2.693.096 2.954 2.954 0 0 1-1.711-2.62 5.912 5.912 0 0 0-3.399.783 5.912 5.912 0 0 0-2.385 2.57z" fill-rule="nonzero" /></svg>