<svg viewBox="0 0 18 18" xmlns="http://www.w3.org/2000/svg"><path d="M7.072 14.275c.532 0 .963-.416.963-.93v-4.965c0-.333-.184-.64-.482-.806-.298-.166-.666-.166-.964 0-.298.166-.482.474-.482.806v4.965c0 .513.432.93.963.93h.002zm3.856 0c.256 0 .501-.097.682-.272.181-.174.283-.411.283-.658v-4.965c0-.514-.432-.931-.964-.931s-.964.417-.964.931v4.965c0 .513.43.93.963.93zm3.054 1.181c0 .375-.317.683-.705.683h-8.554c-.39 0-.707-.306-.707-.683v-9.559h9.966v9.559zm-6.222-12.93c0-.366.309-.664.688-.664h1.103c.379 0 .688.299.688.666v1.508h-2.48v-1.51zm9.275 1.509h-4.864v-1.508c-.002-1.395-1.176-2.528-2.619-2.528h-1.103c-1.442 0-2.616 1.134-2.616 2.528v1.508h-4.869c-.532 0-.964.417-.964.931s.432.931.964.931h1.125v9.559c0 1.402 1.181 2.544 2.635 2.544h8.553c1.453 0 2.633-1.14 2.633-2.544v-9.559h1.126c.532 0 .964-.417.964-.931s-.432-.931-.964-.931z"/></svg>