<svg width="18" height="18" viewBox="0 0 18 18" xmlns="http://www.w3.org/2000/svg"><path d="M18 3.738a7.347 7.347 0 0 1-2.12.584 3.722 3.722 0 0 0 1.623-2.05 7.423 7.423 0 0 1-2.347.9A3.674 3.674 0 0 0 12.461 2 3.701 3.701 0 0 0 8.77 5.709c0 .29.032.574.095.845a10.467 10.467 0 0 1-7.61-3.876 3.695 3.695 0 0 0-.5 1.865c0 1.287.653 2.422 1.643 3.087a3.68 3.68 0 0 1-1.673-.466v.047a3.71 3.71 0 0 0 2.962 3.637c-.31.084-.636.13-.973.13-.238 0-.47-.023-.695-.069a3.697 3.697 0 0 0 3.448 2.577A7.387 7.387 0 0 1 .881 15.07c-.298 0-.592-.018-.881-.05a10.402 10.402 0 0 0 5.66 1.669c6.793 0 10.505-5.653 10.505-10.555l-.012-.48A7.393 7.393 0 0 0 18 3.738z" fill-rule="nonzero" /></svg>