<svg width="18" height="18" viewBox="0 0 18 18" xmlns="http://www.w3.org/2000/svg"><path d="M9 0C4.528 0 0 1.243 0 3.62v10.76C0 16.757 4.528 18 9 18s9-1.243 9-3.62V3.62C18 1.243 13.474 0 9 0zm7.372 9c0 .711-2.8 2.016-7.372 2.016S1.628 9.711 1.628 9V5.791C3.343 6.751 6.184 7.246 9 7.246s5.652-.5 7.372-1.46V9zM9 1.604c4.566 0 7.372 1.305 7.372 2.016 0 .712-2.806 2.016-7.372 2.016S1.628 4.332 1.628 3.62c0-.71 2.8-2.016 7.372-2.016zm0 14.794c-4.572 0-7.372-1.307-7.372-2.018V11.17c1.715.96 4.556 1.455 7.372 1.455s5.652-.5 7.372-1.46v3.208c0 .717-2.806 2.024-7.372 2.024z" fill-rule="nonzero" /></svg>