<svg xmlns="http://www.w3.org/2000/svg" width="18" height="18" viewBox="0 0 18 18"><path d="M6.757 12l6-3.48-6-3.52v7zM9 2c1.124 0 2.209.015 3.256.046a64.11 64.11 0 0 1 2.303.098l.732.041.17.017c.108.01.184.02.231.03l.236.047c.11.02.206.048.286.082.08.035.174.08.281.134.107.055.21.123.311.201.169.134.319.29.447.465.063.085.16.287.29.604.13.315.22.663.266 1.041.054.44.096.91.126 1.41.03.498.048.888.055 1.17V9.2c.006 1-.054 2-.18 2.993-.047.378-.131.72-.251 1.026-.12.306-.228.518-.322.634l-.14.176c-.094.103-.19.195-.291.274-.1.079-.204.144-.311.195a7.83 7.83 0 0 1-.281.13 1.42 1.42 0 0 1-.286.082l-.24.046c-.131.02-.264.036-.396.047-1.68.131-3.777.196-6.292.196-1.203-.01-2.405-.033-3.607-.067a76.065 76.065 0 0 1-2.012-.077l-.491-.041-.362-.041a4.645 4.645 0 0 1-.546-.103 3.036 3.036 0 0 1-.512-.218 2.02 2.02 0 0 1-.723-.614c-.063-.085-.16-.287-.29-.604a4.017 4.017 0 0 1-.267-1.041 23.363 23.363 0 0 1-.126-1.41c-.024-.39-.042-.78-.054-1.17V7.8c-.006-1 .054-2 .18-2.993.047-.378.131-.72.251-1.026.12-.306.228-.518.322-.634l.14-.177c.094-.104.19-.196.291-.275.1-.079.204-.146.311-.2.107-.056.2-.1.281-.134a1.33 1.33 0 0 1 .286-.083c.11-.02.189-.036.236-.047.047-.01.123-.02.23-.03l.172-.016C4.388 2.062 6.485 2 9 2z"/></svg>