<svg xmlns="http://www.w3.org/2000/svg" width="18" height="18" viewBox="0 0 18 18">
  <title>Attention</title>
  <g fill="none" fill-rule="evenodd" stroke="none" stroke-width="1">
    <path fill="#3AC" fill-rule="evenodd" clip-rule="evenodd" d="m10.869 1.647 6.875 12.663v.021a2.122 2.122 0 0 1-.042 2.093 2.12 2.12 0 0 1-1.821 1.033H2.131a2.122 2.122 0 0 1-1.835-1.038 2.106 2.106 0 0 1-.028-2.109L7.149 1.647A2.128 2.128 0 0 1 9.01.542c.381 0 .754.103 1.082.297.326.195.595.474.777.808zM8.02 5.531a.994.994 0 1 1 1.99 0v4.57a.995.995 0 1 1-1.99 0v-4.57zm1.021 8.961a1.144 1.144 0 0 1-1.054-.704 1.143 1.143 0 0 1 .247-1.243 1.14 1.14 0 0 1 1.947.807 1.14 1.14 0 0 1-1.14 1.14z"/>
  </g>
</svg>
