<svg xmlns="http://www.w3.org/2000/svg" width="18" height="18" viewBox="0 0 18 18">
  <title>Checkmark</title>
  <g fill="none" fill-rule="evenodd" stroke="none" stroke-width="1">
    <path fill="#3AC" d="M9,18 C4.02943725,18 0,13.9705627 0,9 C0,4.02943725 4.02943725,0 9,0 C13.9705627,0 18,4.02943725 18,9 C18,13.9705627 13.9705627,18 9,18 Z M11.3262618,6.03930325 L7.97135329,10.1830714 L6.62902515,8.62738264 C6.26822892,8.2092385 5.63677298,8.16274883 5.21862884,8.52354507 C4.8004847,8.8843413 4.75399503,9.51579724 5.11479126,9.93394138 L7.23865597,12.3953905 C7.64582858,12.8672825 8.38078461,12.8557707 8.77297839,12.3713581 L12.8806728,7.29779704 C13.2281962,6.86855832 13.1619529,6.23886814 12.7327142,5.89134468 C12.3034755,5.54382121 11.6737853,5.61006452 11.3262618,6.03930325 Z"/>
  </g>
</svg>
