<svg xmlns="http://www.w3.org/2000/svg" width="18" height="18" viewBox="0 0 18 18">
  <title>Clock</title>
  <g fill="none" fill-rule="evenodd" stroke="none" stroke-width="1">
    <path fill="#3AC" d="M8.97933369,10.0266331 L12,10.0266331 C12.5522847,10.0266331 13,9.57891783 13,9.02663308 C13,8.47434833 12.5522847,8.02663308 12,8.02663308 L9.98447927,8.02663308 L9.99998683,5.00513234 C10.0028213,4.45285486 9.55740981,4.00284768 9.00513234,4.00001317 C8.45285486,3.99717866 8.00284768,4.44259019 8.00001317,4.99486766 L7.97934686,9.02150075 C7.97651235,9.57377822 8.42192388,10.0237854 8.97420136,10.0266199 C8.97591312,10.0266287 8.9776239,10.0266332 8.97933369,10.0266334 Z M9,18 C4.02943725,18 0,13.9705627 0,9 C0,4.02943725 4.02943725,0 9,0 C13.9705627,0 18,4.02943725 18,9 C18,13.9705627 13.9705627,18 9,18 Z"/>
  </g>
</svg>
