<svg xmlns="http://www.w3.org/2000/svg" width="18" height="18" viewBox="0 0 18 18">
  <title>Cog</title>
  <g fill="none" fill-rule="evenodd" stroke="none" stroke-width="1">
    <path fill="#3AC" d="M7.3875978,18 C6.06314469,17.7643093 4.83736557,17.2434142 3.77602775,16.5030821 L3.59151243,15.2636039 C3.52569168,14.8214542 3.17854582,14.4743083 2.73639614,14.4084876 L1.49691785,14.2239723 C0.756585771,13.1626344 0.235690726,11.9368553 0,10.6124022 L0.746585001,9.60465853 C1.01268974,9.2454692 1.01268974,8.7545308 0.746585001,8.39534147 L0,7.3875978 C0.235690726,6.06314469 0.756585771,4.83736557 1.49691785,3.77602775 L2.73639614,3.59151243 C3.17854582,3.52569168 3.52569168,3.17854582 3.59151243,2.73639614 L3.77602775,1.49691785 C4.83736557,0.756585771 6.06314469,0.235690726 7.3875978,0 L8.39534147,0.746585001 C8.7545308,1.01268974 9.2454692,1.01268974 9.60465853,0.746585001 L10.6124022,0 C11.9368553,0.235690726 13.1626344,0.756585771 14.2239723,1.49691785 L14.4084876,2.73639614 C14.4743083,3.17854582 14.8214542,3.52569168 15.2636039,3.59151243 L16.5030821,3.77602775 C17.2434142,4.83736557 17.7643093,6.06314469 18,7.3875978 L17.253415,8.39534147 C16.9873103,8.7545308 16.9873103,9.2454692 17.253415,9.60465853 L18,10.6124022 C17.7643093,11.9368553 17.2434142,13.1626344 16.5030821,14.2239723 L15.2636039,14.4084876 C14.8214542,14.4743083 14.4743083,14.8214542 14.4084876,15.2636039 L14.2239723,16.5030821 C13.1626344,17.2434142 11.9368553,17.7643093 10.6124022,18 L9.60465853,17.253415 C9.2454692,16.9873103 8.7545308,16.9873103 8.39534147,17.253415 L7.3875978,18 Z M9,13.062997 C11.2439313,13.062997 13.062997,11.2439313 13.062997,9 C13.062997,6.75606871 11.2439313,4.93700298 9,4.93700298 C6.75606871,4.93700298 4.93700298,6.75606871 4.93700298,9 C4.93700298,11.2439313 6.75606871,13.062997 9,13.062997 Z"/>
  </g>
</svg>
