<svg xmlns="http://www.w3.org/2000/svg" width="18" height="18" viewBox="0 0 18 18">
  <title>Group</title>
  <g fill="none" fill-rule="evenodd" stroke="none" stroke-width="1">
    <path fill="#3AC" d="M2,18 C1.33333333,18 1,17.6666667 1,17 L1,12 C1,10.3431458 2.34314575,9 4,9 L8,9 C9.65685425,9 11,10.3431458 11,12 L11,17 C11,17.6666667 10.6667473,18 10.0002419,18 C9.00048372,18 3,18 2,18 Z M13,18 C12.3333333,18 12,17.6666667 12,17 C12,14.1474719 12,12.4808053 12,12 C12,11.3333333 12.3333333,11 13,11 L14,11 C15.6568542,11 17,12.3431458 17,14 L17,17 C17,17.6666667 16.6667473,18 16.0002419,18 C15.0004837,18 13.5522847,18 13,18 Z M6,8 C3.790861,8 2,6.209139 2,4 C2,1.790861 3.790861,0 6,0 C8.209139,0 10,1.790861 10,4 C10,6.209139 8.209139,8 6,8 Z M14,10 C12.3431458,10 11,8.65685425 11,7 C11,5.34314575 12.3431458,4 14,4 C15.6568542,4 17,5.34314575 17,7 C17,8.65685425 15.6568542,10 14,10 Z"/>
  </g>
</svg>
