<svg xmlns="http://www.w3.org/2000/svg" width="18" height="18" viewBox="0 0 18 18">
  <title>Heart</title>
  <g fill="none" fill-rule="evenodd" stroke="none" stroke-width="1">
    <path fill="#3AC" d="M9,4.34321183 C9.41797162,3.70599534 9.88715421,3.20851765 10.4075478,2.85077876 C11.1881381,2.31417043 12.1342186,2 13.1538462,2 C15.830303,2 18,4.16472489 18,6.83504837 C18,8.49428905 17.1622969,9.95832207 15.8858351,10.8291172 L9.62089407,15.7841363 C9.25713463,16.0718382 8.742763,16.0719671 8.37885874,15.7844476 L2.05639705,10.789093 C0.812488514,9.91387361 0,8.46912698 0,6.83504837 C0,4.16472489 2.16969698,2 4.84615385,2 C5.86578136,2 6.81186189,2.31417043 7.59245223,2.85077876 C8.11284579,3.20851765 8.58202838,3.70599534 9,4.34321183 Z"/>
  </g>
</svg>
