<svg xmlns="http://www.w3.org/2000/svg" width="18" height="18" viewBox="0 0 18 18">
  <title>Hidden</title>
  <g fill="none" fill-rule="evenodd" stroke="none" stroke-width="1">
    <path fill="#3AC" d="M6.22722938,15.4504402 L16.1235632,5.55410632 C17.265217,6.74863152 18,8.02415368 18,9 C18,11.5092721 13.1416171,16 9,16 C8.08485123,16 7.1421842,15.7965651 6.22722938,15.4504402 Z M1.96659402,12.6400077 C0.771198525,11.4225274 0,10.0819761 0,9 C0,6.30319478 4.79104267,2 9,2 C9.96870066,2 10.9766131,2.24567221 11.9524002,2.65420149 L1.96659402,12.6400077 Z M14.0208153,2.70710678 C14.4113396,2.31658249 15.0445046,2.31658249 15.4350288,2.70710678 C15.8255531,3.09763107 15.8255531,3.73079605 15.4350288,4.12132034 L4.12132034,15.4350288 C3.73079605,15.8255531 3.09763107,15.8255531 2.70710678,15.4350288 C2.31658249,15.0445046 2.31658249,14.4113396 2.70710678,14.0208153 L14.0208153,2.70710678 Z"/>
  </g>
</svg>
