<svg xmlns="http://www.w3.org/2000/svg" width="18" height="18" viewBox="0 0 18 18">
  <title>Microphone</title>
  <g fill="none" fill-rule="evenodd" stroke="none" stroke-width="1">
    <path fill="#3AC" d="M8,16 L8,14.9290775 C4.46143723,14.4272711 1.5,11.3357669 1.5,8 C1.5,7.44771525 1.94771525,7 2.5,7 C3.05228475,7 3.5,7.44771525 3.5,8 C3.5,10.5167899 6.11912831,13 9,13 C11.8808717,13 14.5,10.5167899 14.5,8 C14.5,7.44771525 14.9477153,7 15.5,7 C16.0522847,7 16.5,7.44771525 16.5,8 C16.5,11.3357669 13.5385628,14.4272711 10,14.9290775 L10,16 L11.5,16 C12.0522847,16 12.5,16.4477153 12.5,17 C12.5,17.5522847 12.0522847,18 11.5,18 L6.5,18 C5.94771525,18 5.5,17.5522847 5.5,17 C5.5,16.4477153 5.94771525,16 6.5,16 L8,16 Z M9,0 C10.9329966,0 12.5,1.56700338 12.5,3.5 L12.5,7.5 C12.5,9.43299662 10.9329966,11 9,11 C7.06700338,11 5.5,9.43299662 5.5,7.5 L5.5,3.5 C5.5,1.56700338 7.06700338,0 9,0 Z"/>
  </g>
</svg>
