<svg xmlns="http://www.w3.org/2000/svg" width="18" height="18" viewBox="0 0 18 18">
  <title>Mute</title>
  <g fill="none" fill-rule="evenodd" stroke="none" stroke-width="1">
    <path fill="#3AC" d="M1.00542181,4.65882745 L4.02168725,4.65882745 L7.33243392,1.29885933 C7.72507556,0.900380222 8.36167344,0.900380222 8.75431508,1.29885933 C8.94286824,1.49021575 9.04879631,1.74975075 9.04879631,2.02036959 L9.04879631,15.9796304 C9.04879631,16.543165 8.59865363,17 8.0433745,17 C7.80436444,17 7.57317159,16.9135884 7.39125465,16.7562609 L4.02168725,13.8421538 L1.00542181,13.8421538 C0.450142678,13.8421538 2.14703792e-14,13.3853188 2.14703792e-14,12.8217842 L-7.10542736e-15,5.67919705 C-7.10542736e-15,5.11566248 0.450142678,4.65882745 1.00542181,4.65882745 Z M13.0845126,9 L11.2909686,7.20735117 C10.9003843,6.8169619 10.9001655,6.18379696 11.2904798,5.7931377 C11.6807941,5.40247843 12.3138374,5.40225956 12.7044216,5.79264883 L14.4989436,7.58627505 L16.2934655,5.79264883 C16.6840498,5.40225956 17.3170931,5.40247843 17.7074074,5.7931377 C18.0977217,6.18379696 18.0975028,6.8169619 17.7069186,7.20735117 L15.9133745,9 L17.7069186,10.7926488 C18.0975028,11.1830381 18.0977217,11.816203 17.7074074,12.2068623 C17.3170931,12.5975216 16.6840498,12.5977404 16.2934655,12.2073512 L14.4989436,10.4137249 L12.7044216,12.2073512 C12.3138374,12.5977404 11.6807941,12.5975216 11.2904798,12.2068623 C10.9001655,11.816203 10.9003843,11.1830381 11.2909686,10.7926488 L13.0845126,9 Z"/>
  </g>
</svg>
