<svg xmlns="http://www.w3.org/2000/svg" width="18" height="18" viewBox="0 0 18 18">
  <title>Rocket</title>
  <g fill="none" fill-rule="evenodd" stroke="none" stroke-width="1">
    <path fill="#3AC" fill-rule="evenodd" clip-rule="evenodd" d="M14.265 10.741a3.654 3.654 0 0 1-1.032 3.11l-1.279 1.279c-2.194 2.194-2.537 1.851-3.083-.934l-.467-2.335c-.522-.283-.952-.588-1.294-.93-.341-.341-.646-.77-.93-1.293L3.847 9.17C1.02 8.585.718 8.28 2.912 6.088l1.29-1.29a3.653 3.653 0 0 1 3.074-1.036c.103.014.257.074.4.13.13.052.253.1.324.108C9.964 2.291 12.858.54 15.733.388a1.827 1.827 0 0 1 1.92 1.92C17.503 5.193 15.719 8.035 14 10c.008.066.063.196.12.335.064.15.131.311.145.406Zm-1.25-3.671a1.37 1.37 0 1 1-1.937-1.937 1.37 1.37 0 0 1 1.938 1.937ZM2.47 11.108a1.467 1.467 0 0 1 1.618.376l2.204 2.111.024.024c.46.38.654 1.017.451 1.606l-.598 1.742c-.203.588-1.052.558-1.353-.049l-.546-1.1-2.62 1.55c-.634.43-1.505-.404-1.102-1.055l1.436-2.685-1.122-.498c-.62-.275-.686-1.122-.106-1.35l1.714-.672Z" />
  </g>
</svg>
