<svg xmlns="http://www.w3.org/2000/svg" width="18" height="18" viewBox="0 0 18 18">
  <title>Trash</title>
  <g fill="none" fill-rule="evenodd" stroke="none" stroke-width="1">
    <path fill="#3AC" d="M6,4 L6,2 C6,0.8954305 6.8954305,0 8,0 L10,0 C11.1045695,0 12,0.8954305 12,2 L12,4 L17,4 C17.5522847,4 18,4.44771525 18,5 C18,5.55228475 17.5522847,6 17,6 L16,6 L16,16 C16,17.1045695 15.1045695,18 14,18 L4,18 C2.8954305,18 2,17.1045695 2,16 L2,6 L1,6 C0.44771525,6 0,5.55228475 0,5 C0,4.44771525 0.44771525,4 1,4 L6,4 Z M8,4 L10,4 L10,2 L8,2 L8,4 Z M16,5 L17,5 L16,5 L16,5 Z M2,5 L1,5 L2,5 L2,5 Z M7,8 C6.44771525,8 6,8.44771525 6,9 L6,13 C6,13.5522847 6.44771525,14 7,14 C7.55228475,14 8,13.5522847 8,13 L8,9 C8,8.44771525 7.55228475,8 7,8 Z M11,8 C10.4477153,8 10,8.44771525 10,9 L10,13 C10,13.5522847 10.4477153,14 11,14 C11.5522847,14 12,13.5522847 12,13 L12,9 C12,8.44771525 11.5522847,8 11,8 Z"/>
  </g>
</svg>
