<svg xmlns="http://www.w3.org/2000/svg" width="18" height="18" viewBox="0 0 18 18">
  <title>Verified</title>
  <g fill="none" fill-rule="evenodd" stroke="none" stroke-width="1">
    <path fill="#3AC" fill-rule="evenodd" clip-rule="evenodd" d="M16.217 1.826 9 0 1.783 1.826A1 1 0 0 0 1 2.802V9.79a5.998 5.998 0 0 0 2.672 4.991L9 18l5.328-3.219A6 6 0 0 0 17 9.789V2.802a1 1 0 0 0-.783-.976zm-3.356 3.397a1 1 0 0 0-1.406.148L8.099 9.515 6.757 7.959a1 1 0 1 0-1.514 1.306l2.124 2.461a1 1 0 0 0 1.534-.024l4.108-5.074a.999.999 0 0 0-.148-1.405z" />
  </g>
</svg>
